G04 (created by PCBNEW (2013-mar-13)-stable) date Tue 09 Jun 2015 10:24:56 AM CEST*
%MOIN*%
G04 Gerber Fmt 3.4, Leading zero omitted, Abs format*
%FSLAX34Y34*%
G01*
G70*
G90*
G04 APERTURE LIST*
%ADD10C,0.005906*%
%ADD11R,0.086614X0.015748*%
%ADD12R,0.118110X0.078740*%
%ADD13R,0.049213X0.011811*%
%ADD14R,0.045000X0.025000*%
%ADD15R,0.055000X0.035000*%
%ADD16R,0.035000X0.055000*%
%ADD17R,0.025000X0.045000*%
%ADD18R,0.070866X0.023622*%
%ADD19R,0.039400X0.027600*%
%ADD20R,0.133858X0.051181*%
%ADD21C,0.047200*%
G04 APERTURE END LIST*
G54D10*
G54D11*
X54875Y-43523D03*
X54875Y-43267D03*
X54875Y-43011D03*
X54875Y-42755D03*
X54875Y-42500D03*
X54875Y-42244D03*
X54875Y-41988D03*
X54875Y-41732D03*
X54875Y-41476D03*
X54875Y-41220D03*
X54875Y-40964D03*
X54875Y-40708D03*
X54875Y-40452D03*
X54875Y-40196D03*
X54875Y-39940D03*
G54D12*
X52220Y-39835D03*
X52220Y-43804D03*
G54D13*
X53135Y-43197D03*
X53135Y-43001D03*
X53135Y-42804D03*
X53135Y-42607D03*
X53135Y-42410D03*
X53135Y-42213D03*
X53135Y-42016D03*
X53135Y-41820D03*
X53135Y-41623D03*
X53135Y-41426D03*
X53135Y-41229D03*
X53135Y-41032D03*
X53135Y-40835D03*
X53135Y-40638D03*
X53135Y-40442D03*
G54D14*
X55674Y-43054D03*
X55674Y-42454D03*
X55672Y-44066D03*
X55672Y-43466D03*
G54D15*
X57482Y-40209D03*
X57482Y-39459D03*
G54D16*
X61171Y-43884D03*
X60421Y-43884D03*
G54D17*
X58604Y-40080D03*
X58004Y-40080D03*
X58604Y-39510D03*
X58004Y-39510D03*
G54D18*
X56815Y-40580D03*
X56815Y-41080D03*
X56815Y-41580D03*
X56815Y-42080D03*
X56815Y-42580D03*
X56815Y-43080D03*
X56815Y-43580D03*
X56815Y-44080D03*
X58940Y-44080D03*
X58940Y-43580D03*
X58940Y-43080D03*
X58940Y-42580D03*
X58940Y-42080D03*
X58940Y-41580D03*
X58940Y-41080D03*
X58940Y-40580D03*
G54D19*
X59066Y-40173D03*
X59066Y-39798D03*
X59066Y-39423D03*
X60066Y-39423D03*
X60066Y-39798D03*
X60066Y-40173D03*
G54D20*
X60942Y-43059D03*
X60942Y-40972D03*
G54D17*
X55560Y-39540D03*
X56160Y-39540D03*
X55560Y-40114D03*
X56160Y-40114D03*
G54D14*
X56686Y-40134D03*
X56686Y-39534D03*
X53156Y-40104D03*
X53156Y-39504D03*
G54D17*
X53726Y-43972D03*
X54326Y-43972D03*
G54D14*
X53156Y-43472D03*
X53156Y-44072D03*
X53726Y-40104D03*
X53726Y-39504D03*
G54D21*
X59674Y-42034D03*
X59674Y-42626D03*
M02*
