M48
;DRILL file {Pcbnew (2013-mar-13)-stable} date Tue 09 Jun 2015 10:25:10 AM CEST
;FORMAT={-:-/ absolute / metric / decimal}
FMAT,2
METRIC,TZ
T1C0.305
T2C1.000
%
G90
G05
M71
T1
X133.787Y-106.34
X133.787Y-107.224
X137.003Y-106.721
X137.648Y-100.34
X137.693Y-102.128
X137.754Y-107.3
X139.349Y-100.081
X141.016Y-104.699
X141.62Y-105.354
X142.88Y-108.153
X144.958Y-101.178
X145.938Y-103.175
X145.938Y-104.343
X145.938Y-106.883
X146.116Y-110.012
X146.121Y-111.694
X146.634Y-106.131
X147.447Y-105.38
X148.28Y-104.343
X151.364Y-103.708
X153.599Y-101.087
X154.422Y-112.679
T2
X126.625Y-113.7
X155.375Y-113.7
X155.377Y-101.
T0
M30
