G04 (created by PCBNEW (2013-mar-13)-stable) date Tue 09 Jun 2015 10:24:56 AM CEST*
%MOIN*%
G04 Gerber Fmt 3.4, Leading zero omitted, Abs format*
%FSLAX34Y34*%
G01*
G70*
G90*
G04 APERTURE LIST*
%ADD10C,0.005906*%
%ADD11C,0.060000*%
%ADD12C,0.047200*%
%ADD13C,0.028000*%
%ADD14C,0.008000*%
%ADD15C,0.010000*%
%ADD16C,0.006000*%
G04 APERTURE END LIST*
G54D10*
G54D11*
X61171Y-44763D03*
X49852Y-44763D03*
G54D12*
X56816Y-41080D03*
G54D11*
X61172Y-39763D03*
G54D12*
X58940Y-41080D03*
X57528Y-43974D03*
X58230Y-43974D03*
G54D13*
X52672Y-41866D03*
X56252Y-42580D03*
X53938Y-42016D03*
X54210Y-40208D03*
X57456Y-40620D03*
X54862Y-39402D03*
X55518Y-41220D03*
X58050Y-41488D03*
X55756Y-41478D03*
X57730Y-41784D03*
X54192Y-39504D03*
X52672Y-42214D03*
X60796Y-44362D03*
X57456Y-42080D03*
X57070Y-39834D03*
X60472Y-39798D03*
X54234Y-42244D03*
X57456Y-41080D03*
X57528Y-43974D03*
X57526Y-43312D03*
X58378Y-41080D03*
X59592Y-40830D03*
G54D14*
X52672Y-41866D02*
X52954Y-41866D01*
X53480Y-42392D02*
X53570Y-42392D01*
X52954Y-41866D02*
X53480Y-42392D01*
X53570Y-42392D02*
X53758Y-42580D01*
X56252Y-42580D02*
X53758Y-42580D01*
X54210Y-40208D02*
X54210Y-41744D01*
X54210Y-41744D02*
X53938Y-42016D01*
X56238Y-39402D02*
X57456Y-40620D01*
X54862Y-39402D02*
X56238Y-39402D01*
X58050Y-41488D02*
X56410Y-41488D01*
X56410Y-41488D02*
X56142Y-41220D01*
X55518Y-41220D02*
X56142Y-41220D01*
X55756Y-41478D02*
X55928Y-41478D01*
X55928Y-41478D02*
X56234Y-41784D01*
X57730Y-41784D02*
X56234Y-41784D01*
G54D15*
X54192Y-39504D02*
X54192Y-39752D01*
X54490Y-41988D02*
X54234Y-42244D01*
X54490Y-40050D02*
X54490Y-41988D01*
X54192Y-39752D02*
X54490Y-40050D01*
G54D14*
X54234Y-42244D02*
X54088Y-42390D01*
X54088Y-42390D02*
X53858Y-42390D01*
X53858Y-42390D02*
X53034Y-41566D01*
X53034Y-41566D02*
X52384Y-41566D01*
X52384Y-41566D02*
X52214Y-41736D01*
X52214Y-41736D02*
X52214Y-42214D01*
X52672Y-42214D02*
X52214Y-42214D01*
X52214Y-42214D02*
X51792Y-42214D01*
X49852Y-44763D02*
X49852Y-44153D01*
X51792Y-42214D02*
X49852Y-44153D01*
X58512Y-42080D02*
X58512Y-41602D01*
X58304Y-40726D02*
X58304Y-39834D01*
X58304Y-40726D02*
X58102Y-40928D01*
X58102Y-41192D02*
X58102Y-40928D01*
X58512Y-41602D02*
X58102Y-41192D01*
X57456Y-42080D02*
X58512Y-42080D01*
X58512Y-42080D02*
X58514Y-42080D01*
X58514Y-42080D02*
X60796Y-44362D01*
X57456Y-42080D02*
X55620Y-42080D01*
X55620Y-42080D02*
X55456Y-42244D01*
X55456Y-42244D02*
X54234Y-42244D01*
X57070Y-39834D02*
X58304Y-39834D01*
X58304Y-39834D02*
X59512Y-39834D01*
X59512Y-39834D02*
X59548Y-39798D01*
X59548Y-39798D02*
X60472Y-39798D01*
X56816Y-41080D02*
X57456Y-41080D01*
X57882Y-43626D02*
X58230Y-43974D01*
X57840Y-43626D02*
X57882Y-43626D01*
X57526Y-43312D02*
X57840Y-43626D01*
X58940Y-41080D02*
X58378Y-41080D01*
X59592Y-40830D02*
X60105Y-40830D01*
X60105Y-40830D02*
X61172Y-39763D01*
G54D10*
G36*
X61686Y-45342D02*
X61582Y-45342D01*
X61582Y-39682D01*
X61519Y-39531D01*
X61404Y-39416D01*
X61253Y-39353D01*
X61090Y-39353D01*
X60940Y-39415D01*
X60824Y-39531D01*
X60762Y-39681D01*
X60761Y-39844D01*
X60796Y-39927D01*
X60043Y-40680D01*
X59795Y-40680D01*
X59733Y-40618D01*
X59641Y-40580D01*
X59542Y-40579D01*
X59450Y-40617D01*
X59380Y-40688D01*
X59342Y-40780D01*
X59341Y-40879D01*
X59379Y-40971D01*
X59450Y-41041D01*
X59542Y-41079D01*
X59641Y-41080D01*
X59733Y-41042D01*
X59795Y-40980D01*
X60105Y-40980D01*
X60163Y-40968D01*
X60163Y-40968D01*
X60211Y-40936D01*
X61008Y-40139D01*
X61090Y-40173D01*
X61253Y-40173D01*
X61403Y-40111D01*
X61519Y-39996D01*
X61581Y-39845D01*
X61582Y-39682D01*
X61582Y-45342D01*
X61581Y-45342D01*
X61581Y-44682D01*
X61519Y-44531D01*
X61403Y-44416D01*
X61253Y-44353D01*
X61090Y-44353D01*
X60939Y-44415D01*
X60823Y-44531D01*
X60761Y-44681D01*
X60761Y-44844D01*
X60823Y-44995D01*
X60938Y-45111D01*
X61089Y-45173D01*
X61252Y-45173D01*
X61403Y-45111D01*
X61518Y-44996D01*
X61581Y-44845D01*
X61581Y-44682D01*
X61581Y-45342D01*
X60661Y-45342D01*
X60661Y-44291D01*
X60651Y-44241D01*
X60623Y-44199D01*
X60581Y-44171D01*
X60531Y-44161D01*
X59286Y-44161D01*
X59286Y-41011D01*
X59233Y-40884D01*
X59136Y-40786D01*
X59009Y-40734D01*
X58871Y-40733D01*
X58744Y-40786D01*
X58646Y-40883D01*
X58627Y-40930D01*
X58581Y-40930D01*
X58519Y-40868D01*
X58427Y-40830D01*
X58328Y-40829D01*
X58236Y-40867D01*
X58166Y-40938D01*
X58128Y-41030D01*
X58127Y-41129D01*
X58165Y-41221D01*
X58236Y-41291D01*
X58328Y-41329D01*
X58427Y-41330D01*
X58519Y-41292D01*
X58581Y-41230D01*
X58627Y-41230D01*
X58646Y-41275D01*
X58743Y-41373D01*
X58870Y-41425D01*
X59008Y-41426D01*
X59135Y-41373D01*
X59233Y-41276D01*
X59285Y-41149D01*
X59286Y-41011D01*
X59286Y-44161D01*
X58526Y-44161D01*
X58575Y-44043D01*
X58576Y-43905D01*
X58523Y-43778D01*
X58426Y-43680D01*
X58299Y-43628D01*
X58161Y-43627D01*
X58115Y-43647D01*
X57988Y-43519D01*
X57939Y-43487D01*
X57907Y-43480D01*
X57775Y-43349D01*
X57776Y-43262D01*
X57738Y-43170D01*
X57667Y-43100D01*
X57575Y-43062D01*
X57476Y-43061D01*
X57384Y-43099D01*
X57314Y-43170D01*
X57276Y-43262D01*
X57275Y-43361D01*
X57313Y-43453D01*
X57384Y-43523D01*
X57476Y-43561D01*
X57563Y-43562D01*
X57653Y-43651D01*
X57597Y-43628D01*
X57459Y-43627D01*
X57332Y-43680D01*
X57234Y-43777D01*
X57182Y-43904D01*
X57181Y-44042D01*
X57231Y-44161D01*
X56502Y-44161D01*
X56502Y-42530D01*
X56464Y-42438D01*
X56393Y-42368D01*
X56301Y-42330D01*
X56202Y-42329D01*
X56110Y-42367D01*
X56048Y-42430D01*
X54460Y-42430D01*
X54460Y-40158D01*
X54422Y-40066D01*
X54351Y-39996D01*
X54259Y-39958D01*
X54160Y-39957D01*
X54068Y-39995D01*
X53998Y-40066D01*
X53960Y-40158D01*
X53959Y-40257D01*
X53997Y-40349D01*
X54060Y-40411D01*
X54060Y-41681D01*
X53975Y-41766D01*
X53888Y-41765D01*
X53796Y-41803D01*
X53726Y-41874D01*
X53688Y-41966D01*
X53687Y-42065D01*
X53725Y-42157D01*
X53796Y-42227D01*
X53888Y-42265D01*
X53987Y-42266D01*
X54079Y-42228D01*
X54149Y-42157D01*
X54187Y-42065D01*
X54188Y-41978D01*
X54316Y-41850D01*
X54348Y-41801D01*
X54360Y-41744D01*
X54360Y-41744D01*
X54360Y-41743D01*
X54360Y-40411D01*
X54421Y-40349D01*
X54459Y-40257D01*
X54460Y-40158D01*
X54460Y-42430D01*
X53820Y-42430D01*
X53676Y-42285D01*
X53627Y-42253D01*
X53570Y-42242D01*
X53542Y-42242D01*
X53060Y-41759D01*
X53011Y-41727D01*
X52954Y-41716D01*
X52875Y-41716D01*
X52813Y-41654D01*
X52721Y-41616D01*
X52622Y-41615D01*
X52530Y-41653D01*
X52460Y-41724D01*
X52422Y-41816D01*
X52421Y-41915D01*
X52459Y-42007D01*
X52530Y-42077D01*
X52622Y-42115D01*
X52721Y-42116D01*
X52813Y-42078D01*
X52875Y-42016D01*
X52891Y-42016D01*
X53373Y-42498D01*
X53422Y-42530D01*
X53422Y-42530D01*
X53480Y-42542D01*
X53480Y-42542D01*
X53480Y-42542D01*
X53507Y-42542D01*
X53651Y-42686D01*
X53651Y-42686D01*
X53681Y-42705D01*
X53700Y-42718D01*
X53700Y-42718D01*
X53758Y-42730D01*
X56048Y-42730D01*
X56110Y-42791D01*
X56202Y-42829D01*
X56301Y-42830D01*
X56393Y-42792D01*
X56463Y-42721D01*
X56501Y-42629D01*
X56502Y-42530D01*
X56502Y-44161D01*
X50492Y-44161D01*
X50442Y-44171D01*
X50400Y-44199D01*
X50372Y-44241D01*
X50362Y-44291D01*
X50362Y-45342D01*
X50249Y-45342D01*
X50249Y-44787D01*
X50228Y-44633D01*
X50210Y-44590D01*
X50162Y-44552D01*
X50063Y-44651D01*
X50063Y-44453D01*
X50025Y-44405D01*
X49875Y-44366D01*
X49721Y-44388D01*
X49678Y-44405D01*
X49641Y-44453D01*
X49852Y-44664D01*
X50063Y-44453D01*
X50063Y-44651D01*
X49951Y-44763D01*
X50162Y-44974D01*
X50210Y-44937D01*
X50249Y-44787D01*
X50249Y-45342D01*
X50063Y-45342D01*
X50063Y-45073D01*
X49852Y-44862D01*
X49753Y-44961D01*
X49753Y-44763D01*
X49542Y-44552D01*
X49494Y-44590D01*
X49455Y-44740D01*
X49476Y-44894D01*
X49494Y-44937D01*
X49542Y-44974D01*
X49753Y-44763D01*
X49753Y-44961D01*
X49641Y-45073D01*
X49678Y-45121D01*
X49829Y-45160D01*
X49982Y-45139D01*
X50025Y-45121D01*
X50063Y-45073D01*
X50063Y-45342D01*
X49342Y-45342D01*
X49342Y-44224D01*
X49606Y-44224D01*
X49655Y-44214D01*
X49698Y-44186D01*
X49726Y-44144D01*
X49735Y-44094D01*
X49735Y-40944D01*
X49726Y-40895D01*
X49698Y-40853D01*
X49655Y-40825D01*
X49606Y-40815D01*
X49337Y-40815D01*
X49337Y-39337D01*
X54618Y-39337D01*
X54612Y-39352D01*
X54611Y-39451D01*
X54649Y-39543D01*
X54720Y-39613D01*
X54812Y-39651D01*
X54911Y-39652D01*
X55003Y-39614D01*
X55065Y-39552D01*
X56175Y-39552D01*
X57206Y-40582D01*
X57205Y-40669D01*
X57243Y-40761D01*
X57314Y-40831D01*
X57357Y-40849D01*
X57314Y-40867D01*
X57252Y-40930D01*
X57128Y-40930D01*
X57109Y-40884D01*
X57012Y-40786D01*
X56885Y-40734D01*
X56747Y-40733D01*
X56620Y-40786D01*
X56522Y-40883D01*
X56470Y-41010D01*
X56469Y-41148D01*
X56522Y-41275D01*
X56584Y-41338D01*
X56472Y-41338D01*
X56248Y-41113D01*
X56199Y-41081D01*
X56142Y-41070D01*
X55721Y-41070D01*
X55659Y-41008D01*
X55567Y-40970D01*
X55468Y-40969D01*
X55376Y-41007D01*
X55306Y-41078D01*
X55268Y-41170D01*
X55267Y-41269D01*
X55305Y-41361D01*
X55376Y-41431D01*
X55468Y-41469D01*
X55506Y-41469D01*
X55505Y-41527D01*
X55543Y-41619D01*
X55614Y-41689D01*
X55706Y-41727D01*
X55805Y-41728D01*
X55897Y-41690D01*
X55912Y-41674D01*
X56127Y-41890D01*
X56127Y-41890D01*
X56157Y-41909D01*
X56176Y-41922D01*
X56176Y-41922D01*
X56234Y-41934D01*
X57526Y-41934D01*
X57588Y-41995D01*
X57680Y-42033D01*
X57779Y-42034D01*
X57871Y-41996D01*
X57941Y-41925D01*
X57979Y-41833D01*
X57980Y-41734D01*
X57977Y-41728D01*
X58000Y-41737D01*
X58099Y-41738D01*
X58191Y-41700D01*
X58261Y-41629D01*
X58299Y-41537D01*
X58300Y-41438D01*
X58262Y-41346D01*
X58191Y-41276D01*
X58099Y-41238D01*
X58000Y-41237D01*
X57908Y-41275D01*
X57846Y-41338D01*
X57047Y-41338D01*
X57109Y-41276D01*
X57128Y-41230D01*
X57252Y-41230D01*
X57314Y-41291D01*
X57406Y-41329D01*
X57505Y-41330D01*
X57597Y-41292D01*
X57667Y-41221D01*
X57705Y-41129D01*
X57706Y-41030D01*
X57668Y-40938D01*
X57597Y-40868D01*
X57554Y-40850D01*
X57597Y-40832D01*
X57667Y-40761D01*
X57705Y-40669D01*
X57706Y-40570D01*
X57668Y-40478D01*
X57597Y-40408D01*
X57505Y-40370D01*
X57418Y-40369D01*
X56385Y-39337D01*
X61686Y-39337D01*
X61686Y-45342D01*
X61686Y-45342D01*
G37*
G54D16*
X61686Y-45342D02*
X61582Y-45342D01*
X61582Y-39682D01*
X61519Y-39531D01*
X61404Y-39416D01*
X61253Y-39353D01*
X61090Y-39353D01*
X60940Y-39415D01*
X60824Y-39531D01*
X60762Y-39681D01*
X60761Y-39844D01*
X60796Y-39927D01*
X60043Y-40680D01*
X59795Y-40680D01*
X59733Y-40618D01*
X59641Y-40580D01*
X59542Y-40579D01*
X59450Y-40617D01*
X59380Y-40688D01*
X59342Y-40780D01*
X59341Y-40879D01*
X59379Y-40971D01*
X59450Y-41041D01*
X59542Y-41079D01*
X59641Y-41080D01*
X59733Y-41042D01*
X59795Y-40980D01*
X60105Y-40980D01*
X60163Y-40968D01*
X60163Y-40968D01*
X60211Y-40936D01*
X61008Y-40139D01*
X61090Y-40173D01*
X61253Y-40173D01*
X61403Y-40111D01*
X61519Y-39996D01*
X61581Y-39845D01*
X61582Y-39682D01*
X61582Y-45342D01*
X61581Y-45342D01*
X61581Y-44682D01*
X61519Y-44531D01*
X61403Y-44416D01*
X61253Y-44353D01*
X61090Y-44353D01*
X60939Y-44415D01*
X60823Y-44531D01*
X60761Y-44681D01*
X60761Y-44844D01*
X60823Y-44995D01*
X60938Y-45111D01*
X61089Y-45173D01*
X61252Y-45173D01*
X61403Y-45111D01*
X61518Y-44996D01*
X61581Y-44845D01*
X61581Y-44682D01*
X61581Y-45342D01*
X60661Y-45342D01*
X60661Y-44291D01*
X60651Y-44241D01*
X60623Y-44199D01*
X60581Y-44171D01*
X60531Y-44161D01*
X59286Y-44161D01*
X59286Y-41011D01*
X59233Y-40884D01*
X59136Y-40786D01*
X59009Y-40734D01*
X58871Y-40733D01*
X58744Y-40786D01*
X58646Y-40883D01*
X58627Y-40930D01*
X58581Y-40930D01*
X58519Y-40868D01*
X58427Y-40830D01*
X58328Y-40829D01*
X58236Y-40867D01*
X58166Y-40938D01*
X58128Y-41030D01*
X58127Y-41129D01*
X58165Y-41221D01*
X58236Y-41291D01*
X58328Y-41329D01*
X58427Y-41330D01*
X58519Y-41292D01*
X58581Y-41230D01*
X58627Y-41230D01*
X58646Y-41275D01*
X58743Y-41373D01*
X58870Y-41425D01*
X59008Y-41426D01*
X59135Y-41373D01*
X59233Y-41276D01*
X59285Y-41149D01*
X59286Y-41011D01*
X59286Y-44161D01*
X58526Y-44161D01*
X58575Y-44043D01*
X58576Y-43905D01*
X58523Y-43778D01*
X58426Y-43680D01*
X58299Y-43628D01*
X58161Y-43627D01*
X58115Y-43647D01*
X57988Y-43519D01*
X57939Y-43487D01*
X57907Y-43480D01*
X57775Y-43349D01*
X57776Y-43262D01*
X57738Y-43170D01*
X57667Y-43100D01*
X57575Y-43062D01*
X57476Y-43061D01*
X57384Y-43099D01*
X57314Y-43170D01*
X57276Y-43262D01*
X57275Y-43361D01*
X57313Y-43453D01*
X57384Y-43523D01*
X57476Y-43561D01*
X57563Y-43562D01*
X57653Y-43651D01*
X57597Y-43628D01*
X57459Y-43627D01*
X57332Y-43680D01*
X57234Y-43777D01*
X57182Y-43904D01*
X57181Y-44042D01*
X57231Y-44161D01*
X56502Y-44161D01*
X56502Y-42530D01*
X56464Y-42438D01*
X56393Y-42368D01*
X56301Y-42330D01*
X56202Y-42329D01*
X56110Y-42367D01*
X56048Y-42430D01*
X54460Y-42430D01*
X54460Y-40158D01*
X54422Y-40066D01*
X54351Y-39996D01*
X54259Y-39958D01*
X54160Y-39957D01*
X54068Y-39995D01*
X53998Y-40066D01*
X53960Y-40158D01*
X53959Y-40257D01*
X53997Y-40349D01*
X54060Y-40411D01*
X54060Y-41681D01*
X53975Y-41766D01*
X53888Y-41765D01*
X53796Y-41803D01*
X53726Y-41874D01*
X53688Y-41966D01*
X53687Y-42065D01*
X53725Y-42157D01*
X53796Y-42227D01*
X53888Y-42265D01*
X53987Y-42266D01*
X54079Y-42228D01*
X54149Y-42157D01*
X54187Y-42065D01*
X54188Y-41978D01*
X54316Y-41850D01*
X54348Y-41801D01*
X54360Y-41744D01*
X54360Y-41744D01*
X54360Y-41743D01*
X54360Y-40411D01*
X54421Y-40349D01*
X54459Y-40257D01*
X54460Y-40158D01*
X54460Y-42430D01*
X53820Y-42430D01*
X53676Y-42285D01*
X53627Y-42253D01*
X53570Y-42242D01*
X53542Y-42242D01*
X53060Y-41759D01*
X53011Y-41727D01*
X52954Y-41716D01*
X52875Y-41716D01*
X52813Y-41654D01*
X52721Y-41616D01*
X52622Y-41615D01*
X52530Y-41653D01*
X52460Y-41724D01*
X52422Y-41816D01*
X52421Y-41915D01*
X52459Y-42007D01*
X52530Y-42077D01*
X52622Y-42115D01*
X52721Y-42116D01*
X52813Y-42078D01*
X52875Y-42016D01*
X52891Y-42016D01*
X53373Y-42498D01*
X53422Y-42530D01*
X53422Y-42530D01*
X53480Y-42542D01*
X53480Y-42542D01*
X53480Y-42542D01*
X53507Y-42542D01*
X53651Y-42686D01*
X53651Y-42686D01*
X53681Y-42705D01*
X53700Y-42718D01*
X53700Y-42718D01*
X53758Y-42730D01*
X56048Y-42730D01*
X56110Y-42791D01*
X56202Y-42829D01*
X56301Y-42830D01*
X56393Y-42792D01*
X56463Y-42721D01*
X56501Y-42629D01*
X56502Y-42530D01*
X56502Y-44161D01*
X50492Y-44161D01*
X50442Y-44171D01*
X50400Y-44199D01*
X50372Y-44241D01*
X50362Y-44291D01*
X50362Y-45342D01*
X50249Y-45342D01*
X50249Y-44787D01*
X50228Y-44633D01*
X50210Y-44590D01*
X50162Y-44552D01*
X50063Y-44651D01*
X50063Y-44453D01*
X50025Y-44405D01*
X49875Y-44366D01*
X49721Y-44388D01*
X49678Y-44405D01*
X49641Y-44453D01*
X49852Y-44664D01*
X50063Y-44453D01*
X50063Y-44651D01*
X49951Y-44763D01*
X50162Y-44974D01*
X50210Y-44937D01*
X50249Y-44787D01*
X50249Y-45342D01*
X50063Y-45342D01*
X50063Y-45073D01*
X49852Y-44862D01*
X49753Y-44961D01*
X49753Y-44763D01*
X49542Y-44552D01*
X49494Y-44590D01*
X49455Y-44740D01*
X49476Y-44894D01*
X49494Y-44937D01*
X49542Y-44974D01*
X49753Y-44763D01*
X49753Y-44961D01*
X49641Y-45073D01*
X49678Y-45121D01*
X49829Y-45160D01*
X49982Y-45139D01*
X50025Y-45121D01*
X50063Y-45073D01*
X50063Y-45342D01*
X49342Y-45342D01*
X49342Y-44224D01*
X49606Y-44224D01*
X49655Y-44214D01*
X49698Y-44186D01*
X49726Y-44144D01*
X49735Y-44094D01*
X49735Y-40944D01*
X49726Y-40895D01*
X49698Y-40853D01*
X49655Y-40825D01*
X49606Y-40815D01*
X49337Y-40815D01*
X49337Y-39337D01*
X54618Y-39337D01*
X54612Y-39352D01*
X54611Y-39451D01*
X54649Y-39543D01*
X54720Y-39613D01*
X54812Y-39651D01*
X54911Y-39652D01*
X55003Y-39614D01*
X55065Y-39552D01*
X56175Y-39552D01*
X57206Y-40582D01*
X57205Y-40669D01*
X57243Y-40761D01*
X57314Y-40831D01*
X57357Y-40849D01*
X57314Y-40867D01*
X57252Y-40930D01*
X57128Y-40930D01*
X57109Y-40884D01*
X57012Y-40786D01*
X56885Y-40734D01*
X56747Y-40733D01*
X56620Y-40786D01*
X56522Y-40883D01*
X56470Y-41010D01*
X56469Y-41148D01*
X56522Y-41275D01*
X56584Y-41338D01*
X56472Y-41338D01*
X56248Y-41113D01*
X56199Y-41081D01*
X56142Y-41070D01*
X55721Y-41070D01*
X55659Y-41008D01*
X55567Y-40970D01*
X55468Y-40969D01*
X55376Y-41007D01*
X55306Y-41078D01*
X55268Y-41170D01*
X55267Y-41269D01*
X55305Y-41361D01*
X55376Y-41431D01*
X55468Y-41469D01*
X55506Y-41469D01*
X55505Y-41527D01*
X55543Y-41619D01*
X55614Y-41689D01*
X55706Y-41727D01*
X55805Y-41728D01*
X55897Y-41690D01*
X55912Y-41674D01*
X56127Y-41890D01*
X56127Y-41890D01*
X56157Y-41909D01*
X56176Y-41922D01*
X56176Y-41922D01*
X56234Y-41934D01*
X57526Y-41934D01*
X57588Y-41995D01*
X57680Y-42033D01*
X57779Y-42034D01*
X57871Y-41996D01*
X57941Y-41925D01*
X57979Y-41833D01*
X57980Y-41734D01*
X57977Y-41728D01*
X58000Y-41737D01*
X58099Y-41738D01*
X58191Y-41700D01*
X58261Y-41629D01*
X58299Y-41537D01*
X58300Y-41438D01*
X58262Y-41346D01*
X58191Y-41276D01*
X58099Y-41238D01*
X58000Y-41237D01*
X57908Y-41275D01*
X57846Y-41338D01*
X57047Y-41338D01*
X57109Y-41276D01*
X57128Y-41230D01*
X57252Y-41230D01*
X57314Y-41291D01*
X57406Y-41329D01*
X57505Y-41330D01*
X57597Y-41292D01*
X57667Y-41221D01*
X57705Y-41129D01*
X57706Y-41030D01*
X57668Y-40938D01*
X57597Y-40868D01*
X57554Y-40850D01*
X57597Y-40832D01*
X57667Y-40761D01*
X57705Y-40669D01*
X57706Y-40570D01*
X57668Y-40478D01*
X57597Y-40408D01*
X57505Y-40370D01*
X57418Y-40369D01*
X56385Y-39337D01*
X61686Y-39337D01*
X61686Y-45342D01*
M02*
