G04 (created by PCBNEW (2013-mar-13)-stable) date Tue 09 Jun 2015 10:24:56 AM CEST*
%MOIN*%
G04 Gerber Fmt 3.4, Leading zero omitted, Abs format*
%FSLAX34Y34*%
G01*
G70*
G90*
G04 APERTURE LIST*
%ADD10C,0.005906*%
%ADD11C,0.005000*%
%ADD12C,0.001100*%
G04 APERTURE END LIST*
G54D10*
X61771Y-45238D02*
X60570Y-45238D01*
X60570Y-45238D02*
X60570Y-44289D01*
X60570Y-44289D02*
X61771Y-44289D01*
X61771Y-44289D02*
X61771Y-45238D01*
X49251Y-44289D02*
X50452Y-44289D01*
X50452Y-44289D02*
X50452Y-45238D01*
X50452Y-45238D02*
X49251Y-45238D01*
X49251Y-45238D02*
X49251Y-44289D01*
X55072Y-43946D02*
X55072Y-39517D01*
X51020Y-39231D02*
X51020Y-44408D01*
X51420Y-39487D02*
X51420Y-44152D01*
G54D11*
X55424Y-43204D02*
X55424Y-42304D01*
X55424Y-42304D02*
X55924Y-42304D01*
X55924Y-42304D02*
X55924Y-43204D01*
X55924Y-43204D02*
X55424Y-43204D01*
X55422Y-44216D02*
X55422Y-43316D01*
X55422Y-43316D02*
X55922Y-43316D01*
X55922Y-43316D02*
X55922Y-44216D01*
X55922Y-44216D02*
X55422Y-44216D01*
X57782Y-40034D02*
X57782Y-40434D01*
X57782Y-40434D02*
X57182Y-40434D01*
X57182Y-40434D02*
X57182Y-40034D01*
X57182Y-39634D02*
X57182Y-39234D01*
X57182Y-39234D02*
X57782Y-39234D01*
X57782Y-39234D02*
X57782Y-39634D01*
X60996Y-43584D02*
X61396Y-43584D01*
X61396Y-43584D02*
X61396Y-44184D01*
X61396Y-44184D02*
X60996Y-44184D01*
X60596Y-44184D02*
X60196Y-44184D01*
X60196Y-44184D02*
X60196Y-43584D01*
X60196Y-43584D02*
X60596Y-43584D01*
X58754Y-40330D02*
X57854Y-40330D01*
X57854Y-40330D02*
X57854Y-39830D01*
X57854Y-39830D02*
X58754Y-39830D01*
X58754Y-39830D02*
X58754Y-40330D01*
X58754Y-39760D02*
X57854Y-39760D01*
X57854Y-39760D02*
X57854Y-39260D01*
X57854Y-39260D02*
X58754Y-39260D01*
X58754Y-39260D02*
X58754Y-39760D01*
G54D10*
X58645Y-44278D02*
X57110Y-44278D01*
X58645Y-40381D02*
X57110Y-40381D01*
G54D11*
X59866Y-39998D02*
X59666Y-40298D01*
X59866Y-39298D02*
X59866Y-40323D01*
X59866Y-40323D02*
X59266Y-40323D01*
X59266Y-40323D02*
X59266Y-39298D01*
X59266Y-39298D02*
X59866Y-39298D01*
G54D10*
X61729Y-42803D02*
X61729Y-41228D01*
X60154Y-42803D02*
X60154Y-41228D01*
G54D11*
X55410Y-39290D02*
X56310Y-39290D01*
X56310Y-39290D02*
X56310Y-39790D01*
X56310Y-39790D02*
X55410Y-39790D01*
X55410Y-39790D02*
X55410Y-39290D01*
X55410Y-39864D02*
X56310Y-39864D01*
X56310Y-39864D02*
X56310Y-40364D01*
X56310Y-40364D02*
X55410Y-40364D01*
X55410Y-40364D02*
X55410Y-39864D01*
X56436Y-40284D02*
X56436Y-39384D01*
X56436Y-39384D02*
X56936Y-39384D01*
X56936Y-39384D02*
X56936Y-40284D01*
X56936Y-40284D02*
X56436Y-40284D01*
G54D10*
X60571Y-39289D02*
X61772Y-39289D01*
X61772Y-39289D02*
X61772Y-40238D01*
X61772Y-40238D02*
X60571Y-40238D01*
X60571Y-40238D02*
X60571Y-39289D01*
G54D11*
X52906Y-40254D02*
X52906Y-39354D01*
X52906Y-39354D02*
X53406Y-39354D01*
X53406Y-39354D02*
X53406Y-40254D01*
X53406Y-40254D02*
X52906Y-40254D01*
X53576Y-43722D02*
X54476Y-43722D01*
X54476Y-43722D02*
X54476Y-44222D01*
X54476Y-44222D02*
X53576Y-44222D01*
X53576Y-44222D02*
X53576Y-43722D01*
X53406Y-43322D02*
X53406Y-44222D01*
X53406Y-44222D02*
X52906Y-44222D01*
X52906Y-44222D02*
X52906Y-43322D01*
X52906Y-43322D02*
X53406Y-43322D01*
X53476Y-40254D02*
X53476Y-39354D01*
X53476Y-39354D02*
X53976Y-39354D01*
X53976Y-39354D02*
X53976Y-40254D01*
X53976Y-40254D02*
X53476Y-40254D01*
G54D12*
X49906Y-43822D02*
X49906Y-43172D01*
X49916Y-43832D02*
X49916Y-43172D01*
X49926Y-43842D02*
X49926Y-43172D01*
X49936Y-43852D02*
X49936Y-43172D01*
X49946Y-43862D02*
X49946Y-43172D01*
X49956Y-43872D02*
X49956Y-43172D01*
X49966Y-43882D02*
X49966Y-43172D01*
X49966Y-42492D02*
X49966Y-42482D01*
X49976Y-43892D02*
X49976Y-43772D01*
X49976Y-42502D02*
X49976Y-42472D01*
X49986Y-43902D02*
X49986Y-43782D01*
X49986Y-42502D02*
X49986Y-42472D01*
X49996Y-43912D02*
X49996Y-43792D01*
X49996Y-42512D02*
X49996Y-42462D01*
X50006Y-43922D02*
X50006Y-43802D01*
X50006Y-43772D02*
X50006Y-43112D01*
X50006Y-42512D02*
X50006Y-42462D01*
X50016Y-43932D02*
X50016Y-43812D01*
X50016Y-43782D02*
X50016Y-43112D01*
X50016Y-42522D02*
X50016Y-42452D01*
X50026Y-43942D02*
X50026Y-43822D01*
X50026Y-43792D02*
X50026Y-43132D01*
X50026Y-43122D02*
X50026Y-43112D01*
X50026Y-42522D02*
X50026Y-42452D01*
X50036Y-43952D02*
X50036Y-43832D01*
X50036Y-43802D02*
X50036Y-43142D01*
X50036Y-43122D02*
X50036Y-43112D01*
X50036Y-42532D02*
X50036Y-42442D01*
X50046Y-43962D02*
X50046Y-43842D01*
X50046Y-43812D02*
X50046Y-43152D01*
X50046Y-43122D02*
X50046Y-43112D01*
X50046Y-42532D02*
X50046Y-42442D01*
X50056Y-43972D02*
X50056Y-43852D01*
X50056Y-43822D02*
X50056Y-43162D01*
X50056Y-43122D02*
X50056Y-43112D01*
X50056Y-42542D02*
X50056Y-42432D01*
X50066Y-43982D02*
X50066Y-43862D01*
X50066Y-43832D02*
X50066Y-43172D01*
X50066Y-43122D02*
X50066Y-43112D01*
X50066Y-42542D02*
X50066Y-42432D01*
X50076Y-43992D02*
X50076Y-43872D01*
X50076Y-43842D02*
X50076Y-43182D01*
X50076Y-43122D02*
X50076Y-43112D01*
X50076Y-42552D02*
X50076Y-42422D01*
X50086Y-44002D02*
X50086Y-43882D01*
X50086Y-43852D02*
X50086Y-43192D01*
X50086Y-43122D02*
X50086Y-43112D01*
X50086Y-42552D02*
X50086Y-42422D01*
X50096Y-44012D02*
X50096Y-43892D01*
X50096Y-43862D02*
X50096Y-43202D01*
X50096Y-43142D02*
X50096Y-43112D01*
X50096Y-42562D02*
X50096Y-42412D01*
X50106Y-44022D02*
X50106Y-43902D01*
X50106Y-43872D02*
X50106Y-43212D01*
X50106Y-43142D02*
X50106Y-43112D01*
X50106Y-42562D02*
X50106Y-42412D01*
X50116Y-44022D02*
X50116Y-43902D01*
X50116Y-43882D02*
X50116Y-43222D01*
X50116Y-43162D02*
X50116Y-43112D01*
X50116Y-42572D02*
X50116Y-42402D01*
X50126Y-44022D02*
X50126Y-43912D01*
X50126Y-43892D02*
X50126Y-43232D01*
X50126Y-43172D02*
X50126Y-43112D01*
X50126Y-42572D02*
X50126Y-42402D01*
X50126Y-41552D02*
X50126Y-41452D01*
X50126Y-41382D02*
X50126Y-41282D01*
X50126Y-40882D02*
X50126Y-40772D01*
X50126Y-40372D02*
X50126Y-40192D01*
X50126Y-39972D02*
X50126Y-39872D01*
X50126Y-39662D02*
X50126Y-39522D01*
X50136Y-44022D02*
X50136Y-43932D01*
X50136Y-43902D02*
X50136Y-43242D01*
X50136Y-43182D02*
X50136Y-43112D01*
X50136Y-42582D02*
X50136Y-42392D01*
X50136Y-41972D02*
X50136Y-41802D01*
X50136Y-41552D02*
X50136Y-41452D01*
X50136Y-41382D02*
X50136Y-41282D01*
X50136Y-40892D02*
X50136Y-40772D01*
X50136Y-40402D02*
X50136Y-40152D01*
X50136Y-39972D02*
X50136Y-39872D01*
X50136Y-39672D02*
X50136Y-39532D01*
X50146Y-44022D02*
X50146Y-43932D01*
X50146Y-43912D02*
X50146Y-43252D01*
X50146Y-43192D02*
X50146Y-43112D01*
X50146Y-42582D02*
X50146Y-42392D01*
X50146Y-42012D02*
X50146Y-41772D01*
X50146Y-41552D02*
X50146Y-41452D01*
X50146Y-41382D02*
X50146Y-41282D01*
X50146Y-40892D02*
X50146Y-40762D01*
X50146Y-40422D02*
X50146Y-40132D01*
X50146Y-39972D02*
X50146Y-39872D01*
X50146Y-39682D02*
X50146Y-39542D01*
X50156Y-44022D02*
X50156Y-43942D01*
X50156Y-43922D02*
X50156Y-43262D01*
X50156Y-43202D02*
X50156Y-43112D01*
X50156Y-42592D02*
X50156Y-42382D01*
X50156Y-42032D02*
X50156Y-41742D01*
X50156Y-41552D02*
X50156Y-41452D01*
X50156Y-41382D02*
X50156Y-41282D01*
X50156Y-40892D02*
X50156Y-40762D01*
X50156Y-40442D02*
X50156Y-40112D01*
X50156Y-39972D02*
X50156Y-39872D01*
X50156Y-39692D02*
X50156Y-39552D01*
X50166Y-44022D02*
X50166Y-43952D01*
X50166Y-43922D02*
X50166Y-43272D01*
X50166Y-43212D02*
X50166Y-43132D01*
X50166Y-43122D02*
X50166Y-43112D01*
X50166Y-42592D02*
X50166Y-42382D01*
X50166Y-42052D02*
X50166Y-41722D01*
X50166Y-41552D02*
X50166Y-41452D01*
X50166Y-41382D02*
X50166Y-41282D01*
X50166Y-40902D02*
X50166Y-40762D01*
X50166Y-40462D02*
X50166Y-40112D01*
X50166Y-39972D02*
X50166Y-39872D01*
X50166Y-39702D02*
X50166Y-39562D01*
X50176Y-44022D02*
X50176Y-43952D01*
X50176Y-43922D02*
X50176Y-43282D01*
X50176Y-43222D02*
X50176Y-43142D01*
X50176Y-43122D02*
X50176Y-43112D01*
X50176Y-42602D02*
X50176Y-42372D01*
X50176Y-42062D02*
X50176Y-41702D01*
X50176Y-41552D02*
X50176Y-41452D01*
X50176Y-41382D02*
X50176Y-41282D01*
X50176Y-40902D02*
X50176Y-40752D01*
X50176Y-40472D02*
X50176Y-40112D01*
X50176Y-39972D02*
X50176Y-39872D01*
X50176Y-39712D02*
X50176Y-39572D01*
X50186Y-44022D02*
X50186Y-43952D01*
X50186Y-43922D02*
X50186Y-43292D01*
X50186Y-43232D02*
X50186Y-43152D01*
X50186Y-43122D02*
X50186Y-43112D01*
X50186Y-42602D02*
X50186Y-42372D01*
X50186Y-42082D02*
X50186Y-41692D01*
X50186Y-41552D02*
X50186Y-41452D01*
X50186Y-41382D02*
X50186Y-41282D01*
X50186Y-40902D02*
X50186Y-40752D01*
X50186Y-40492D02*
X50186Y-40122D01*
X50186Y-39972D02*
X50186Y-39872D01*
X50186Y-39722D02*
X50186Y-39582D01*
X50196Y-44022D02*
X50196Y-43952D01*
X50196Y-43922D02*
X50196Y-43302D01*
X50196Y-43242D02*
X50196Y-43162D01*
X50196Y-43122D02*
X50196Y-43112D01*
X50196Y-42612D02*
X50196Y-42362D01*
X50196Y-42092D02*
X50196Y-41692D01*
X50196Y-41552D02*
X50196Y-41452D01*
X50196Y-41382D02*
X50196Y-41282D01*
X50196Y-40912D02*
X50196Y-40742D01*
X50196Y-40502D02*
X50196Y-40122D01*
X50196Y-39972D02*
X50196Y-39872D01*
X50196Y-39722D02*
X50196Y-39592D01*
X50206Y-44022D02*
X50206Y-43952D01*
X50206Y-43922D02*
X50206Y-43312D01*
X50206Y-43252D02*
X50206Y-43172D01*
X50206Y-43122D02*
X50206Y-43112D01*
X50206Y-42612D02*
X50206Y-42362D01*
X50206Y-42102D02*
X50206Y-41692D01*
X50206Y-41552D02*
X50206Y-41452D01*
X50206Y-41382D02*
X50206Y-41282D01*
X50206Y-40912D02*
X50206Y-40742D01*
X50206Y-40512D02*
X50206Y-40132D01*
X50206Y-39972D02*
X50206Y-39872D01*
X50206Y-39732D02*
X50206Y-39602D01*
X50216Y-44022D02*
X50216Y-43952D01*
X50216Y-43922D02*
X50216Y-43322D01*
X50216Y-43262D02*
X50216Y-43182D01*
X50216Y-43132D02*
X50216Y-43112D01*
X50216Y-42622D02*
X50216Y-42352D01*
X50216Y-42112D02*
X50216Y-41702D01*
X50216Y-41552D02*
X50216Y-41452D01*
X50216Y-41382D02*
X50216Y-41282D01*
X50216Y-40912D02*
X50216Y-40742D01*
X50216Y-40512D02*
X50216Y-40132D01*
X50216Y-39972D02*
X50216Y-39872D01*
X50216Y-39742D02*
X50216Y-39612D01*
X50226Y-44022D02*
X50226Y-43952D01*
X50226Y-43922D02*
X50226Y-43332D01*
X50226Y-43272D02*
X50226Y-43192D01*
X50226Y-43142D02*
X50226Y-43112D01*
X50226Y-42622D02*
X50226Y-42352D01*
X50226Y-42122D02*
X50226Y-41712D01*
X50226Y-41552D02*
X50226Y-41452D01*
X50226Y-41382D02*
X50226Y-41282D01*
X50226Y-40922D02*
X50226Y-40732D01*
X50226Y-40522D02*
X50226Y-40342D01*
X50226Y-40202D02*
X50226Y-40132D01*
X50226Y-39972D02*
X50226Y-39872D01*
X50226Y-39752D02*
X50226Y-39622D01*
X50236Y-44022D02*
X50236Y-43952D01*
X50236Y-43922D02*
X50236Y-43342D01*
X50236Y-43282D02*
X50236Y-43202D01*
X50236Y-43152D02*
X50236Y-43112D01*
X50236Y-42632D02*
X50236Y-42492D01*
X50236Y-42482D02*
X50236Y-42342D01*
X50236Y-42122D02*
X50236Y-41942D01*
X50236Y-41822D02*
X50236Y-41712D01*
X50236Y-41552D02*
X50236Y-41452D01*
X50236Y-41382D02*
X50236Y-41282D01*
X50236Y-40922D02*
X50236Y-40732D01*
X50236Y-40532D02*
X50236Y-40362D01*
X50236Y-40172D02*
X50236Y-40142D01*
X50236Y-39972D02*
X50236Y-39872D01*
X50236Y-39762D02*
X50236Y-39632D01*
X50246Y-44022D02*
X50246Y-43952D01*
X50246Y-43922D02*
X50246Y-43562D01*
X50246Y-43482D02*
X50246Y-43352D01*
X50246Y-43292D02*
X50246Y-43212D01*
X50246Y-43162D02*
X50246Y-43112D01*
X50246Y-42632D02*
X50246Y-42492D01*
X50246Y-42482D02*
X50246Y-42342D01*
X50246Y-42132D02*
X50246Y-41972D01*
X50246Y-41782D02*
X50246Y-41722D01*
X50246Y-41552D02*
X50246Y-41452D01*
X50246Y-41382D02*
X50246Y-41282D01*
X50246Y-40932D02*
X50246Y-40732D01*
X50246Y-40542D02*
X50246Y-40382D01*
X50246Y-39972D02*
X50246Y-39872D01*
X50246Y-39772D02*
X50246Y-39632D01*
X50256Y-44022D02*
X50256Y-43952D01*
X50256Y-43922D02*
X50256Y-43592D01*
X50256Y-43452D02*
X50256Y-43362D01*
X50256Y-43302D02*
X50256Y-43222D01*
X50256Y-43172D02*
X50256Y-43112D01*
X50256Y-42642D02*
X50256Y-42502D01*
X50256Y-42472D02*
X50256Y-42332D01*
X50256Y-42142D02*
X50256Y-41982D01*
X50256Y-41762D02*
X50256Y-41722D01*
X50256Y-41552D02*
X50256Y-41452D01*
X50256Y-41382D02*
X50256Y-41282D01*
X50256Y-40932D02*
X50256Y-40722D01*
X50256Y-40542D02*
X50256Y-40402D01*
X50256Y-39972D02*
X50256Y-39872D01*
X50256Y-39782D02*
X50256Y-39642D01*
X50266Y-44022D02*
X50266Y-43952D01*
X50266Y-43922D02*
X50266Y-43602D01*
X50266Y-43432D02*
X50266Y-43372D01*
X50266Y-43312D02*
X50266Y-43232D01*
X50266Y-43182D02*
X50266Y-43112D01*
X50266Y-42642D02*
X50266Y-42502D01*
X50266Y-42472D02*
X50266Y-42332D01*
X50266Y-42142D02*
X50266Y-42002D01*
X50266Y-41742D02*
X50266Y-41732D01*
X50266Y-41552D02*
X50266Y-41452D01*
X50266Y-41382D02*
X50266Y-41282D01*
X50266Y-40932D02*
X50266Y-40832D01*
X50266Y-40822D02*
X50266Y-40722D01*
X50266Y-40552D02*
X50266Y-40412D01*
X50266Y-39972D02*
X50266Y-39872D01*
X50266Y-39792D02*
X50266Y-39652D01*
X50276Y-44022D02*
X50276Y-43952D01*
X50276Y-43922D02*
X50276Y-43622D01*
X50276Y-43422D02*
X50276Y-43382D01*
X50276Y-43322D02*
X50276Y-43242D01*
X50276Y-43192D02*
X50276Y-43112D01*
X50276Y-42652D02*
X50276Y-42512D01*
X50276Y-42462D02*
X50276Y-42322D01*
X50276Y-42152D02*
X50276Y-42012D01*
X50276Y-41552D02*
X50276Y-41452D01*
X50276Y-41382D02*
X50276Y-41282D01*
X50276Y-40942D02*
X50276Y-40842D01*
X50276Y-40822D02*
X50276Y-40712D01*
X50276Y-40552D02*
X50276Y-40422D01*
X50276Y-39972D02*
X50276Y-39872D01*
X50276Y-39792D02*
X50276Y-39662D01*
X50286Y-44022D02*
X50286Y-43952D01*
X50286Y-43922D02*
X50286Y-43632D01*
X50286Y-43412D02*
X50286Y-43392D01*
X50286Y-43332D02*
X50286Y-43252D01*
X50286Y-43202D02*
X50286Y-43112D01*
X50286Y-42652D02*
X50286Y-42512D01*
X50286Y-42462D02*
X50286Y-42322D01*
X50286Y-42152D02*
X50286Y-42022D01*
X50286Y-41552D02*
X50286Y-41452D01*
X50286Y-41382D02*
X50286Y-41282D01*
X50286Y-40942D02*
X50286Y-40842D01*
X50286Y-40822D02*
X50286Y-40712D01*
X50286Y-40562D02*
X50286Y-40432D01*
X50286Y-39972D02*
X50286Y-39872D01*
X50286Y-39802D02*
X50286Y-39672D01*
X50296Y-44022D02*
X50296Y-43952D01*
X50296Y-43922D02*
X50296Y-43642D01*
X50296Y-43552D02*
X50296Y-43482D01*
X50296Y-43402D02*
X50296Y-43392D01*
X50296Y-43342D02*
X50296Y-43262D01*
X50296Y-43212D02*
X50296Y-43112D01*
X50296Y-42662D02*
X50296Y-42512D01*
X50296Y-42452D02*
X50296Y-42312D01*
X50296Y-42162D02*
X50296Y-42032D01*
X50296Y-41552D02*
X50296Y-41452D01*
X50296Y-41382D02*
X50296Y-41282D01*
X50296Y-40942D02*
X50296Y-40842D01*
X50296Y-40812D02*
X50296Y-40712D01*
X50296Y-40562D02*
X50296Y-40432D01*
X50296Y-39972D02*
X50296Y-39872D01*
X50296Y-39812D02*
X50296Y-39682D01*
X50306Y-44022D02*
X50306Y-43952D01*
X50306Y-43922D02*
X50306Y-43652D01*
X50306Y-43572D02*
X50306Y-43462D01*
X50306Y-43352D02*
X50306Y-43272D01*
X50306Y-43222D02*
X50306Y-43112D01*
X50306Y-42662D02*
X50306Y-42522D01*
X50306Y-42452D02*
X50306Y-42312D01*
X50306Y-42162D02*
X50306Y-42042D01*
X50306Y-41552D02*
X50306Y-41452D01*
X50306Y-41382D02*
X50306Y-41282D01*
X50306Y-40952D02*
X50306Y-40852D01*
X50306Y-40812D02*
X50306Y-40702D01*
X50306Y-40562D02*
X50306Y-40442D01*
X50306Y-39972D02*
X50306Y-39872D01*
X50306Y-39822D02*
X50306Y-39692D01*
X50316Y-44022D02*
X50316Y-43952D01*
X50316Y-43922D02*
X50316Y-43662D01*
X50316Y-43582D02*
X50316Y-43452D01*
X50316Y-43362D02*
X50316Y-43282D01*
X50316Y-43232D02*
X50316Y-43112D01*
X50316Y-42672D02*
X50316Y-42522D01*
X50316Y-42442D02*
X50316Y-42302D01*
X50316Y-42162D02*
X50316Y-42042D01*
X50316Y-41552D02*
X50316Y-41452D01*
X50316Y-41382D02*
X50316Y-41282D01*
X50316Y-40952D02*
X50316Y-40852D01*
X50316Y-40812D02*
X50316Y-40702D01*
X50316Y-40562D02*
X50316Y-40442D01*
X50316Y-39972D02*
X50316Y-39872D01*
X50316Y-39832D02*
X50316Y-39702D01*
X50326Y-44022D02*
X50326Y-43952D01*
X50326Y-43922D02*
X50326Y-43672D01*
X50326Y-43592D02*
X50326Y-43442D01*
X50326Y-43362D02*
X50326Y-43292D01*
X50326Y-43242D02*
X50326Y-43112D01*
X50326Y-42672D02*
X50326Y-42532D01*
X50326Y-42442D02*
X50326Y-42292D01*
X50326Y-42162D02*
X50326Y-42052D01*
X50326Y-41552D02*
X50326Y-41452D01*
X50326Y-41382D02*
X50326Y-41282D01*
X50326Y-40962D02*
X50326Y-40852D01*
X50326Y-40802D02*
X50326Y-40702D01*
X50326Y-40572D02*
X50326Y-40452D01*
X50326Y-39972D02*
X50326Y-39872D01*
X50326Y-39842D02*
X50326Y-39712D01*
X50336Y-44022D02*
X50336Y-43952D01*
X50336Y-43922D02*
X50336Y-43682D01*
X50336Y-43602D02*
X50336Y-43432D01*
X50336Y-43362D02*
X50336Y-43302D01*
X50336Y-43252D02*
X50336Y-43112D01*
X50336Y-42682D02*
X50336Y-42532D01*
X50336Y-42432D02*
X50336Y-42292D01*
X50336Y-42172D02*
X50336Y-42052D01*
X50336Y-41552D02*
X50336Y-41452D01*
X50336Y-41382D02*
X50336Y-41282D01*
X50336Y-40962D02*
X50336Y-40862D01*
X50336Y-40802D02*
X50336Y-40692D01*
X50336Y-40572D02*
X50336Y-40452D01*
X50336Y-39972D02*
X50336Y-39872D01*
X50336Y-39852D02*
X50336Y-39722D01*
X50346Y-44022D02*
X50346Y-43952D01*
X50346Y-43922D02*
X50346Y-43692D01*
X50346Y-43602D02*
X50346Y-43432D01*
X50346Y-43362D02*
X50346Y-43322D01*
X50346Y-43262D02*
X50346Y-43112D01*
X50346Y-42682D02*
X50346Y-42542D01*
X50346Y-42432D02*
X50346Y-42282D01*
X50346Y-42172D02*
X50346Y-42052D01*
X50346Y-41552D02*
X50346Y-41452D01*
X50346Y-41382D02*
X50346Y-41282D01*
X50346Y-40962D02*
X50346Y-40862D01*
X50346Y-40802D02*
X50346Y-40692D01*
X50346Y-40572D02*
X50346Y-40462D01*
X50346Y-39972D02*
X50346Y-39872D01*
X50346Y-39862D02*
X50346Y-39732D01*
X50356Y-44022D02*
X50356Y-43952D01*
X50356Y-43922D02*
X50356Y-43702D01*
X50356Y-43612D02*
X50356Y-43432D01*
X50356Y-43362D02*
X50356Y-43332D01*
X50356Y-43272D02*
X50356Y-43112D01*
X50356Y-42692D02*
X50356Y-42542D01*
X50356Y-42422D02*
X50356Y-42282D01*
X50356Y-42172D02*
X50356Y-42062D01*
X50356Y-41552D02*
X50356Y-41452D01*
X50356Y-41382D02*
X50356Y-41282D01*
X50356Y-40972D02*
X50356Y-40862D01*
X50356Y-40792D02*
X50356Y-40692D01*
X50356Y-40572D02*
X50356Y-40462D01*
X50356Y-39972D02*
X50356Y-39872D01*
X50356Y-39862D02*
X50356Y-39742D01*
X50366Y-44022D02*
X50366Y-43952D01*
X50366Y-43922D02*
X50366Y-43712D01*
X50366Y-43612D02*
X50366Y-43422D01*
X50366Y-43362D02*
X50366Y-43342D01*
X50366Y-43282D02*
X50366Y-43112D01*
X50366Y-42692D02*
X50366Y-42552D01*
X50366Y-42422D02*
X50366Y-42272D01*
X50366Y-42172D02*
X50366Y-42062D01*
X50366Y-41552D02*
X50366Y-41452D01*
X50366Y-41382D02*
X50366Y-41282D01*
X50366Y-40972D02*
X50366Y-40872D01*
X50366Y-40792D02*
X50366Y-40682D01*
X50366Y-40572D02*
X50366Y-40462D01*
X50366Y-39972D02*
X50366Y-39752D01*
X50376Y-44022D02*
X50376Y-43952D01*
X50376Y-43922D02*
X50376Y-43722D01*
X50376Y-43612D02*
X50376Y-43422D01*
X50376Y-43362D02*
X50376Y-43352D01*
X50376Y-43292D02*
X50376Y-43112D01*
X50376Y-42702D02*
X50376Y-42552D01*
X50376Y-42412D02*
X50376Y-42272D01*
X50376Y-42172D02*
X50376Y-42062D01*
X50376Y-41922D02*
X50376Y-41672D01*
X50376Y-41552D02*
X50376Y-41452D01*
X50376Y-41382D02*
X50376Y-41282D01*
X50376Y-40972D02*
X50376Y-40872D01*
X50376Y-40792D02*
X50376Y-40682D01*
X50376Y-40572D02*
X50376Y-40462D01*
X50376Y-39972D02*
X50376Y-39762D01*
X50386Y-44022D02*
X50386Y-43952D01*
X50386Y-43922D02*
X50386Y-43732D01*
X50386Y-43612D02*
X50386Y-43422D01*
X50386Y-43302D02*
X50386Y-43112D01*
X50386Y-42702D02*
X50386Y-42562D01*
X50386Y-42412D02*
X50386Y-42262D01*
X50386Y-42172D02*
X50386Y-42062D01*
X50386Y-41922D02*
X50386Y-41672D01*
X50386Y-41552D02*
X50386Y-41452D01*
X50386Y-41382D02*
X50386Y-41282D01*
X50386Y-40982D02*
X50386Y-40872D01*
X50386Y-40782D02*
X50386Y-40672D01*
X50386Y-40572D02*
X50386Y-40462D01*
X50386Y-39972D02*
X50386Y-39762D01*
X50396Y-44022D02*
X50396Y-43952D01*
X50396Y-43922D02*
X50396Y-43742D01*
X50396Y-43612D02*
X50396Y-43422D01*
X50396Y-43312D02*
X50396Y-43112D01*
X50396Y-42712D02*
X50396Y-42562D01*
X50396Y-42402D02*
X50396Y-42262D01*
X50396Y-42172D02*
X50396Y-42062D01*
X50396Y-41922D02*
X50396Y-41672D01*
X50396Y-41552D02*
X50396Y-41452D01*
X50396Y-41382D02*
X50396Y-41282D01*
X50396Y-40982D02*
X50396Y-40882D01*
X50396Y-40782D02*
X50396Y-40672D01*
X50396Y-40572D02*
X50396Y-40462D01*
X50396Y-39972D02*
X50396Y-39752D01*
X50406Y-44022D02*
X50406Y-43952D01*
X50406Y-43922D02*
X50406Y-43752D01*
X50406Y-43682D02*
X50406Y-43672D01*
X50406Y-43612D02*
X50406Y-43422D01*
X50406Y-43322D02*
X50406Y-43112D01*
X50406Y-42712D02*
X50406Y-42572D01*
X50406Y-42402D02*
X50406Y-42252D01*
X50406Y-42172D02*
X50406Y-42062D01*
X50406Y-41922D02*
X50406Y-41672D01*
X50406Y-41552D02*
X50406Y-41452D01*
X50406Y-41382D02*
X50406Y-41282D01*
X50406Y-40982D02*
X50406Y-40882D01*
X50406Y-40782D02*
X50406Y-40672D01*
X50406Y-40572D02*
X50406Y-40462D01*
X50406Y-39972D02*
X50406Y-39742D01*
X50416Y-44022D02*
X50416Y-43952D01*
X50416Y-43922D02*
X50416Y-43762D01*
X50416Y-43692D02*
X50416Y-43672D01*
X50416Y-43612D02*
X50416Y-43422D01*
X50416Y-43332D02*
X50416Y-43112D01*
X50416Y-42722D02*
X50416Y-42572D01*
X50416Y-42392D02*
X50416Y-42252D01*
X50416Y-42172D02*
X50416Y-42062D01*
X50416Y-41922D02*
X50416Y-41672D01*
X50416Y-41552D02*
X50416Y-41452D01*
X50416Y-41382D02*
X50416Y-41282D01*
X50416Y-40992D02*
X50416Y-40882D01*
X50416Y-40772D02*
X50416Y-40662D01*
X50416Y-40572D02*
X50416Y-40462D01*
X50416Y-39972D02*
X50416Y-39732D01*
X50426Y-44022D02*
X50426Y-43952D01*
X50426Y-43922D02*
X50426Y-43772D01*
X50426Y-43702D02*
X50426Y-43672D01*
X50426Y-43612D02*
X50426Y-43422D01*
X50426Y-43342D02*
X50426Y-43112D01*
X50426Y-42722D02*
X50426Y-42572D01*
X50426Y-42392D02*
X50426Y-42242D01*
X50426Y-42172D02*
X50426Y-42062D01*
X50426Y-41922D02*
X50426Y-41672D01*
X50426Y-41552D02*
X50426Y-41452D01*
X50426Y-41382D02*
X50426Y-41282D01*
X50426Y-40992D02*
X50426Y-40892D01*
X50426Y-40772D02*
X50426Y-40662D01*
X50426Y-40572D02*
X50426Y-40462D01*
X50426Y-39972D02*
X50426Y-39872D01*
X50426Y-39862D02*
X50426Y-39732D01*
X50436Y-44022D02*
X50436Y-43952D01*
X50436Y-43922D02*
X50436Y-43782D01*
X50436Y-43712D02*
X50436Y-43672D01*
X50436Y-43612D02*
X50436Y-43432D01*
X50436Y-43352D02*
X50436Y-43112D01*
X50436Y-42732D02*
X50436Y-42582D01*
X50436Y-42382D02*
X50436Y-42242D01*
X50436Y-42172D02*
X50436Y-42062D01*
X50436Y-41922D02*
X50436Y-41672D01*
X50436Y-41552D02*
X50436Y-41452D01*
X50436Y-41382D02*
X50436Y-41282D01*
X50436Y-41002D02*
X50436Y-40892D01*
X50436Y-40772D02*
X50436Y-40662D01*
X50436Y-40572D02*
X50436Y-40462D01*
X50436Y-39972D02*
X50436Y-39872D01*
X50436Y-39852D02*
X50436Y-39722D01*
X50446Y-44022D02*
X50446Y-43952D01*
X50446Y-43922D02*
X50446Y-43792D01*
X50446Y-43722D02*
X50446Y-43672D01*
X50446Y-43602D02*
X50446Y-43432D01*
X50446Y-43362D02*
X50446Y-43112D01*
X50446Y-42732D02*
X50446Y-42582D01*
X50446Y-42382D02*
X50446Y-42232D01*
X50446Y-42172D02*
X50446Y-42062D01*
X50446Y-41922D02*
X50446Y-41672D01*
X50446Y-41552D02*
X50446Y-41452D01*
X50446Y-41382D02*
X50446Y-41282D01*
X50446Y-41002D02*
X50446Y-40652D01*
X50446Y-40572D02*
X50446Y-40462D01*
X50446Y-39972D02*
X50446Y-39872D01*
X50446Y-39842D02*
X50446Y-39712D01*
X50456Y-44022D02*
X50456Y-43952D01*
X50456Y-43922D02*
X50456Y-43802D01*
X50456Y-43732D02*
X50456Y-43672D01*
X50456Y-43602D02*
X50456Y-43442D01*
X50456Y-43372D02*
X50456Y-43112D01*
X50456Y-42742D02*
X50456Y-42592D01*
X50456Y-42372D02*
X50456Y-42232D01*
X50456Y-42172D02*
X50456Y-42062D01*
X50456Y-41922D02*
X50456Y-41672D01*
X50456Y-41552D02*
X50456Y-41452D01*
X50456Y-41382D02*
X50456Y-41282D01*
X50456Y-41002D02*
X50456Y-40652D01*
X50456Y-40572D02*
X50456Y-40452D01*
X50456Y-39972D02*
X50456Y-39872D01*
X50456Y-39832D02*
X50456Y-39702D01*
X50466Y-44022D02*
X50466Y-43952D01*
X50466Y-43922D02*
X50466Y-43812D01*
X50466Y-43742D02*
X50466Y-43672D01*
X50466Y-43592D02*
X50466Y-43442D01*
X50466Y-43382D02*
X50466Y-43112D01*
X50466Y-42742D02*
X50466Y-42592D01*
X50466Y-42372D02*
X50466Y-42222D01*
X50466Y-42172D02*
X50466Y-42052D01*
X50466Y-41772D02*
X50466Y-41672D01*
X50466Y-41552D02*
X50466Y-41452D01*
X50466Y-41382D02*
X50466Y-41282D01*
X50466Y-41012D02*
X50466Y-40652D01*
X50466Y-40572D02*
X50466Y-40452D01*
X50466Y-39972D02*
X50466Y-39872D01*
X50466Y-39832D02*
X50466Y-39692D01*
X50476Y-44022D02*
X50476Y-43952D01*
X50476Y-43922D02*
X50476Y-43822D01*
X50476Y-43752D02*
X50476Y-43682D01*
X50476Y-43582D02*
X50476Y-43462D01*
X50476Y-43392D02*
X50476Y-43112D01*
X50476Y-42752D02*
X50476Y-42602D01*
X50476Y-42362D02*
X50476Y-42222D01*
X50476Y-42172D02*
X50476Y-42052D01*
X50476Y-41772D02*
X50476Y-41672D01*
X50476Y-41552D02*
X50476Y-41452D01*
X50476Y-41382D02*
X50476Y-41282D01*
X50476Y-41012D02*
X50476Y-40642D01*
X50476Y-40572D02*
X50476Y-40452D01*
X50476Y-39972D02*
X50476Y-39872D01*
X50476Y-39822D02*
X50476Y-39682D01*
X50486Y-44022D02*
X50486Y-43952D01*
X50486Y-43922D02*
X50486Y-43832D01*
X50486Y-43762D02*
X50486Y-43692D01*
X50486Y-43562D02*
X50486Y-43472D01*
X50486Y-43402D02*
X50486Y-43112D01*
X50486Y-42752D02*
X50486Y-42602D01*
X50486Y-42362D02*
X50486Y-42212D01*
X50486Y-42162D02*
X50486Y-42052D01*
X50486Y-41772D02*
X50486Y-41672D01*
X50486Y-41552D02*
X50486Y-41452D01*
X50486Y-41382D02*
X50486Y-41282D01*
X50486Y-41012D02*
X50486Y-40642D01*
X50486Y-40562D02*
X50486Y-40442D01*
X50486Y-39972D02*
X50486Y-39872D01*
X50486Y-39812D02*
X50486Y-39672D01*
X50496Y-44022D02*
X50496Y-43952D01*
X50496Y-43922D02*
X50496Y-43832D01*
X50496Y-43772D02*
X50496Y-43702D01*
X50496Y-43642D02*
X50496Y-43632D01*
X50496Y-43532D02*
X50496Y-43512D01*
X50496Y-43402D02*
X50496Y-43112D01*
X50496Y-42762D02*
X50496Y-42612D01*
X50496Y-42352D02*
X50496Y-42212D01*
X50496Y-42162D02*
X50496Y-42042D01*
X50496Y-41772D02*
X50496Y-41672D01*
X50496Y-41552D02*
X50496Y-41452D01*
X50496Y-41382D02*
X50496Y-41282D01*
X50496Y-41022D02*
X50496Y-40632D01*
X50496Y-40562D02*
X50496Y-40442D01*
X50496Y-39972D02*
X50496Y-39872D01*
X50496Y-39802D02*
X50496Y-39662D01*
X50506Y-44022D02*
X50506Y-43952D01*
X50506Y-43922D02*
X50506Y-43842D01*
X50506Y-43782D02*
X50506Y-43712D01*
X50506Y-43652D02*
X50506Y-43622D01*
X50506Y-43412D02*
X50506Y-43112D01*
X50506Y-42762D02*
X50506Y-42612D01*
X50506Y-42352D02*
X50506Y-42202D01*
X50506Y-42162D02*
X50506Y-42032D01*
X50506Y-41772D02*
X50506Y-41672D01*
X50506Y-41552D02*
X50506Y-41452D01*
X50506Y-41382D02*
X50506Y-41282D01*
X50506Y-41022D02*
X50506Y-40632D01*
X50506Y-40562D02*
X50506Y-40432D01*
X50506Y-39972D02*
X50506Y-39872D01*
X50506Y-39792D02*
X50506Y-39652D01*
X50516Y-44022D02*
X50516Y-43952D01*
X50516Y-43922D02*
X50516Y-43852D01*
X50516Y-43792D02*
X50516Y-43722D01*
X50516Y-43662D02*
X50516Y-43612D01*
X50516Y-43432D02*
X50516Y-43112D01*
X50516Y-42772D02*
X50516Y-42402D01*
X50516Y-42342D02*
X50516Y-42202D01*
X50516Y-42162D02*
X50516Y-42032D01*
X50516Y-41772D02*
X50516Y-41672D01*
X50516Y-41552D02*
X50516Y-41452D01*
X50516Y-41382D02*
X50516Y-41282D01*
X50516Y-41022D02*
X50516Y-40632D01*
X50516Y-40552D02*
X50516Y-40422D01*
X50516Y-39972D02*
X50516Y-39872D01*
X50516Y-39782D02*
X50516Y-39642D01*
X50526Y-44022D02*
X50526Y-43952D01*
X50526Y-43922D02*
X50526Y-43862D01*
X50526Y-43802D02*
X50526Y-43732D01*
X50526Y-43672D02*
X50526Y-43602D01*
X50526Y-43442D02*
X50526Y-43112D01*
X50526Y-42772D02*
X50526Y-42402D01*
X50526Y-42342D02*
X50526Y-42192D01*
X50526Y-42152D02*
X50526Y-42022D01*
X50526Y-41772D02*
X50526Y-41672D01*
X50526Y-41552D02*
X50526Y-41452D01*
X50526Y-41382D02*
X50526Y-41282D01*
X50526Y-41032D02*
X50526Y-40622D01*
X50526Y-40552D02*
X50526Y-40412D01*
X50526Y-39972D02*
X50526Y-39872D01*
X50526Y-39772D02*
X50526Y-39642D01*
X50536Y-44022D02*
X50536Y-43952D01*
X50536Y-43922D02*
X50536Y-43872D01*
X50536Y-43812D02*
X50536Y-43742D01*
X50536Y-43682D02*
X50536Y-43572D01*
X50536Y-43462D02*
X50536Y-43112D01*
X50536Y-42782D02*
X50536Y-42392D01*
X50536Y-42332D02*
X50536Y-42192D01*
X50536Y-42152D02*
X50536Y-42012D01*
X50536Y-41772D02*
X50536Y-41672D01*
X50536Y-41552D02*
X50536Y-41452D01*
X50536Y-41382D02*
X50536Y-41282D01*
X50536Y-41032D02*
X50536Y-40922D01*
X50536Y-40732D02*
X50536Y-40622D01*
X50536Y-40552D02*
X50536Y-40402D01*
X50536Y-39972D02*
X50536Y-39872D01*
X50536Y-39772D02*
X50536Y-39632D01*
X50546Y-44022D02*
X50546Y-43952D01*
X50546Y-43922D02*
X50546Y-43882D01*
X50546Y-43822D02*
X50546Y-43752D01*
X50546Y-43692D02*
X50546Y-43542D01*
X50546Y-43502D02*
X50546Y-43112D01*
X50546Y-42782D02*
X50546Y-42392D01*
X50546Y-42332D02*
X50546Y-42182D01*
X50546Y-42142D02*
X50546Y-42002D01*
X50546Y-41772D02*
X50546Y-41672D01*
X50546Y-41552D02*
X50546Y-41452D01*
X50546Y-41382D02*
X50546Y-41282D01*
X50546Y-41042D02*
X50546Y-40932D01*
X50546Y-40732D02*
X50546Y-40622D01*
X50546Y-40542D02*
X50546Y-40392D01*
X50546Y-39972D02*
X50546Y-39872D01*
X50546Y-39762D02*
X50546Y-39622D01*
X50556Y-44022D02*
X50556Y-43952D01*
X50556Y-43922D02*
X50556Y-43892D01*
X50556Y-43832D02*
X50556Y-43762D01*
X50556Y-43702D02*
X50556Y-43112D01*
X50556Y-42792D02*
X50556Y-42382D01*
X50556Y-42322D02*
X50556Y-42182D01*
X50556Y-42142D02*
X50556Y-41992D01*
X50556Y-41772D02*
X50556Y-41672D01*
X50556Y-41552D02*
X50556Y-41452D01*
X50556Y-41382D02*
X50556Y-41282D01*
X50556Y-41042D02*
X50556Y-40932D01*
X50556Y-40732D02*
X50556Y-40612D01*
X50556Y-40532D02*
X50556Y-40382D01*
X50556Y-39972D02*
X50556Y-39872D01*
X50556Y-39752D02*
X50556Y-39612D01*
X50566Y-44022D02*
X50566Y-43952D01*
X50566Y-43922D02*
X50566Y-43902D01*
X50566Y-43842D02*
X50566Y-43772D01*
X50566Y-43712D02*
X50566Y-43112D01*
X50566Y-42792D02*
X50566Y-42382D01*
X50566Y-42322D02*
X50566Y-42172D01*
X50566Y-42132D02*
X50566Y-41982D01*
X50566Y-41782D02*
X50566Y-41672D01*
X50566Y-41552D02*
X50566Y-41452D01*
X50566Y-41382D02*
X50566Y-41282D01*
X50566Y-41042D02*
X50566Y-40932D01*
X50566Y-40722D02*
X50566Y-40612D01*
X50566Y-40532D02*
X50566Y-40362D01*
X50566Y-40172D02*
X50566Y-40132D01*
X50566Y-39972D02*
X50566Y-39872D01*
X50566Y-39742D02*
X50566Y-39602D01*
X50576Y-44022D02*
X50576Y-43952D01*
X50576Y-43922D02*
X50576Y-43912D01*
X50576Y-43852D02*
X50576Y-43782D01*
X50576Y-43722D02*
X50576Y-43112D01*
X50576Y-42802D02*
X50576Y-42372D01*
X50576Y-42312D02*
X50576Y-42172D01*
X50576Y-42132D02*
X50576Y-41962D01*
X50576Y-41792D02*
X50576Y-41672D01*
X50576Y-41552D02*
X50576Y-41452D01*
X50576Y-41382D02*
X50576Y-41282D01*
X50576Y-41052D02*
X50576Y-40942D01*
X50576Y-40722D02*
X50576Y-40602D01*
X50576Y-40522D02*
X50576Y-40332D01*
X50576Y-40202D02*
X50576Y-40132D01*
X50576Y-39972D02*
X50576Y-39872D01*
X50576Y-39732D02*
X50576Y-39592D01*
X50586Y-44022D02*
X50586Y-43952D01*
X50586Y-43922D02*
X50586Y-43912D01*
X50586Y-43862D02*
X50586Y-43792D01*
X50586Y-43732D02*
X50586Y-43112D01*
X50586Y-42802D02*
X50586Y-42372D01*
X50586Y-42312D02*
X50586Y-42162D01*
X50586Y-42122D02*
X50586Y-41932D01*
X50586Y-41822D02*
X50586Y-41672D01*
X50586Y-41552D02*
X50586Y-41452D01*
X50586Y-41382D02*
X50586Y-40942D01*
X50586Y-40722D02*
X50586Y-40602D01*
X50586Y-40512D02*
X50586Y-40122D01*
X50586Y-39972D02*
X50586Y-39872D01*
X50586Y-39722D02*
X50586Y-39582D01*
X50596Y-44022D02*
X50596Y-43952D01*
X50596Y-43922D02*
X50596Y-43912D01*
X50596Y-43872D02*
X50596Y-43802D01*
X50596Y-43742D02*
X50596Y-43112D01*
X50596Y-42812D02*
X50596Y-42362D01*
X50596Y-42302D02*
X50596Y-42162D01*
X50596Y-42112D02*
X50596Y-41672D01*
X50596Y-41552D02*
X50596Y-41452D01*
X50596Y-41382D02*
X50596Y-40952D01*
X50596Y-40712D02*
X50596Y-40602D01*
X50596Y-40512D02*
X50596Y-40122D01*
X50596Y-39972D02*
X50596Y-39872D01*
X50596Y-39712D02*
X50596Y-39572D01*
X50606Y-44022D02*
X50606Y-43952D01*
X50606Y-43922D02*
X50606Y-43912D01*
X50606Y-43882D02*
X50606Y-43812D01*
X50606Y-43752D02*
X50606Y-43112D01*
X50606Y-42812D02*
X50606Y-42362D01*
X50606Y-42302D02*
X50606Y-42152D01*
X50606Y-42102D02*
X50606Y-41672D01*
X50606Y-41552D02*
X50606Y-41452D01*
X50606Y-41382D02*
X50606Y-40952D01*
X50606Y-40712D02*
X50606Y-40592D01*
X50606Y-40502D02*
X50606Y-40112D01*
X50606Y-39972D02*
X50606Y-39872D01*
X50606Y-39702D02*
X50606Y-39562D01*
X50616Y-44022D02*
X50616Y-43952D01*
X50616Y-43922D02*
X50616Y-43912D01*
X50616Y-43892D02*
X50616Y-43822D01*
X50616Y-43762D02*
X50616Y-43112D01*
X50616Y-42822D02*
X50616Y-42352D01*
X50616Y-42292D02*
X50616Y-42152D01*
X50616Y-42092D02*
X50616Y-41672D01*
X50616Y-41552D02*
X50616Y-41452D01*
X50616Y-41382D02*
X50616Y-40952D01*
X50616Y-40702D02*
X50616Y-40592D01*
X50616Y-40492D02*
X50616Y-40112D01*
X50616Y-39972D02*
X50616Y-39872D01*
X50616Y-39702D02*
X50616Y-39552D01*
X50626Y-44022D02*
X50626Y-43962D01*
X50626Y-43922D02*
X50626Y-43912D01*
X50626Y-43902D02*
X50626Y-43832D01*
X50626Y-43772D02*
X50626Y-43112D01*
X50626Y-42822D02*
X50626Y-42352D01*
X50626Y-42292D02*
X50626Y-42142D01*
X50626Y-42092D02*
X50626Y-41682D01*
X50626Y-41552D02*
X50626Y-41452D01*
X50626Y-41382D02*
X50626Y-40962D01*
X50626Y-40702D02*
X50626Y-40592D01*
X50626Y-40472D02*
X50626Y-40112D01*
X50626Y-39972D02*
X50626Y-39872D01*
X50626Y-39692D02*
X50626Y-39552D01*
X50636Y-44022D02*
X50636Y-43972D01*
X50636Y-43922D02*
X50636Y-43842D01*
X50636Y-43782D02*
X50636Y-43122D01*
X50636Y-42822D02*
X50636Y-42352D01*
X50636Y-42282D02*
X50636Y-42142D01*
X50636Y-42072D02*
X50636Y-41692D01*
X50636Y-41552D02*
X50636Y-41452D01*
X50636Y-41382D02*
X50636Y-40962D01*
X50636Y-40702D02*
X50636Y-40582D01*
X50636Y-40462D02*
X50636Y-40102D01*
X50636Y-39972D02*
X50636Y-39872D01*
X50636Y-39682D02*
X50636Y-39542D01*
X50646Y-44022D02*
X50646Y-43982D01*
X50646Y-43922D02*
X50646Y-43852D01*
X50646Y-43792D02*
X50646Y-43132D01*
X50646Y-42282D02*
X50646Y-42132D01*
X50646Y-42062D02*
X50646Y-41712D01*
X50646Y-41552D02*
X50646Y-41452D01*
X50646Y-41382D02*
X50646Y-40962D01*
X50646Y-40692D02*
X50646Y-40582D01*
X50646Y-40442D02*
X50646Y-40102D01*
X50646Y-39972D02*
X50646Y-39872D01*
X50646Y-39672D02*
X50646Y-39532D01*
X50656Y-44022D02*
X50656Y-43992D01*
X50656Y-43922D02*
X50656Y-43862D01*
X50656Y-43802D02*
X50656Y-43142D01*
X50656Y-42272D02*
X50656Y-42132D01*
X50656Y-42052D02*
X50656Y-41722D01*
X50656Y-41552D02*
X50656Y-41452D01*
X50656Y-41382D02*
X50656Y-40972D01*
X50656Y-40692D02*
X50656Y-40582D01*
X50656Y-40432D02*
X50656Y-40132D01*
X50656Y-39972D02*
X50656Y-39872D01*
X50656Y-39662D02*
X50656Y-39522D01*
X50666Y-43922D02*
X50666Y-43872D01*
X50666Y-43812D02*
X50666Y-43152D01*
X50666Y-42272D02*
X50666Y-42122D01*
X50666Y-42032D02*
X50666Y-41742D01*
X50666Y-41552D02*
X50666Y-41452D01*
X50666Y-41382D02*
X50666Y-40972D01*
X50666Y-40682D02*
X50666Y-40572D01*
X50666Y-40402D02*
X50666Y-40162D01*
X50666Y-39972D02*
X50666Y-39872D01*
X50666Y-39652D02*
X50666Y-39512D01*
X50676Y-43922D02*
X50676Y-43882D01*
X50676Y-43822D02*
X50676Y-43162D01*
X50676Y-42262D02*
X50676Y-42122D01*
X50676Y-42002D02*
X50676Y-41772D01*
X50676Y-40372D02*
X50676Y-40202D01*
X50686Y-43922D02*
X50686Y-43892D01*
X50686Y-43832D02*
X50686Y-43172D01*
X50686Y-42262D02*
X50686Y-42112D01*
X50686Y-41972D02*
X50686Y-41802D01*
X50696Y-43922D02*
X50696Y-43902D01*
X50696Y-43842D02*
X50696Y-43182D01*
X50696Y-42252D02*
X50696Y-42112D01*
X50706Y-43922D02*
X50706Y-43912D01*
X50706Y-43852D02*
X50706Y-43192D01*
X50706Y-42932D02*
X50706Y-42352D01*
X50706Y-42252D02*
X50706Y-42102D01*
X50716Y-43922D02*
X50716Y-43912D01*
X50716Y-43862D02*
X50716Y-43202D01*
X50716Y-42932D02*
X50716Y-42352D01*
X50716Y-42242D02*
X50716Y-42102D01*
X50726Y-43922D02*
X50726Y-43912D01*
X50726Y-43872D02*
X50726Y-43212D01*
X50726Y-42932D02*
X50726Y-42352D01*
X50726Y-42242D02*
X50726Y-42092D01*
X50736Y-43922D02*
X50736Y-43912D01*
X50736Y-43882D02*
X50736Y-43222D01*
X50736Y-42932D02*
X50736Y-42352D01*
X50736Y-42232D02*
X50736Y-42092D01*
X50746Y-43922D02*
X50746Y-43912D01*
X50746Y-43892D02*
X50746Y-43232D01*
X50746Y-42932D02*
X50746Y-42352D01*
X50746Y-42232D02*
X50746Y-42082D01*
X50756Y-43922D02*
X50756Y-43912D01*
X50756Y-43902D02*
X50756Y-43242D01*
X50756Y-42932D02*
X50756Y-42352D01*
X50756Y-42222D02*
X50756Y-42072D01*
X50766Y-43922D02*
X50766Y-43252D01*
X50766Y-42932D02*
X50766Y-42352D01*
X50766Y-42222D02*
X50766Y-42072D01*
X50776Y-43922D02*
X50776Y-43262D01*
X50776Y-42932D02*
X50776Y-42352D01*
X50776Y-42212D02*
X50776Y-42062D01*
X50786Y-43922D02*
X50786Y-43272D01*
X50786Y-42932D02*
X50786Y-42352D01*
X50786Y-42212D02*
X50786Y-42062D01*
X50796Y-42932D02*
X50796Y-42352D01*
X50796Y-42202D02*
X50796Y-42052D01*
X50806Y-42202D02*
X50806Y-42052D01*
X50816Y-42192D02*
X50816Y-42042D01*
X50826Y-42192D02*
X50826Y-42042D01*
X50836Y-42182D02*
X50836Y-42032D01*
X50846Y-42182D02*
X50846Y-42032D01*
X50856Y-42172D02*
X50856Y-42022D01*
X50866Y-42172D02*
X50866Y-42022D01*
X50876Y-42162D02*
X50876Y-42012D01*
M02*
