M48
;DRILL file {Pcbnew (2013-mar-13)-stable} date Mon 23 Mar 2015 10:52:33 AM CET
;FORMAT={-:-/ absolute / metric / decimal}
FMAT,2
METRIC,TZ
T1C0.305
T2C0.600
T3C0.813
T4C0.899
T5C1.016
T6C1.020
T7C1.300
T8C1.400
T9C1.600
%
G90
G05
M71
T1
X100.559Y-91.008
X100.965Y-76.835
X100.965Y-123.19
X103.505Y-76.835
X103.505Y-123.19
X104.851Y-80.797
X104.851Y-91.364
X106.02Y-86.284
X106.02Y-95.758
X106.02Y-98.704
X106.045Y-76.835
X106.045Y-123.19
X107.544Y-83.236
X107.569Y-120.574
X108.331Y-79.756
X108.585Y-76.835
X108.585Y-123.19
X109.144Y-83.236
X109.22Y-101.44
X110.642Y-86.284
X110.642Y-89.281
X110.642Y-95.758
X110.642Y-96.698
X110.642Y-98.704
X111.125Y-76.835
X111.125Y-123.19
X112.395Y-89.459
X112.395Y-91.415
X112.801Y-79.375
X113.157Y-106.35
X113.665Y-76.835
X113.665Y-123.19
X113.919Y-89.459
X113.919Y-91.415
X115.062Y-85.954
X115.062Y-87.478
X115.875Y-91.415
X115.9Y-79.375
X116.129Y-96.825
X116.205Y-76.835
X116.205Y-123.19
X116.357Y-92.227
X116.789Y-97.485
X116.815Y-109.118
X116.84Y-101.44
X117.577Y-86.538
X118.542Y-86.538
X118.745Y-76.835
X118.745Y-123.19
X118.923Y-92.558
X119.253Y-106.68
X119.659Y-88.163
X119.659Y-93.294
X120.32Y-93.955
X121.285Y-76.835
X121.285Y-123.19
X121.564Y-90.932
X123.571Y-82.956
X123.622Y-104.14
X123.825Y-76.835
X123.825Y-123.19
X124.46Y-106.84
X124.765Y-102.997
X124.866Y-86.335
X125.755Y-109.271
X125.755Y-113.817
X126.365Y-76.835
X126.365Y-123.19
X127.Y-99.695
X127.813Y-107.848
X127.813Y-112.852
X128.041Y-88.265
X128.27Y-99.695
X128.575Y-83.439
X128.575Y-85.039
X128.575Y-86.665
X128.829Y-98.425
X128.829Y-107.848
X128.829Y-112.852
X128.905Y-76.835
X128.905Y-123.19
X129.159Y-93.218
X129.54Y-99.695
X129.591Y-107.086
X130.81Y-99.695
X131.216Y-89.84
X131.445Y-76.835
X131.445Y-123.19
X131.597Y-94.463
X132.004Y-80.315
X132.08Y-99.695
X132.41Y-94.869
X132.512Y-102.387
X133.223Y-94.463
X133.68Y-99.136
X133.985Y-76.835
X133.985Y-123.19
X134.62Y-99.695
X135.89Y-99.695
X136.017Y-100.988
X136.017Y-103.124
X136.525Y-76.835
X136.525Y-123.19
X137.16Y-99.695
X138.43Y-99.695
X139.065Y-76.835
X139.065Y-123.19
X139.7Y-99.695
X139.903Y-90.246
X140.31Y-118.364
X140.716Y-102.641
X140.919Y-118.974
X140.97Y-76.835
X140.97Y-99.695
X140.97Y-123.19
X141.097Y-96.114
X141.529Y-119.583
X142.138Y-120.193
X142.24Y-99.695
X142.621Y-84.252
X142.621Y-85.852
X142.621Y-87.452
X143.18Y-83.464
X143.307Y-93.015
X143.51Y-76.835
X143.51Y-99.695
X143.51Y-123.19
X143.713Y-106.985
X143.916Y-110.236
X144.17Y-89.002
X144.78Y-99.695
X145.847Y-116.535
X145.948Y-86.665
X146.05Y-76.835
X146.05Y-99.695
X146.05Y-123.19
X146.152Y-84.658
X146.761Y-116.535
X147.269Y-84.277
X147.32Y-99.695
X148.59Y-76.835
X148.59Y-99.695
X148.59Y-123.19
X148.768Y-97.079
X149.403Y-93.523
X149.86Y-99.695
X150.241Y-109.804
X151.13Y-76.835
X151.13Y-99.695
X151.13Y-100.965
X151.13Y-102.235
X151.13Y-103.505
X151.13Y-104.775
X151.13Y-106.045
X151.13Y-107.315
X151.13Y-108.585
X151.13Y-123.19
X152.4Y-99.695
X152.4Y-109.855
X152.4Y-111.125
X152.4Y-112.395
X152.4Y-113.665
X152.4Y-114.935
X152.4Y-116.205
X152.4Y-117.475
X152.4Y-118.745
X152.4Y-120.015
X152.4Y-121.285
X153.67Y-76.835
X153.67Y-99.695
X153.67Y-123.19
X154.178Y-79.959
X154.178Y-94.945
X154.305Y-100.965
X154.915Y-120.65
X154.94Y-99.695
X156.134Y-112.547
X156.134Y-113.64
X156.21Y-76.835
X156.21Y-99.695
X156.21Y-123.19
X156.794Y-120.65
X157.48Y-99.695
X158.75Y-76.835
X158.75Y-99.695
X158.75Y-123.19
X159.106Y-116.129
X159.106Y-117.907
X160.02Y-99.695
X160.096Y-117.907
X160.782Y-80.137
X161.29Y-76.835
X161.29Y-99.695
X161.29Y-123.19
X161.544Y-115.519
X161.646Y-93.624
X162.56Y-99.695
X163.068Y-113.106
X163.83Y-76.835
X163.83Y-99.695
X163.83Y-123.19
X165.303Y-96.571
X166.37Y-76.835
X166.37Y-123.19
X166.954Y-107.239
X167.411Y-110.719
X168.351Y-101.575
X168.91Y-76.835
X168.91Y-123.19
X171.45Y-76.835
X171.45Y-123.19
X173.99Y-76.835
X173.99Y-123.19
X176.53Y-76.835
X176.53Y-123.19
X179.07Y-76.835
X179.07Y-123.19
T3
X114.198Y-112.903
X114.198Y-120.523
X116.738Y-112.903
X116.738Y-120.523
X119.278Y-112.903
X119.278Y-120.523
X121.818Y-112.903
X121.818Y-120.523
T4
X113.157Y-95.123
X114.198Y-110.211
X125.73Y-80.01
X128.27Y-80.01
X156.87Y-97.536
X166.7Y-83.007
X166.7Y-85.547
X166.7Y-88.087
X166.7Y-90.627
X169.24Y-84.277
X169.24Y-86.817
X169.24Y-89.357
X169.24Y-91.897
T5
X102.311Y-105.435
X104.851Y-105.435
X107.061Y-92.202
X109.601Y-92.202
T6
X103.314Y-81.674
X103.314Y-84.214
X103.314Y-86.754
X103.314Y-89.294
X103.314Y-94.374
X103.314Y-96.914
X103.314Y-99.454
X103.314Y-101.994
T7
X174.157Y-99.599
X174.157Y-106.599
X176.657Y-100.849
X176.657Y-105.349
T8
X103.988Y-115.217
X103.988Y-118.717
T9
X178.64Y-79.652
X178.64Y-95.252
T2
X170.012Y-116.554G85X170.012Y-114.154
G05
X171.917Y-110.353G85X174.308Y-110.353
G05
X176.213Y-116.549G85X176.213Y-114.159
G05
T0
M30
