G04 (created by PCBNEW (2013-mar-13)-stable) date Mon 23 Mar 2015 11:07:48 AM CET*
%MOIN*%
G04 Gerber Fmt 3.4, Leading zero omitted, Abs format*
%FSLAX34Y34*%
G01*
G70*
G90*
G04 APERTURE LIST*
%ADD10C,0.005906*%
%ADD11R,0.074800X0.031500*%
%ADD12R,0.025000X0.045000*%
%ADD13R,0.060000X0.016000*%
%ADD14R,0.016000X0.060000*%
%ADD15R,0.045000X0.025000*%
%ADD16R,0.060000X0.080000*%
%ADD17R,0.080000X0.060000*%
%ADD18R,0.035000X0.055000*%
%ADD19R,0.048800X0.050800*%
%ADD20O,0.157480X0.060000*%
%ADD21O,0.060000X0.157480*%
%ADD22R,0.140200X0.070100*%
%ADD23R,0.059843X0.070866*%
%ADD24R,0.078700X0.047200*%
%ADD25C,0.070000*%
%ADD26R,0.047200X0.011800*%
%ADD27R,0.011800X0.047200*%
%ADD28R,0.064961X0.094488*%
%ADD29R,0.033465X0.011024*%
%ADD30R,0.118110X0.078740*%
%ADD31R,0.049213X0.011811*%
%ADD32R,0.047200X0.047200*%
%ADD33R,0.141700X0.047200*%
%ADD34R,0.051181X0.059055*%
%ADD35R,0.039400X0.027600*%
%ADD36R,0.023600X0.019700*%
%ADD37C,0.047200*%
%ADD38R,0.059055X0.078740*%
%ADD39C,0.055100*%
%ADD40R,0.060000X0.060000*%
%ADD41C,0.060000*%
%ADD42C,0.051181*%
%ADD43C,0.078740*%
%ADD44C,0.070866*%
%ADD45R,0.020000X0.045000*%
%ADD46R,0.055000X0.055000*%
%ADD47C,0.055000*%
%ADD48C,0.028000*%
%ADD49C,0.008000*%
%ADD50C,0.012000*%
%ADD51C,0.016000*%
%ADD52C,0.040000*%
%ADD53C,0.006000*%
G04 APERTURE END LIST*
G54D10*
G54D11*
X59616Y-34180D03*
X59616Y-34680D03*
X59616Y-35180D03*
X59616Y-33680D03*
X59616Y-35680D03*
X59616Y-33180D03*
X59616Y-32680D03*
X59616Y-36180D03*
X63064Y-32680D03*
X63064Y-36180D03*
X63064Y-35680D03*
X63064Y-35180D03*
X63064Y-34680D03*
X63064Y-34180D03*
X63064Y-33680D03*
X63064Y-33180D03*
G54D12*
X61040Y-37380D03*
X61640Y-37380D03*
X61640Y-31480D03*
X61040Y-31480D03*
X63640Y-37305D03*
X64240Y-37305D03*
X63640Y-31550D03*
X64240Y-31550D03*
G54D13*
X51140Y-34430D03*
X51140Y-34745D03*
X51140Y-35060D03*
X51140Y-35375D03*
X51140Y-35690D03*
X51140Y-36005D03*
X51140Y-34115D03*
X51140Y-33800D03*
X51140Y-33485D03*
X51140Y-33170D03*
X51140Y-32855D03*
X55640Y-34430D03*
X55640Y-34745D03*
X55640Y-35060D03*
X55640Y-35375D03*
X55640Y-35690D03*
X55640Y-36005D03*
X55640Y-34115D03*
X55640Y-33800D03*
X55640Y-33485D03*
X55640Y-33170D03*
X55640Y-32855D03*
G54D14*
X53390Y-36680D03*
X53390Y-32180D03*
X53705Y-36680D03*
X53705Y-32180D03*
X54020Y-32180D03*
X54020Y-36680D03*
X54335Y-36680D03*
X54335Y-32180D03*
X54650Y-32180D03*
X54650Y-36680D03*
X54965Y-36680D03*
X54965Y-32180D03*
X53075Y-32180D03*
X53075Y-36680D03*
X52760Y-36680D03*
X52760Y-32180D03*
X52445Y-32180D03*
X52445Y-36680D03*
X52130Y-36680D03*
X52130Y-32180D03*
X51815Y-32180D03*
X51815Y-36680D03*
G54D12*
X58320Y-35180D03*
X58920Y-35180D03*
X57660Y-36180D03*
X58260Y-36180D03*
G54D15*
X50410Y-35690D03*
X50410Y-35090D03*
X58820Y-35880D03*
X58820Y-36480D03*
G54D12*
X58920Y-33180D03*
X58320Y-33180D03*
G54D15*
X58620Y-32690D03*
X58620Y-32090D03*
X57540Y-32390D03*
X57540Y-32990D03*
X55110Y-37240D03*
X55110Y-37840D03*
X57760Y-35690D03*
X57760Y-35090D03*
X57160Y-36280D03*
X57160Y-35680D03*
G54D16*
X57970Y-31430D03*
X59270Y-31430D03*
G54D15*
X56540Y-32390D03*
X56540Y-31790D03*
X50410Y-36100D03*
X50410Y-36700D03*
G54D12*
X56520Y-34120D03*
X57120Y-34120D03*
G54D15*
X56420Y-35680D03*
X56420Y-36280D03*
G54D17*
X49750Y-37350D03*
X49750Y-38650D03*
G54D12*
X55250Y-31460D03*
X54650Y-31460D03*
G54D15*
X50720Y-37810D03*
X50720Y-38410D03*
G54D18*
X57815Y-38710D03*
X58565Y-38710D03*
X57815Y-37730D03*
X58565Y-37730D03*
G54D12*
X49150Y-36670D03*
X49750Y-36670D03*
X55940Y-38160D03*
X56540Y-38160D03*
X56540Y-38760D03*
X55940Y-38760D03*
G54D19*
X51630Y-38553D03*
X52630Y-38553D03*
X52630Y-37667D03*
X51630Y-37667D03*
G54D20*
X68154Y-43446D03*
G54D21*
X66934Y-45415D03*
X69375Y-45415D03*
G54D22*
X63315Y-43555D03*
X63315Y-39855D03*
G54D23*
X66644Y-38990D03*
X65305Y-38990D03*
G54D16*
X66625Y-37890D03*
X65325Y-37890D03*
G54D23*
X63314Y-44525D03*
X61975Y-44525D03*
G54D17*
X65910Y-45420D03*
X65910Y-44120D03*
G54D24*
X60750Y-41222D03*
X60750Y-40198D03*
G54D15*
X64630Y-46120D03*
X64630Y-45520D03*
X64030Y-46120D03*
X64030Y-45520D03*
X60990Y-45530D03*
X60990Y-46130D03*
X60990Y-46570D03*
X60990Y-47170D03*
G54D12*
X62230Y-46870D03*
X62830Y-46870D03*
G54D15*
X61030Y-44820D03*
X61030Y-44220D03*
X65730Y-43150D03*
X65730Y-42550D03*
G54D24*
X56010Y-41432D03*
X56010Y-40408D03*
G54D25*
X40675Y-35155D03*
X40675Y-34155D03*
X40675Y-33155D03*
X40675Y-32155D03*
G54D26*
X44847Y-32467D03*
X44847Y-32664D03*
X44847Y-32861D03*
X44847Y-33058D03*
X44847Y-33255D03*
X44847Y-33452D03*
X44847Y-33648D03*
X44847Y-33845D03*
X44847Y-34042D03*
X44847Y-34239D03*
X44847Y-34436D03*
X44847Y-34633D03*
G54D27*
X45437Y-35223D03*
X45634Y-35223D03*
X45831Y-35223D03*
X46028Y-35223D03*
X46225Y-35223D03*
X46422Y-35223D03*
X46618Y-35223D03*
X46815Y-35223D03*
X47012Y-35223D03*
X47209Y-35223D03*
X47406Y-35223D03*
X47603Y-35223D03*
G54D26*
X48193Y-34633D03*
X48193Y-34436D03*
X48193Y-34239D03*
X48193Y-34042D03*
X48193Y-33845D03*
X48193Y-33648D03*
X48193Y-33452D03*
X48193Y-33255D03*
X48193Y-33058D03*
X48193Y-32861D03*
X48193Y-32664D03*
X48193Y-32467D03*
G54D27*
X47603Y-31877D03*
X47406Y-31877D03*
X47209Y-31877D03*
X47012Y-31877D03*
X46815Y-31877D03*
X46618Y-31877D03*
X46422Y-31877D03*
X46225Y-31877D03*
X46028Y-31877D03*
X45831Y-31877D03*
X45634Y-31877D03*
X45437Y-31877D03*
G54D15*
X49030Y-36080D03*
X49030Y-35480D03*
G54D28*
X62640Y-45720D03*
G54D29*
X62059Y-45326D03*
X62059Y-45523D03*
X62059Y-45720D03*
X62059Y-45916D03*
X62059Y-46113D03*
X63220Y-46113D03*
X63220Y-45916D03*
X63220Y-45720D03*
X63220Y-45523D03*
X63220Y-45326D03*
G54D12*
X64830Y-46870D03*
X64230Y-46870D03*
G54D15*
X61730Y-46570D03*
X61730Y-47170D03*
G54D12*
X63830Y-46870D03*
X63230Y-46870D03*
G54D15*
X64630Y-45130D03*
X64630Y-44530D03*
G54D17*
X60750Y-43200D03*
X60750Y-41900D03*
G54D30*
X57520Y-43365D03*
X57520Y-47334D03*
G54D31*
X58435Y-46727D03*
X58435Y-46531D03*
X58435Y-46334D03*
X58435Y-46137D03*
X58435Y-45940D03*
X58435Y-45743D03*
X58435Y-45546D03*
X58435Y-45350D03*
X58435Y-45153D03*
X58435Y-44956D03*
X58435Y-44759D03*
X58435Y-44562D03*
X58435Y-44365D03*
X58435Y-44168D03*
X58435Y-43972D03*
G54D15*
X58550Y-43540D03*
X58550Y-42940D03*
X59150Y-46230D03*
X59150Y-45630D03*
X59150Y-47230D03*
X59150Y-46630D03*
X59150Y-44170D03*
X59150Y-43570D03*
X59150Y-44640D03*
X59150Y-45240D03*
G54D16*
X58840Y-41000D03*
X57540Y-41000D03*
G54D32*
X57940Y-42121D03*
X57034Y-42121D03*
X58846Y-42121D03*
G54D33*
X57940Y-39719D03*
G54D15*
X42650Y-32340D03*
X42650Y-31740D03*
G54D12*
X41570Y-32240D03*
X42170Y-32240D03*
X46720Y-31250D03*
X47320Y-31250D03*
G54D34*
X43445Y-31867D03*
X43445Y-32772D03*
X44174Y-32772D03*
X44174Y-31867D03*
G54D35*
X42150Y-34345D03*
X42150Y-33970D03*
X42150Y-33595D03*
X43150Y-33595D03*
X43150Y-33970D03*
X43150Y-34345D03*
X42150Y-35525D03*
X42150Y-35150D03*
X42150Y-34775D03*
X43150Y-34775D03*
X43150Y-35150D03*
X43150Y-35525D03*
G54D15*
X44250Y-34280D03*
X44250Y-34880D03*
G54D12*
X40680Y-31370D03*
X41280Y-31370D03*
G54D36*
X46820Y-35823D03*
X46820Y-36137D03*
G54D37*
X46230Y-31250D03*
X42040Y-31600D03*
G54D15*
X44850Y-31850D03*
X44850Y-31250D03*
G54D38*
X43000Y-39937D03*
X43000Y-42062D03*
X46000Y-39937D03*
X46000Y-42062D03*
X49000Y-42062D03*
X49000Y-39937D03*
G54D39*
X50500Y-31500D03*
X49500Y-31500D03*
G54D25*
X40675Y-40155D03*
X40675Y-39155D03*
X40675Y-38155D03*
X40675Y-37155D03*
G54D35*
X42150Y-38075D03*
X42150Y-37700D03*
X42150Y-37325D03*
X43150Y-37325D03*
X43150Y-37700D03*
X43150Y-38075D03*
X42150Y-39235D03*
X42150Y-38860D03*
X42150Y-38485D03*
X43150Y-38485D03*
X43150Y-38860D03*
X43150Y-39235D03*
G54D12*
X40680Y-36410D03*
X41280Y-36410D03*
G54D15*
X51670Y-40910D03*
X51670Y-40310D03*
G54D12*
X51360Y-41560D03*
X51960Y-41560D03*
X51960Y-42160D03*
X51360Y-42160D03*
G54D32*
X53550Y-42161D03*
X52644Y-42161D03*
X54456Y-42161D03*
G54D33*
X53550Y-39759D03*
G54D12*
X48200Y-31910D03*
X48800Y-31910D03*
X41940Y-39890D03*
X41340Y-39890D03*
G54D39*
X61760Y-38400D03*
X44550Y-37450D03*
G54D15*
X44240Y-39940D03*
X44240Y-40540D03*
X44860Y-39940D03*
X44860Y-40540D03*
G54D12*
X50800Y-39940D03*
X50200Y-39940D03*
G54D40*
X43150Y-36300D03*
G54D41*
X42150Y-36300D03*
G54D40*
X41280Y-41510D03*
G54D41*
X40280Y-41510D03*
G54D42*
X66630Y-34180D03*
X65630Y-34680D03*
X65630Y-33680D03*
X66630Y-33180D03*
X65630Y-32680D03*
X66630Y-35180D03*
X65630Y-35680D03*
X66630Y-36180D03*
G54D43*
X70330Y-37500D03*
X70330Y-31359D03*
G54D15*
X44240Y-40940D03*
X44240Y-41540D03*
X44860Y-40940D03*
X44860Y-41540D03*
X47860Y-36740D03*
X47860Y-36140D03*
G54D44*
X69550Y-41475D03*
X69550Y-39704D03*
X68565Y-41967D03*
X68565Y-39212D03*
G54D12*
X67210Y-39990D03*
X66610Y-39990D03*
G54D43*
X40940Y-45361D03*
X40940Y-46738D03*
G54D45*
X43850Y-47000D03*
X43850Y-44900D03*
X43350Y-47000D03*
X42850Y-47000D03*
X42350Y-47000D03*
X43350Y-44900D03*
X42850Y-44900D03*
X42350Y-44900D03*
G54D15*
X49950Y-44810D03*
X49950Y-45410D03*
G54D39*
X44960Y-43390D03*
G54D46*
X47960Y-44450D03*
G54D47*
X46960Y-44450D03*
X45960Y-44450D03*
X44960Y-44450D03*
X44960Y-47450D03*
X45960Y-47450D03*
X46960Y-47450D03*
X47960Y-47450D03*
G54D48*
X50320Y-42460D03*
X50320Y-44430D03*
X56660Y-43400D03*
X57420Y-45880D03*
X41740Y-37700D03*
X43560Y-38070D03*
X42340Y-32770D03*
X41740Y-33970D03*
X55960Y-47320D03*
X55480Y-46840D03*
X55720Y-47080D03*
X55240Y-46600D03*
X46290Y-34070D03*
X45620Y-35990D03*
X46670Y-34070D03*
X45810Y-36310D03*
X39590Y-35830D03*
X42350Y-47470D03*
X41280Y-35970D03*
X46820Y-36440D03*
X47860Y-35800D03*
X46000Y-39937D03*
X49000Y-42062D03*
X65080Y-38020D03*
X66280Y-39990D03*
X43000Y-39937D03*
X44550Y-41870D03*
X62000Y-39250D03*
X52170Y-40310D03*
X51020Y-42160D03*
X47110Y-34710D03*
X43560Y-37700D03*
X41740Y-38860D03*
X43560Y-38860D03*
X41280Y-31810D03*
X60000Y-45750D03*
X57780Y-45880D03*
X59150Y-43230D03*
X60000Y-45250D03*
X60000Y-44750D03*
X60000Y-43250D03*
X60000Y-44250D03*
X60000Y-43750D03*
X48650Y-32660D03*
X53500Y-39250D03*
X53000Y-39250D03*
X54000Y-39250D03*
X54500Y-39250D03*
X55000Y-39250D03*
X55500Y-39250D03*
X56000Y-39250D03*
X56500Y-39250D03*
X57000Y-39250D03*
X57500Y-39250D03*
X58000Y-39250D03*
X58500Y-39250D03*
X59000Y-39250D03*
X50000Y-39250D03*
X50500Y-39250D03*
X51000Y-39250D03*
X51500Y-39250D03*
X52000Y-39250D03*
X63000Y-39250D03*
X63500Y-39250D03*
X64000Y-39250D03*
X64500Y-39250D03*
X61500Y-39250D03*
X62500Y-39250D03*
X59500Y-39250D03*
X60500Y-39250D03*
X60000Y-39250D03*
X44410Y-31250D03*
X45630Y-31250D03*
X44250Y-35220D03*
X43560Y-35150D03*
X45300Y-33840D03*
X43560Y-33970D03*
X42970Y-32770D03*
X42650Y-31400D03*
X59500Y-42250D03*
X59500Y-42750D03*
X60000Y-47750D03*
X60000Y-47250D03*
X60000Y-46750D03*
X60000Y-46250D03*
X59500Y-41750D03*
X59500Y-41250D03*
X59500Y-40750D03*
X59500Y-40250D03*
X59500Y-39750D03*
X55400Y-40410D03*
X56580Y-42120D03*
X60750Y-39750D03*
X64200Y-44530D03*
X65730Y-42220D03*
X70500Y-48500D03*
X60500Y-48500D03*
X61500Y-48500D03*
X62500Y-48500D03*
X63500Y-48500D03*
X64500Y-48500D03*
X65500Y-48500D03*
X66500Y-48500D03*
X67500Y-48500D03*
X68500Y-48500D03*
X69500Y-48500D03*
X44750Y-30250D03*
X43750Y-30250D03*
X42750Y-30250D03*
X41750Y-30250D03*
X40750Y-30250D03*
X39750Y-30250D03*
X59500Y-48500D03*
X58500Y-48500D03*
X57500Y-48500D03*
X56500Y-48500D03*
X55500Y-48500D03*
X39750Y-48500D03*
X40750Y-48500D03*
X41750Y-48500D03*
X42750Y-48500D03*
X43750Y-48500D03*
X44750Y-48500D03*
X45750Y-48500D03*
X46750Y-48500D03*
X47750Y-48500D03*
X48750Y-48500D03*
X49750Y-48500D03*
X50750Y-48500D03*
X51750Y-48500D03*
X52750Y-48500D03*
X53750Y-48500D03*
X54750Y-48500D03*
X53750Y-30250D03*
X52750Y-30250D03*
X51750Y-30250D03*
X50750Y-30250D03*
X49750Y-30250D03*
X48750Y-30250D03*
X47750Y-30250D03*
X45750Y-30250D03*
X46750Y-30250D03*
X55500Y-30250D03*
X56500Y-30250D03*
X57500Y-30250D03*
X58500Y-30250D03*
X59500Y-30250D03*
X60500Y-30250D03*
X54750Y-30250D03*
X63600Y-45480D03*
X65910Y-43590D03*
X63030Y-46420D03*
X62640Y-46420D03*
X60990Y-47500D03*
X61730Y-47500D03*
X61470Y-44310D03*
X61470Y-44740D03*
X62640Y-45720D03*
X61000Y-39250D03*
X63640Y-36860D03*
X50720Y-38750D03*
X51810Y-37190D03*
X58570Y-38220D03*
X50850Y-36700D03*
X52630Y-39030D03*
X51660Y-35370D03*
X50410Y-34750D03*
X55550Y-37840D03*
X51970Y-31620D03*
X63300Y-31550D03*
X69500Y-30250D03*
X70500Y-30250D03*
X61500Y-30250D03*
X62500Y-30250D03*
X63500Y-30250D03*
X64500Y-30250D03*
X65500Y-30250D03*
X66500Y-30250D03*
X67500Y-30250D03*
X68500Y-30250D03*
X55080Y-35530D03*
X56420Y-36620D03*
X56150Y-33800D03*
X57460Y-34120D03*
X56370Y-32860D03*
X60700Y-31480D03*
X60700Y-37380D03*
X57980Y-33180D03*
X58820Y-36820D03*
X52450Y-37190D03*
X52130Y-37350D03*
X57540Y-33330D03*
X56150Y-33170D03*
X56150Y-34430D03*
X56760Y-35040D03*
X53550Y-39759D03*
X53550Y-40600D03*
X50720Y-44430D03*
X50720Y-42460D03*
X45990Y-42960D03*
X46950Y-42000D03*
X49510Y-43020D03*
X49510Y-44810D03*
X50620Y-33480D03*
X49160Y-33990D03*
X50620Y-32850D03*
X50620Y-34120D03*
X44250Y-35990D03*
X45300Y-34440D03*
X44850Y-35990D03*
X44850Y-35220D03*
X48670Y-41000D03*
X49120Y-40550D03*
X47370Y-36990D03*
X45980Y-38380D03*
X47110Y-36730D03*
X45720Y-38120D03*
G54D49*
X43850Y-47000D02*
X43850Y-46600D01*
X47460Y-43460D02*
X47670Y-43250D01*
X47460Y-45030D02*
X47460Y-43460D01*
X47130Y-45360D02*
X47460Y-45030D01*
X46580Y-45360D02*
X47130Y-45360D01*
X45580Y-46360D02*
X46580Y-45360D01*
X44090Y-46360D02*
X45580Y-46360D01*
X43850Y-46600D02*
X44090Y-46360D01*
G54D50*
X40100Y-35970D02*
X40860Y-35970D01*
X39730Y-42080D02*
X39730Y-36340D01*
G54D49*
X40980Y-36090D02*
X40860Y-35970D01*
X40980Y-36690D02*
X40980Y-36090D01*
X41110Y-36820D02*
X40980Y-36690D01*
X41510Y-36820D02*
X41110Y-36820D01*
X41560Y-36770D02*
X41510Y-36820D01*
X42680Y-36770D02*
X41560Y-36770D01*
X43150Y-36300D02*
X42680Y-36770D01*
G54D50*
X39860Y-42210D02*
X39730Y-42080D01*
X39860Y-42210D02*
X41280Y-42210D01*
X39730Y-36340D02*
X40100Y-35970D01*
G54D51*
X41280Y-41510D02*
X41280Y-42210D01*
X41280Y-42210D02*
X41690Y-42620D01*
X50320Y-42460D02*
X50320Y-41300D01*
X41690Y-42620D02*
X47040Y-42620D01*
X47040Y-42620D02*
X47670Y-43250D01*
X47670Y-43250D02*
X48850Y-44430D01*
X50320Y-44430D02*
X48850Y-44430D01*
X52340Y-40610D02*
X52650Y-40300D01*
X51010Y-40610D02*
X52340Y-40610D01*
X50320Y-41300D02*
X51010Y-40610D01*
X49030Y-36080D02*
X48930Y-36080D01*
X48690Y-36320D02*
X48690Y-37110D01*
X48930Y-36080D02*
X48690Y-36320D01*
X49510Y-39250D02*
X49200Y-39250D01*
X49810Y-39550D02*
X49510Y-39250D01*
X57940Y-39719D02*
X55101Y-39719D01*
X52650Y-40300D02*
X51900Y-39550D01*
X54520Y-40300D02*
X52650Y-40300D01*
X55101Y-39719D02*
X54520Y-40300D01*
X51900Y-39550D02*
X49810Y-39550D01*
X48900Y-38950D02*
X48900Y-37320D01*
X49200Y-39250D02*
X48900Y-38950D01*
X49150Y-36670D02*
X49150Y-37070D01*
X49150Y-37070D02*
X48900Y-37320D01*
X48900Y-37320D02*
X48690Y-37110D01*
X56010Y-41432D02*
X56588Y-41432D01*
X57020Y-41000D02*
X57540Y-41000D01*
X56588Y-41432D02*
X57020Y-41000D01*
X57940Y-39719D02*
X57940Y-40500D01*
X57540Y-40900D02*
X57540Y-41000D01*
X57940Y-40500D02*
X57540Y-40900D01*
X57940Y-42121D02*
X57940Y-41500D01*
X57540Y-41100D02*
X57540Y-41000D01*
X57940Y-41500D02*
X57540Y-41100D01*
G54D50*
X54456Y-42161D02*
X55911Y-42161D01*
X58846Y-42464D02*
X58846Y-42121D01*
X58710Y-42600D02*
X58846Y-42464D01*
X56350Y-42600D02*
X58710Y-42600D01*
X55911Y-42161D02*
X56350Y-42600D01*
G54D51*
X58846Y-42121D02*
X58846Y-41006D01*
X58846Y-41006D02*
X58840Y-41000D01*
G54D49*
X59330Y-41000D02*
X59670Y-41000D01*
G54D51*
X60750Y-41222D02*
X60182Y-41222D01*
X59960Y-41000D02*
X59670Y-41000D01*
X60182Y-41222D02*
X59960Y-41000D01*
X59330Y-41000D02*
X58840Y-41000D01*
X60750Y-41900D02*
X60750Y-41222D01*
X63315Y-39855D02*
X62965Y-39855D01*
X61598Y-41222D02*
X60750Y-41222D01*
X62965Y-39855D02*
X61598Y-41222D01*
G54D50*
X63315Y-39855D02*
X63315Y-41305D01*
X63315Y-41305D02*
X65160Y-43150D01*
X65730Y-43150D02*
X65160Y-43150D01*
X65050Y-46870D02*
X65160Y-46760D01*
X65050Y-46870D02*
X64830Y-46870D01*
X65160Y-43150D02*
X65160Y-46760D01*
G54D49*
X43150Y-39235D02*
X43775Y-39235D01*
X44240Y-39700D02*
X44240Y-39940D01*
X43775Y-39235D02*
X44240Y-39700D01*
X43150Y-35525D02*
X43605Y-35525D01*
X42950Y-36930D02*
X42770Y-37110D01*
X43450Y-36930D02*
X42950Y-36930D01*
X43820Y-36560D02*
X43450Y-36930D01*
X43820Y-35740D02*
X43820Y-36560D01*
X43605Y-35525D02*
X43820Y-35740D01*
X50800Y-39940D02*
X50800Y-40330D01*
X50000Y-41440D02*
X49760Y-41680D01*
X50000Y-41130D02*
X50000Y-41440D01*
X50800Y-40330D02*
X50000Y-41130D01*
G54D50*
X48540Y-40460D02*
X49760Y-41680D01*
G54D49*
X49910Y-42780D02*
X56040Y-42780D01*
X56040Y-42780D02*
X56660Y-43400D01*
X58435Y-45546D02*
X57573Y-45546D01*
X57420Y-45880D02*
X57420Y-45700D01*
X57573Y-45546D02*
X57420Y-45700D01*
X49760Y-42630D02*
X49910Y-42780D01*
G54D50*
X48540Y-37340D02*
X48540Y-40460D01*
X48540Y-37340D02*
X48450Y-37250D01*
X48450Y-37250D02*
X48450Y-35480D01*
X49760Y-41680D02*
X49760Y-42460D01*
G54D49*
X49760Y-42460D02*
X49760Y-42630D01*
G54D50*
X44240Y-39940D02*
X44860Y-39940D01*
X42520Y-39410D02*
X42520Y-39610D01*
X42520Y-39410D02*
X42670Y-39260D01*
G54D49*
X42770Y-39160D02*
X42670Y-39260D01*
G54D50*
X42520Y-39610D02*
X42240Y-39890D01*
X41940Y-39890D02*
X42240Y-39890D01*
X48200Y-31910D02*
X47990Y-31910D01*
X47880Y-32190D02*
X47603Y-32467D01*
X47880Y-32020D02*
X47880Y-32190D01*
X47990Y-31910D02*
X47880Y-32020D01*
G54D49*
X44250Y-34280D02*
X44250Y-34100D01*
X44308Y-34042D02*
X44250Y-34100D01*
X44308Y-34042D02*
X44847Y-34042D01*
G54D50*
X43560Y-38070D02*
X43420Y-38070D01*
X42150Y-37700D02*
X41740Y-37700D01*
X43415Y-38075D02*
X43150Y-38075D01*
X43420Y-38070D02*
X43415Y-38075D01*
G54D49*
X42865Y-38075D02*
X42770Y-38170D01*
X42845Y-39235D02*
X43150Y-39235D01*
X42770Y-39160D02*
X42845Y-39235D01*
X42770Y-38170D02*
X42770Y-39160D01*
X42865Y-38075D02*
X43150Y-38075D01*
X42770Y-37980D02*
X42865Y-38075D01*
X42770Y-37110D02*
X42770Y-37980D01*
X45240Y-34120D02*
X45380Y-34120D01*
X45240Y-34120D02*
X45162Y-34042D01*
X44847Y-34042D02*
X45162Y-34042D01*
X45490Y-34230D02*
X45620Y-34230D01*
X45380Y-34120D02*
X45490Y-34230D01*
G54D51*
X45620Y-32650D02*
X47420Y-32650D01*
X47360Y-34390D02*
X45780Y-34390D01*
X45780Y-34390D02*
X45620Y-34230D01*
X47603Y-34633D02*
X47360Y-34390D01*
X45620Y-32650D02*
X45437Y-32467D01*
X45620Y-34230D02*
X45620Y-32650D01*
X47603Y-34633D02*
X48450Y-35480D01*
X48450Y-35480D02*
X49030Y-35480D01*
G54D49*
X48193Y-32467D02*
X47827Y-32467D01*
G54D51*
X47603Y-32467D02*
X47827Y-32467D01*
X47603Y-32467D02*
X47420Y-32650D01*
G54D49*
X47603Y-35223D02*
X47603Y-34633D01*
X44850Y-31850D02*
X44850Y-32060D01*
X44850Y-32060D02*
X44960Y-32170D01*
X44960Y-32170D02*
X45140Y-32170D01*
X45140Y-32170D02*
X45437Y-32467D01*
X45437Y-31877D02*
X45437Y-31557D01*
X44120Y-31140D02*
X41920Y-31140D01*
X44270Y-30990D02*
X44120Y-31140D01*
X45200Y-30990D02*
X44270Y-30990D01*
X45310Y-31100D02*
X45200Y-30990D01*
X45310Y-31430D02*
X45310Y-31100D01*
X45437Y-31557D02*
X45310Y-31430D01*
G54D50*
X44174Y-31867D02*
X44522Y-31867D01*
X44540Y-31850D02*
X44850Y-31850D01*
X44522Y-31867D02*
X44540Y-31850D01*
G54D49*
X41570Y-31490D02*
X41920Y-31140D01*
X41570Y-32240D02*
X41570Y-31490D01*
X45437Y-31877D02*
X45437Y-32467D01*
X41570Y-32240D02*
X41570Y-32540D01*
X41570Y-32540D02*
X41670Y-32640D01*
X42770Y-33390D02*
X42340Y-32960D01*
X42855Y-34345D02*
X42770Y-34260D01*
X42770Y-34260D02*
X42770Y-33390D01*
X42340Y-32960D02*
X42340Y-32770D01*
X41670Y-32640D02*
X42210Y-32640D01*
X42210Y-32640D02*
X42340Y-32770D01*
G54D50*
X41740Y-33970D02*
X42150Y-33970D01*
G54D49*
X43150Y-34345D02*
X42855Y-34345D01*
X42875Y-35525D02*
X42770Y-35420D01*
X42770Y-35420D02*
X42770Y-34430D01*
X42875Y-35525D02*
X43150Y-35525D01*
X42855Y-34345D02*
X42770Y-34430D01*
G54D51*
X55250Y-31460D02*
X55700Y-31460D01*
X55700Y-31460D02*
X56030Y-31790D01*
X55300Y-32520D02*
X56030Y-31790D01*
G54D50*
X54780Y-33040D02*
X55300Y-32520D01*
X54780Y-33800D02*
X54780Y-33040D01*
G54D51*
X56030Y-31790D02*
X56540Y-31790D01*
X49750Y-37350D02*
X49750Y-36670D01*
X52760Y-35820D02*
X52410Y-35820D01*
X52225Y-36005D02*
X51815Y-36005D01*
X52225Y-36005D02*
X52410Y-35820D01*
G54D49*
X51140Y-36005D02*
X51790Y-36005D01*
X51790Y-36005D02*
X51815Y-36005D01*
G54D51*
X51305Y-36515D02*
X51815Y-36005D01*
X51305Y-36515D02*
X51305Y-36765D01*
X51305Y-36765D02*
X50720Y-37350D01*
X50720Y-37810D02*
X50720Y-37350D01*
X50720Y-37350D02*
X49750Y-37350D01*
G54D50*
X51630Y-37667D02*
X51223Y-37667D01*
X51080Y-37810D02*
X50720Y-37810D01*
X51223Y-37667D02*
X51080Y-37810D01*
G54D49*
X51140Y-36005D02*
X50745Y-36005D01*
X50490Y-36020D02*
X50410Y-36100D01*
X50730Y-36020D02*
X50490Y-36020D01*
X50745Y-36005D02*
X50730Y-36020D01*
G54D50*
X52760Y-36680D02*
X52760Y-35820D01*
X52760Y-35820D02*
X54780Y-33800D01*
X54780Y-33800D02*
X55090Y-34110D01*
X55215Y-34115D02*
X55640Y-34115D01*
X55210Y-34110D02*
X55090Y-34110D01*
X55215Y-34115D02*
X55210Y-34110D01*
X54780Y-34750D02*
X54780Y-35750D01*
X55030Y-36000D02*
X55210Y-36000D01*
X54780Y-35750D02*
X55030Y-36000D01*
X55215Y-36005D02*
X55640Y-36005D01*
X55210Y-36000D02*
X55215Y-36005D01*
X55640Y-35060D02*
X55090Y-35060D01*
X55090Y-35060D02*
X54780Y-34750D01*
X54780Y-34750D02*
X54780Y-33800D01*
G54D51*
X56540Y-31790D02*
X57060Y-31790D01*
X57060Y-31790D02*
X57420Y-31430D01*
X57970Y-31430D02*
X57420Y-31430D01*
G54D50*
X55640Y-36005D02*
X56025Y-36005D01*
X56025Y-36005D02*
X56350Y-35680D01*
X56350Y-35680D02*
X56420Y-35680D01*
X56520Y-34120D02*
X56160Y-34120D01*
X56160Y-34120D02*
X56155Y-34115D01*
X56155Y-34115D02*
X55640Y-34115D01*
X55640Y-35060D02*
X56130Y-35060D01*
X56130Y-35060D02*
X56420Y-35350D01*
X56420Y-35350D02*
X56420Y-35680D01*
G54D52*
X54640Y-46000D02*
X46650Y-46000D01*
X55960Y-47320D02*
X54640Y-46000D01*
X45960Y-46690D02*
X45960Y-47450D01*
X46650Y-46000D02*
X45960Y-46690D01*
G54D51*
X60990Y-45530D02*
X60660Y-45530D01*
X60660Y-45530D02*
X60430Y-45760D01*
X60840Y-47800D02*
X60430Y-47390D01*
X60430Y-45760D02*
X60430Y-47390D01*
X65910Y-47040D02*
X65150Y-47800D01*
X65150Y-47800D02*
X60840Y-47800D01*
X65910Y-45420D02*
X65910Y-47040D01*
X60750Y-43660D02*
X60750Y-43200D01*
X60750Y-43660D02*
X60430Y-43980D01*
X60430Y-43980D02*
X60430Y-45760D01*
G54D49*
X62059Y-45523D02*
X61776Y-45523D01*
G54D51*
X61770Y-45530D02*
X60990Y-45530D01*
G54D49*
X61776Y-45523D02*
X61770Y-45530D01*
G54D51*
X60890Y-45530D02*
X60990Y-45530D01*
X66934Y-45415D02*
X66475Y-45415D01*
X66470Y-45420D02*
X65910Y-45420D01*
X66475Y-45415D02*
X66470Y-45420D01*
X65305Y-38990D02*
X65750Y-38990D01*
X65975Y-38090D02*
X66175Y-37890D01*
X65975Y-38765D02*
X65975Y-38090D01*
X65750Y-38990D02*
X65975Y-38765D01*
X64240Y-37305D02*
X65820Y-37305D01*
X65975Y-37460D02*
X65820Y-37305D01*
X66175Y-37890D02*
X66625Y-37890D01*
X66175Y-37890D02*
X65975Y-37690D01*
X65975Y-37690D02*
X65975Y-37460D01*
X68110Y-34910D02*
X68110Y-37025D01*
X66630Y-34180D02*
X67380Y-34180D01*
X67380Y-34180D02*
X68110Y-34910D01*
X67245Y-37890D02*
X66625Y-37890D01*
X68110Y-37025D02*
X67245Y-37890D01*
G54D50*
X42150Y-36300D02*
X41530Y-35680D01*
X40070Y-35680D02*
X39630Y-35240D01*
X41530Y-35680D02*
X40070Y-35680D01*
X40260Y-31370D02*
X40680Y-31370D01*
X39630Y-32000D02*
X40260Y-31370D01*
X39630Y-35240D02*
X39630Y-32000D01*
X40675Y-32155D02*
X40675Y-31715D01*
X40680Y-31710D02*
X40680Y-31370D01*
X40675Y-31715D02*
X40680Y-31710D01*
G54D49*
X42530Y-34260D02*
X42530Y-33440D01*
X42445Y-34345D02*
X42530Y-34260D01*
X42530Y-33440D02*
X41930Y-32840D01*
X41360Y-32840D02*
X40675Y-32155D01*
X41930Y-32840D02*
X41360Y-32840D01*
X42150Y-34345D02*
X42445Y-34345D01*
X42425Y-35525D02*
X42530Y-35420D01*
X42530Y-35420D02*
X42530Y-34430D01*
X42425Y-35525D02*
X42150Y-35525D01*
X42445Y-34345D02*
X42530Y-34430D01*
G54D50*
X40280Y-41510D02*
X40280Y-40920D01*
X40280Y-40920D02*
X39950Y-40590D01*
G54D49*
X41400Y-37000D02*
X42390Y-37000D01*
X42390Y-37000D02*
X42530Y-37140D01*
G54D50*
X40290Y-36410D02*
X40680Y-36410D01*
X39950Y-36750D02*
X40290Y-36410D01*
X39950Y-40590D02*
X39950Y-36750D01*
G54D49*
X42445Y-38075D02*
X42530Y-38160D01*
X42445Y-39235D02*
X42150Y-39235D01*
X42530Y-39150D02*
X42445Y-39235D01*
X42530Y-38160D02*
X42530Y-39150D01*
X41245Y-37155D02*
X41400Y-37000D01*
X40675Y-37155D02*
X41245Y-37155D01*
X42445Y-38075D02*
X42150Y-38075D01*
X42530Y-37990D02*
X42445Y-38075D01*
X42530Y-37140D02*
X42530Y-37990D01*
G54D50*
X40675Y-37155D02*
X40675Y-36725D01*
X40680Y-36720D02*
X40680Y-36410D01*
X40675Y-36725D02*
X40680Y-36720D01*
X46230Y-31250D02*
X46720Y-31250D01*
G54D49*
X46225Y-31877D02*
X46225Y-31255D01*
X46225Y-31255D02*
X46230Y-31250D01*
X48193Y-33058D02*
X47852Y-33058D01*
X47300Y-33060D02*
X46290Y-34070D01*
X45890Y-35990D02*
X46090Y-36190D01*
X46090Y-36190D02*
X46090Y-37050D01*
X56676Y-44956D02*
X55270Y-43550D01*
X55270Y-43550D02*
X49060Y-43550D01*
X49060Y-43550D02*
X47500Y-41990D01*
X47500Y-41990D02*
X47500Y-38460D01*
X56676Y-44956D02*
X58435Y-44956D01*
X46090Y-37050D02*
X47500Y-38460D01*
X45620Y-35990D02*
X45890Y-35990D01*
X47850Y-33060D02*
X47300Y-33060D01*
X47852Y-33058D02*
X47850Y-33060D01*
X47320Y-42070D02*
X47320Y-38550D01*
X47855Y-33255D02*
X47850Y-33260D01*
X47850Y-33260D02*
X47480Y-33260D01*
X47480Y-33260D02*
X46670Y-34070D01*
X58435Y-45153D02*
X56593Y-45153D01*
X49080Y-43830D02*
X47320Y-42070D01*
X55270Y-43830D02*
X56593Y-45153D01*
X49080Y-43830D02*
X55270Y-43830D01*
X45810Y-36310D02*
X45810Y-37040D01*
X47855Y-33255D02*
X48193Y-33255D01*
X47320Y-38550D02*
X45810Y-37040D01*
X54650Y-31460D02*
X53460Y-31460D01*
X48785Y-33845D02*
X48193Y-33845D01*
X48900Y-33730D02*
X48785Y-33845D01*
X49370Y-33730D02*
X48900Y-33730D01*
X51830Y-31270D02*
X49370Y-33730D01*
X53270Y-31270D02*
X51830Y-31270D01*
X53460Y-31460D02*
X53270Y-31270D01*
G54D50*
X54650Y-32180D02*
X54650Y-31460D01*
X39900Y-35830D02*
X39590Y-35830D01*
X42350Y-47000D02*
X42350Y-47470D01*
X41280Y-36410D02*
X41280Y-35970D01*
X42150Y-35150D02*
X41180Y-35150D01*
X41175Y-35155D02*
X40675Y-35155D01*
X41180Y-35150D02*
X41175Y-35155D01*
G54D49*
X46820Y-36137D02*
X46820Y-36440D01*
G54D50*
X47860Y-36140D02*
X47860Y-35800D01*
X66280Y-39990D02*
X66610Y-39990D01*
X44860Y-41540D02*
X44860Y-41750D01*
X44240Y-41760D02*
X44350Y-41870D01*
X44350Y-41870D02*
X44550Y-41870D01*
X44240Y-41760D02*
X44240Y-41540D01*
X44740Y-41870D02*
X44550Y-41870D01*
X44860Y-41750D02*
X44740Y-41870D01*
X41340Y-39890D02*
X40940Y-39890D01*
X40940Y-39890D02*
X40675Y-40155D01*
G54D51*
X48800Y-31910D02*
X48800Y-32510D01*
X48800Y-32510D02*
X48650Y-32660D01*
X52170Y-40310D02*
X51670Y-40310D01*
G54D50*
X51360Y-42160D02*
X51020Y-42160D01*
G54D53*
X46820Y-36137D02*
X46820Y-35823D01*
G54D49*
X46815Y-35223D02*
X46815Y-35625D01*
X46815Y-35625D02*
X46820Y-35630D01*
X46820Y-35630D02*
X46820Y-35823D01*
G54D50*
X43150Y-37700D02*
X43560Y-37700D01*
X41740Y-38860D02*
X42150Y-38860D01*
X43150Y-38860D02*
X43560Y-38860D01*
X41280Y-31370D02*
X41280Y-31810D01*
G54D49*
X57916Y-45743D02*
X57780Y-45880D01*
X58435Y-45743D02*
X57916Y-45743D01*
G54D50*
X59080Y-42940D02*
X59270Y-42750D01*
X59270Y-42750D02*
X59500Y-42750D01*
X58550Y-42940D02*
X59080Y-42940D01*
X59150Y-43230D02*
X59150Y-43570D01*
X59150Y-43010D02*
X59150Y-43230D01*
X59080Y-42940D02*
X59150Y-43010D01*
X59150Y-45240D02*
X59650Y-45240D01*
G54D51*
X60000Y-43250D02*
X60000Y-43750D01*
X60000Y-44250D02*
X60000Y-44750D01*
X60000Y-44750D02*
X60000Y-45250D01*
X60000Y-43750D02*
X60000Y-44250D01*
X59500Y-42750D02*
X60000Y-43250D01*
G54D50*
X59660Y-45250D02*
X60000Y-45250D01*
X59650Y-45240D02*
X59660Y-45250D01*
G54D49*
X48650Y-32660D02*
X48500Y-32660D01*
X48500Y-32660D02*
X48496Y-32664D01*
X48193Y-32664D02*
X48496Y-32664D01*
G54D51*
X50000Y-39250D02*
X50000Y-38900D01*
G54D50*
X51000Y-39250D02*
X50500Y-39250D01*
X52000Y-39250D02*
X51500Y-39250D01*
G54D51*
X50000Y-38900D02*
X49750Y-38650D01*
X63500Y-39250D02*
X64000Y-39250D01*
X63000Y-39250D02*
X63500Y-39250D01*
X64500Y-39250D02*
X64000Y-39250D01*
X63000Y-39250D02*
X62500Y-39250D01*
X61500Y-39250D02*
X62000Y-39250D01*
X61000Y-39250D02*
X61500Y-39250D01*
X62000Y-39250D02*
X62500Y-39250D01*
X61000Y-39250D02*
X60500Y-39250D01*
X60500Y-39250D02*
X60000Y-39250D01*
X60000Y-39250D02*
X59500Y-39250D01*
G54D49*
X47300Y-34710D02*
X47406Y-34816D01*
X47406Y-34816D02*
X47406Y-35223D01*
X47110Y-34710D02*
X47300Y-34710D01*
G54D50*
X47320Y-31250D02*
X47320Y-30680D01*
X47320Y-30680D02*
X47750Y-30250D01*
X44850Y-31250D02*
X44410Y-31250D01*
G54D49*
X45630Y-31410D02*
X45634Y-31414D01*
X45634Y-31414D02*
X45634Y-31877D01*
X45630Y-31250D02*
X45630Y-31410D01*
G54D50*
X44250Y-34880D02*
X44250Y-35220D01*
G54D49*
X43560Y-35150D02*
X43150Y-35150D01*
X45160Y-33840D02*
X45155Y-33845D01*
X44847Y-33845D02*
X45155Y-33845D01*
X45300Y-33840D02*
X45160Y-33840D01*
X43150Y-33970D02*
X43560Y-33970D01*
G54D50*
X43445Y-32772D02*
X43112Y-32772D01*
X43110Y-32770D02*
X43112Y-32772D01*
X42970Y-32770D02*
X43110Y-32770D01*
X42650Y-31740D02*
X42650Y-31400D01*
G54D51*
X60000Y-47250D02*
X60000Y-47750D01*
X60000Y-45250D02*
X60000Y-45750D01*
X59500Y-48500D02*
X60000Y-48000D01*
X60000Y-46750D02*
X60000Y-47250D01*
X60000Y-45750D02*
X60000Y-46250D01*
X60000Y-47750D02*
X60000Y-48000D01*
X60000Y-46250D02*
X60000Y-46750D01*
X55400Y-40410D02*
X55550Y-40410D01*
X56010Y-40408D02*
X55552Y-40408D01*
X55550Y-40410D02*
X55552Y-40408D01*
X56730Y-42120D02*
X56731Y-42121D01*
X56580Y-42120D02*
X56730Y-42120D01*
X57034Y-42121D02*
X56731Y-42121D01*
X60750Y-40198D02*
X60750Y-39750D01*
G54D50*
X64630Y-44530D02*
X64200Y-44530D01*
G54D51*
X63600Y-45480D02*
X63990Y-45480D01*
X63990Y-45480D02*
X64030Y-45520D01*
G54D50*
X65730Y-42220D02*
X65730Y-42550D01*
G54D53*
X70500Y-48500D02*
X69500Y-48500D01*
X60500Y-48500D02*
X59500Y-48500D01*
X62500Y-48500D02*
X61500Y-48500D01*
X64500Y-48500D02*
X63500Y-48500D01*
X66500Y-48500D02*
X65500Y-48500D01*
X68500Y-48500D02*
X67500Y-48500D01*
G54D50*
X54750Y-30250D02*
X53750Y-30250D01*
X44750Y-30250D02*
X43750Y-30250D01*
X42750Y-30250D02*
X41750Y-30250D01*
X40750Y-30250D02*
X39750Y-30250D01*
G54D53*
X58500Y-48500D02*
X57500Y-48500D01*
X56500Y-48500D02*
X55500Y-48500D01*
G54D50*
X40750Y-48500D02*
X39750Y-48500D01*
X42750Y-48500D02*
X41750Y-48500D01*
X44750Y-48500D02*
X43750Y-48500D01*
X46750Y-48500D02*
X45750Y-48500D01*
X48750Y-48500D02*
X47750Y-48500D01*
X50750Y-48500D02*
X49750Y-48500D01*
X52750Y-48500D02*
X51750Y-48500D01*
X54750Y-48500D02*
X53750Y-48500D01*
X52750Y-30250D02*
X51750Y-30250D01*
X50750Y-30250D02*
X49750Y-30250D01*
X48750Y-30250D02*
X47750Y-30250D01*
X46750Y-30250D02*
X45750Y-30250D01*
G54D51*
X56500Y-30250D02*
X55500Y-30250D01*
X58500Y-30250D02*
X57500Y-30250D01*
X59500Y-30250D02*
X60500Y-30250D01*
G54D49*
X63406Y-45523D02*
X63220Y-45523D01*
X63450Y-45480D02*
X63600Y-45480D01*
X63406Y-45523D02*
X63450Y-45480D01*
G54D51*
X65910Y-44120D02*
X65910Y-43590D01*
X62830Y-46870D02*
X62830Y-46620D01*
X62830Y-46620D02*
X63030Y-46420D01*
X63230Y-46870D02*
X63230Y-46620D01*
X62640Y-46420D02*
X62640Y-45720D01*
X63230Y-46620D02*
X63030Y-46420D01*
X60990Y-47170D02*
X60990Y-47500D01*
X61730Y-47500D02*
X61730Y-47170D01*
X61470Y-44310D02*
X61760Y-44310D01*
X61760Y-44310D02*
X61975Y-44525D01*
X61470Y-44740D02*
X61760Y-44740D01*
X61760Y-44740D02*
X61975Y-44525D01*
G54D50*
X50720Y-38410D02*
X50720Y-38750D01*
G54D49*
X51810Y-37040D02*
X51815Y-37035D01*
X51815Y-36680D02*
X51815Y-37035D01*
X51810Y-37190D02*
X51810Y-37040D01*
G54D50*
X50410Y-36700D02*
X50850Y-36700D01*
X52630Y-38553D02*
X52630Y-39030D01*
X51660Y-35370D02*
X51520Y-35370D01*
X51140Y-35375D02*
X51515Y-35375D01*
X51520Y-35370D02*
X51515Y-35375D01*
X50410Y-35090D02*
X50410Y-34750D01*
X58570Y-38220D02*
X58570Y-37735D01*
X58565Y-38710D02*
X58570Y-38705D01*
X58570Y-38220D02*
X58570Y-38705D01*
X58570Y-37735D02*
X58565Y-37730D01*
X55110Y-37840D02*
X55550Y-37840D01*
X52130Y-32180D02*
X52130Y-31780D01*
X51815Y-31775D02*
X51970Y-31620D01*
X51815Y-31775D02*
X51815Y-32180D01*
X52130Y-31780D02*
X51970Y-31620D01*
G54D51*
X64240Y-31550D02*
X63640Y-31550D01*
X63640Y-31550D02*
X63300Y-31550D01*
X64240Y-31550D02*
X64240Y-32060D01*
X64860Y-32680D02*
X64240Y-32060D01*
X64860Y-32680D02*
X65630Y-32680D01*
X70500Y-30250D02*
X69500Y-30250D01*
X62500Y-30250D02*
X61500Y-30250D01*
X64500Y-30250D02*
X63500Y-30250D01*
X66500Y-30250D02*
X65500Y-30250D01*
X68500Y-30250D02*
X67500Y-30250D01*
X66630Y-33180D02*
X66130Y-33180D01*
X66130Y-33180D02*
X65630Y-32680D01*
X63640Y-37305D02*
X63640Y-36860D01*
G54D50*
X55640Y-35690D02*
X55240Y-35690D01*
X55235Y-35375D02*
X55080Y-35530D01*
X55235Y-35375D02*
X55640Y-35375D01*
X55240Y-35690D02*
X55080Y-35530D01*
X56420Y-36280D02*
X56420Y-36620D01*
X55640Y-33800D02*
X56150Y-33800D01*
X57460Y-34120D02*
X57120Y-34120D01*
X56140Y-32860D02*
X56135Y-32855D01*
X56370Y-32860D02*
X56140Y-32860D01*
X55640Y-32855D02*
X56135Y-32855D01*
X61040Y-31480D02*
X60700Y-31480D01*
X61040Y-37380D02*
X60700Y-37380D01*
X58320Y-33180D02*
X57980Y-33180D01*
X58820Y-36820D02*
X58820Y-36480D01*
G54D49*
X60990Y-46130D02*
X60990Y-46570D01*
X62059Y-45720D02*
X61500Y-45720D01*
X61090Y-46130D02*
X60990Y-46130D01*
X61500Y-45720D02*
X61090Y-46130D01*
G54D50*
X63315Y-43555D02*
X62525Y-43555D01*
X61030Y-43990D02*
X61030Y-44220D01*
X61200Y-43820D02*
X61030Y-43990D01*
X62260Y-43820D02*
X61200Y-43820D01*
X62525Y-43555D02*
X62260Y-43820D01*
G54D49*
X63314Y-44525D02*
X63314Y-43555D01*
X63314Y-43555D02*
X63315Y-43555D01*
X63220Y-45326D02*
X63220Y-44618D01*
X63220Y-44618D02*
X63314Y-44525D01*
X62230Y-46870D02*
X61470Y-46870D01*
X61360Y-46760D02*
X61360Y-46320D01*
X61470Y-46870D02*
X61360Y-46760D01*
X62059Y-45916D02*
X61763Y-45916D01*
X61763Y-45916D02*
X61360Y-46320D01*
X62059Y-46113D02*
X61816Y-46113D01*
X61730Y-46200D02*
X61730Y-46570D01*
X61816Y-46113D02*
X61730Y-46200D01*
G54D51*
X66644Y-38990D02*
X67130Y-38990D01*
X69124Y-43446D02*
X68154Y-43446D01*
X70320Y-42250D02*
X69124Y-43446D01*
X70320Y-38770D02*
X70320Y-42250D01*
X69900Y-38350D02*
X70320Y-38770D01*
X67770Y-38350D02*
X69900Y-38350D01*
X67130Y-38990D02*
X67770Y-38350D01*
G54D49*
X49950Y-45410D02*
X48920Y-45410D01*
X48920Y-45410D02*
X47960Y-44450D01*
G54D52*
X42350Y-44900D02*
X41401Y-44900D01*
X41401Y-44900D02*
X40940Y-45361D01*
G54D51*
X42850Y-44900D02*
X42350Y-44900D01*
G54D50*
X44960Y-43390D02*
X44960Y-44450D01*
G54D51*
X43850Y-44900D02*
X43350Y-44900D01*
G54D52*
X44960Y-44450D02*
X44510Y-44900D01*
X44510Y-44900D02*
X43850Y-44900D01*
G54D50*
X40675Y-33155D02*
X41155Y-33155D01*
X41595Y-33595D02*
X42150Y-33595D01*
X41155Y-33155D02*
X41595Y-33595D01*
G54D49*
X42150Y-37325D02*
X41505Y-37325D01*
X41505Y-37325D02*
X40675Y-38155D01*
G54D50*
X40675Y-34155D02*
X41165Y-34155D01*
X41785Y-34775D02*
X42150Y-34775D01*
X41165Y-34155D02*
X41785Y-34775D01*
G54D49*
X42150Y-38485D02*
X41345Y-38485D01*
X41345Y-38485D02*
X40675Y-39155D01*
G54D50*
X52450Y-37190D02*
X52450Y-37487D01*
X52450Y-37487D02*
X52630Y-37667D01*
G54D49*
X52445Y-37035D02*
X52450Y-37040D01*
X52450Y-37040D02*
X52450Y-37190D01*
X52445Y-36680D02*
X52445Y-37035D01*
X52130Y-36680D02*
X52130Y-37350D01*
X55940Y-38760D02*
X54930Y-38760D01*
X54335Y-38165D02*
X54335Y-36680D01*
X54930Y-38760D02*
X54335Y-38165D01*
X55940Y-38160D02*
X54820Y-38160D01*
X54650Y-37990D02*
X54650Y-36680D01*
X54650Y-37990D02*
X54820Y-38160D01*
G54D50*
X57815Y-38710D02*
X57250Y-38710D01*
X57200Y-38760D02*
X56540Y-38760D01*
X57250Y-38710D02*
X57200Y-38760D01*
X57815Y-37730D02*
X57390Y-37730D01*
X56960Y-38160D02*
X56540Y-38160D01*
X57390Y-37730D02*
X56960Y-38160D01*
G54D51*
X63064Y-33180D02*
X62510Y-33180D01*
X61640Y-32310D02*
X61640Y-31480D01*
X62510Y-33180D02*
X61640Y-32310D01*
X63064Y-33680D02*
X63620Y-33680D01*
X64870Y-35680D02*
X65630Y-35680D01*
X64400Y-35210D02*
X64870Y-35680D01*
X64400Y-34460D02*
X64400Y-35210D01*
X63620Y-33680D02*
X64400Y-34460D01*
X63620Y-32680D02*
X64770Y-33830D01*
X63064Y-32680D02*
X63620Y-32680D01*
X66200Y-35750D02*
X66630Y-36180D01*
X66200Y-35500D02*
X66200Y-35750D01*
X65880Y-35180D02*
X66200Y-35500D01*
X65420Y-35180D02*
X65880Y-35180D01*
X64770Y-34530D02*
X65420Y-35180D01*
X64770Y-33830D02*
X64770Y-34530D01*
X63064Y-35180D02*
X63620Y-35180D01*
X67180Y-35730D02*
X66630Y-35180D01*
X67180Y-36420D02*
X67180Y-35730D01*
X66930Y-36670D02*
X67180Y-36420D01*
X65110Y-36670D02*
X66930Y-36670D01*
X63620Y-35180D02*
X65110Y-36670D01*
X63064Y-36180D02*
X63980Y-36180D01*
X66030Y-34080D02*
X65630Y-33680D01*
X66030Y-34330D02*
X66030Y-34080D01*
X66380Y-34680D02*
X66030Y-34330D01*
X66860Y-34680D02*
X66380Y-34680D01*
X67640Y-35460D02*
X66860Y-34680D01*
X67640Y-36590D02*
X67640Y-35460D01*
X67190Y-37040D02*
X67640Y-36590D01*
X64840Y-37040D02*
X67190Y-37040D01*
X63980Y-36180D02*
X64840Y-37040D01*
G54D50*
X59616Y-35180D02*
X58920Y-35180D01*
G54D51*
X63064Y-35680D02*
X62510Y-35680D01*
X61640Y-36550D02*
X61640Y-37380D01*
X62510Y-35680D02*
X61640Y-36550D01*
G54D50*
X59616Y-36180D02*
X58260Y-36180D01*
X58620Y-32690D02*
X57140Y-32690D01*
X56345Y-33485D02*
X55640Y-33485D01*
X57140Y-32690D02*
X56345Y-33485D01*
X59616Y-32680D02*
X59040Y-32680D01*
X59030Y-32690D02*
X58620Y-32690D01*
X59040Y-32680D02*
X59030Y-32690D01*
G54D49*
X51140Y-35690D02*
X50410Y-35690D01*
X54965Y-36680D02*
X54965Y-37095D01*
X54965Y-37095D02*
X55110Y-37240D01*
G54D50*
X55640Y-33170D02*
X56150Y-33170D01*
X57540Y-32990D02*
X57540Y-33330D01*
X57890Y-33680D02*
X57540Y-33330D01*
X57890Y-33680D02*
X59616Y-33680D01*
X57540Y-32390D02*
X56540Y-32390D01*
X58620Y-32090D02*
X58230Y-32090D01*
X57930Y-32390D02*
X57540Y-32390D01*
X58230Y-32090D02*
X57930Y-32390D01*
X59616Y-33180D02*
X60180Y-33180D01*
X59830Y-31430D02*
X59270Y-31430D01*
X60350Y-31950D02*
X59830Y-31430D01*
X60350Y-33010D02*
X60350Y-31950D01*
X60180Y-33180D02*
X60350Y-33010D01*
X59616Y-33180D02*
X58920Y-33180D01*
X57760Y-35690D02*
X57170Y-35690D01*
X57170Y-35690D02*
X57160Y-35680D01*
X58820Y-35880D02*
X58720Y-35880D01*
X58530Y-35690D02*
X57760Y-35690D01*
X58720Y-35880D02*
X58530Y-35690D01*
X59616Y-35680D02*
X59160Y-35680D01*
X58960Y-35880D02*
X58820Y-35880D01*
X59160Y-35680D02*
X58960Y-35880D01*
X55640Y-34745D02*
X56935Y-34745D01*
X57280Y-35090D02*
X57760Y-35090D01*
X56935Y-34745D02*
X57280Y-35090D01*
X57760Y-35090D02*
X58230Y-35090D01*
X58230Y-35090D02*
X58320Y-35180D01*
X55640Y-34430D02*
X56150Y-34430D01*
X56790Y-35430D02*
X56760Y-35400D01*
X56760Y-35400D02*
X56760Y-35040D01*
X57060Y-36280D02*
X56790Y-36010D01*
X57060Y-36280D02*
X57160Y-36280D01*
X56790Y-36010D02*
X56790Y-35430D01*
X57160Y-36280D02*
X57560Y-36280D01*
X57560Y-36280D02*
X57660Y-36180D01*
G54D51*
X53305Y-41355D02*
X52625Y-41355D01*
X52625Y-41355D02*
X52180Y-40910D01*
X53550Y-40600D02*
X53550Y-41110D01*
X53550Y-41110D02*
X53305Y-41355D01*
G54D49*
X57850Y-46180D02*
X58089Y-45940D01*
G54D51*
X50720Y-44430D02*
X54990Y-44430D01*
X51360Y-41560D02*
X51080Y-41560D01*
X50720Y-41920D02*
X50720Y-42460D01*
X51080Y-41560D02*
X50720Y-41920D01*
X56740Y-46180D02*
X57490Y-46180D01*
X54990Y-44430D02*
X56740Y-46180D01*
G54D49*
X58089Y-45940D02*
X58435Y-45940D01*
X57490Y-46180D02*
X57850Y-46180D01*
G54D51*
X51670Y-40910D02*
X51570Y-40910D01*
X51360Y-41120D02*
X51360Y-41560D01*
X51570Y-40910D02*
X51360Y-41120D01*
X53550Y-42161D02*
X53550Y-41600D01*
X52180Y-40910D02*
X51670Y-40910D01*
X53550Y-41600D02*
X53305Y-41355D01*
G54D50*
X51960Y-42160D02*
X51960Y-42110D01*
X51960Y-42110D02*
X52210Y-41860D01*
X51960Y-41560D02*
X51960Y-41610D01*
X52644Y-42154D02*
X52350Y-41860D01*
X52350Y-41860D02*
X52210Y-41860D01*
X52644Y-42154D02*
X52644Y-42161D01*
X51960Y-41610D02*
X52210Y-41860D01*
G54D49*
X44174Y-32772D02*
X44174Y-33124D01*
X44305Y-33255D02*
X44847Y-33255D01*
X44174Y-33124D02*
X44305Y-33255D01*
X58435Y-46727D02*
X58435Y-46885D01*
X58780Y-47230D02*
X59150Y-47230D01*
X58435Y-46885D02*
X58780Y-47230D01*
X58435Y-44168D02*
X59148Y-44168D01*
X59148Y-44168D02*
X59150Y-44170D01*
X58435Y-46531D02*
X58761Y-46531D01*
X58860Y-46630D02*
X59150Y-46630D01*
X58761Y-46531D02*
X58860Y-46630D01*
X58435Y-46137D02*
X58742Y-46137D01*
X59150Y-45850D02*
X59150Y-45630D01*
X59070Y-45930D02*
X59150Y-45850D01*
X58890Y-45930D02*
X59070Y-45930D01*
X58810Y-46010D02*
X58890Y-45930D01*
X58810Y-46070D02*
X58810Y-46010D01*
X58742Y-46137D02*
X58810Y-46070D01*
X59150Y-45710D02*
X59150Y-45630D01*
X58435Y-46334D02*
X58755Y-46334D01*
X58860Y-46230D02*
X59150Y-46230D01*
X58755Y-46334D02*
X58860Y-46230D01*
X58435Y-43972D02*
X58435Y-43854D01*
X58550Y-43740D02*
X58550Y-43540D01*
X58435Y-43854D02*
X58550Y-43740D01*
X58435Y-44365D02*
X58775Y-44365D01*
X59050Y-44640D02*
X59150Y-44640D01*
X58775Y-44365D02*
X59050Y-44640D01*
X64230Y-46870D02*
X64030Y-46670D01*
X64030Y-46550D02*
X64030Y-46670D01*
X63920Y-46440D02*
X64030Y-46550D01*
X63540Y-45990D02*
X63540Y-46250D01*
X63466Y-45916D02*
X63540Y-45990D01*
X63220Y-45916D02*
X63466Y-45916D01*
X63730Y-46440D02*
X63540Y-46250D01*
X63730Y-46440D02*
X63920Y-46440D01*
X64030Y-46670D02*
X63830Y-46870D01*
G54D50*
X64030Y-46120D02*
X64630Y-46120D01*
G54D49*
X63220Y-45720D02*
X63490Y-45720D01*
X64030Y-45870D02*
X64030Y-46120D01*
X63980Y-45820D02*
X64030Y-45870D01*
X63590Y-45820D02*
X63980Y-45820D01*
X63490Y-45720D02*
X63590Y-45820D01*
G54D51*
X64630Y-45520D02*
X64630Y-45130D01*
G54D49*
X62059Y-45326D02*
X61776Y-45326D01*
X61030Y-45040D02*
X61030Y-44820D01*
X61130Y-45140D02*
X61030Y-45040D01*
X61590Y-45140D02*
X61130Y-45140D01*
X61776Y-45326D02*
X61590Y-45140D01*
X45990Y-42960D02*
X45990Y-43590D01*
X43350Y-46610D02*
X43350Y-47000D01*
X43970Y-45990D02*
X43350Y-46610D01*
X45480Y-45990D02*
X43970Y-45990D01*
X46460Y-45010D02*
X45480Y-45990D01*
X46460Y-44060D02*
X46460Y-45010D01*
X45990Y-43590D02*
X46460Y-44060D01*
X49040Y-44090D02*
X46950Y-42000D01*
X58435Y-45350D02*
X56470Y-45350D01*
X55210Y-44090D02*
X56470Y-45350D01*
X49040Y-44090D02*
X55210Y-44090D01*
X47150Y-41800D02*
X46950Y-42000D01*
X45300Y-36810D02*
X47150Y-38660D01*
X45634Y-35596D02*
X45300Y-35930D01*
X45300Y-35930D02*
X45300Y-36810D01*
X45634Y-35596D02*
X45634Y-35223D01*
X47150Y-38660D02*
X47150Y-41800D01*
G54D50*
X42170Y-32240D02*
X42170Y-32060D01*
X42040Y-31930D02*
X42040Y-31600D01*
X42170Y-32060D02*
X42040Y-31930D01*
X42650Y-32340D02*
X42270Y-32340D01*
X42270Y-32340D02*
X42170Y-32240D01*
X42945Y-33255D02*
X43625Y-33255D01*
X43625Y-33255D02*
X44020Y-33650D01*
G54D49*
X44847Y-33648D02*
X44548Y-33648D01*
G54D50*
X42650Y-32960D02*
X42945Y-33255D01*
X44020Y-33650D02*
X44470Y-33650D01*
X42650Y-32960D02*
X42650Y-32340D01*
G54D49*
X44546Y-33650D02*
X44470Y-33650D01*
X44548Y-33648D02*
X44546Y-33650D01*
X49510Y-44810D02*
X49950Y-44810D01*
X46420Y-36800D02*
X46420Y-36060D01*
X46420Y-36060D02*
X46225Y-35865D01*
X49040Y-43020D02*
X49510Y-43020D01*
X49510Y-43020D02*
X55350Y-43020D01*
X55350Y-43020D02*
X56892Y-44562D01*
X58435Y-44562D02*
X56892Y-44562D01*
X46225Y-35865D02*
X46225Y-35223D01*
X47860Y-38240D02*
X46420Y-36800D01*
X47860Y-41840D02*
X47860Y-38240D01*
X49040Y-43020D02*
X47860Y-41840D01*
X47680Y-41910D02*
X47680Y-38330D01*
X45831Y-35223D02*
X45831Y-35711D01*
X49050Y-43280D02*
X47680Y-41910D01*
X56779Y-44759D02*
X58435Y-44759D01*
X55300Y-43280D02*
X56779Y-44759D01*
X49050Y-43280D02*
X55300Y-43280D01*
X46260Y-36140D02*
X46260Y-36910D01*
X45831Y-35711D02*
X46260Y-36140D01*
X47680Y-38330D02*
X46260Y-36910D01*
X48193Y-34239D02*
X49261Y-34239D01*
X50330Y-33170D02*
X51140Y-33170D01*
X49261Y-34239D02*
X50330Y-33170D01*
X50770Y-33480D02*
X50775Y-33485D01*
X51140Y-33485D02*
X50775Y-33485D01*
X50620Y-33480D02*
X50770Y-33480D01*
X48193Y-34042D02*
X48808Y-34042D01*
X48860Y-33990D02*
X49160Y-33990D01*
X48808Y-34042D02*
X48860Y-33990D01*
X50620Y-32850D02*
X50770Y-32850D01*
X48193Y-34633D02*
X49507Y-34633D01*
X50020Y-34120D02*
X50620Y-34120D01*
X49507Y-34633D02*
X50020Y-34120D01*
X50775Y-32855D02*
X51140Y-32855D01*
X50770Y-32850D02*
X50775Y-32855D01*
X48193Y-34436D02*
X49384Y-34436D01*
X50020Y-33800D02*
X51140Y-33800D01*
X49384Y-34436D02*
X50020Y-33800D01*
X48600Y-32960D02*
X48880Y-32960D01*
X57180Y-31080D02*
X49280Y-31080D01*
G54D50*
X67210Y-40370D02*
X67040Y-40540D01*
X67040Y-40540D02*
X65850Y-40540D01*
X65850Y-40540D02*
X64820Y-39510D01*
X64820Y-39510D02*
X64820Y-39020D01*
X64820Y-39020D02*
X63680Y-37880D01*
X63680Y-37880D02*
X61510Y-37880D01*
X61510Y-37880D02*
X61340Y-37710D01*
X61340Y-37710D02*
X61340Y-32580D01*
X61340Y-32580D02*
X60240Y-31480D01*
X60240Y-31480D02*
X60240Y-31190D01*
X60240Y-31190D02*
X59920Y-30870D01*
X59920Y-30870D02*
X57390Y-30870D01*
X57390Y-30870D02*
X57180Y-31080D01*
X67210Y-39990D02*
X67210Y-40370D01*
G54D49*
X49080Y-32760D02*
X48880Y-32960D01*
X49080Y-31280D02*
X49080Y-32760D01*
X49280Y-31080D02*
X49080Y-31280D01*
X48501Y-32861D02*
X48193Y-32861D01*
X48501Y-32861D02*
X48600Y-32960D01*
G54D50*
X68565Y-39212D02*
X67517Y-39212D01*
X67210Y-39520D02*
X67210Y-39990D01*
X67517Y-39212D02*
X67210Y-39520D01*
G54D49*
X44240Y-40540D02*
X44240Y-40330D01*
X45290Y-39340D02*
X45460Y-39170D01*
X45290Y-40110D02*
X45290Y-39340D01*
X45160Y-40240D02*
X45290Y-40110D01*
X44330Y-40240D02*
X45160Y-40240D01*
X44240Y-40330D02*
X44330Y-40240D01*
G54D50*
X44240Y-40940D02*
X43530Y-40940D01*
X43000Y-41470D02*
X43000Y-42062D01*
X43530Y-40940D02*
X43000Y-41470D01*
X44240Y-40940D02*
X44240Y-40540D01*
G54D49*
X44250Y-35990D02*
X44250Y-36240D01*
X46320Y-38310D02*
X46320Y-38890D01*
X46320Y-38890D02*
X46040Y-39170D01*
X46040Y-39170D02*
X45460Y-39170D01*
X44250Y-36240D02*
X46320Y-38310D01*
X45146Y-34436D02*
X45150Y-34440D01*
X45150Y-34440D02*
X45300Y-34440D01*
X45146Y-34436D02*
X44847Y-34436D01*
X44860Y-40540D02*
X45200Y-40540D01*
X46260Y-39360D02*
X46740Y-38880D01*
X45600Y-39360D02*
X46260Y-39360D01*
X45500Y-39460D02*
X45600Y-39360D01*
X45500Y-40240D02*
X45500Y-39460D01*
X45200Y-40540D02*
X45500Y-40240D01*
G54D50*
X44860Y-40940D02*
X45450Y-40940D01*
X46000Y-41490D02*
X46000Y-42062D01*
X45450Y-40940D02*
X46000Y-41490D01*
X44860Y-40940D02*
X44860Y-40540D01*
G54D49*
X46618Y-34878D02*
X46450Y-34710D01*
X46450Y-34710D02*
X45360Y-34710D01*
X44850Y-35220D02*
X45360Y-34710D01*
X46618Y-34878D02*
X46618Y-35223D01*
X44850Y-36600D02*
X44850Y-35990D01*
X46740Y-38490D02*
X44850Y-36600D01*
X46740Y-38880D02*
X46740Y-38490D01*
X47860Y-37310D02*
X47260Y-37310D01*
X48200Y-40530D02*
X48200Y-37650D01*
X49000Y-40430D02*
X49120Y-40550D01*
X48200Y-40530D02*
X48670Y-41000D01*
X49000Y-39937D02*
X49000Y-40430D01*
X48200Y-37650D02*
X47860Y-37310D01*
X47860Y-36740D02*
X47860Y-37310D01*
X46422Y-35722D02*
X46422Y-35223D01*
X46570Y-36620D02*
X47260Y-37310D01*
X46570Y-35870D02*
X46570Y-36620D01*
X46422Y-35722D02*
X46570Y-35870D01*
G54D50*
X50200Y-39940D02*
X49002Y-39940D01*
X49002Y-39940D02*
X49000Y-39937D01*
G54D49*
X45340Y-35650D02*
X43970Y-35650D01*
X43705Y-34775D02*
X43840Y-34910D01*
X43840Y-34910D02*
X43840Y-35520D01*
X43840Y-35520D02*
X43970Y-35650D01*
X45437Y-35223D02*
X45437Y-35553D01*
X45437Y-35553D02*
X45340Y-35650D01*
X43705Y-34775D02*
X43150Y-34775D01*
X44847Y-34633D02*
X43983Y-34633D01*
X43850Y-34500D02*
X43850Y-33820D01*
X43983Y-34633D02*
X43850Y-34500D01*
X43150Y-33595D02*
X43625Y-33595D01*
X43625Y-33595D02*
X43850Y-33820D01*
X43920Y-38380D02*
X45980Y-38380D01*
X47370Y-35720D02*
X47209Y-35559D01*
X47209Y-35559D02*
X47209Y-35223D01*
X47370Y-36990D02*
X47370Y-35720D01*
X43920Y-38380D02*
X43815Y-38485D01*
X43150Y-38485D02*
X43815Y-38485D01*
X43840Y-37520D02*
X43645Y-37325D01*
X43150Y-37325D02*
X43645Y-37325D01*
X43920Y-38120D02*
X43840Y-38040D01*
X43840Y-38040D02*
X43840Y-37520D01*
X47110Y-35700D02*
X47110Y-36730D01*
X47012Y-35602D02*
X47012Y-35223D01*
X47012Y-35602D02*
X47110Y-35700D01*
X45720Y-38120D02*
X43920Y-38120D01*
X48193Y-33452D02*
X48668Y-33452D01*
X49500Y-32860D02*
X49500Y-31500D01*
X49100Y-33260D02*
X49500Y-32860D01*
X48860Y-33260D02*
X49100Y-33260D01*
X48668Y-33452D02*
X48860Y-33260D01*
X48193Y-33648D02*
X48752Y-33648D01*
X50500Y-32190D02*
X50500Y-31500D01*
X49120Y-33570D02*
X50500Y-32190D01*
X48830Y-33570D02*
X49120Y-33570D01*
X48752Y-33648D02*
X48830Y-33570D01*
G54D10*
G36*
X70750Y-30900D02*
X70512Y-30900D01*
X70429Y-30865D01*
X70233Y-30865D01*
X70149Y-30900D01*
X60176Y-30900D01*
X60033Y-30756D01*
X59981Y-30722D01*
X59920Y-30710D01*
X57390Y-30710D01*
X57328Y-30722D01*
X57276Y-30756D01*
X57133Y-30900D01*
X45307Y-30900D01*
X45298Y-30891D01*
X45253Y-30860D01*
X45200Y-30850D01*
X44270Y-30850D01*
X44216Y-30860D01*
X44171Y-30891D01*
X44162Y-30900D01*
X40450Y-30900D01*
X40450Y-31210D01*
X40260Y-31210D01*
X40198Y-31222D01*
X40146Y-31256D01*
X39516Y-31886D01*
X39489Y-31927D01*
X39489Y-29649D01*
X70750Y-29649D01*
X70750Y-30900D01*
X70750Y-30900D01*
G37*
G54D53*
X70750Y-30900D02*
X70512Y-30900D01*
X70429Y-30865D01*
X70233Y-30865D01*
X70149Y-30900D01*
X60176Y-30900D01*
X60033Y-30756D01*
X59981Y-30722D01*
X59920Y-30710D01*
X57390Y-30710D01*
X57328Y-30722D01*
X57276Y-30756D01*
X57133Y-30900D01*
X45307Y-30900D01*
X45298Y-30891D01*
X45253Y-30860D01*
X45200Y-30850D01*
X44270Y-30850D01*
X44216Y-30860D01*
X44171Y-30891D01*
X44162Y-30900D01*
X40450Y-30900D01*
X40450Y-31210D01*
X40260Y-31210D01*
X40198Y-31222D01*
X40146Y-31256D01*
X39516Y-31886D01*
X39489Y-31927D01*
X39489Y-29649D01*
X70750Y-29649D01*
X70750Y-30900D01*
G54D10*
G36*
X70750Y-49095D02*
X39489Y-49095D01*
X39489Y-35312D01*
X39516Y-35353D01*
X39956Y-35793D01*
X40008Y-35827D01*
X40025Y-35831D01*
X39986Y-35856D01*
X39616Y-36226D01*
X39582Y-36278D01*
X39570Y-36340D01*
X39570Y-42080D01*
X39582Y-42141D01*
X39616Y-42193D01*
X39746Y-42323D01*
X39798Y-42357D01*
X39860Y-42370D01*
X40450Y-42370D01*
X40450Y-45253D01*
X40446Y-45262D01*
X40446Y-45458D01*
X40450Y-45467D01*
X40450Y-46689D01*
X40448Y-46693D01*
X40450Y-46703D01*
X40450Y-47840D01*
X60625Y-47840D01*
X60712Y-47927D01*
X60771Y-47966D01*
X60840Y-47980D01*
X65150Y-47980D01*
X65218Y-47966D01*
X65277Y-47927D01*
X65364Y-47840D01*
X70750Y-47840D01*
X70750Y-49095D01*
X70750Y-49095D01*
G37*
G54D53*
X70750Y-49095D02*
X39489Y-49095D01*
X39489Y-35312D01*
X39516Y-35353D01*
X39956Y-35793D01*
X40008Y-35827D01*
X40025Y-35831D01*
X39986Y-35856D01*
X39616Y-36226D01*
X39582Y-36278D01*
X39570Y-36340D01*
X39570Y-42080D01*
X39582Y-42141D01*
X39616Y-42193D01*
X39746Y-42323D01*
X39798Y-42357D01*
X39860Y-42370D01*
X40450Y-42370D01*
X40450Y-45253D01*
X40446Y-45262D01*
X40446Y-45458D01*
X40450Y-45467D01*
X40450Y-46689D01*
X40448Y-46693D01*
X40450Y-46703D01*
X40450Y-47840D01*
X60625Y-47840D01*
X60712Y-47927D01*
X60771Y-47966D01*
X60840Y-47980D01*
X65150Y-47980D01*
X65218Y-47966D01*
X65277Y-47927D01*
X65364Y-47840D01*
X70750Y-47840D01*
X70750Y-49095D01*
M02*
