G04 (created by PCBNEW (2013-mar-13)-stable) date Mon 23 Mar 2015 11:07:48 AM CET*
%MOIN*%
G04 Gerber Fmt 3.4, Leading zero omitted, Abs format*
%FSLAX34Y34*%
G01*
G70*
G90*
G04 APERTURE LIST*
%ADD10C,0.005906*%
%ADD11C,0.004000*%
%ADD12R,0.045000X0.025000*%
%ADD13R,0.216500X0.078700*%
%ADD14O,0.157480X0.060000*%
%ADD15O,0.060000X0.157480*%
%ADD16C,0.070000*%
%ADD17C,0.055100*%
%ADD18R,0.060000X0.060000*%
%ADD19C,0.060000*%
%ADD20C,0.051181*%
%ADD21C,0.078740*%
%ADD22C,0.070866*%
%ADD23R,0.055000X0.055000*%
%ADD24C,0.055000*%
%ADD25C,0.028000*%
%ADD26C,0.016000*%
%ADD27C,0.008000*%
%ADD28C,0.012000*%
%ADD29C,0.006000*%
G04 APERTURE END LIST*
G54D10*
G54D11*
X53273Y-46906D02*
X53083Y-46906D01*
X53311Y-47020D02*
X53178Y-46620D01*
X53045Y-47020D01*
X52740Y-46754D02*
X52740Y-47078D01*
X52759Y-47116D01*
X52778Y-47135D01*
X52816Y-47154D01*
X52873Y-47154D01*
X52911Y-47135D01*
X52740Y-47001D02*
X52778Y-47020D01*
X52854Y-47020D01*
X52892Y-47001D01*
X52911Y-46982D01*
X52930Y-46944D01*
X52930Y-46830D01*
X52911Y-46792D01*
X52892Y-46773D01*
X52854Y-46754D01*
X52778Y-46754D01*
X52740Y-46773D01*
X52550Y-47020D02*
X52550Y-46754D01*
X52550Y-46620D02*
X52569Y-46640D01*
X52550Y-46659D01*
X52530Y-46640D01*
X52550Y-46620D01*
X52550Y-46659D01*
X52302Y-47020D02*
X52340Y-47001D01*
X52359Y-46963D01*
X52359Y-46620D01*
X51978Y-47020D02*
X51978Y-46811D01*
X51997Y-46773D01*
X52035Y-46754D01*
X52111Y-46754D01*
X52150Y-46773D01*
X51978Y-47001D02*
X52016Y-47020D01*
X52111Y-47020D01*
X52150Y-47001D01*
X52169Y-46963D01*
X52169Y-46925D01*
X52150Y-46887D01*
X52111Y-46868D01*
X52016Y-46868D01*
X51978Y-46849D01*
X51616Y-47001D02*
X51654Y-47020D01*
X51730Y-47020D01*
X51769Y-47001D01*
X51788Y-46982D01*
X51807Y-46944D01*
X51807Y-46830D01*
X51788Y-46792D01*
X51769Y-46773D01*
X51730Y-46754D01*
X51654Y-46754D01*
X51616Y-46773D01*
X51445Y-47020D02*
X51445Y-46620D01*
X51407Y-46868D02*
X51292Y-47020D01*
X51292Y-46754D02*
X51445Y-46906D01*
X50835Y-46659D02*
X50816Y-46640D01*
X50778Y-46620D01*
X50683Y-46620D01*
X50645Y-46640D01*
X50626Y-46659D01*
X50607Y-46697D01*
X50607Y-46735D01*
X50626Y-46792D01*
X50854Y-47020D01*
X50607Y-47020D01*
X50359Y-46620D02*
X50321Y-46620D01*
X50283Y-46640D01*
X50264Y-46659D01*
X50245Y-46697D01*
X50226Y-46773D01*
X50226Y-46868D01*
X50245Y-46944D01*
X50264Y-46982D01*
X50283Y-47001D01*
X50321Y-47020D01*
X50359Y-47020D01*
X50397Y-47001D01*
X50416Y-46982D01*
X50435Y-46944D01*
X50454Y-46868D01*
X50454Y-46773D01*
X50435Y-46697D01*
X50416Y-46659D01*
X50397Y-46640D01*
X50359Y-46620D01*
X49845Y-47020D02*
X50073Y-47020D01*
X49959Y-47020D02*
X49959Y-46620D01*
X49997Y-46678D01*
X50035Y-46716D01*
X50073Y-46735D01*
X49483Y-46620D02*
X49673Y-46620D01*
X49692Y-46811D01*
X49673Y-46792D01*
X49635Y-46773D01*
X49540Y-46773D01*
X49502Y-46792D01*
X49483Y-46811D01*
X49464Y-46849D01*
X49464Y-46944D01*
X49483Y-46982D01*
X49502Y-47001D01*
X49540Y-47020D01*
X49635Y-47020D01*
X49673Y-47001D01*
X49692Y-46982D01*
X53026Y-47582D02*
X53045Y-47601D01*
X53102Y-47620D01*
X53140Y-47620D01*
X53197Y-47601D01*
X53235Y-47563D01*
X53254Y-47525D01*
X53273Y-47449D01*
X53273Y-47392D01*
X53254Y-47316D01*
X53235Y-47278D01*
X53197Y-47240D01*
X53140Y-47220D01*
X53102Y-47220D01*
X53045Y-47240D01*
X53026Y-47259D01*
X52626Y-47582D02*
X52645Y-47601D01*
X52702Y-47620D01*
X52740Y-47620D01*
X52797Y-47601D01*
X52835Y-47563D01*
X52854Y-47525D01*
X52873Y-47449D01*
X52873Y-47392D01*
X52854Y-47316D01*
X52835Y-47278D01*
X52797Y-47240D01*
X52740Y-47220D01*
X52702Y-47220D01*
X52645Y-47240D01*
X52626Y-47259D01*
X52454Y-47468D02*
X52150Y-47468D01*
X51959Y-47620D02*
X51959Y-47220D01*
X51959Y-47373D02*
X51921Y-47354D01*
X51845Y-47354D01*
X51807Y-47373D01*
X51788Y-47392D01*
X51769Y-47430D01*
X51769Y-47544D01*
X51788Y-47582D01*
X51807Y-47601D01*
X51845Y-47620D01*
X51921Y-47620D01*
X51959Y-47601D01*
X51635Y-47354D02*
X51540Y-47620D01*
X51445Y-47354D02*
X51540Y-47620D01*
X51578Y-47716D01*
X51597Y-47735D01*
X51635Y-47754D01*
X51292Y-47468D02*
X50988Y-47468D01*
X50816Y-47601D02*
X50759Y-47620D01*
X50664Y-47620D01*
X50626Y-47601D01*
X50607Y-47582D01*
X50588Y-47544D01*
X50588Y-47506D01*
X50607Y-47468D01*
X50626Y-47449D01*
X50664Y-47430D01*
X50740Y-47411D01*
X50778Y-47392D01*
X50797Y-47373D01*
X50816Y-47335D01*
X50816Y-47297D01*
X50797Y-47259D01*
X50778Y-47240D01*
X50740Y-47220D01*
X50645Y-47220D01*
X50588Y-47240D01*
X50435Y-47506D02*
X50245Y-47506D01*
X50473Y-47620D02*
X50340Y-47220D01*
X50207Y-47620D01*
X53254Y-46440D02*
X53254Y-46040D01*
X53026Y-46440D01*
X53026Y-46040D01*
X52683Y-46421D02*
X52721Y-46440D01*
X52797Y-46440D01*
X52835Y-46421D01*
X52854Y-46383D01*
X52854Y-46231D01*
X52835Y-46193D01*
X52797Y-46174D01*
X52721Y-46174D01*
X52683Y-46193D01*
X52664Y-46231D01*
X52664Y-46269D01*
X52854Y-46307D01*
X52550Y-46174D02*
X52397Y-46174D01*
X52492Y-46040D02*
X52492Y-46383D01*
X52473Y-46421D01*
X52435Y-46440D01*
X52397Y-46440D01*
X52302Y-46174D02*
X52226Y-46440D01*
X52150Y-46250D01*
X52073Y-46440D01*
X51997Y-46174D01*
X51788Y-46440D02*
X51826Y-46421D01*
X51845Y-46402D01*
X51864Y-46364D01*
X51864Y-46250D01*
X51845Y-46212D01*
X51826Y-46193D01*
X51788Y-46174D01*
X51730Y-46174D01*
X51692Y-46193D01*
X51673Y-46212D01*
X51654Y-46250D01*
X51654Y-46364D01*
X51673Y-46402D01*
X51692Y-46421D01*
X51730Y-46440D01*
X51788Y-46440D01*
X51483Y-46440D02*
X51483Y-46174D01*
X51483Y-46250D02*
X51464Y-46212D01*
X51445Y-46193D01*
X51407Y-46174D01*
X51369Y-46174D01*
X51235Y-46440D02*
X51235Y-46040D01*
X51197Y-46288D02*
X51083Y-46440D01*
X51083Y-46174D02*
X51235Y-46326D01*
X50626Y-46421D02*
X50569Y-46440D01*
X50473Y-46440D01*
X50435Y-46421D01*
X50416Y-46402D01*
X50397Y-46364D01*
X50397Y-46326D01*
X50416Y-46288D01*
X50435Y-46269D01*
X50473Y-46250D01*
X50550Y-46231D01*
X50588Y-46212D01*
X50607Y-46193D01*
X50626Y-46155D01*
X50626Y-46117D01*
X50607Y-46079D01*
X50588Y-46060D01*
X50550Y-46040D01*
X50454Y-46040D01*
X50397Y-46060D01*
X50073Y-46421D02*
X50111Y-46440D01*
X50188Y-46440D01*
X50226Y-46421D01*
X50245Y-46383D01*
X50245Y-46231D01*
X50226Y-46193D01*
X50188Y-46174D01*
X50111Y-46174D01*
X50073Y-46193D01*
X50054Y-46231D01*
X50054Y-46269D01*
X50245Y-46307D01*
X49883Y-46440D02*
X49883Y-46174D01*
X49883Y-46250D02*
X49864Y-46212D01*
X49845Y-46193D01*
X49807Y-46174D01*
X49769Y-46174D01*
X49635Y-46440D02*
X49635Y-46174D01*
X49635Y-46040D02*
X49654Y-46060D01*
X49635Y-46079D01*
X49616Y-46060D01*
X49635Y-46040D01*
X49635Y-46079D01*
X49273Y-46440D02*
X49273Y-46231D01*
X49292Y-46193D01*
X49330Y-46174D01*
X49407Y-46174D01*
X49445Y-46193D01*
X49273Y-46421D02*
X49311Y-46440D01*
X49407Y-46440D01*
X49445Y-46421D01*
X49464Y-46383D01*
X49464Y-46345D01*
X49445Y-46307D01*
X49407Y-46288D01*
X49311Y-46288D01*
X49273Y-46269D01*
X49026Y-46440D02*
X49064Y-46421D01*
X49083Y-46383D01*
X49083Y-46040D01*
X48588Y-46326D02*
X48397Y-46326D01*
X48626Y-46440D02*
X48492Y-46040D01*
X48359Y-46440D01*
X48054Y-46440D02*
X48054Y-46040D01*
X48054Y-46421D02*
X48092Y-46440D01*
X48169Y-46440D01*
X48207Y-46421D01*
X48226Y-46402D01*
X48245Y-46364D01*
X48245Y-46250D01*
X48226Y-46212D01*
X48207Y-46193D01*
X48169Y-46174D01*
X48092Y-46174D01*
X48054Y-46193D01*
X47692Y-46440D02*
X47692Y-46231D01*
X47711Y-46193D01*
X47750Y-46174D01*
X47826Y-46174D01*
X47864Y-46193D01*
X47692Y-46421D02*
X47730Y-46440D01*
X47826Y-46440D01*
X47864Y-46421D01*
X47883Y-46383D01*
X47883Y-46345D01*
X47864Y-46307D01*
X47826Y-46288D01*
X47730Y-46288D01*
X47692Y-46269D01*
X47502Y-46174D02*
X47502Y-46574D01*
X47502Y-46193D02*
X47464Y-46174D01*
X47388Y-46174D01*
X47350Y-46193D01*
X47330Y-46212D01*
X47311Y-46250D01*
X47311Y-46364D01*
X47330Y-46402D01*
X47350Y-46421D01*
X47388Y-46440D01*
X47464Y-46440D01*
X47502Y-46421D01*
X47197Y-46174D02*
X47045Y-46174D01*
X47140Y-46040D02*
X47140Y-46383D01*
X47121Y-46421D01*
X47083Y-46440D01*
X47045Y-46440D01*
X46759Y-46421D02*
X46797Y-46440D01*
X46873Y-46440D01*
X46911Y-46421D01*
X46930Y-46383D01*
X46930Y-46231D01*
X46911Y-46193D01*
X46873Y-46174D01*
X46797Y-46174D01*
X46759Y-46193D01*
X46740Y-46231D01*
X46740Y-46269D01*
X46930Y-46307D01*
X46569Y-46440D02*
X46569Y-46174D01*
X46569Y-46250D02*
X46550Y-46212D01*
X46530Y-46193D01*
X46492Y-46174D01*
X46454Y-46174D01*
G54D12*
X55110Y-36970D03*
X55110Y-36370D03*
X49580Y-37010D03*
X49580Y-36410D03*
G54D13*
X54140Y-37930D03*
X50440Y-37930D03*
G54D14*
X68154Y-43446D03*
G54D15*
X66934Y-45415D03*
X69375Y-45415D03*
G54D16*
X40675Y-35155D03*
X40675Y-34155D03*
X40675Y-33155D03*
X40675Y-32155D03*
G54D17*
X50500Y-31500D03*
X49500Y-31500D03*
G54D16*
X40675Y-40155D03*
X40675Y-39155D03*
X40675Y-38155D03*
X40675Y-37155D03*
G54D17*
X61760Y-38400D03*
X44550Y-37450D03*
G54D18*
X43150Y-36300D03*
G54D19*
X42150Y-36300D03*
G54D18*
X41280Y-41510D03*
G54D19*
X40280Y-41510D03*
G54D20*
X66630Y-34180D03*
X65630Y-34680D03*
X65630Y-33680D03*
X66630Y-33180D03*
X65630Y-32680D03*
X66630Y-35180D03*
X65630Y-35680D03*
X66630Y-36180D03*
G54D21*
X70330Y-37500D03*
X70330Y-31359D03*
G54D22*
X69550Y-41475D03*
X69550Y-39704D03*
X68565Y-41967D03*
X68565Y-39212D03*
G54D21*
X40940Y-45361D03*
X40940Y-46738D03*
G54D17*
X44960Y-43390D03*
G54D23*
X47960Y-44450D03*
G54D24*
X46960Y-44450D03*
X45960Y-44450D03*
X44960Y-44450D03*
X44960Y-47450D03*
X45960Y-47450D03*
X46960Y-47450D03*
X47960Y-47450D03*
G54D25*
X50320Y-42460D03*
X50320Y-44430D03*
X56660Y-43400D03*
X57420Y-45880D03*
X41740Y-37700D03*
X43560Y-38070D03*
X42340Y-32770D03*
X41740Y-33970D03*
X55960Y-47320D03*
X55480Y-46840D03*
X55720Y-47080D03*
X55240Y-46600D03*
X46290Y-34070D03*
X45620Y-35990D03*
X46670Y-34070D03*
X45810Y-36310D03*
X39590Y-35830D03*
X42350Y-47470D03*
X41280Y-35970D03*
X46820Y-36440D03*
X47860Y-35800D03*
X46000Y-39937D03*
X49000Y-42062D03*
X65080Y-38020D03*
X66280Y-39990D03*
X43000Y-39937D03*
X44550Y-41870D03*
X62000Y-39250D03*
X52170Y-40310D03*
X51020Y-42160D03*
X47110Y-34710D03*
X43560Y-37700D03*
X41740Y-38860D03*
X43560Y-38860D03*
X41280Y-31810D03*
X60000Y-45750D03*
X57780Y-45880D03*
X59150Y-43230D03*
X60000Y-45250D03*
X60000Y-44750D03*
X60000Y-43250D03*
X60000Y-44250D03*
X60000Y-43750D03*
X48650Y-32660D03*
X53500Y-39250D03*
X53000Y-39250D03*
X54000Y-39250D03*
X54500Y-39250D03*
X55000Y-39250D03*
X55500Y-39250D03*
X56000Y-39250D03*
X56500Y-39250D03*
X57000Y-39250D03*
X57500Y-39250D03*
X58000Y-39250D03*
X58500Y-39250D03*
X59000Y-39250D03*
X50000Y-39250D03*
X50500Y-39250D03*
X51000Y-39250D03*
X51500Y-39250D03*
X52000Y-39250D03*
X63000Y-39250D03*
X63500Y-39250D03*
X64000Y-39250D03*
X64500Y-39250D03*
X61500Y-39250D03*
X62500Y-39250D03*
X59500Y-39250D03*
X60500Y-39250D03*
X60000Y-39250D03*
X44410Y-31250D03*
X45630Y-31250D03*
X44250Y-35220D03*
X43560Y-35150D03*
X45300Y-33840D03*
X43560Y-33970D03*
X42970Y-32770D03*
X42650Y-31400D03*
X59500Y-42250D03*
X59500Y-42750D03*
X60000Y-47750D03*
X60000Y-47250D03*
X60000Y-46750D03*
X60000Y-46250D03*
X59500Y-41750D03*
X59500Y-41250D03*
X59500Y-40750D03*
X59500Y-40250D03*
X59500Y-39750D03*
X55400Y-40410D03*
X56580Y-42120D03*
X60750Y-39750D03*
X64200Y-44530D03*
X65730Y-42220D03*
X70500Y-48500D03*
X60500Y-48500D03*
X61500Y-48500D03*
X62500Y-48500D03*
X63500Y-48500D03*
X64500Y-48500D03*
X65500Y-48500D03*
X66500Y-48500D03*
X67500Y-48500D03*
X68500Y-48500D03*
X69500Y-48500D03*
X44750Y-30250D03*
X43750Y-30250D03*
X42750Y-30250D03*
X41750Y-30250D03*
X40750Y-30250D03*
X39750Y-30250D03*
X59500Y-48500D03*
X58500Y-48500D03*
X57500Y-48500D03*
X56500Y-48500D03*
X55500Y-48500D03*
X39750Y-48500D03*
X40750Y-48500D03*
X41750Y-48500D03*
X42750Y-48500D03*
X43750Y-48500D03*
X44750Y-48500D03*
X45750Y-48500D03*
X46750Y-48500D03*
X47750Y-48500D03*
X48750Y-48500D03*
X49750Y-48500D03*
X50750Y-48500D03*
X51750Y-48500D03*
X52750Y-48500D03*
X53750Y-48500D03*
X54750Y-48500D03*
X53750Y-30250D03*
X52750Y-30250D03*
X51750Y-30250D03*
X50750Y-30250D03*
X49750Y-30250D03*
X48750Y-30250D03*
X47750Y-30250D03*
X45750Y-30250D03*
X46750Y-30250D03*
X55500Y-30250D03*
X56500Y-30250D03*
X57500Y-30250D03*
X58500Y-30250D03*
X59500Y-30250D03*
X60500Y-30250D03*
X54750Y-30250D03*
X63600Y-45480D03*
X65910Y-43590D03*
X63030Y-46420D03*
X62640Y-46420D03*
X60990Y-47500D03*
X61730Y-47500D03*
X61470Y-44310D03*
X61470Y-44740D03*
X62640Y-45720D03*
X61000Y-39250D03*
X63640Y-36860D03*
X50720Y-38750D03*
X51810Y-37190D03*
X58570Y-38220D03*
X50850Y-36700D03*
X52630Y-39030D03*
X51660Y-35370D03*
X50410Y-34750D03*
X55550Y-37840D03*
X51970Y-31620D03*
X63300Y-31550D03*
X69500Y-30250D03*
X70500Y-30250D03*
X61500Y-30250D03*
X62500Y-30250D03*
X63500Y-30250D03*
X64500Y-30250D03*
X65500Y-30250D03*
X66500Y-30250D03*
X67500Y-30250D03*
X68500Y-30250D03*
X55080Y-35530D03*
X56420Y-36620D03*
X56150Y-33800D03*
X57460Y-34120D03*
X56370Y-32860D03*
X60700Y-31480D03*
X60700Y-37380D03*
X57980Y-33180D03*
X58820Y-36820D03*
X52450Y-37190D03*
X52130Y-37350D03*
X57540Y-33330D03*
X56150Y-33170D03*
X56150Y-34430D03*
X56760Y-35040D03*
X53550Y-39759D03*
X53550Y-40600D03*
X50720Y-44430D03*
X50720Y-42460D03*
X45990Y-42960D03*
X46950Y-42000D03*
X49510Y-43020D03*
X49510Y-44810D03*
X50620Y-33480D03*
X49160Y-33990D03*
X50620Y-32850D03*
X50620Y-34120D03*
X44250Y-35990D03*
X45300Y-34440D03*
X44850Y-35990D03*
X44850Y-35220D03*
X48670Y-41000D03*
X49120Y-40550D03*
X47370Y-36990D03*
X45980Y-38380D03*
X47110Y-36730D03*
X45720Y-38120D03*
G54D26*
X50320Y-42460D02*
X50320Y-44430D01*
G54D27*
X57420Y-44160D02*
X57420Y-45880D01*
X57420Y-44160D02*
X56660Y-43400D01*
X41740Y-37700D02*
X42450Y-37700D01*
X42820Y-38070D02*
X43560Y-38070D01*
X42450Y-37700D02*
X42820Y-38070D01*
G54D28*
X41740Y-33970D02*
X41740Y-33370D01*
X42340Y-32770D02*
X41740Y-33370D01*
G54D26*
X55720Y-47080D02*
X55960Y-47320D01*
X66934Y-46415D02*
X66934Y-45415D01*
X65210Y-48140D02*
X66934Y-46415D01*
X56780Y-48140D02*
X65210Y-48140D01*
X55960Y-47320D02*
X56780Y-48140D01*
X55480Y-46840D02*
X55720Y-47080D01*
X55240Y-46600D02*
X55480Y-46840D01*
X65630Y-34680D02*
X66130Y-34680D01*
X66130Y-34680D02*
X66630Y-34180D01*
G54D27*
X46290Y-34070D02*
X46290Y-35320D01*
X46290Y-35320D02*
X45620Y-35990D01*
X46670Y-35450D02*
X45810Y-36310D01*
X46670Y-34070D02*
X46670Y-35450D01*
G54D28*
X39590Y-35830D02*
X39590Y-36010D01*
X39590Y-36010D02*
X39750Y-36170D01*
X39750Y-35410D02*
X39750Y-35155D01*
X39590Y-35570D02*
X39750Y-35410D01*
X39590Y-35830D02*
X39590Y-35570D01*
X39750Y-36170D02*
X39750Y-40155D01*
X42350Y-47470D02*
X41671Y-47470D01*
X41671Y-47470D02*
X40940Y-46738D01*
X46960Y-45240D02*
X46960Y-44450D01*
X42350Y-47470D02*
X44190Y-45630D01*
X46570Y-45630D02*
X44190Y-45630D01*
X46960Y-45240D02*
X46570Y-45630D01*
G54D26*
X39750Y-47340D02*
X40338Y-47340D01*
X40338Y-47340D02*
X40940Y-46738D01*
G54D28*
X43560Y-35150D02*
X41160Y-35150D01*
X41280Y-35970D02*
X41280Y-35760D01*
X41280Y-35760D02*
X40675Y-35155D01*
X43560Y-35150D02*
X43560Y-35550D01*
X43560Y-37050D02*
X43560Y-37700D01*
X43760Y-36850D02*
X43560Y-37050D01*
X43760Y-35750D02*
X43760Y-36850D01*
X43560Y-35550D02*
X43760Y-35750D01*
X46820Y-36440D02*
X46820Y-36090D01*
X46820Y-36090D02*
X47110Y-35800D01*
X47110Y-35800D02*
X47860Y-35800D01*
X47110Y-35800D02*
X47110Y-34710D01*
G54D27*
X49000Y-42062D02*
X48125Y-42062D01*
G54D28*
X45502Y-39440D02*
X46000Y-39937D01*
X45502Y-39440D02*
X44550Y-39440D01*
G54D27*
X48125Y-42062D02*
X46000Y-39937D01*
G54D28*
X65470Y-38410D02*
X65470Y-39180D01*
X63640Y-36860D02*
X64800Y-38020D01*
X65080Y-38020D02*
X64800Y-38020D01*
X65470Y-38410D02*
X65080Y-38020D01*
X65470Y-39180D02*
X66280Y-39990D01*
X68565Y-41967D02*
X67392Y-41967D01*
X67392Y-41967D02*
X67130Y-42230D01*
G54D26*
X69375Y-45415D02*
X69375Y-42777D01*
X69375Y-42777D02*
X68565Y-41967D01*
G54D28*
X43560Y-38860D02*
X43560Y-39377D01*
X43560Y-39377D02*
X43000Y-39937D01*
X44550Y-41870D02*
X44550Y-39440D01*
X44550Y-39440D02*
X43880Y-38770D01*
X44550Y-37450D02*
X44020Y-37450D01*
X44020Y-37450D02*
X43770Y-37700D01*
X62000Y-39250D02*
X62000Y-39040D01*
X61760Y-38800D02*
X61760Y-38400D01*
X62000Y-39040D02*
X61760Y-38800D01*
X61760Y-38400D02*
X61760Y-37380D01*
X51800Y-39940D02*
X52170Y-40310D01*
X55400Y-40410D02*
X54450Y-40410D01*
X54450Y-40410D02*
X53960Y-40900D01*
X53960Y-40900D02*
X52760Y-40900D01*
X52760Y-40900D02*
X52170Y-40310D01*
X51020Y-42160D02*
X51020Y-40480D01*
X51140Y-40360D02*
X51140Y-39940D01*
X51020Y-40480D02*
X51140Y-40360D01*
X47110Y-34710D02*
X47900Y-34710D01*
X47960Y-34650D02*
X48650Y-34650D01*
X47900Y-34710D02*
X47960Y-34650D01*
X43560Y-37700D02*
X43770Y-37700D01*
X43770Y-37700D02*
X43780Y-37700D01*
X43880Y-37800D02*
X43880Y-38770D01*
X43780Y-37700D02*
X43880Y-37800D01*
X43790Y-38860D02*
X43560Y-38860D01*
X43880Y-38770D02*
X43790Y-38860D01*
X43560Y-38860D02*
X41740Y-38860D01*
X40675Y-35155D02*
X39750Y-35155D01*
X40675Y-40155D02*
X39750Y-40155D01*
X45300Y-33840D02*
X46090Y-33840D01*
X47270Y-32660D02*
X48650Y-32660D01*
X46090Y-33840D02*
X47270Y-32660D01*
X41280Y-31810D02*
X41870Y-31810D01*
X42280Y-31400D02*
X42650Y-31400D01*
X41870Y-31810D02*
X42280Y-31400D01*
X57780Y-45880D02*
X59510Y-45880D01*
X59640Y-45750D02*
X60000Y-45750D01*
X59510Y-45880D02*
X59640Y-45750D01*
X59150Y-43230D02*
X57690Y-43230D01*
X57690Y-43230D02*
X56580Y-42120D01*
X45630Y-31250D02*
X45630Y-30740D01*
X45750Y-30620D02*
X45750Y-30250D01*
X45630Y-30740D02*
X45750Y-30620D01*
X48650Y-32660D02*
X48650Y-34650D01*
X48650Y-34650D02*
X49580Y-35580D01*
G54D26*
X59500Y-39250D02*
X59000Y-39250D01*
X58000Y-39250D02*
X58500Y-39250D01*
X56000Y-39250D02*
X56500Y-39250D01*
X54000Y-39250D02*
X54500Y-39250D01*
G54D28*
X53000Y-39250D02*
X52000Y-39250D01*
G54D26*
X54000Y-39250D02*
X53500Y-39250D01*
X55000Y-39250D02*
X54500Y-39250D01*
X56000Y-39250D02*
X55500Y-39250D01*
X57000Y-39250D02*
X56500Y-39250D01*
X58000Y-39250D02*
X57500Y-39250D01*
X59000Y-39250D02*
X58500Y-39250D01*
G54D28*
X50500Y-39250D02*
X50000Y-39250D01*
X51500Y-39250D02*
X51000Y-39250D01*
G54D26*
X53000Y-39250D02*
X53500Y-39250D01*
X55000Y-39250D02*
X55500Y-39250D01*
X57000Y-39250D02*
X57500Y-39250D01*
G54D28*
X45630Y-31250D02*
X44410Y-31250D01*
X44410Y-31250D02*
X42800Y-31250D01*
X42800Y-31250D02*
X42650Y-31400D01*
X43560Y-33970D02*
X43960Y-33970D01*
X44250Y-35220D02*
X44250Y-34260D01*
X44250Y-34260D02*
X43960Y-33970D01*
X44250Y-35220D02*
X43980Y-35220D01*
X43980Y-35220D02*
X43910Y-35150D01*
X43910Y-35150D02*
X43560Y-35150D01*
X41155Y-35155D02*
X40675Y-35155D01*
X41160Y-35150D02*
X41155Y-35155D01*
G54D27*
X45300Y-33840D02*
X44090Y-33840D01*
X44090Y-33840D02*
X43960Y-33970D01*
G54D28*
X43560Y-33970D02*
X43560Y-33360D01*
X43560Y-33360D02*
X42970Y-32770D01*
X42970Y-32770D02*
X42970Y-32260D01*
X42970Y-32260D02*
X42650Y-31940D01*
X42650Y-31940D02*
X42650Y-31400D01*
G54D26*
X59500Y-42750D02*
X59500Y-42250D01*
G54D28*
X56580Y-42120D02*
X59050Y-42120D01*
X59180Y-42250D02*
X59500Y-42250D01*
X59050Y-42120D02*
X59180Y-42250D01*
G54D26*
X59500Y-41750D02*
X59500Y-42250D01*
X59500Y-39250D02*
X59500Y-39750D01*
X59500Y-41250D02*
X59500Y-41750D01*
X59500Y-40250D02*
X59500Y-40750D01*
X59500Y-40750D02*
X59500Y-41250D01*
X59500Y-40250D02*
X59500Y-39750D01*
G54D28*
X55400Y-40410D02*
X56290Y-40410D01*
X56290Y-40410D02*
X56580Y-40700D01*
X56580Y-40700D02*
X56580Y-42120D01*
G54D29*
X60750Y-39500D02*
X61000Y-39250D01*
X60750Y-39500D02*
X60750Y-39750D01*
G54D26*
X65910Y-43590D02*
X65140Y-43590D01*
X65140Y-43590D02*
X64200Y-44530D01*
X64200Y-44530D02*
X64200Y-44880D01*
X64200Y-44880D02*
X63600Y-45480D01*
G54D28*
X67130Y-42220D02*
X67130Y-42230D01*
X65730Y-42220D02*
X67130Y-42220D01*
X67130Y-42230D02*
X67130Y-42910D01*
X67130Y-42910D02*
X66450Y-43590D01*
X66450Y-43590D02*
X65910Y-43590D01*
G54D26*
X69375Y-45415D02*
X69375Y-46395D01*
X69375Y-46395D02*
X70500Y-47520D01*
X70500Y-47520D02*
X70500Y-48500D01*
G54D29*
X61500Y-48500D02*
X60500Y-48500D01*
X63500Y-48500D02*
X62500Y-48500D01*
X65500Y-48500D02*
X64500Y-48500D01*
X67500Y-48500D02*
X66500Y-48500D01*
X69500Y-48500D02*
X68500Y-48500D01*
G54D28*
X39750Y-30250D02*
X39750Y-35155D01*
X45750Y-30250D02*
X44750Y-30250D01*
X43750Y-30250D02*
X42750Y-30250D01*
X41750Y-30250D02*
X40750Y-30250D01*
X39750Y-40155D02*
X39750Y-43090D01*
X39750Y-43090D02*
X39750Y-46740D01*
X39750Y-46740D02*
X39750Y-47340D01*
X39750Y-47340D02*
X39750Y-48500D01*
X55500Y-48500D02*
X55250Y-48250D01*
X55000Y-48250D02*
X54750Y-48500D01*
X55250Y-48250D02*
X55000Y-48250D01*
G54D29*
X59500Y-48500D02*
X58500Y-48500D01*
X57500Y-48500D02*
X56500Y-48500D01*
G54D28*
X41750Y-48500D02*
X40750Y-48500D01*
X43750Y-48500D02*
X42750Y-48500D01*
X45750Y-48500D02*
X44750Y-48500D01*
X47750Y-48500D02*
X46750Y-48500D01*
X49750Y-48500D02*
X48750Y-48500D01*
X51750Y-48500D02*
X50750Y-48500D01*
X53750Y-48500D02*
X52750Y-48500D01*
X53750Y-30250D02*
X52750Y-30250D01*
X51750Y-30250D02*
X50750Y-30250D01*
X49750Y-30250D02*
X48750Y-30250D01*
X47750Y-30250D02*
X46750Y-30250D01*
X55500Y-30250D02*
X55250Y-30500D01*
G54D26*
X57500Y-30250D02*
X56500Y-30250D01*
X59500Y-30250D02*
X58500Y-30250D01*
G54D28*
X55000Y-30500D02*
X54750Y-30250D01*
X55250Y-30500D02*
X55000Y-30500D01*
X62640Y-46420D02*
X62120Y-46420D01*
X61730Y-46810D02*
X61730Y-47500D01*
X62120Y-46420D02*
X61730Y-46810D01*
G54D26*
X62640Y-45720D02*
X63360Y-45720D01*
X63360Y-45720D02*
X63600Y-45480D01*
X63030Y-46420D02*
X62640Y-46420D01*
X61730Y-47500D02*
X60990Y-47500D01*
X61470Y-44740D02*
X62350Y-44740D01*
X62350Y-44740D02*
X62640Y-45030D01*
X62640Y-45030D02*
X62640Y-45720D01*
X63640Y-36860D02*
X63020Y-36860D01*
X63020Y-36860D02*
X62500Y-37380D01*
G54D28*
X50720Y-38750D02*
X50940Y-38750D01*
X52360Y-38760D02*
X52630Y-39030D01*
X50950Y-38760D02*
X52360Y-38760D01*
X50940Y-38750D02*
X50950Y-38760D01*
X55200Y-38760D02*
X52900Y-38760D01*
X52900Y-38760D02*
X52630Y-39030D01*
X51810Y-37190D02*
X51340Y-37190D01*
X51340Y-37190D02*
X50850Y-36700D01*
X49580Y-36410D02*
X49580Y-35580D01*
X49580Y-35580D02*
X50410Y-34750D01*
X55110Y-36370D02*
X55110Y-35820D01*
X55080Y-35790D02*
X55080Y-35530D01*
X55110Y-35820D02*
X55080Y-35790D01*
X58570Y-38220D02*
X59860Y-38220D01*
X59860Y-38220D02*
X60700Y-37380D01*
X50850Y-36700D02*
X50850Y-35550D01*
X50850Y-35550D02*
X51030Y-35370D01*
X55550Y-38410D02*
X55550Y-37840D01*
X55200Y-38760D02*
X55550Y-38410D01*
X51970Y-32240D02*
X51350Y-32860D01*
X51350Y-33810D02*
X50410Y-34750D01*
X51350Y-32860D02*
X51350Y-33810D01*
X51660Y-35370D02*
X51030Y-35370D01*
X51030Y-35370D02*
X50410Y-34750D01*
X55550Y-37840D02*
X55550Y-37490D01*
X55550Y-37490D02*
X56420Y-36620D01*
X51970Y-31620D02*
X51970Y-32240D01*
X52590Y-32860D02*
X56370Y-32860D01*
X51970Y-32240D02*
X52590Y-32860D01*
G54D26*
X63300Y-31550D02*
X62020Y-31550D01*
X62020Y-31550D02*
X61950Y-31480D01*
X61950Y-31480D02*
X60700Y-31480D01*
X60700Y-31480D02*
X60700Y-30920D01*
X60700Y-30920D02*
X60500Y-30720D01*
X60500Y-30720D02*
X60500Y-30250D01*
X61500Y-30250D02*
X60500Y-30250D01*
X63500Y-30250D02*
X62500Y-30250D01*
X65500Y-30250D02*
X64500Y-30250D01*
X67500Y-30250D02*
X66500Y-30250D01*
X69500Y-30250D02*
X68500Y-30250D01*
X62500Y-37380D02*
X61760Y-37380D01*
X61760Y-37380D02*
X60700Y-37380D01*
G54D28*
X55080Y-35530D02*
X55080Y-34870D01*
X55080Y-34870D02*
X56150Y-33800D01*
X56420Y-36620D02*
X57330Y-36620D01*
X57530Y-36820D02*
X58820Y-36820D01*
X57330Y-36620D02*
X57530Y-36820D01*
X58820Y-36820D02*
X58820Y-34440D01*
X58820Y-34440D02*
X57980Y-33600D01*
X57980Y-33180D02*
X57980Y-33600D01*
X57980Y-33600D02*
X57460Y-34120D01*
X56150Y-33800D02*
X57140Y-33800D01*
X57140Y-33800D02*
X57460Y-34120D01*
X56370Y-32860D02*
X57660Y-32860D01*
X57660Y-32860D02*
X57980Y-33180D01*
X60700Y-31480D02*
X59680Y-31480D01*
X59680Y-31480D02*
X57980Y-33180D01*
X60700Y-37380D02*
X59380Y-37380D01*
X59380Y-37380D02*
X58820Y-36820D01*
X51140Y-39940D02*
X51800Y-39940D01*
X54140Y-37930D02*
X54720Y-37930D01*
X55110Y-37540D02*
X55110Y-36970D01*
X54720Y-37930D02*
X55110Y-37540D01*
X52450Y-37190D02*
X52450Y-37570D01*
X52810Y-37930D02*
X54140Y-37930D01*
X52450Y-37570D02*
X52810Y-37930D01*
X50440Y-37930D02*
X49980Y-37930D01*
X49580Y-37530D02*
X49580Y-37010D01*
X49980Y-37930D02*
X49580Y-37530D01*
X52130Y-37350D02*
X52130Y-37560D01*
X51760Y-37930D02*
X50440Y-37930D01*
X52130Y-37560D02*
X51760Y-37930D01*
X56150Y-33170D02*
X56700Y-33170D01*
X56860Y-33330D02*
X57540Y-33330D01*
X56700Y-33170D02*
X56860Y-33330D01*
X56150Y-34430D02*
X56760Y-35040D01*
X53550Y-39759D02*
X53550Y-40600D01*
G54D26*
X50720Y-44430D02*
X50720Y-42460D01*
G54D27*
X46950Y-42000D02*
X45990Y-42960D01*
X49510Y-43020D02*
X49510Y-44810D01*
X50620Y-33480D02*
X50200Y-33480D01*
X50200Y-33480D02*
X49690Y-33990D01*
X49160Y-33990D02*
X49690Y-33990D01*
X51040Y-33700D02*
X51040Y-33270D01*
X51040Y-33270D02*
X50620Y-32850D01*
X50620Y-34120D02*
X51040Y-33700D01*
X45300Y-34440D02*
X45040Y-34440D01*
X44550Y-35690D02*
X44250Y-35990D01*
X44550Y-34930D02*
X44550Y-35690D01*
X45040Y-34440D02*
X44550Y-34930D01*
X44850Y-35990D02*
X44850Y-35220D01*
X49120Y-40550D02*
X48670Y-41000D01*
G54D28*
X45980Y-38380D02*
X47370Y-36990D01*
X45720Y-38120D02*
X47110Y-36730D01*
G54D10*
G36*
X70760Y-49105D02*
X69994Y-49105D01*
X69994Y-41387D01*
X69994Y-39616D01*
X69926Y-39452D01*
X69802Y-39327D01*
X69638Y-39259D01*
X69462Y-39259D01*
X69298Y-39327D01*
X69173Y-39452D01*
X69105Y-39615D01*
X69105Y-39792D01*
X69173Y-39955D01*
X69297Y-40080D01*
X69461Y-40148D01*
X69637Y-40148D01*
X69801Y-40081D01*
X69926Y-39956D01*
X69994Y-39792D01*
X69994Y-39616D01*
X69994Y-41387D01*
X69926Y-41224D01*
X69802Y-41099D01*
X69638Y-41031D01*
X69462Y-41031D01*
X69298Y-41098D01*
X69173Y-41223D01*
X69105Y-41387D01*
X69105Y-41563D01*
X69173Y-41727D01*
X69297Y-41852D01*
X69461Y-41920D01*
X69637Y-41920D01*
X69801Y-41852D01*
X69926Y-41727D01*
X69994Y-41564D01*
X69994Y-41387D01*
X69994Y-49105D01*
X69765Y-49105D01*
X69765Y-45972D01*
X69765Y-45485D01*
X69765Y-45345D01*
X69765Y-44857D01*
X69708Y-44713D01*
X69601Y-44602D01*
X69504Y-44559D01*
X69445Y-44566D01*
X69445Y-45345D01*
X69765Y-45345D01*
X69765Y-45485D01*
X69445Y-45485D01*
X69445Y-46263D01*
X69504Y-46270D01*
X69601Y-46227D01*
X69708Y-46116D01*
X69765Y-45972D01*
X69765Y-49105D01*
X69305Y-49105D01*
X69305Y-46263D01*
X69305Y-45485D01*
X69305Y-45345D01*
X69305Y-44566D01*
X69245Y-44559D01*
X69148Y-44602D01*
X69049Y-44705D01*
X69049Y-43446D01*
X69019Y-43296D01*
X69017Y-43293D01*
X69017Y-42004D01*
X69010Y-41942D01*
X69010Y-39124D01*
X68942Y-38960D01*
X68817Y-38835D01*
X68654Y-38767D01*
X68477Y-38767D01*
X68314Y-38835D01*
X68189Y-38960D01*
X68121Y-39123D01*
X68121Y-39300D01*
X68188Y-39463D01*
X68313Y-39588D01*
X68476Y-39656D01*
X68653Y-39656D01*
X68817Y-39588D01*
X68942Y-39464D01*
X69010Y-39300D01*
X69010Y-39124D01*
X69010Y-41942D01*
X68996Y-41828D01*
X68969Y-41761D01*
X68915Y-41717D01*
X68816Y-41816D01*
X68816Y-41618D01*
X68772Y-41564D01*
X68602Y-41516D01*
X68426Y-41536D01*
X68359Y-41564D01*
X68314Y-41618D01*
X68565Y-41868D01*
X68816Y-41618D01*
X68816Y-41816D01*
X68664Y-41967D01*
X68915Y-42218D01*
X68969Y-42174D01*
X69017Y-42004D01*
X69017Y-43293D01*
X68934Y-43170D01*
X68816Y-43091D01*
X68816Y-42317D01*
X68565Y-42066D01*
X68466Y-42165D01*
X68466Y-41967D01*
X68215Y-41717D01*
X68162Y-41761D01*
X68114Y-41931D01*
X68134Y-42107D01*
X68162Y-42174D01*
X68215Y-42218D01*
X68466Y-41967D01*
X68466Y-42165D01*
X68314Y-42317D01*
X68359Y-42371D01*
X68529Y-42419D01*
X68704Y-42399D01*
X68772Y-42371D01*
X68816Y-42317D01*
X68816Y-43091D01*
X68808Y-43085D01*
X68659Y-43056D01*
X67649Y-43056D01*
X67500Y-43085D01*
X67374Y-43170D01*
X67289Y-43296D01*
X67259Y-43446D01*
X67289Y-43595D01*
X67374Y-43721D01*
X67500Y-43806D01*
X67649Y-43836D01*
X68659Y-43836D01*
X68808Y-43806D01*
X68934Y-43721D01*
X69019Y-43595D01*
X69049Y-43446D01*
X69049Y-44705D01*
X69041Y-44713D01*
X68985Y-44857D01*
X68985Y-45345D01*
X69305Y-45345D01*
X69305Y-45485D01*
X68985Y-45485D01*
X68985Y-45972D01*
X69041Y-46116D01*
X69148Y-46227D01*
X69245Y-46270D01*
X69305Y-46263D01*
X69305Y-49105D01*
X67324Y-49105D01*
X67324Y-45919D01*
X67324Y-44910D01*
X67294Y-44761D01*
X67209Y-44634D01*
X67083Y-44550D01*
X66982Y-44530D01*
X66982Y-33192D01*
X66960Y-33056D01*
X66950Y-33033D01*
X66907Y-33001D01*
X66808Y-33100D01*
X66808Y-32902D01*
X66776Y-32859D01*
X66642Y-32827D01*
X66506Y-32849D01*
X66483Y-32859D01*
X66451Y-32902D01*
X66630Y-33081D01*
X66808Y-32902D01*
X66808Y-33100D01*
X66728Y-33180D01*
X66907Y-33358D01*
X66950Y-33326D01*
X66982Y-33192D01*
X66982Y-44530D01*
X66975Y-44528D01*
X66975Y-36111D01*
X66975Y-35111D01*
X66975Y-34111D01*
X66923Y-33984D01*
X66826Y-33886D01*
X66808Y-33879D01*
X66808Y-33457D01*
X66630Y-33278D01*
X66531Y-33377D01*
X66531Y-33180D01*
X66352Y-33001D01*
X66309Y-33033D01*
X66277Y-33167D01*
X66299Y-33303D01*
X66309Y-33326D01*
X66352Y-33358D01*
X66531Y-33180D01*
X66531Y-33377D01*
X66451Y-33457D01*
X66483Y-33500D01*
X66617Y-33532D01*
X66753Y-33510D01*
X66776Y-33500D01*
X66808Y-33457D01*
X66808Y-33879D01*
X66699Y-33834D01*
X66561Y-33834D01*
X66434Y-33886D01*
X66336Y-33983D01*
X66284Y-34110D01*
X66284Y-34248D01*
X66294Y-34274D01*
X66059Y-34510D01*
X65982Y-34510D01*
X65982Y-32692D01*
X65960Y-32556D01*
X65950Y-32533D01*
X65907Y-32501D01*
X65808Y-32600D01*
X65808Y-32402D01*
X65776Y-32359D01*
X65642Y-32327D01*
X65506Y-32349D01*
X65483Y-32359D01*
X65451Y-32402D01*
X65630Y-32581D01*
X65808Y-32402D01*
X65808Y-32600D01*
X65728Y-32680D01*
X65907Y-32858D01*
X65950Y-32826D01*
X65982Y-32692D01*
X65982Y-34510D01*
X65975Y-34510D01*
X65975Y-33611D01*
X65923Y-33484D01*
X65826Y-33386D01*
X65808Y-33379D01*
X65808Y-32957D01*
X65630Y-32778D01*
X65531Y-32877D01*
X65531Y-32680D01*
X65352Y-32501D01*
X65309Y-32533D01*
X65277Y-32667D01*
X65299Y-32803D01*
X65309Y-32826D01*
X65352Y-32858D01*
X65531Y-32680D01*
X65531Y-32877D01*
X65451Y-32957D01*
X65483Y-33000D01*
X65617Y-33032D01*
X65753Y-33010D01*
X65776Y-33000D01*
X65808Y-32957D01*
X65808Y-33379D01*
X65699Y-33334D01*
X65561Y-33334D01*
X65434Y-33386D01*
X65336Y-33483D01*
X65284Y-33610D01*
X65284Y-33748D01*
X65336Y-33875D01*
X65433Y-33973D01*
X65560Y-34025D01*
X65698Y-34025D01*
X65825Y-33973D01*
X65923Y-33876D01*
X65975Y-33749D01*
X65975Y-33611D01*
X65975Y-34510D01*
X65934Y-34510D01*
X65923Y-34484D01*
X65826Y-34386D01*
X65699Y-34334D01*
X65561Y-34334D01*
X65434Y-34386D01*
X65336Y-34483D01*
X65284Y-34610D01*
X65284Y-34748D01*
X65336Y-34875D01*
X65433Y-34973D01*
X65560Y-35025D01*
X65698Y-35025D01*
X65825Y-34973D01*
X65923Y-34876D01*
X65933Y-34850D01*
X66130Y-34850D01*
X66195Y-34837D01*
X66195Y-34837D01*
X66250Y-34800D01*
X66535Y-34515D01*
X66560Y-34525D01*
X66698Y-34525D01*
X66825Y-34473D01*
X66923Y-34376D01*
X66975Y-34249D01*
X66975Y-34111D01*
X66975Y-35111D01*
X66923Y-34984D01*
X66826Y-34886D01*
X66699Y-34834D01*
X66561Y-34834D01*
X66434Y-34886D01*
X66336Y-34983D01*
X66284Y-35110D01*
X66284Y-35248D01*
X66336Y-35375D01*
X66433Y-35473D01*
X66560Y-35525D01*
X66698Y-35525D01*
X66825Y-35473D01*
X66923Y-35376D01*
X66975Y-35249D01*
X66975Y-35111D01*
X66975Y-36111D01*
X66923Y-35984D01*
X66826Y-35886D01*
X66699Y-35834D01*
X66561Y-35834D01*
X66434Y-35886D01*
X66336Y-35983D01*
X66284Y-36110D01*
X66284Y-36248D01*
X66336Y-36375D01*
X66433Y-36473D01*
X66560Y-36525D01*
X66698Y-36525D01*
X66825Y-36473D01*
X66923Y-36376D01*
X66975Y-36249D01*
X66975Y-36111D01*
X66975Y-44528D01*
X66934Y-44520D01*
X66784Y-44550D01*
X66658Y-44634D01*
X66573Y-44761D01*
X66544Y-44910D01*
X66544Y-45919D01*
X66573Y-46068D01*
X66658Y-46195D01*
X66764Y-46266D01*
X66764Y-46345D01*
X65975Y-47133D01*
X65975Y-35611D01*
X65923Y-35484D01*
X65826Y-35386D01*
X65699Y-35334D01*
X65561Y-35334D01*
X65434Y-35386D01*
X65336Y-35483D01*
X65284Y-35610D01*
X65284Y-35748D01*
X65336Y-35875D01*
X65433Y-35973D01*
X65560Y-36025D01*
X65698Y-36025D01*
X65825Y-35973D01*
X65923Y-35876D01*
X65975Y-35749D01*
X65975Y-35611D01*
X65975Y-47133D01*
X65139Y-47970D01*
X62132Y-47970D01*
X62132Y-38417D01*
X62110Y-38273D01*
X62097Y-38241D01*
X62052Y-38206D01*
X61953Y-38305D01*
X61953Y-38107D01*
X61918Y-38062D01*
X61777Y-38027D01*
X61633Y-38049D01*
X61601Y-38062D01*
X61566Y-38107D01*
X61760Y-38301D01*
X61953Y-38107D01*
X61953Y-38305D01*
X61858Y-38400D01*
X62052Y-38593D01*
X62097Y-38558D01*
X62132Y-38417D01*
X62132Y-47970D01*
X61953Y-47970D01*
X61953Y-38692D01*
X61760Y-38498D01*
X61661Y-38597D01*
X61661Y-38400D01*
X61467Y-38206D01*
X61422Y-38241D01*
X61387Y-38382D01*
X61409Y-38526D01*
X61422Y-38558D01*
X61467Y-38593D01*
X61661Y-38400D01*
X61661Y-38597D01*
X61566Y-38692D01*
X61601Y-38737D01*
X61742Y-38772D01*
X61886Y-38750D01*
X61918Y-38737D01*
X61953Y-38692D01*
X61953Y-47970D01*
X57770Y-47970D01*
X57770Y-33284D01*
X57735Y-33199D01*
X57670Y-33135D01*
X57585Y-33100D01*
X57494Y-33099D01*
X57409Y-33134D01*
X57364Y-33180D01*
X56922Y-33180D01*
X56806Y-33063D01*
X56757Y-33031D01*
X56700Y-33020D01*
X56325Y-33020D01*
X56280Y-32975D01*
X56195Y-32940D01*
X56104Y-32939D01*
X56019Y-32974D01*
X55955Y-33039D01*
X55920Y-33124D01*
X55919Y-33215D01*
X55954Y-33300D01*
X56019Y-33364D01*
X56104Y-33399D01*
X56195Y-33400D01*
X56280Y-33365D01*
X56325Y-33320D01*
X56637Y-33320D01*
X56753Y-33436D01*
X56753Y-33436D01*
X56802Y-33468D01*
X56802Y-33468D01*
X56860Y-33480D01*
X57364Y-33480D01*
X57409Y-33524D01*
X57494Y-33559D01*
X57585Y-33560D01*
X57670Y-33525D01*
X57734Y-33460D01*
X57769Y-33375D01*
X57770Y-33284D01*
X57770Y-47970D01*
X57650Y-47970D01*
X57650Y-45834D01*
X57615Y-45749D01*
X57550Y-45685D01*
X57550Y-45684D01*
X57550Y-44160D01*
X57550Y-44160D01*
X57550Y-44160D01*
X57540Y-44110D01*
X57511Y-44068D01*
X56990Y-43546D01*
X56990Y-34994D01*
X56955Y-34909D01*
X56890Y-34845D01*
X56805Y-34810D01*
X56742Y-34809D01*
X56379Y-34447D01*
X56380Y-34384D01*
X56345Y-34299D01*
X56280Y-34235D01*
X56195Y-34200D01*
X56104Y-34199D01*
X56019Y-34234D01*
X55955Y-34299D01*
X55920Y-34384D01*
X55919Y-34475D01*
X55954Y-34560D01*
X56019Y-34624D01*
X56104Y-34659D01*
X56167Y-34660D01*
X56530Y-35022D01*
X56529Y-35085D01*
X56564Y-35170D01*
X56629Y-35234D01*
X56714Y-35269D01*
X56805Y-35270D01*
X56890Y-35235D01*
X56954Y-35170D01*
X56989Y-35085D01*
X56990Y-34994D01*
X56990Y-43546D01*
X56889Y-43446D01*
X56889Y-43445D01*
X56890Y-43354D01*
X56855Y-43269D01*
X56790Y-43205D01*
X56705Y-43170D01*
X56614Y-43169D01*
X56529Y-43204D01*
X56465Y-43269D01*
X56430Y-43354D01*
X56429Y-43445D01*
X56464Y-43530D01*
X56529Y-43594D01*
X56614Y-43629D01*
X56705Y-43630D01*
X56706Y-43629D01*
X57290Y-44213D01*
X57290Y-45684D01*
X57289Y-45684D01*
X57225Y-45749D01*
X57190Y-45834D01*
X57189Y-45925D01*
X57224Y-46010D01*
X57289Y-46074D01*
X57374Y-46109D01*
X57465Y-46110D01*
X57550Y-46075D01*
X57614Y-46010D01*
X57649Y-45925D01*
X57650Y-45834D01*
X57650Y-47970D01*
X56850Y-47970D01*
X56190Y-47309D01*
X56190Y-47274D01*
X56155Y-47189D01*
X56090Y-47125D01*
X56005Y-47090D01*
X55970Y-47090D01*
X55950Y-47069D01*
X55950Y-47034D01*
X55915Y-46949D01*
X55850Y-46885D01*
X55765Y-46850D01*
X55730Y-46850D01*
X55710Y-46829D01*
X55710Y-46794D01*
X55675Y-46709D01*
X55610Y-46645D01*
X55525Y-46610D01*
X55490Y-46610D01*
X55470Y-46589D01*
X55470Y-46554D01*
X55435Y-46469D01*
X55425Y-46459D01*
X55425Y-37112D01*
X55425Y-37077D01*
X55425Y-36827D01*
X55425Y-36512D01*
X55425Y-36455D01*
X55425Y-36285D01*
X55425Y-36227D01*
X55411Y-36194D01*
X55385Y-36168D01*
X55352Y-36155D01*
X55317Y-36155D01*
X55202Y-36155D01*
X55180Y-36177D01*
X55180Y-36307D01*
X55402Y-36307D01*
X55425Y-36285D01*
X55425Y-36455D01*
X55402Y-36432D01*
X55180Y-36432D01*
X55180Y-36562D01*
X55202Y-36585D01*
X55317Y-36585D01*
X55352Y-36585D01*
X55385Y-36571D01*
X55411Y-36545D01*
X55425Y-36512D01*
X55425Y-36827D01*
X55411Y-36794D01*
X55385Y-36768D01*
X55352Y-36755D01*
X55317Y-36755D01*
X55040Y-36755D01*
X55040Y-36562D01*
X55040Y-36432D01*
X55040Y-36307D01*
X55040Y-36177D01*
X55017Y-36155D01*
X54902Y-36155D01*
X54867Y-36155D01*
X54834Y-36168D01*
X54808Y-36194D01*
X54795Y-36227D01*
X54795Y-36285D01*
X54817Y-36307D01*
X55040Y-36307D01*
X55040Y-36432D01*
X54817Y-36432D01*
X54795Y-36455D01*
X54795Y-36512D01*
X54808Y-36545D01*
X54834Y-36571D01*
X54867Y-36585D01*
X54902Y-36585D01*
X55017Y-36585D01*
X55040Y-36562D01*
X55040Y-36755D01*
X54867Y-36755D01*
X54834Y-36768D01*
X54808Y-36794D01*
X54795Y-36827D01*
X54795Y-36862D01*
X54795Y-37112D01*
X54808Y-37145D01*
X54834Y-37171D01*
X54867Y-37185D01*
X54902Y-37185D01*
X54960Y-37185D01*
X54960Y-37446D01*
X53039Y-37446D01*
X53006Y-37460D01*
X52981Y-37485D01*
X52967Y-37518D01*
X52967Y-37554D01*
X52967Y-37780D01*
X52872Y-37780D01*
X52600Y-37507D01*
X52600Y-37365D01*
X52644Y-37320D01*
X52679Y-37235D01*
X52680Y-37144D01*
X52645Y-37059D01*
X52580Y-36995D01*
X52495Y-36960D01*
X52404Y-36959D01*
X52319Y-36994D01*
X52255Y-37059D01*
X52222Y-37139D01*
X52175Y-37120D01*
X52084Y-37119D01*
X51999Y-37154D01*
X51935Y-37219D01*
X51900Y-37304D01*
X51899Y-37395D01*
X51934Y-37480D01*
X51966Y-37511D01*
X51697Y-37780D01*
X51612Y-37780D01*
X51612Y-37518D01*
X51598Y-37485D01*
X51573Y-37460D01*
X51540Y-37446D01*
X51504Y-37446D01*
X51170Y-37446D01*
X51170Y-33700D01*
X51170Y-33270D01*
X51160Y-33220D01*
X51131Y-33178D01*
X50865Y-32911D01*
X50865Y-31427D01*
X50810Y-31293D01*
X50707Y-31190D01*
X50573Y-31134D01*
X50427Y-31134D01*
X50293Y-31189D01*
X50190Y-31292D01*
X50134Y-31426D01*
X50134Y-31572D01*
X50189Y-31706D01*
X50292Y-31809D01*
X50426Y-31865D01*
X50572Y-31865D01*
X50706Y-31810D01*
X50809Y-31707D01*
X50865Y-31573D01*
X50865Y-31427D01*
X50865Y-32911D01*
X50849Y-32896D01*
X50849Y-32895D01*
X50850Y-32804D01*
X50815Y-32719D01*
X50750Y-32655D01*
X50665Y-32620D01*
X50574Y-32619D01*
X50489Y-32654D01*
X50425Y-32719D01*
X50390Y-32804D01*
X50389Y-32895D01*
X50424Y-32980D01*
X50489Y-33044D01*
X50574Y-33079D01*
X50665Y-33080D01*
X50666Y-33079D01*
X50910Y-33323D01*
X50910Y-33646D01*
X50850Y-33706D01*
X50850Y-33434D01*
X50815Y-33349D01*
X50750Y-33285D01*
X50665Y-33250D01*
X50574Y-33249D01*
X50489Y-33284D01*
X50425Y-33349D01*
X50424Y-33350D01*
X50200Y-33350D01*
X50150Y-33359D01*
X50108Y-33388D01*
X50108Y-33388D01*
X49865Y-33630D01*
X49865Y-31427D01*
X49810Y-31293D01*
X49707Y-31190D01*
X49573Y-31134D01*
X49427Y-31134D01*
X49293Y-31189D01*
X49190Y-31292D01*
X49134Y-31426D01*
X49134Y-31572D01*
X49189Y-31706D01*
X49292Y-31809D01*
X49426Y-31865D01*
X49572Y-31865D01*
X49706Y-31810D01*
X49809Y-31707D01*
X49865Y-31573D01*
X49865Y-31427D01*
X49865Y-33630D01*
X49636Y-33860D01*
X49355Y-33860D01*
X49355Y-33859D01*
X49290Y-33795D01*
X49205Y-33760D01*
X49114Y-33759D01*
X49029Y-33794D01*
X48965Y-33859D01*
X48930Y-33944D01*
X48929Y-34035D01*
X48964Y-34120D01*
X49029Y-34184D01*
X49114Y-34219D01*
X49205Y-34220D01*
X49290Y-34185D01*
X49354Y-34120D01*
X49355Y-34120D01*
X49690Y-34120D01*
X49739Y-34110D01*
X49781Y-34081D01*
X50253Y-33610D01*
X50424Y-33610D01*
X50424Y-33610D01*
X50489Y-33674D01*
X50574Y-33709D01*
X50665Y-33710D01*
X50750Y-33675D01*
X50814Y-33610D01*
X50849Y-33525D01*
X50850Y-33434D01*
X50850Y-33706D01*
X50666Y-33890D01*
X50665Y-33890D01*
X50574Y-33889D01*
X50489Y-33924D01*
X50425Y-33989D01*
X50390Y-34074D01*
X50389Y-34165D01*
X50424Y-34250D01*
X50489Y-34314D01*
X50574Y-34349D01*
X50665Y-34350D01*
X50750Y-34315D01*
X50814Y-34250D01*
X50849Y-34165D01*
X50850Y-34074D01*
X50849Y-34073D01*
X51131Y-33791D01*
X51160Y-33749D01*
X51170Y-33700D01*
X51170Y-37446D01*
X49730Y-37446D01*
X49730Y-37225D01*
X49822Y-37225D01*
X49855Y-37211D01*
X49881Y-37185D01*
X49895Y-37152D01*
X49895Y-37117D01*
X49895Y-36867D01*
X49895Y-36552D01*
X49895Y-36495D01*
X49895Y-36325D01*
X49895Y-36267D01*
X49881Y-36234D01*
X49855Y-36208D01*
X49822Y-36195D01*
X49787Y-36195D01*
X49672Y-36195D01*
X49650Y-36217D01*
X49650Y-36347D01*
X49872Y-36347D01*
X49895Y-36325D01*
X49895Y-36495D01*
X49872Y-36472D01*
X49650Y-36472D01*
X49650Y-36602D01*
X49672Y-36625D01*
X49787Y-36625D01*
X49822Y-36625D01*
X49855Y-36611D01*
X49881Y-36585D01*
X49895Y-36552D01*
X49895Y-36867D01*
X49881Y-36834D01*
X49855Y-36808D01*
X49822Y-36795D01*
X49787Y-36795D01*
X49510Y-36795D01*
X49510Y-36602D01*
X49510Y-36472D01*
X49510Y-36347D01*
X49510Y-36217D01*
X49487Y-36195D01*
X49372Y-36195D01*
X49337Y-36195D01*
X49304Y-36208D01*
X49278Y-36234D01*
X49265Y-36267D01*
X49265Y-36325D01*
X49287Y-36347D01*
X49510Y-36347D01*
X49510Y-36472D01*
X49287Y-36472D01*
X49265Y-36495D01*
X49265Y-36552D01*
X49278Y-36585D01*
X49304Y-36611D01*
X49337Y-36625D01*
X49372Y-36625D01*
X49487Y-36625D01*
X49510Y-36602D01*
X49510Y-36795D01*
X49337Y-36795D01*
X49304Y-36808D01*
X49278Y-36834D01*
X49265Y-36867D01*
X49265Y-36902D01*
X49265Y-37152D01*
X49278Y-37185D01*
X49304Y-37211D01*
X49337Y-37225D01*
X49372Y-37225D01*
X49430Y-37225D01*
X49430Y-37446D01*
X49339Y-37446D01*
X49306Y-37460D01*
X49281Y-37485D01*
X49267Y-37518D01*
X49267Y-37554D01*
X49267Y-38341D01*
X49281Y-38374D01*
X49306Y-38399D01*
X49339Y-38413D01*
X49375Y-38413D01*
X51540Y-38413D01*
X51573Y-38399D01*
X51598Y-38374D01*
X51612Y-38341D01*
X51612Y-38305D01*
X51612Y-38080D01*
X51760Y-38080D01*
X51817Y-38068D01*
X51817Y-38068D01*
X51866Y-38036D01*
X52236Y-37666D01*
X52268Y-37617D01*
X52268Y-37617D01*
X52280Y-37560D01*
X52280Y-37560D01*
X52280Y-37559D01*
X52280Y-37525D01*
X52300Y-37505D01*
X52300Y-37570D01*
X52311Y-37627D01*
X52343Y-37676D01*
X52703Y-38036D01*
X52752Y-38068D01*
X52752Y-38068D01*
X52810Y-38080D01*
X52810Y-38080D01*
X52810Y-38080D01*
X52967Y-38080D01*
X52967Y-38341D01*
X52981Y-38374D01*
X53006Y-38399D01*
X53039Y-38413D01*
X53075Y-38413D01*
X55240Y-38413D01*
X55273Y-38399D01*
X55298Y-38374D01*
X55312Y-38341D01*
X55312Y-38305D01*
X55312Y-37518D01*
X55298Y-37485D01*
X55273Y-37460D01*
X55260Y-37454D01*
X55260Y-37185D01*
X55352Y-37185D01*
X55385Y-37171D01*
X55411Y-37145D01*
X55425Y-37112D01*
X55425Y-46459D01*
X55370Y-46405D01*
X55285Y-46370D01*
X55194Y-46369D01*
X55109Y-46404D01*
X55045Y-46469D01*
X55010Y-46554D01*
X55009Y-46645D01*
X55044Y-46730D01*
X55109Y-46794D01*
X55194Y-46829D01*
X55229Y-46829D01*
X55249Y-46850D01*
X55249Y-46885D01*
X55284Y-46970D01*
X55349Y-47034D01*
X55434Y-47069D01*
X55469Y-47069D01*
X55489Y-47090D01*
X55489Y-47125D01*
X55524Y-47210D01*
X55589Y-47274D01*
X55674Y-47309D01*
X55709Y-47309D01*
X55729Y-47330D01*
X55729Y-47365D01*
X55764Y-47450D01*
X55829Y-47514D01*
X55914Y-47549D01*
X55949Y-47549D01*
X56659Y-48260D01*
X56714Y-48297D01*
X56714Y-48297D01*
X56780Y-48310D01*
X65210Y-48310D01*
X65275Y-48297D01*
X65275Y-48297D01*
X65330Y-48260D01*
X67054Y-46536D01*
X67054Y-46536D01*
X67054Y-46536D01*
X67078Y-46499D01*
X67091Y-46481D01*
X67091Y-46481D01*
X67104Y-46415D01*
X67104Y-46415D01*
X67104Y-46415D01*
X67104Y-46266D01*
X67209Y-46195D01*
X67294Y-46068D01*
X67324Y-45919D01*
X67324Y-49105D01*
X53780Y-49105D01*
X53780Y-40554D01*
X53745Y-40469D01*
X53700Y-40424D01*
X53700Y-39934D01*
X53744Y-39889D01*
X53779Y-39804D01*
X53780Y-39713D01*
X53745Y-39628D01*
X53680Y-39564D01*
X53595Y-39529D01*
X53504Y-39528D01*
X53419Y-39563D01*
X53355Y-39628D01*
X53320Y-39713D01*
X53319Y-39804D01*
X53354Y-39889D01*
X53400Y-39934D01*
X53400Y-40424D01*
X53355Y-40469D01*
X53320Y-40554D01*
X53319Y-40645D01*
X53354Y-40730D01*
X53419Y-40794D01*
X53504Y-40829D01*
X53595Y-40830D01*
X53680Y-40795D01*
X53744Y-40730D01*
X53779Y-40645D01*
X53780Y-40554D01*
X53780Y-49105D01*
X53460Y-49105D01*
X53460Y-47830D01*
X53460Y-46650D01*
X53460Y-46410D01*
X53460Y-45830D01*
X50950Y-45830D01*
X50950Y-44384D01*
X50915Y-44299D01*
X50890Y-44274D01*
X50890Y-42615D01*
X50914Y-42590D01*
X50949Y-42505D01*
X50950Y-42414D01*
X50915Y-42329D01*
X50850Y-42265D01*
X50765Y-42230D01*
X50674Y-42229D01*
X50589Y-42264D01*
X50525Y-42329D01*
X50520Y-42341D01*
X50515Y-42329D01*
X50450Y-42265D01*
X50365Y-42230D01*
X50274Y-42229D01*
X50189Y-42264D01*
X50125Y-42329D01*
X50090Y-42414D01*
X50089Y-42505D01*
X50124Y-42590D01*
X50150Y-42615D01*
X50150Y-44274D01*
X50125Y-44299D01*
X50090Y-44384D01*
X50089Y-44475D01*
X50124Y-44560D01*
X50189Y-44624D01*
X50274Y-44659D01*
X50365Y-44660D01*
X50450Y-44625D01*
X50514Y-44560D01*
X50519Y-44548D01*
X50524Y-44560D01*
X50589Y-44624D01*
X50674Y-44659D01*
X50765Y-44660D01*
X50850Y-44625D01*
X50914Y-44560D01*
X50949Y-44475D01*
X50950Y-44384D01*
X50950Y-45830D01*
X49740Y-45830D01*
X49740Y-44764D01*
X49705Y-44679D01*
X49640Y-44615D01*
X49640Y-44614D01*
X49640Y-43215D01*
X49640Y-43215D01*
X49704Y-43150D01*
X49739Y-43065D01*
X49740Y-42974D01*
X49705Y-42889D01*
X49640Y-42825D01*
X49555Y-42790D01*
X49464Y-42789D01*
X49379Y-42824D01*
X49350Y-42854D01*
X49350Y-40504D01*
X49315Y-40419D01*
X49250Y-40355D01*
X49165Y-40320D01*
X49074Y-40319D01*
X48989Y-40354D01*
X48925Y-40419D01*
X48890Y-40504D01*
X48889Y-40595D01*
X48890Y-40596D01*
X48716Y-40770D01*
X48715Y-40770D01*
X48624Y-40769D01*
X48539Y-40804D01*
X48475Y-40869D01*
X48440Y-40954D01*
X48439Y-41045D01*
X48474Y-41130D01*
X48539Y-41194D01*
X48624Y-41229D01*
X48715Y-41230D01*
X48800Y-41195D01*
X48864Y-41130D01*
X48899Y-41045D01*
X48900Y-40954D01*
X48899Y-40953D01*
X49073Y-40779D01*
X49074Y-40779D01*
X49165Y-40780D01*
X49250Y-40745D01*
X49314Y-40680D01*
X49349Y-40595D01*
X49350Y-40504D01*
X49350Y-42854D01*
X49315Y-42889D01*
X49280Y-42974D01*
X49279Y-43065D01*
X49314Y-43150D01*
X49379Y-43214D01*
X49380Y-43215D01*
X49380Y-44614D01*
X49379Y-44614D01*
X49315Y-44679D01*
X49280Y-44764D01*
X49279Y-44855D01*
X49314Y-44940D01*
X49379Y-45004D01*
X49464Y-45039D01*
X49555Y-45040D01*
X49640Y-45005D01*
X49704Y-44940D01*
X49739Y-44855D01*
X49740Y-44764D01*
X49740Y-45830D01*
X48325Y-45830D01*
X48325Y-44742D01*
X48325Y-44707D01*
X48325Y-44157D01*
X48311Y-44124D01*
X48285Y-44098D01*
X48252Y-44085D01*
X48217Y-44085D01*
X47667Y-44085D01*
X47634Y-44098D01*
X47608Y-44124D01*
X47600Y-44144D01*
X47600Y-36944D01*
X47565Y-36859D01*
X47500Y-36795D01*
X47415Y-36760D01*
X47339Y-36759D01*
X47340Y-36684D01*
X47305Y-36599D01*
X47240Y-36535D01*
X47155Y-36500D01*
X47064Y-36499D01*
X46979Y-36534D01*
X46915Y-36599D01*
X46900Y-36635D01*
X46900Y-34024D01*
X46865Y-33939D01*
X46800Y-33875D01*
X46715Y-33840D01*
X46624Y-33839D01*
X46539Y-33874D01*
X46479Y-33934D01*
X46420Y-33875D01*
X46335Y-33840D01*
X46244Y-33839D01*
X46159Y-33874D01*
X46095Y-33939D01*
X46060Y-34024D01*
X46059Y-34115D01*
X46094Y-34200D01*
X46159Y-34264D01*
X46160Y-34265D01*
X46160Y-35266D01*
X45666Y-35760D01*
X45665Y-35760D01*
X45574Y-35759D01*
X45530Y-35778D01*
X45530Y-34394D01*
X45495Y-34309D01*
X45430Y-34245D01*
X45345Y-34210D01*
X45254Y-34209D01*
X45169Y-34244D01*
X45105Y-34309D01*
X45104Y-34310D01*
X45040Y-34310D01*
X44990Y-34319D01*
X44948Y-34348D01*
X44458Y-34838D01*
X44429Y-34880D01*
X44420Y-34930D01*
X44420Y-35636D01*
X44296Y-35760D01*
X44295Y-35760D01*
X44204Y-35759D01*
X44119Y-35794D01*
X44055Y-35859D01*
X44020Y-35944D01*
X44019Y-36035D01*
X44054Y-36120D01*
X44119Y-36184D01*
X44204Y-36219D01*
X44295Y-36220D01*
X44380Y-36185D01*
X44444Y-36120D01*
X44479Y-36035D01*
X44480Y-35944D01*
X44479Y-35943D01*
X44641Y-35781D01*
X44641Y-35781D01*
X44641Y-35781D01*
X44670Y-35739D01*
X44680Y-35690D01*
X44680Y-35690D01*
X44680Y-35689D01*
X44680Y-35375D01*
X44719Y-35414D01*
X44720Y-35415D01*
X44720Y-35794D01*
X44719Y-35794D01*
X44655Y-35859D01*
X44620Y-35944D01*
X44619Y-36035D01*
X44654Y-36120D01*
X44719Y-36184D01*
X44804Y-36219D01*
X44895Y-36220D01*
X44980Y-36185D01*
X45044Y-36120D01*
X45079Y-36035D01*
X45080Y-35944D01*
X45045Y-35859D01*
X44980Y-35795D01*
X44980Y-35794D01*
X44980Y-35415D01*
X44980Y-35415D01*
X45044Y-35350D01*
X45079Y-35265D01*
X45080Y-35174D01*
X45045Y-35089D01*
X44980Y-35025D01*
X44895Y-34990D01*
X44804Y-34989D01*
X44719Y-35024D01*
X44680Y-35064D01*
X44680Y-34983D01*
X45093Y-34570D01*
X45104Y-34570D01*
X45104Y-34570D01*
X45169Y-34634D01*
X45254Y-34669D01*
X45345Y-34670D01*
X45430Y-34635D01*
X45494Y-34570D01*
X45529Y-34485D01*
X45530Y-34394D01*
X45530Y-35778D01*
X45489Y-35794D01*
X45425Y-35859D01*
X45390Y-35944D01*
X45389Y-36035D01*
X45424Y-36120D01*
X45489Y-36184D01*
X45574Y-36219D01*
X45598Y-36219D01*
X45580Y-36264D01*
X45579Y-36355D01*
X45614Y-36440D01*
X45679Y-36504D01*
X45764Y-36539D01*
X45855Y-36540D01*
X45940Y-36505D01*
X46004Y-36440D01*
X46039Y-36355D01*
X46040Y-36264D01*
X46039Y-36263D01*
X46761Y-35541D01*
X46790Y-35499D01*
X46800Y-35450D01*
X46800Y-34265D01*
X46800Y-34265D01*
X46864Y-34200D01*
X46899Y-34115D01*
X46900Y-34024D01*
X46900Y-36635D01*
X46880Y-36684D01*
X46879Y-36747D01*
X45737Y-37890D01*
X45674Y-37889D01*
X45589Y-37924D01*
X45525Y-37989D01*
X45490Y-38074D01*
X45489Y-38165D01*
X45524Y-38250D01*
X45589Y-38314D01*
X45674Y-38349D01*
X45750Y-38350D01*
X45749Y-38425D01*
X45784Y-38510D01*
X45849Y-38574D01*
X45934Y-38609D01*
X46025Y-38610D01*
X46110Y-38575D01*
X46174Y-38510D01*
X46209Y-38425D01*
X46210Y-38362D01*
X47352Y-37219D01*
X47415Y-37220D01*
X47500Y-37185D01*
X47564Y-37120D01*
X47599Y-37035D01*
X47600Y-36944D01*
X47600Y-44144D01*
X47595Y-44157D01*
X47595Y-44192D01*
X47595Y-44742D01*
X47608Y-44775D01*
X47634Y-44801D01*
X47667Y-44815D01*
X47702Y-44815D01*
X48252Y-44815D01*
X48285Y-44801D01*
X48311Y-44775D01*
X48325Y-44742D01*
X48325Y-45830D01*
X47331Y-45830D01*
X47331Y-44467D01*
X47310Y-44323D01*
X47296Y-44291D01*
X47251Y-44257D01*
X47180Y-44328D01*
X47180Y-41954D01*
X47145Y-41869D01*
X47080Y-41805D01*
X46995Y-41770D01*
X46904Y-41769D01*
X46819Y-41804D01*
X46755Y-41869D01*
X46720Y-41954D01*
X46719Y-42045D01*
X46720Y-42046D01*
X46036Y-42730D01*
X46035Y-42730D01*
X45944Y-42729D01*
X45859Y-42764D01*
X45795Y-42829D01*
X45760Y-42914D01*
X45759Y-43005D01*
X45794Y-43090D01*
X45859Y-43154D01*
X45944Y-43189D01*
X46035Y-43190D01*
X46120Y-43155D01*
X46184Y-43090D01*
X46219Y-43005D01*
X46220Y-42914D01*
X46219Y-42913D01*
X46903Y-42229D01*
X46904Y-42229D01*
X46995Y-42230D01*
X47080Y-42195D01*
X47144Y-42130D01*
X47179Y-42045D01*
X47180Y-41954D01*
X47180Y-44328D01*
X47152Y-44356D01*
X47152Y-44158D01*
X47118Y-44113D01*
X46977Y-44078D01*
X46833Y-44099D01*
X46801Y-44113D01*
X46767Y-44158D01*
X46960Y-44351D01*
X47152Y-44158D01*
X47152Y-44356D01*
X47058Y-44450D01*
X47251Y-44642D01*
X47296Y-44608D01*
X47331Y-44467D01*
X47331Y-45830D01*
X47152Y-45830D01*
X47152Y-44741D01*
X46960Y-44548D01*
X46861Y-44647D01*
X46861Y-44450D01*
X46668Y-44257D01*
X46623Y-44291D01*
X46588Y-44432D01*
X46609Y-44576D01*
X46623Y-44608D01*
X46668Y-44642D01*
X46861Y-44450D01*
X46861Y-44647D01*
X46767Y-44741D01*
X46801Y-44786D01*
X46942Y-44821D01*
X47086Y-44800D01*
X47118Y-44786D01*
X47152Y-44741D01*
X47152Y-45830D01*
X46325Y-45830D01*
X46325Y-44377D01*
X46269Y-44243D01*
X46167Y-44140D01*
X46032Y-44085D01*
X45887Y-44084D01*
X45753Y-44140D01*
X45650Y-44242D01*
X45595Y-44377D01*
X45594Y-44522D01*
X45650Y-44656D01*
X45752Y-44759D01*
X45887Y-44814D01*
X46032Y-44815D01*
X46166Y-44759D01*
X46269Y-44657D01*
X46324Y-44522D01*
X46325Y-44377D01*
X46325Y-45830D01*
X46306Y-45830D01*
X46306Y-46650D01*
X49278Y-46650D01*
X49278Y-47830D01*
X53460Y-47830D01*
X53460Y-49105D01*
X48325Y-49105D01*
X48325Y-47377D01*
X48269Y-47243D01*
X48167Y-47140D01*
X48032Y-47085D01*
X47887Y-47084D01*
X47753Y-47140D01*
X47650Y-47242D01*
X47595Y-47377D01*
X47594Y-47522D01*
X47650Y-47656D01*
X47752Y-47759D01*
X47887Y-47814D01*
X48032Y-47815D01*
X48166Y-47759D01*
X48269Y-47657D01*
X48324Y-47522D01*
X48325Y-47377D01*
X48325Y-49105D01*
X47325Y-49105D01*
X47325Y-47377D01*
X47269Y-47243D01*
X47167Y-47140D01*
X47032Y-47085D01*
X46887Y-47084D01*
X46753Y-47140D01*
X46650Y-47242D01*
X46595Y-47377D01*
X46594Y-47522D01*
X46650Y-47656D01*
X46752Y-47759D01*
X46887Y-47814D01*
X47032Y-47815D01*
X47166Y-47759D01*
X47269Y-47657D01*
X47324Y-47522D01*
X47325Y-47377D01*
X47325Y-49105D01*
X46325Y-49105D01*
X46325Y-47377D01*
X46269Y-47243D01*
X46167Y-47140D01*
X46032Y-47085D01*
X45887Y-47084D01*
X45753Y-47140D01*
X45650Y-47242D01*
X45595Y-47377D01*
X45594Y-47522D01*
X45650Y-47656D01*
X45752Y-47759D01*
X45887Y-47814D01*
X46032Y-47815D01*
X46166Y-47759D01*
X46269Y-47657D01*
X46324Y-47522D01*
X46325Y-47377D01*
X46325Y-49105D01*
X45325Y-49105D01*
X45325Y-43317D01*
X45270Y-43183D01*
X45167Y-43080D01*
X45033Y-43024D01*
X44922Y-43024D01*
X44922Y-37467D01*
X44900Y-37323D01*
X44887Y-37291D01*
X44842Y-37256D01*
X44743Y-37355D01*
X44743Y-37157D01*
X44708Y-37112D01*
X44567Y-37077D01*
X44423Y-37099D01*
X44391Y-37112D01*
X44356Y-37157D01*
X44550Y-37351D01*
X44743Y-37157D01*
X44743Y-37355D01*
X44648Y-37450D01*
X44842Y-37643D01*
X44887Y-37608D01*
X44922Y-37467D01*
X44922Y-43024D01*
X44887Y-43024D01*
X44753Y-43079D01*
X44743Y-43090D01*
X44743Y-37742D01*
X44550Y-37548D01*
X44451Y-37647D01*
X44451Y-37450D01*
X44257Y-37256D01*
X44212Y-37291D01*
X44177Y-37432D01*
X44199Y-37576D01*
X44212Y-37608D01*
X44257Y-37643D01*
X44451Y-37450D01*
X44451Y-37647D01*
X44356Y-37742D01*
X44391Y-37787D01*
X44532Y-37822D01*
X44676Y-37800D01*
X44708Y-37787D01*
X44743Y-37742D01*
X44743Y-43090D01*
X44650Y-43182D01*
X44594Y-43316D01*
X44594Y-43462D01*
X44649Y-43596D01*
X44752Y-43699D01*
X44886Y-43755D01*
X45032Y-43755D01*
X45166Y-43700D01*
X45269Y-43597D01*
X45325Y-43463D01*
X45325Y-43317D01*
X45325Y-49105D01*
X45325Y-49105D01*
X45325Y-47377D01*
X45325Y-44377D01*
X45269Y-44243D01*
X45167Y-44140D01*
X45032Y-44085D01*
X44887Y-44084D01*
X44753Y-44140D01*
X44650Y-44242D01*
X44595Y-44377D01*
X44594Y-44522D01*
X44650Y-44656D01*
X44752Y-44759D01*
X44887Y-44814D01*
X45032Y-44815D01*
X45166Y-44759D01*
X45269Y-44657D01*
X45324Y-44522D01*
X45325Y-44377D01*
X45325Y-47377D01*
X45269Y-47243D01*
X45167Y-47140D01*
X45032Y-47085D01*
X44887Y-47084D01*
X44753Y-47140D01*
X44650Y-47242D01*
X44595Y-47377D01*
X44594Y-47522D01*
X44650Y-47656D01*
X44752Y-47759D01*
X44887Y-47814D01*
X45032Y-47815D01*
X45166Y-47759D01*
X45269Y-47657D01*
X45324Y-47522D01*
X45325Y-47377D01*
X45325Y-49105D01*
X43790Y-49105D01*
X43790Y-38024D01*
X43755Y-37939D01*
X43690Y-37875D01*
X43605Y-37840D01*
X43540Y-37839D01*
X43540Y-36617D01*
X43540Y-36582D01*
X43540Y-35982D01*
X43526Y-35949D01*
X43500Y-35923D01*
X43467Y-35910D01*
X43432Y-35910D01*
X42832Y-35910D01*
X42799Y-35923D01*
X42773Y-35949D01*
X42760Y-35982D01*
X42760Y-36017D01*
X42760Y-36617D01*
X42773Y-36650D01*
X42799Y-36676D01*
X42832Y-36690D01*
X42867Y-36690D01*
X43467Y-36690D01*
X43500Y-36676D01*
X43526Y-36650D01*
X43540Y-36617D01*
X43540Y-37839D01*
X43514Y-37839D01*
X43429Y-37874D01*
X43365Y-37939D01*
X43364Y-37940D01*
X42873Y-37940D01*
X42570Y-37636D01*
X42570Y-32724D01*
X42535Y-32639D01*
X42470Y-32575D01*
X42385Y-32540D01*
X42294Y-32539D01*
X42209Y-32574D01*
X42145Y-32639D01*
X42110Y-32724D01*
X42109Y-32787D01*
X41633Y-33263D01*
X41601Y-33312D01*
X41590Y-33370D01*
X41590Y-33794D01*
X41545Y-33839D01*
X41510Y-33924D01*
X41509Y-34015D01*
X41544Y-34100D01*
X41609Y-34164D01*
X41694Y-34199D01*
X41785Y-34200D01*
X41870Y-34165D01*
X41934Y-34100D01*
X41969Y-34015D01*
X41970Y-33924D01*
X41935Y-33839D01*
X41890Y-33794D01*
X41890Y-33432D01*
X42322Y-32999D01*
X42385Y-33000D01*
X42470Y-32965D01*
X42534Y-32900D01*
X42569Y-32815D01*
X42570Y-32724D01*
X42570Y-37636D01*
X42541Y-37608D01*
X42540Y-37606D01*
X42540Y-36222D01*
X42480Y-36079D01*
X42371Y-35969D01*
X42227Y-35910D01*
X42072Y-35909D01*
X41929Y-35969D01*
X41819Y-36078D01*
X41760Y-36222D01*
X41759Y-36377D01*
X41819Y-36520D01*
X41928Y-36630D01*
X42072Y-36689D01*
X42227Y-36690D01*
X42370Y-36630D01*
X42480Y-36521D01*
X42539Y-36377D01*
X42540Y-36222D01*
X42540Y-37606D01*
X42499Y-37579D01*
X42450Y-37570D01*
X41935Y-37570D01*
X41935Y-37569D01*
X41870Y-37505D01*
X41785Y-37470D01*
X41694Y-37469D01*
X41609Y-37504D01*
X41545Y-37569D01*
X41510Y-37654D01*
X41509Y-37745D01*
X41544Y-37830D01*
X41609Y-37894D01*
X41694Y-37929D01*
X41785Y-37930D01*
X41870Y-37895D01*
X41934Y-37830D01*
X41935Y-37830D01*
X42396Y-37830D01*
X42728Y-38161D01*
X42770Y-38190D01*
X42820Y-38200D01*
X42820Y-38200D01*
X42820Y-38200D01*
X43364Y-38200D01*
X43364Y-38200D01*
X43429Y-38264D01*
X43514Y-38299D01*
X43605Y-38300D01*
X43690Y-38265D01*
X43754Y-38200D01*
X43789Y-38115D01*
X43790Y-38024D01*
X43790Y-49105D01*
X41670Y-49105D01*
X41670Y-41827D01*
X41670Y-41792D01*
X41670Y-41192D01*
X41656Y-41159D01*
X41630Y-41133D01*
X41597Y-41120D01*
X41562Y-41120D01*
X41122Y-41120D01*
X41122Y-40190D01*
X41122Y-35190D01*
X41115Y-35129D01*
X41115Y-34067D01*
X41115Y-33067D01*
X41115Y-32067D01*
X41048Y-31906D01*
X40924Y-31782D01*
X40762Y-31715D01*
X40587Y-31714D01*
X40426Y-31781D01*
X40302Y-31905D01*
X40235Y-32067D01*
X40234Y-32242D01*
X40301Y-32403D01*
X40425Y-32527D01*
X40587Y-32594D01*
X40762Y-32595D01*
X40923Y-32528D01*
X41047Y-32404D01*
X41114Y-32242D01*
X41115Y-32067D01*
X41115Y-33067D01*
X41048Y-32906D01*
X40924Y-32782D01*
X40762Y-32715D01*
X40587Y-32714D01*
X40426Y-32781D01*
X40302Y-32905D01*
X40235Y-33067D01*
X40234Y-33242D01*
X40301Y-33403D01*
X40425Y-33527D01*
X40587Y-33594D01*
X40762Y-33595D01*
X40923Y-33528D01*
X41047Y-33404D01*
X41114Y-33242D01*
X41115Y-33067D01*
X41115Y-34067D01*
X41048Y-33906D01*
X40924Y-33782D01*
X40762Y-33715D01*
X40587Y-33714D01*
X40426Y-33781D01*
X40302Y-33905D01*
X40235Y-34067D01*
X40234Y-34242D01*
X40301Y-34403D01*
X40425Y-34527D01*
X40587Y-34594D01*
X40762Y-34595D01*
X40923Y-34528D01*
X41047Y-34404D01*
X41114Y-34242D01*
X41115Y-34067D01*
X41115Y-35129D01*
X41101Y-35016D01*
X41074Y-34951D01*
X41021Y-34907D01*
X40922Y-35006D01*
X40922Y-34808D01*
X40878Y-34755D01*
X40710Y-34707D01*
X40536Y-34728D01*
X40471Y-34755D01*
X40427Y-34808D01*
X40675Y-35056D01*
X40922Y-34808D01*
X40922Y-35006D01*
X40773Y-35155D01*
X41021Y-35402D01*
X41074Y-35358D01*
X41122Y-35190D01*
X41122Y-40190D01*
X41115Y-40129D01*
X41115Y-39067D01*
X41115Y-38067D01*
X41115Y-37067D01*
X41048Y-36906D01*
X40924Y-36782D01*
X40922Y-36781D01*
X40922Y-35501D01*
X40675Y-35253D01*
X40576Y-35352D01*
X40576Y-35155D01*
X40328Y-34907D01*
X40275Y-34951D01*
X40227Y-35119D01*
X40248Y-35293D01*
X40275Y-35358D01*
X40328Y-35402D01*
X40576Y-35155D01*
X40576Y-35352D01*
X40427Y-35501D01*
X40471Y-35554D01*
X40639Y-35602D01*
X40813Y-35581D01*
X40878Y-35554D01*
X40922Y-35501D01*
X40922Y-36781D01*
X40762Y-36715D01*
X40587Y-36714D01*
X40426Y-36781D01*
X40302Y-36905D01*
X40235Y-37067D01*
X40234Y-37242D01*
X40301Y-37403D01*
X40425Y-37527D01*
X40587Y-37594D01*
X40762Y-37595D01*
X40923Y-37528D01*
X41047Y-37404D01*
X41114Y-37242D01*
X41115Y-37067D01*
X41115Y-38067D01*
X41048Y-37906D01*
X40924Y-37782D01*
X40762Y-37715D01*
X40587Y-37714D01*
X40426Y-37781D01*
X40302Y-37905D01*
X40235Y-38067D01*
X40234Y-38242D01*
X40301Y-38403D01*
X40425Y-38527D01*
X40587Y-38594D01*
X40762Y-38595D01*
X40923Y-38528D01*
X41047Y-38404D01*
X41114Y-38242D01*
X41115Y-38067D01*
X41115Y-39067D01*
X41048Y-38906D01*
X40924Y-38782D01*
X40762Y-38715D01*
X40587Y-38714D01*
X40426Y-38781D01*
X40302Y-38905D01*
X40235Y-39067D01*
X40234Y-39242D01*
X40301Y-39403D01*
X40425Y-39527D01*
X40587Y-39594D01*
X40762Y-39595D01*
X40923Y-39528D01*
X41047Y-39404D01*
X41114Y-39242D01*
X41115Y-39067D01*
X41115Y-40129D01*
X41101Y-40016D01*
X41074Y-39951D01*
X41021Y-39907D01*
X40922Y-40006D01*
X40922Y-39808D01*
X40878Y-39755D01*
X40710Y-39707D01*
X40536Y-39728D01*
X40471Y-39755D01*
X40427Y-39808D01*
X40675Y-40056D01*
X40922Y-39808D01*
X40922Y-40006D01*
X40773Y-40155D01*
X41021Y-40402D01*
X41074Y-40358D01*
X41122Y-40190D01*
X41122Y-41120D01*
X40962Y-41120D01*
X40929Y-41133D01*
X40922Y-41139D01*
X40922Y-40501D01*
X40675Y-40253D01*
X40576Y-40352D01*
X40576Y-40155D01*
X40328Y-39907D01*
X40275Y-39951D01*
X40227Y-40119D01*
X40248Y-40293D01*
X40275Y-40358D01*
X40328Y-40402D01*
X40576Y-40155D01*
X40576Y-40352D01*
X40427Y-40501D01*
X40471Y-40554D01*
X40639Y-40602D01*
X40813Y-40581D01*
X40878Y-40554D01*
X40922Y-40501D01*
X40922Y-41139D01*
X40903Y-41159D01*
X40890Y-41192D01*
X40890Y-41227D01*
X40890Y-41827D01*
X40903Y-41860D01*
X40929Y-41886D01*
X40962Y-41900D01*
X40997Y-41900D01*
X41597Y-41900D01*
X41630Y-41886D01*
X41656Y-41860D01*
X41670Y-41827D01*
X41670Y-49105D01*
X41431Y-49105D01*
X41431Y-46784D01*
X41423Y-46714D01*
X41423Y-45265D01*
X41350Y-45087D01*
X41214Y-44951D01*
X41036Y-44877D01*
X40844Y-44877D01*
X40670Y-44949D01*
X40670Y-41432D01*
X40610Y-41289D01*
X40501Y-41179D01*
X40357Y-41120D01*
X40202Y-41119D01*
X40059Y-41179D01*
X39949Y-41288D01*
X39890Y-41432D01*
X39889Y-41587D01*
X39949Y-41730D01*
X40058Y-41840D01*
X40202Y-41899D01*
X40357Y-41900D01*
X40500Y-41840D01*
X40610Y-41731D01*
X40669Y-41587D01*
X40670Y-41432D01*
X40670Y-44949D01*
X40666Y-44950D01*
X40530Y-45086D01*
X40456Y-45264D01*
X40456Y-45456D01*
X40529Y-45634D01*
X40665Y-45770D01*
X40843Y-45844D01*
X41035Y-45844D01*
X41213Y-45771D01*
X41349Y-45635D01*
X41423Y-45457D01*
X41423Y-45265D01*
X41423Y-46714D01*
X41411Y-46593D01*
X41376Y-46508D01*
X41318Y-46459D01*
X41219Y-46558D01*
X41219Y-46360D01*
X41170Y-46302D01*
X40985Y-46247D01*
X40794Y-46267D01*
X40709Y-46302D01*
X40660Y-46360D01*
X40940Y-46639D01*
X41219Y-46360D01*
X41219Y-46558D01*
X41038Y-46738D01*
X41318Y-47018D01*
X41376Y-46969D01*
X41431Y-46784D01*
X41431Y-49105D01*
X41219Y-49105D01*
X41219Y-47117D01*
X40940Y-46837D01*
X40841Y-46936D01*
X40841Y-46738D01*
X40561Y-46459D01*
X40503Y-46508D01*
X40448Y-46693D01*
X40468Y-46884D01*
X40503Y-46969D01*
X40561Y-47018D01*
X40841Y-46738D01*
X40841Y-46936D01*
X40660Y-47117D01*
X40709Y-47175D01*
X40894Y-47230D01*
X41085Y-47210D01*
X41170Y-47175D01*
X41219Y-47117D01*
X41219Y-49105D01*
X39479Y-49105D01*
X39479Y-29639D01*
X70760Y-29639D01*
X70760Y-31132D01*
X70741Y-31085D01*
X70605Y-30949D01*
X70427Y-30875D01*
X70234Y-30875D01*
X70057Y-30948D01*
X69920Y-31084D01*
X69847Y-31262D01*
X69847Y-31454D01*
X69920Y-31632D01*
X70056Y-31768D01*
X70234Y-31842D01*
X70426Y-31842D01*
X70604Y-31769D01*
X70740Y-31633D01*
X70760Y-31586D01*
X70760Y-37273D01*
X70741Y-37227D01*
X70605Y-37091D01*
X70427Y-37017D01*
X70234Y-37017D01*
X70057Y-37090D01*
X69920Y-37226D01*
X69860Y-37373D01*
X69860Y-36535D01*
X69860Y-32035D01*
X69749Y-31767D01*
X69544Y-31561D01*
X69275Y-31450D01*
X68985Y-31449D01*
X68717Y-31560D01*
X68511Y-31765D01*
X68400Y-32034D01*
X68399Y-32324D01*
X68510Y-32592D01*
X68715Y-32798D01*
X68984Y-32909D01*
X69274Y-32910D01*
X69542Y-32799D01*
X69748Y-32594D01*
X69859Y-32325D01*
X69860Y-32035D01*
X69860Y-36535D01*
X69749Y-36267D01*
X69544Y-36061D01*
X69275Y-35950D01*
X68985Y-35949D01*
X68717Y-36060D01*
X68511Y-36265D01*
X68400Y-36534D01*
X68399Y-36824D01*
X68510Y-37092D01*
X68715Y-37298D01*
X68984Y-37409D01*
X69274Y-37410D01*
X69542Y-37299D01*
X69748Y-37094D01*
X69859Y-36825D01*
X69860Y-36535D01*
X69860Y-37373D01*
X69847Y-37404D01*
X69847Y-37596D01*
X69920Y-37774D01*
X70056Y-37910D01*
X70234Y-37984D01*
X70426Y-37984D01*
X70604Y-37911D01*
X70740Y-37775D01*
X70760Y-37727D01*
X70760Y-49105D01*
X70760Y-49105D01*
G37*
G54D29*
X70760Y-49105D02*
X69994Y-49105D01*
X69994Y-41387D01*
X69994Y-39616D01*
X69926Y-39452D01*
X69802Y-39327D01*
X69638Y-39259D01*
X69462Y-39259D01*
X69298Y-39327D01*
X69173Y-39452D01*
X69105Y-39615D01*
X69105Y-39792D01*
X69173Y-39955D01*
X69297Y-40080D01*
X69461Y-40148D01*
X69637Y-40148D01*
X69801Y-40081D01*
X69926Y-39956D01*
X69994Y-39792D01*
X69994Y-39616D01*
X69994Y-41387D01*
X69926Y-41224D01*
X69802Y-41099D01*
X69638Y-41031D01*
X69462Y-41031D01*
X69298Y-41098D01*
X69173Y-41223D01*
X69105Y-41387D01*
X69105Y-41563D01*
X69173Y-41727D01*
X69297Y-41852D01*
X69461Y-41920D01*
X69637Y-41920D01*
X69801Y-41852D01*
X69926Y-41727D01*
X69994Y-41564D01*
X69994Y-41387D01*
X69994Y-49105D01*
X69765Y-49105D01*
X69765Y-45972D01*
X69765Y-45485D01*
X69765Y-45345D01*
X69765Y-44857D01*
X69708Y-44713D01*
X69601Y-44602D01*
X69504Y-44559D01*
X69445Y-44566D01*
X69445Y-45345D01*
X69765Y-45345D01*
X69765Y-45485D01*
X69445Y-45485D01*
X69445Y-46263D01*
X69504Y-46270D01*
X69601Y-46227D01*
X69708Y-46116D01*
X69765Y-45972D01*
X69765Y-49105D01*
X69305Y-49105D01*
X69305Y-46263D01*
X69305Y-45485D01*
X69305Y-45345D01*
X69305Y-44566D01*
X69245Y-44559D01*
X69148Y-44602D01*
X69049Y-44705D01*
X69049Y-43446D01*
X69019Y-43296D01*
X69017Y-43293D01*
X69017Y-42004D01*
X69010Y-41942D01*
X69010Y-39124D01*
X68942Y-38960D01*
X68817Y-38835D01*
X68654Y-38767D01*
X68477Y-38767D01*
X68314Y-38835D01*
X68189Y-38960D01*
X68121Y-39123D01*
X68121Y-39300D01*
X68188Y-39463D01*
X68313Y-39588D01*
X68476Y-39656D01*
X68653Y-39656D01*
X68817Y-39588D01*
X68942Y-39464D01*
X69010Y-39300D01*
X69010Y-39124D01*
X69010Y-41942D01*
X68996Y-41828D01*
X68969Y-41761D01*
X68915Y-41717D01*
X68816Y-41816D01*
X68816Y-41618D01*
X68772Y-41564D01*
X68602Y-41516D01*
X68426Y-41536D01*
X68359Y-41564D01*
X68314Y-41618D01*
X68565Y-41868D01*
X68816Y-41618D01*
X68816Y-41816D01*
X68664Y-41967D01*
X68915Y-42218D01*
X68969Y-42174D01*
X69017Y-42004D01*
X69017Y-43293D01*
X68934Y-43170D01*
X68816Y-43091D01*
X68816Y-42317D01*
X68565Y-42066D01*
X68466Y-42165D01*
X68466Y-41967D01*
X68215Y-41717D01*
X68162Y-41761D01*
X68114Y-41931D01*
X68134Y-42107D01*
X68162Y-42174D01*
X68215Y-42218D01*
X68466Y-41967D01*
X68466Y-42165D01*
X68314Y-42317D01*
X68359Y-42371D01*
X68529Y-42419D01*
X68704Y-42399D01*
X68772Y-42371D01*
X68816Y-42317D01*
X68816Y-43091D01*
X68808Y-43085D01*
X68659Y-43056D01*
X67649Y-43056D01*
X67500Y-43085D01*
X67374Y-43170D01*
X67289Y-43296D01*
X67259Y-43446D01*
X67289Y-43595D01*
X67374Y-43721D01*
X67500Y-43806D01*
X67649Y-43836D01*
X68659Y-43836D01*
X68808Y-43806D01*
X68934Y-43721D01*
X69019Y-43595D01*
X69049Y-43446D01*
X69049Y-44705D01*
X69041Y-44713D01*
X68985Y-44857D01*
X68985Y-45345D01*
X69305Y-45345D01*
X69305Y-45485D01*
X68985Y-45485D01*
X68985Y-45972D01*
X69041Y-46116D01*
X69148Y-46227D01*
X69245Y-46270D01*
X69305Y-46263D01*
X69305Y-49105D01*
X67324Y-49105D01*
X67324Y-45919D01*
X67324Y-44910D01*
X67294Y-44761D01*
X67209Y-44634D01*
X67083Y-44550D01*
X66982Y-44530D01*
X66982Y-33192D01*
X66960Y-33056D01*
X66950Y-33033D01*
X66907Y-33001D01*
X66808Y-33100D01*
X66808Y-32902D01*
X66776Y-32859D01*
X66642Y-32827D01*
X66506Y-32849D01*
X66483Y-32859D01*
X66451Y-32902D01*
X66630Y-33081D01*
X66808Y-32902D01*
X66808Y-33100D01*
X66728Y-33180D01*
X66907Y-33358D01*
X66950Y-33326D01*
X66982Y-33192D01*
X66982Y-44530D01*
X66975Y-44528D01*
X66975Y-36111D01*
X66975Y-35111D01*
X66975Y-34111D01*
X66923Y-33984D01*
X66826Y-33886D01*
X66808Y-33879D01*
X66808Y-33457D01*
X66630Y-33278D01*
X66531Y-33377D01*
X66531Y-33180D01*
X66352Y-33001D01*
X66309Y-33033D01*
X66277Y-33167D01*
X66299Y-33303D01*
X66309Y-33326D01*
X66352Y-33358D01*
X66531Y-33180D01*
X66531Y-33377D01*
X66451Y-33457D01*
X66483Y-33500D01*
X66617Y-33532D01*
X66753Y-33510D01*
X66776Y-33500D01*
X66808Y-33457D01*
X66808Y-33879D01*
X66699Y-33834D01*
X66561Y-33834D01*
X66434Y-33886D01*
X66336Y-33983D01*
X66284Y-34110D01*
X66284Y-34248D01*
X66294Y-34274D01*
X66059Y-34510D01*
X65982Y-34510D01*
X65982Y-32692D01*
X65960Y-32556D01*
X65950Y-32533D01*
X65907Y-32501D01*
X65808Y-32600D01*
X65808Y-32402D01*
X65776Y-32359D01*
X65642Y-32327D01*
X65506Y-32349D01*
X65483Y-32359D01*
X65451Y-32402D01*
X65630Y-32581D01*
X65808Y-32402D01*
X65808Y-32600D01*
X65728Y-32680D01*
X65907Y-32858D01*
X65950Y-32826D01*
X65982Y-32692D01*
X65982Y-34510D01*
X65975Y-34510D01*
X65975Y-33611D01*
X65923Y-33484D01*
X65826Y-33386D01*
X65808Y-33379D01*
X65808Y-32957D01*
X65630Y-32778D01*
X65531Y-32877D01*
X65531Y-32680D01*
X65352Y-32501D01*
X65309Y-32533D01*
X65277Y-32667D01*
X65299Y-32803D01*
X65309Y-32826D01*
X65352Y-32858D01*
X65531Y-32680D01*
X65531Y-32877D01*
X65451Y-32957D01*
X65483Y-33000D01*
X65617Y-33032D01*
X65753Y-33010D01*
X65776Y-33000D01*
X65808Y-32957D01*
X65808Y-33379D01*
X65699Y-33334D01*
X65561Y-33334D01*
X65434Y-33386D01*
X65336Y-33483D01*
X65284Y-33610D01*
X65284Y-33748D01*
X65336Y-33875D01*
X65433Y-33973D01*
X65560Y-34025D01*
X65698Y-34025D01*
X65825Y-33973D01*
X65923Y-33876D01*
X65975Y-33749D01*
X65975Y-33611D01*
X65975Y-34510D01*
X65934Y-34510D01*
X65923Y-34484D01*
X65826Y-34386D01*
X65699Y-34334D01*
X65561Y-34334D01*
X65434Y-34386D01*
X65336Y-34483D01*
X65284Y-34610D01*
X65284Y-34748D01*
X65336Y-34875D01*
X65433Y-34973D01*
X65560Y-35025D01*
X65698Y-35025D01*
X65825Y-34973D01*
X65923Y-34876D01*
X65933Y-34850D01*
X66130Y-34850D01*
X66195Y-34837D01*
X66195Y-34837D01*
X66250Y-34800D01*
X66535Y-34515D01*
X66560Y-34525D01*
X66698Y-34525D01*
X66825Y-34473D01*
X66923Y-34376D01*
X66975Y-34249D01*
X66975Y-34111D01*
X66975Y-35111D01*
X66923Y-34984D01*
X66826Y-34886D01*
X66699Y-34834D01*
X66561Y-34834D01*
X66434Y-34886D01*
X66336Y-34983D01*
X66284Y-35110D01*
X66284Y-35248D01*
X66336Y-35375D01*
X66433Y-35473D01*
X66560Y-35525D01*
X66698Y-35525D01*
X66825Y-35473D01*
X66923Y-35376D01*
X66975Y-35249D01*
X66975Y-35111D01*
X66975Y-36111D01*
X66923Y-35984D01*
X66826Y-35886D01*
X66699Y-35834D01*
X66561Y-35834D01*
X66434Y-35886D01*
X66336Y-35983D01*
X66284Y-36110D01*
X66284Y-36248D01*
X66336Y-36375D01*
X66433Y-36473D01*
X66560Y-36525D01*
X66698Y-36525D01*
X66825Y-36473D01*
X66923Y-36376D01*
X66975Y-36249D01*
X66975Y-36111D01*
X66975Y-44528D01*
X66934Y-44520D01*
X66784Y-44550D01*
X66658Y-44634D01*
X66573Y-44761D01*
X66544Y-44910D01*
X66544Y-45919D01*
X66573Y-46068D01*
X66658Y-46195D01*
X66764Y-46266D01*
X66764Y-46345D01*
X65975Y-47133D01*
X65975Y-35611D01*
X65923Y-35484D01*
X65826Y-35386D01*
X65699Y-35334D01*
X65561Y-35334D01*
X65434Y-35386D01*
X65336Y-35483D01*
X65284Y-35610D01*
X65284Y-35748D01*
X65336Y-35875D01*
X65433Y-35973D01*
X65560Y-36025D01*
X65698Y-36025D01*
X65825Y-35973D01*
X65923Y-35876D01*
X65975Y-35749D01*
X65975Y-35611D01*
X65975Y-47133D01*
X65139Y-47970D01*
X62132Y-47970D01*
X62132Y-38417D01*
X62110Y-38273D01*
X62097Y-38241D01*
X62052Y-38206D01*
X61953Y-38305D01*
X61953Y-38107D01*
X61918Y-38062D01*
X61777Y-38027D01*
X61633Y-38049D01*
X61601Y-38062D01*
X61566Y-38107D01*
X61760Y-38301D01*
X61953Y-38107D01*
X61953Y-38305D01*
X61858Y-38400D01*
X62052Y-38593D01*
X62097Y-38558D01*
X62132Y-38417D01*
X62132Y-47970D01*
X61953Y-47970D01*
X61953Y-38692D01*
X61760Y-38498D01*
X61661Y-38597D01*
X61661Y-38400D01*
X61467Y-38206D01*
X61422Y-38241D01*
X61387Y-38382D01*
X61409Y-38526D01*
X61422Y-38558D01*
X61467Y-38593D01*
X61661Y-38400D01*
X61661Y-38597D01*
X61566Y-38692D01*
X61601Y-38737D01*
X61742Y-38772D01*
X61886Y-38750D01*
X61918Y-38737D01*
X61953Y-38692D01*
X61953Y-47970D01*
X57770Y-47970D01*
X57770Y-33284D01*
X57735Y-33199D01*
X57670Y-33135D01*
X57585Y-33100D01*
X57494Y-33099D01*
X57409Y-33134D01*
X57364Y-33180D01*
X56922Y-33180D01*
X56806Y-33063D01*
X56757Y-33031D01*
X56700Y-33020D01*
X56325Y-33020D01*
X56280Y-32975D01*
X56195Y-32940D01*
X56104Y-32939D01*
X56019Y-32974D01*
X55955Y-33039D01*
X55920Y-33124D01*
X55919Y-33215D01*
X55954Y-33300D01*
X56019Y-33364D01*
X56104Y-33399D01*
X56195Y-33400D01*
X56280Y-33365D01*
X56325Y-33320D01*
X56637Y-33320D01*
X56753Y-33436D01*
X56753Y-33436D01*
X56802Y-33468D01*
X56802Y-33468D01*
X56860Y-33480D01*
X57364Y-33480D01*
X57409Y-33524D01*
X57494Y-33559D01*
X57585Y-33560D01*
X57670Y-33525D01*
X57734Y-33460D01*
X57769Y-33375D01*
X57770Y-33284D01*
X57770Y-47970D01*
X57650Y-47970D01*
X57650Y-45834D01*
X57615Y-45749D01*
X57550Y-45685D01*
X57550Y-45684D01*
X57550Y-44160D01*
X57550Y-44160D01*
X57550Y-44160D01*
X57540Y-44110D01*
X57511Y-44068D01*
X56990Y-43546D01*
X56990Y-34994D01*
X56955Y-34909D01*
X56890Y-34845D01*
X56805Y-34810D01*
X56742Y-34809D01*
X56379Y-34447D01*
X56380Y-34384D01*
X56345Y-34299D01*
X56280Y-34235D01*
X56195Y-34200D01*
X56104Y-34199D01*
X56019Y-34234D01*
X55955Y-34299D01*
X55920Y-34384D01*
X55919Y-34475D01*
X55954Y-34560D01*
X56019Y-34624D01*
X56104Y-34659D01*
X56167Y-34660D01*
X56530Y-35022D01*
X56529Y-35085D01*
X56564Y-35170D01*
X56629Y-35234D01*
X56714Y-35269D01*
X56805Y-35270D01*
X56890Y-35235D01*
X56954Y-35170D01*
X56989Y-35085D01*
X56990Y-34994D01*
X56990Y-43546D01*
X56889Y-43446D01*
X56889Y-43445D01*
X56890Y-43354D01*
X56855Y-43269D01*
X56790Y-43205D01*
X56705Y-43170D01*
X56614Y-43169D01*
X56529Y-43204D01*
X56465Y-43269D01*
X56430Y-43354D01*
X56429Y-43445D01*
X56464Y-43530D01*
X56529Y-43594D01*
X56614Y-43629D01*
X56705Y-43630D01*
X56706Y-43629D01*
X57290Y-44213D01*
X57290Y-45684D01*
X57289Y-45684D01*
X57225Y-45749D01*
X57190Y-45834D01*
X57189Y-45925D01*
X57224Y-46010D01*
X57289Y-46074D01*
X57374Y-46109D01*
X57465Y-46110D01*
X57550Y-46075D01*
X57614Y-46010D01*
X57649Y-45925D01*
X57650Y-45834D01*
X57650Y-47970D01*
X56850Y-47970D01*
X56190Y-47309D01*
X56190Y-47274D01*
X56155Y-47189D01*
X56090Y-47125D01*
X56005Y-47090D01*
X55970Y-47090D01*
X55950Y-47069D01*
X55950Y-47034D01*
X55915Y-46949D01*
X55850Y-46885D01*
X55765Y-46850D01*
X55730Y-46850D01*
X55710Y-46829D01*
X55710Y-46794D01*
X55675Y-46709D01*
X55610Y-46645D01*
X55525Y-46610D01*
X55490Y-46610D01*
X55470Y-46589D01*
X55470Y-46554D01*
X55435Y-46469D01*
X55425Y-46459D01*
X55425Y-37112D01*
X55425Y-37077D01*
X55425Y-36827D01*
X55425Y-36512D01*
X55425Y-36455D01*
X55425Y-36285D01*
X55425Y-36227D01*
X55411Y-36194D01*
X55385Y-36168D01*
X55352Y-36155D01*
X55317Y-36155D01*
X55202Y-36155D01*
X55180Y-36177D01*
X55180Y-36307D01*
X55402Y-36307D01*
X55425Y-36285D01*
X55425Y-36455D01*
X55402Y-36432D01*
X55180Y-36432D01*
X55180Y-36562D01*
X55202Y-36585D01*
X55317Y-36585D01*
X55352Y-36585D01*
X55385Y-36571D01*
X55411Y-36545D01*
X55425Y-36512D01*
X55425Y-36827D01*
X55411Y-36794D01*
X55385Y-36768D01*
X55352Y-36755D01*
X55317Y-36755D01*
X55040Y-36755D01*
X55040Y-36562D01*
X55040Y-36432D01*
X55040Y-36307D01*
X55040Y-36177D01*
X55017Y-36155D01*
X54902Y-36155D01*
X54867Y-36155D01*
X54834Y-36168D01*
X54808Y-36194D01*
X54795Y-36227D01*
X54795Y-36285D01*
X54817Y-36307D01*
X55040Y-36307D01*
X55040Y-36432D01*
X54817Y-36432D01*
X54795Y-36455D01*
X54795Y-36512D01*
X54808Y-36545D01*
X54834Y-36571D01*
X54867Y-36585D01*
X54902Y-36585D01*
X55017Y-36585D01*
X55040Y-36562D01*
X55040Y-36755D01*
X54867Y-36755D01*
X54834Y-36768D01*
X54808Y-36794D01*
X54795Y-36827D01*
X54795Y-36862D01*
X54795Y-37112D01*
X54808Y-37145D01*
X54834Y-37171D01*
X54867Y-37185D01*
X54902Y-37185D01*
X54960Y-37185D01*
X54960Y-37446D01*
X53039Y-37446D01*
X53006Y-37460D01*
X52981Y-37485D01*
X52967Y-37518D01*
X52967Y-37554D01*
X52967Y-37780D01*
X52872Y-37780D01*
X52600Y-37507D01*
X52600Y-37365D01*
X52644Y-37320D01*
X52679Y-37235D01*
X52680Y-37144D01*
X52645Y-37059D01*
X52580Y-36995D01*
X52495Y-36960D01*
X52404Y-36959D01*
X52319Y-36994D01*
X52255Y-37059D01*
X52222Y-37139D01*
X52175Y-37120D01*
X52084Y-37119D01*
X51999Y-37154D01*
X51935Y-37219D01*
X51900Y-37304D01*
X51899Y-37395D01*
X51934Y-37480D01*
X51966Y-37511D01*
X51697Y-37780D01*
X51612Y-37780D01*
X51612Y-37518D01*
X51598Y-37485D01*
X51573Y-37460D01*
X51540Y-37446D01*
X51504Y-37446D01*
X51170Y-37446D01*
X51170Y-33700D01*
X51170Y-33270D01*
X51160Y-33220D01*
X51131Y-33178D01*
X50865Y-32911D01*
X50865Y-31427D01*
X50810Y-31293D01*
X50707Y-31190D01*
X50573Y-31134D01*
X50427Y-31134D01*
X50293Y-31189D01*
X50190Y-31292D01*
X50134Y-31426D01*
X50134Y-31572D01*
X50189Y-31706D01*
X50292Y-31809D01*
X50426Y-31865D01*
X50572Y-31865D01*
X50706Y-31810D01*
X50809Y-31707D01*
X50865Y-31573D01*
X50865Y-31427D01*
X50865Y-32911D01*
X50849Y-32896D01*
X50849Y-32895D01*
X50850Y-32804D01*
X50815Y-32719D01*
X50750Y-32655D01*
X50665Y-32620D01*
X50574Y-32619D01*
X50489Y-32654D01*
X50425Y-32719D01*
X50390Y-32804D01*
X50389Y-32895D01*
X50424Y-32980D01*
X50489Y-33044D01*
X50574Y-33079D01*
X50665Y-33080D01*
X50666Y-33079D01*
X50910Y-33323D01*
X50910Y-33646D01*
X50850Y-33706D01*
X50850Y-33434D01*
X50815Y-33349D01*
X50750Y-33285D01*
X50665Y-33250D01*
X50574Y-33249D01*
X50489Y-33284D01*
X50425Y-33349D01*
X50424Y-33350D01*
X50200Y-33350D01*
X50150Y-33359D01*
X50108Y-33388D01*
X50108Y-33388D01*
X49865Y-33630D01*
X49865Y-31427D01*
X49810Y-31293D01*
X49707Y-31190D01*
X49573Y-31134D01*
X49427Y-31134D01*
X49293Y-31189D01*
X49190Y-31292D01*
X49134Y-31426D01*
X49134Y-31572D01*
X49189Y-31706D01*
X49292Y-31809D01*
X49426Y-31865D01*
X49572Y-31865D01*
X49706Y-31810D01*
X49809Y-31707D01*
X49865Y-31573D01*
X49865Y-31427D01*
X49865Y-33630D01*
X49636Y-33860D01*
X49355Y-33860D01*
X49355Y-33859D01*
X49290Y-33795D01*
X49205Y-33760D01*
X49114Y-33759D01*
X49029Y-33794D01*
X48965Y-33859D01*
X48930Y-33944D01*
X48929Y-34035D01*
X48964Y-34120D01*
X49029Y-34184D01*
X49114Y-34219D01*
X49205Y-34220D01*
X49290Y-34185D01*
X49354Y-34120D01*
X49355Y-34120D01*
X49690Y-34120D01*
X49739Y-34110D01*
X49781Y-34081D01*
X50253Y-33610D01*
X50424Y-33610D01*
X50424Y-33610D01*
X50489Y-33674D01*
X50574Y-33709D01*
X50665Y-33710D01*
X50750Y-33675D01*
X50814Y-33610D01*
X50849Y-33525D01*
X50850Y-33434D01*
X50850Y-33706D01*
X50666Y-33890D01*
X50665Y-33890D01*
X50574Y-33889D01*
X50489Y-33924D01*
X50425Y-33989D01*
X50390Y-34074D01*
X50389Y-34165D01*
X50424Y-34250D01*
X50489Y-34314D01*
X50574Y-34349D01*
X50665Y-34350D01*
X50750Y-34315D01*
X50814Y-34250D01*
X50849Y-34165D01*
X50850Y-34074D01*
X50849Y-34073D01*
X51131Y-33791D01*
X51160Y-33749D01*
X51170Y-33700D01*
X51170Y-37446D01*
X49730Y-37446D01*
X49730Y-37225D01*
X49822Y-37225D01*
X49855Y-37211D01*
X49881Y-37185D01*
X49895Y-37152D01*
X49895Y-37117D01*
X49895Y-36867D01*
X49895Y-36552D01*
X49895Y-36495D01*
X49895Y-36325D01*
X49895Y-36267D01*
X49881Y-36234D01*
X49855Y-36208D01*
X49822Y-36195D01*
X49787Y-36195D01*
X49672Y-36195D01*
X49650Y-36217D01*
X49650Y-36347D01*
X49872Y-36347D01*
X49895Y-36325D01*
X49895Y-36495D01*
X49872Y-36472D01*
X49650Y-36472D01*
X49650Y-36602D01*
X49672Y-36625D01*
X49787Y-36625D01*
X49822Y-36625D01*
X49855Y-36611D01*
X49881Y-36585D01*
X49895Y-36552D01*
X49895Y-36867D01*
X49881Y-36834D01*
X49855Y-36808D01*
X49822Y-36795D01*
X49787Y-36795D01*
X49510Y-36795D01*
X49510Y-36602D01*
X49510Y-36472D01*
X49510Y-36347D01*
X49510Y-36217D01*
X49487Y-36195D01*
X49372Y-36195D01*
X49337Y-36195D01*
X49304Y-36208D01*
X49278Y-36234D01*
X49265Y-36267D01*
X49265Y-36325D01*
X49287Y-36347D01*
X49510Y-36347D01*
X49510Y-36472D01*
X49287Y-36472D01*
X49265Y-36495D01*
X49265Y-36552D01*
X49278Y-36585D01*
X49304Y-36611D01*
X49337Y-36625D01*
X49372Y-36625D01*
X49487Y-36625D01*
X49510Y-36602D01*
X49510Y-36795D01*
X49337Y-36795D01*
X49304Y-36808D01*
X49278Y-36834D01*
X49265Y-36867D01*
X49265Y-36902D01*
X49265Y-37152D01*
X49278Y-37185D01*
X49304Y-37211D01*
X49337Y-37225D01*
X49372Y-37225D01*
X49430Y-37225D01*
X49430Y-37446D01*
X49339Y-37446D01*
X49306Y-37460D01*
X49281Y-37485D01*
X49267Y-37518D01*
X49267Y-37554D01*
X49267Y-38341D01*
X49281Y-38374D01*
X49306Y-38399D01*
X49339Y-38413D01*
X49375Y-38413D01*
X51540Y-38413D01*
X51573Y-38399D01*
X51598Y-38374D01*
X51612Y-38341D01*
X51612Y-38305D01*
X51612Y-38080D01*
X51760Y-38080D01*
X51817Y-38068D01*
X51817Y-38068D01*
X51866Y-38036D01*
X52236Y-37666D01*
X52268Y-37617D01*
X52268Y-37617D01*
X52280Y-37560D01*
X52280Y-37560D01*
X52280Y-37559D01*
X52280Y-37525D01*
X52300Y-37505D01*
X52300Y-37570D01*
X52311Y-37627D01*
X52343Y-37676D01*
X52703Y-38036D01*
X52752Y-38068D01*
X52752Y-38068D01*
X52810Y-38080D01*
X52810Y-38080D01*
X52810Y-38080D01*
X52967Y-38080D01*
X52967Y-38341D01*
X52981Y-38374D01*
X53006Y-38399D01*
X53039Y-38413D01*
X53075Y-38413D01*
X55240Y-38413D01*
X55273Y-38399D01*
X55298Y-38374D01*
X55312Y-38341D01*
X55312Y-38305D01*
X55312Y-37518D01*
X55298Y-37485D01*
X55273Y-37460D01*
X55260Y-37454D01*
X55260Y-37185D01*
X55352Y-37185D01*
X55385Y-37171D01*
X55411Y-37145D01*
X55425Y-37112D01*
X55425Y-46459D01*
X55370Y-46405D01*
X55285Y-46370D01*
X55194Y-46369D01*
X55109Y-46404D01*
X55045Y-46469D01*
X55010Y-46554D01*
X55009Y-46645D01*
X55044Y-46730D01*
X55109Y-46794D01*
X55194Y-46829D01*
X55229Y-46829D01*
X55249Y-46850D01*
X55249Y-46885D01*
X55284Y-46970D01*
X55349Y-47034D01*
X55434Y-47069D01*
X55469Y-47069D01*
X55489Y-47090D01*
X55489Y-47125D01*
X55524Y-47210D01*
X55589Y-47274D01*
X55674Y-47309D01*
X55709Y-47309D01*
X55729Y-47330D01*
X55729Y-47365D01*
X55764Y-47450D01*
X55829Y-47514D01*
X55914Y-47549D01*
X55949Y-47549D01*
X56659Y-48260D01*
X56714Y-48297D01*
X56714Y-48297D01*
X56780Y-48310D01*
X65210Y-48310D01*
X65275Y-48297D01*
X65275Y-48297D01*
X65330Y-48260D01*
X67054Y-46536D01*
X67054Y-46536D01*
X67054Y-46536D01*
X67078Y-46499D01*
X67091Y-46481D01*
X67091Y-46481D01*
X67104Y-46415D01*
X67104Y-46415D01*
X67104Y-46415D01*
X67104Y-46266D01*
X67209Y-46195D01*
X67294Y-46068D01*
X67324Y-45919D01*
X67324Y-49105D01*
X53780Y-49105D01*
X53780Y-40554D01*
X53745Y-40469D01*
X53700Y-40424D01*
X53700Y-39934D01*
X53744Y-39889D01*
X53779Y-39804D01*
X53780Y-39713D01*
X53745Y-39628D01*
X53680Y-39564D01*
X53595Y-39529D01*
X53504Y-39528D01*
X53419Y-39563D01*
X53355Y-39628D01*
X53320Y-39713D01*
X53319Y-39804D01*
X53354Y-39889D01*
X53400Y-39934D01*
X53400Y-40424D01*
X53355Y-40469D01*
X53320Y-40554D01*
X53319Y-40645D01*
X53354Y-40730D01*
X53419Y-40794D01*
X53504Y-40829D01*
X53595Y-40830D01*
X53680Y-40795D01*
X53744Y-40730D01*
X53779Y-40645D01*
X53780Y-40554D01*
X53780Y-49105D01*
X53460Y-49105D01*
X53460Y-47830D01*
X53460Y-46650D01*
X53460Y-46410D01*
X53460Y-45830D01*
X50950Y-45830D01*
X50950Y-44384D01*
X50915Y-44299D01*
X50890Y-44274D01*
X50890Y-42615D01*
X50914Y-42590D01*
X50949Y-42505D01*
X50950Y-42414D01*
X50915Y-42329D01*
X50850Y-42265D01*
X50765Y-42230D01*
X50674Y-42229D01*
X50589Y-42264D01*
X50525Y-42329D01*
X50520Y-42341D01*
X50515Y-42329D01*
X50450Y-42265D01*
X50365Y-42230D01*
X50274Y-42229D01*
X50189Y-42264D01*
X50125Y-42329D01*
X50090Y-42414D01*
X50089Y-42505D01*
X50124Y-42590D01*
X50150Y-42615D01*
X50150Y-44274D01*
X50125Y-44299D01*
X50090Y-44384D01*
X50089Y-44475D01*
X50124Y-44560D01*
X50189Y-44624D01*
X50274Y-44659D01*
X50365Y-44660D01*
X50450Y-44625D01*
X50514Y-44560D01*
X50519Y-44548D01*
X50524Y-44560D01*
X50589Y-44624D01*
X50674Y-44659D01*
X50765Y-44660D01*
X50850Y-44625D01*
X50914Y-44560D01*
X50949Y-44475D01*
X50950Y-44384D01*
X50950Y-45830D01*
X49740Y-45830D01*
X49740Y-44764D01*
X49705Y-44679D01*
X49640Y-44615D01*
X49640Y-44614D01*
X49640Y-43215D01*
X49640Y-43215D01*
X49704Y-43150D01*
X49739Y-43065D01*
X49740Y-42974D01*
X49705Y-42889D01*
X49640Y-42825D01*
X49555Y-42790D01*
X49464Y-42789D01*
X49379Y-42824D01*
X49350Y-42854D01*
X49350Y-40504D01*
X49315Y-40419D01*
X49250Y-40355D01*
X49165Y-40320D01*
X49074Y-40319D01*
X48989Y-40354D01*
X48925Y-40419D01*
X48890Y-40504D01*
X48889Y-40595D01*
X48890Y-40596D01*
X48716Y-40770D01*
X48715Y-40770D01*
X48624Y-40769D01*
X48539Y-40804D01*
X48475Y-40869D01*
X48440Y-40954D01*
X48439Y-41045D01*
X48474Y-41130D01*
X48539Y-41194D01*
X48624Y-41229D01*
X48715Y-41230D01*
X48800Y-41195D01*
X48864Y-41130D01*
X48899Y-41045D01*
X48900Y-40954D01*
X48899Y-40953D01*
X49073Y-40779D01*
X49074Y-40779D01*
X49165Y-40780D01*
X49250Y-40745D01*
X49314Y-40680D01*
X49349Y-40595D01*
X49350Y-40504D01*
X49350Y-42854D01*
X49315Y-42889D01*
X49280Y-42974D01*
X49279Y-43065D01*
X49314Y-43150D01*
X49379Y-43214D01*
X49380Y-43215D01*
X49380Y-44614D01*
X49379Y-44614D01*
X49315Y-44679D01*
X49280Y-44764D01*
X49279Y-44855D01*
X49314Y-44940D01*
X49379Y-45004D01*
X49464Y-45039D01*
X49555Y-45040D01*
X49640Y-45005D01*
X49704Y-44940D01*
X49739Y-44855D01*
X49740Y-44764D01*
X49740Y-45830D01*
X48325Y-45830D01*
X48325Y-44742D01*
X48325Y-44707D01*
X48325Y-44157D01*
X48311Y-44124D01*
X48285Y-44098D01*
X48252Y-44085D01*
X48217Y-44085D01*
X47667Y-44085D01*
X47634Y-44098D01*
X47608Y-44124D01*
X47600Y-44144D01*
X47600Y-36944D01*
X47565Y-36859D01*
X47500Y-36795D01*
X47415Y-36760D01*
X47339Y-36759D01*
X47340Y-36684D01*
X47305Y-36599D01*
X47240Y-36535D01*
X47155Y-36500D01*
X47064Y-36499D01*
X46979Y-36534D01*
X46915Y-36599D01*
X46900Y-36635D01*
X46900Y-34024D01*
X46865Y-33939D01*
X46800Y-33875D01*
X46715Y-33840D01*
X46624Y-33839D01*
X46539Y-33874D01*
X46479Y-33934D01*
X46420Y-33875D01*
X46335Y-33840D01*
X46244Y-33839D01*
X46159Y-33874D01*
X46095Y-33939D01*
X46060Y-34024D01*
X46059Y-34115D01*
X46094Y-34200D01*
X46159Y-34264D01*
X46160Y-34265D01*
X46160Y-35266D01*
X45666Y-35760D01*
X45665Y-35760D01*
X45574Y-35759D01*
X45530Y-35778D01*
X45530Y-34394D01*
X45495Y-34309D01*
X45430Y-34245D01*
X45345Y-34210D01*
X45254Y-34209D01*
X45169Y-34244D01*
X45105Y-34309D01*
X45104Y-34310D01*
X45040Y-34310D01*
X44990Y-34319D01*
X44948Y-34348D01*
X44458Y-34838D01*
X44429Y-34880D01*
X44420Y-34930D01*
X44420Y-35636D01*
X44296Y-35760D01*
X44295Y-35760D01*
X44204Y-35759D01*
X44119Y-35794D01*
X44055Y-35859D01*
X44020Y-35944D01*
X44019Y-36035D01*
X44054Y-36120D01*
X44119Y-36184D01*
X44204Y-36219D01*
X44295Y-36220D01*
X44380Y-36185D01*
X44444Y-36120D01*
X44479Y-36035D01*
X44480Y-35944D01*
X44479Y-35943D01*
X44641Y-35781D01*
X44641Y-35781D01*
X44641Y-35781D01*
X44670Y-35739D01*
X44680Y-35690D01*
X44680Y-35690D01*
X44680Y-35689D01*
X44680Y-35375D01*
X44719Y-35414D01*
X44720Y-35415D01*
X44720Y-35794D01*
X44719Y-35794D01*
X44655Y-35859D01*
X44620Y-35944D01*
X44619Y-36035D01*
X44654Y-36120D01*
X44719Y-36184D01*
X44804Y-36219D01*
X44895Y-36220D01*
X44980Y-36185D01*
X45044Y-36120D01*
X45079Y-36035D01*
X45080Y-35944D01*
X45045Y-35859D01*
X44980Y-35795D01*
X44980Y-35794D01*
X44980Y-35415D01*
X44980Y-35415D01*
X45044Y-35350D01*
X45079Y-35265D01*
X45080Y-35174D01*
X45045Y-35089D01*
X44980Y-35025D01*
X44895Y-34990D01*
X44804Y-34989D01*
X44719Y-35024D01*
X44680Y-35064D01*
X44680Y-34983D01*
X45093Y-34570D01*
X45104Y-34570D01*
X45104Y-34570D01*
X45169Y-34634D01*
X45254Y-34669D01*
X45345Y-34670D01*
X45430Y-34635D01*
X45494Y-34570D01*
X45529Y-34485D01*
X45530Y-34394D01*
X45530Y-35778D01*
X45489Y-35794D01*
X45425Y-35859D01*
X45390Y-35944D01*
X45389Y-36035D01*
X45424Y-36120D01*
X45489Y-36184D01*
X45574Y-36219D01*
X45598Y-36219D01*
X45580Y-36264D01*
X45579Y-36355D01*
X45614Y-36440D01*
X45679Y-36504D01*
X45764Y-36539D01*
X45855Y-36540D01*
X45940Y-36505D01*
X46004Y-36440D01*
X46039Y-36355D01*
X46040Y-36264D01*
X46039Y-36263D01*
X46761Y-35541D01*
X46790Y-35499D01*
X46800Y-35450D01*
X46800Y-34265D01*
X46800Y-34265D01*
X46864Y-34200D01*
X46899Y-34115D01*
X46900Y-34024D01*
X46900Y-36635D01*
X46880Y-36684D01*
X46879Y-36747D01*
X45737Y-37890D01*
X45674Y-37889D01*
X45589Y-37924D01*
X45525Y-37989D01*
X45490Y-38074D01*
X45489Y-38165D01*
X45524Y-38250D01*
X45589Y-38314D01*
X45674Y-38349D01*
X45750Y-38350D01*
X45749Y-38425D01*
X45784Y-38510D01*
X45849Y-38574D01*
X45934Y-38609D01*
X46025Y-38610D01*
X46110Y-38575D01*
X46174Y-38510D01*
X46209Y-38425D01*
X46210Y-38362D01*
X47352Y-37219D01*
X47415Y-37220D01*
X47500Y-37185D01*
X47564Y-37120D01*
X47599Y-37035D01*
X47600Y-36944D01*
X47600Y-44144D01*
X47595Y-44157D01*
X47595Y-44192D01*
X47595Y-44742D01*
X47608Y-44775D01*
X47634Y-44801D01*
X47667Y-44815D01*
X47702Y-44815D01*
X48252Y-44815D01*
X48285Y-44801D01*
X48311Y-44775D01*
X48325Y-44742D01*
X48325Y-45830D01*
X47331Y-45830D01*
X47331Y-44467D01*
X47310Y-44323D01*
X47296Y-44291D01*
X47251Y-44257D01*
X47180Y-44328D01*
X47180Y-41954D01*
X47145Y-41869D01*
X47080Y-41805D01*
X46995Y-41770D01*
X46904Y-41769D01*
X46819Y-41804D01*
X46755Y-41869D01*
X46720Y-41954D01*
X46719Y-42045D01*
X46720Y-42046D01*
X46036Y-42730D01*
X46035Y-42730D01*
X45944Y-42729D01*
X45859Y-42764D01*
X45795Y-42829D01*
X45760Y-42914D01*
X45759Y-43005D01*
X45794Y-43090D01*
X45859Y-43154D01*
X45944Y-43189D01*
X46035Y-43190D01*
X46120Y-43155D01*
X46184Y-43090D01*
X46219Y-43005D01*
X46220Y-42914D01*
X46219Y-42913D01*
X46903Y-42229D01*
X46904Y-42229D01*
X46995Y-42230D01*
X47080Y-42195D01*
X47144Y-42130D01*
X47179Y-42045D01*
X47180Y-41954D01*
X47180Y-44328D01*
X47152Y-44356D01*
X47152Y-44158D01*
X47118Y-44113D01*
X46977Y-44078D01*
X46833Y-44099D01*
X46801Y-44113D01*
X46767Y-44158D01*
X46960Y-44351D01*
X47152Y-44158D01*
X47152Y-44356D01*
X47058Y-44450D01*
X47251Y-44642D01*
X47296Y-44608D01*
X47331Y-44467D01*
X47331Y-45830D01*
X47152Y-45830D01*
X47152Y-44741D01*
X46960Y-44548D01*
X46861Y-44647D01*
X46861Y-44450D01*
X46668Y-44257D01*
X46623Y-44291D01*
X46588Y-44432D01*
X46609Y-44576D01*
X46623Y-44608D01*
X46668Y-44642D01*
X46861Y-44450D01*
X46861Y-44647D01*
X46767Y-44741D01*
X46801Y-44786D01*
X46942Y-44821D01*
X47086Y-44800D01*
X47118Y-44786D01*
X47152Y-44741D01*
X47152Y-45830D01*
X46325Y-45830D01*
X46325Y-44377D01*
X46269Y-44243D01*
X46167Y-44140D01*
X46032Y-44085D01*
X45887Y-44084D01*
X45753Y-44140D01*
X45650Y-44242D01*
X45595Y-44377D01*
X45594Y-44522D01*
X45650Y-44656D01*
X45752Y-44759D01*
X45887Y-44814D01*
X46032Y-44815D01*
X46166Y-44759D01*
X46269Y-44657D01*
X46324Y-44522D01*
X46325Y-44377D01*
X46325Y-45830D01*
X46306Y-45830D01*
X46306Y-46650D01*
X49278Y-46650D01*
X49278Y-47830D01*
X53460Y-47830D01*
X53460Y-49105D01*
X48325Y-49105D01*
X48325Y-47377D01*
X48269Y-47243D01*
X48167Y-47140D01*
X48032Y-47085D01*
X47887Y-47084D01*
X47753Y-47140D01*
X47650Y-47242D01*
X47595Y-47377D01*
X47594Y-47522D01*
X47650Y-47656D01*
X47752Y-47759D01*
X47887Y-47814D01*
X48032Y-47815D01*
X48166Y-47759D01*
X48269Y-47657D01*
X48324Y-47522D01*
X48325Y-47377D01*
X48325Y-49105D01*
X47325Y-49105D01*
X47325Y-47377D01*
X47269Y-47243D01*
X47167Y-47140D01*
X47032Y-47085D01*
X46887Y-47084D01*
X46753Y-47140D01*
X46650Y-47242D01*
X46595Y-47377D01*
X46594Y-47522D01*
X46650Y-47656D01*
X46752Y-47759D01*
X46887Y-47814D01*
X47032Y-47815D01*
X47166Y-47759D01*
X47269Y-47657D01*
X47324Y-47522D01*
X47325Y-47377D01*
X47325Y-49105D01*
X46325Y-49105D01*
X46325Y-47377D01*
X46269Y-47243D01*
X46167Y-47140D01*
X46032Y-47085D01*
X45887Y-47084D01*
X45753Y-47140D01*
X45650Y-47242D01*
X45595Y-47377D01*
X45594Y-47522D01*
X45650Y-47656D01*
X45752Y-47759D01*
X45887Y-47814D01*
X46032Y-47815D01*
X46166Y-47759D01*
X46269Y-47657D01*
X46324Y-47522D01*
X46325Y-47377D01*
X46325Y-49105D01*
X45325Y-49105D01*
X45325Y-43317D01*
X45270Y-43183D01*
X45167Y-43080D01*
X45033Y-43024D01*
X44922Y-43024D01*
X44922Y-37467D01*
X44900Y-37323D01*
X44887Y-37291D01*
X44842Y-37256D01*
X44743Y-37355D01*
X44743Y-37157D01*
X44708Y-37112D01*
X44567Y-37077D01*
X44423Y-37099D01*
X44391Y-37112D01*
X44356Y-37157D01*
X44550Y-37351D01*
X44743Y-37157D01*
X44743Y-37355D01*
X44648Y-37450D01*
X44842Y-37643D01*
X44887Y-37608D01*
X44922Y-37467D01*
X44922Y-43024D01*
X44887Y-43024D01*
X44753Y-43079D01*
X44743Y-43090D01*
X44743Y-37742D01*
X44550Y-37548D01*
X44451Y-37647D01*
X44451Y-37450D01*
X44257Y-37256D01*
X44212Y-37291D01*
X44177Y-37432D01*
X44199Y-37576D01*
X44212Y-37608D01*
X44257Y-37643D01*
X44451Y-37450D01*
X44451Y-37647D01*
X44356Y-37742D01*
X44391Y-37787D01*
X44532Y-37822D01*
X44676Y-37800D01*
X44708Y-37787D01*
X44743Y-37742D01*
X44743Y-43090D01*
X44650Y-43182D01*
X44594Y-43316D01*
X44594Y-43462D01*
X44649Y-43596D01*
X44752Y-43699D01*
X44886Y-43755D01*
X45032Y-43755D01*
X45166Y-43700D01*
X45269Y-43597D01*
X45325Y-43463D01*
X45325Y-43317D01*
X45325Y-49105D01*
X45325Y-49105D01*
X45325Y-47377D01*
X45325Y-44377D01*
X45269Y-44243D01*
X45167Y-44140D01*
X45032Y-44085D01*
X44887Y-44084D01*
X44753Y-44140D01*
X44650Y-44242D01*
X44595Y-44377D01*
X44594Y-44522D01*
X44650Y-44656D01*
X44752Y-44759D01*
X44887Y-44814D01*
X45032Y-44815D01*
X45166Y-44759D01*
X45269Y-44657D01*
X45324Y-44522D01*
X45325Y-44377D01*
X45325Y-47377D01*
X45269Y-47243D01*
X45167Y-47140D01*
X45032Y-47085D01*
X44887Y-47084D01*
X44753Y-47140D01*
X44650Y-47242D01*
X44595Y-47377D01*
X44594Y-47522D01*
X44650Y-47656D01*
X44752Y-47759D01*
X44887Y-47814D01*
X45032Y-47815D01*
X45166Y-47759D01*
X45269Y-47657D01*
X45324Y-47522D01*
X45325Y-47377D01*
X45325Y-49105D01*
X43790Y-49105D01*
X43790Y-38024D01*
X43755Y-37939D01*
X43690Y-37875D01*
X43605Y-37840D01*
X43540Y-37839D01*
X43540Y-36617D01*
X43540Y-36582D01*
X43540Y-35982D01*
X43526Y-35949D01*
X43500Y-35923D01*
X43467Y-35910D01*
X43432Y-35910D01*
X42832Y-35910D01*
X42799Y-35923D01*
X42773Y-35949D01*
X42760Y-35982D01*
X42760Y-36017D01*
X42760Y-36617D01*
X42773Y-36650D01*
X42799Y-36676D01*
X42832Y-36690D01*
X42867Y-36690D01*
X43467Y-36690D01*
X43500Y-36676D01*
X43526Y-36650D01*
X43540Y-36617D01*
X43540Y-37839D01*
X43514Y-37839D01*
X43429Y-37874D01*
X43365Y-37939D01*
X43364Y-37940D01*
X42873Y-37940D01*
X42570Y-37636D01*
X42570Y-32724D01*
X42535Y-32639D01*
X42470Y-32575D01*
X42385Y-32540D01*
X42294Y-32539D01*
X42209Y-32574D01*
X42145Y-32639D01*
X42110Y-32724D01*
X42109Y-32787D01*
X41633Y-33263D01*
X41601Y-33312D01*
X41590Y-33370D01*
X41590Y-33794D01*
X41545Y-33839D01*
X41510Y-33924D01*
X41509Y-34015D01*
X41544Y-34100D01*
X41609Y-34164D01*
X41694Y-34199D01*
X41785Y-34200D01*
X41870Y-34165D01*
X41934Y-34100D01*
X41969Y-34015D01*
X41970Y-33924D01*
X41935Y-33839D01*
X41890Y-33794D01*
X41890Y-33432D01*
X42322Y-32999D01*
X42385Y-33000D01*
X42470Y-32965D01*
X42534Y-32900D01*
X42569Y-32815D01*
X42570Y-32724D01*
X42570Y-37636D01*
X42541Y-37608D01*
X42540Y-37606D01*
X42540Y-36222D01*
X42480Y-36079D01*
X42371Y-35969D01*
X42227Y-35910D01*
X42072Y-35909D01*
X41929Y-35969D01*
X41819Y-36078D01*
X41760Y-36222D01*
X41759Y-36377D01*
X41819Y-36520D01*
X41928Y-36630D01*
X42072Y-36689D01*
X42227Y-36690D01*
X42370Y-36630D01*
X42480Y-36521D01*
X42539Y-36377D01*
X42540Y-36222D01*
X42540Y-37606D01*
X42499Y-37579D01*
X42450Y-37570D01*
X41935Y-37570D01*
X41935Y-37569D01*
X41870Y-37505D01*
X41785Y-37470D01*
X41694Y-37469D01*
X41609Y-37504D01*
X41545Y-37569D01*
X41510Y-37654D01*
X41509Y-37745D01*
X41544Y-37830D01*
X41609Y-37894D01*
X41694Y-37929D01*
X41785Y-37930D01*
X41870Y-37895D01*
X41934Y-37830D01*
X41935Y-37830D01*
X42396Y-37830D01*
X42728Y-38161D01*
X42770Y-38190D01*
X42820Y-38200D01*
X42820Y-38200D01*
X42820Y-38200D01*
X43364Y-38200D01*
X43364Y-38200D01*
X43429Y-38264D01*
X43514Y-38299D01*
X43605Y-38300D01*
X43690Y-38265D01*
X43754Y-38200D01*
X43789Y-38115D01*
X43790Y-38024D01*
X43790Y-49105D01*
X41670Y-49105D01*
X41670Y-41827D01*
X41670Y-41792D01*
X41670Y-41192D01*
X41656Y-41159D01*
X41630Y-41133D01*
X41597Y-41120D01*
X41562Y-41120D01*
X41122Y-41120D01*
X41122Y-40190D01*
X41122Y-35190D01*
X41115Y-35129D01*
X41115Y-34067D01*
X41115Y-33067D01*
X41115Y-32067D01*
X41048Y-31906D01*
X40924Y-31782D01*
X40762Y-31715D01*
X40587Y-31714D01*
X40426Y-31781D01*
X40302Y-31905D01*
X40235Y-32067D01*
X40234Y-32242D01*
X40301Y-32403D01*
X40425Y-32527D01*
X40587Y-32594D01*
X40762Y-32595D01*
X40923Y-32528D01*
X41047Y-32404D01*
X41114Y-32242D01*
X41115Y-32067D01*
X41115Y-33067D01*
X41048Y-32906D01*
X40924Y-32782D01*
X40762Y-32715D01*
X40587Y-32714D01*
X40426Y-32781D01*
X40302Y-32905D01*
X40235Y-33067D01*
X40234Y-33242D01*
X40301Y-33403D01*
X40425Y-33527D01*
X40587Y-33594D01*
X40762Y-33595D01*
X40923Y-33528D01*
X41047Y-33404D01*
X41114Y-33242D01*
X41115Y-33067D01*
X41115Y-34067D01*
X41048Y-33906D01*
X40924Y-33782D01*
X40762Y-33715D01*
X40587Y-33714D01*
X40426Y-33781D01*
X40302Y-33905D01*
X40235Y-34067D01*
X40234Y-34242D01*
X40301Y-34403D01*
X40425Y-34527D01*
X40587Y-34594D01*
X40762Y-34595D01*
X40923Y-34528D01*
X41047Y-34404D01*
X41114Y-34242D01*
X41115Y-34067D01*
X41115Y-35129D01*
X41101Y-35016D01*
X41074Y-34951D01*
X41021Y-34907D01*
X40922Y-35006D01*
X40922Y-34808D01*
X40878Y-34755D01*
X40710Y-34707D01*
X40536Y-34728D01*
X40471Y-34755D01*
X40427Y-34808D01*
X40675Y-35056D01*
X40922Y-34808D01*
X40922Y-35006D01*
X40773Y-35155D01*
X41021Y-35402D01*
X41074Y-35358D01*
X41122Y-35190D01*
X41122Y-40190D01*
X41115Y-40129D01*
X41115Y-39067D01*
X41115Y-38067D01*
X41115Y-37067D01*
X41048Y-36906D01*
X40924Y-36782D01*
X40922Y-36781D01*
X40922Y-35501D01*
X40675Y-35253D01*
X40576Y-35352D01*
X40576Y-35155D01*
X40328Y-34907D01*
X40275Y-34951D01*
X40227Y-35119D01*
X40248Y-35293D01*
X40275Y-35358D01*
X40328Y-35402D01*
X40576Y-35155D01*
X40576Y-35352D01*
X40427Y-35501D01*
X40471Y-35554D01*
X40639Y-35602D01*
X40813Y-35581D01*
X40878Y-35554D01*
X40922Y-35501D01*
X40922Y-36781D01*
X40762Y-36715D01*
X40587Y-36714D01*
X40426Y-36781D01*
X40302Y-36905D01*
X40235Y-37067D01*
X40234Y-37242D01*
X40301Y-37403D01*
X40425Y-37527D01*
X40587Y-37594D01*
X40762Y-37595D01*
X40923Y-37528D01*
X41047Y-37404D01*
X41114Y-37242D01*
X41115Y-37067D01*
X41115Y-38067D01*
X41048Y-37906D01*
X40924Y-37782D01*
X40762Y-37715D01*
X40587Y-37714D01*
X40426Y-37781D01*
X40302Y-37905D01*
X40235Y-38067D01*
X40234Y-38242D01*
X40301Y-38403D01*
X40425Y-38527D01*
X40587Y-38594D01*
X40762Y-38595D01*
X40923Y-38528D01*
X41047Y-38404D01*
X41114Y-38242D01*
X41115Y-38067D01*
X41115Y-39067D01*
X41048Y-38906D01*
X40924Y-38782D01*
X40762Y-38715D01*
X40587Y-38714D01*
X40426Y-38781D01*
X40302Y-38905D01*
X40235Y-39067D01*
X40234Y-39242D01*
X40301Y-39403D01*
X40425Y-39527D01*
X40587Y-39594D01*
X40762Y-39595D01*
X40923Y-39528D01*
X41047Y-39404D01*
X41114Y-39242D01*
X41115Y-39067D01*
X41115Y-40129D01*
X41101Y-40016D01*
X41074Y-39951D01*
X41021Y-39907D01*
X40922Y-40006D01*
X40922Y-39808D01*
X40878Y-39755D01*
X40710Y-39707D01*
X40536Y-39728D01*
X40471Y-39755D01*
X40427Y-39808D01*
X40675Y-40056D01*
X40922Y-39808D01*
X40922Y-40006D01*
X40773Y-40155D01*
X41021Y-40402D01*
X41074Y-40358D01*
X41122Y-40190D01*
X41122Y-41120D01*
X40962Y-41120D01*
X40929Y-41133D01*
X40922Y-41139D01*
X40922Y-40501D01*
X40675Y-40253D01*
X40576Y-40352D01*
X40576Y-40155D01*
X40328Y-39907D01*
X40275Y-39951D01*
X40227Y-40119D01*
X40248Y-40293D01*
X40275Y-40358D01*
X40328Y-40402D01*
X40576Y-40155D01*
X40576Y-40352D01*
X40427Y-40501D01*
X40471Y-40554D01*
X40639Y-40602D01*
X40813Y-40581D01*
X40878Y-40554D01*
X40922Y-40501D01*
X40922Y-41139D01*
X40903Y-41159D01*
X40890Y-41192D01*
X40890Y-41227D01*
X40890Y-41827D01*
X40903Y-41860D01*
X40929Y-41886D01*
X40962Y-41900D01*
X40997Y-41900D01*
X41597Y-41900D01*
X41630Y-41886D01*
X41656Y-41860D01*
X41670Y-41827D01*
X41670Y-49105D01*
X41431Y-49105D01*
X41431Y-46784D01*
X41423Y-46714D01*
X41423Y-45265D01*
X41350Y-45087D01*
X41214Y-44951D01*
X41036Y-44877D01*
X40844Y-44877D01*
X40670Y-44949D01*
X40670Y-41432D01*
X40610Y-41289D01*
X40501Y-41179D01*
X40357Y-41120D01*
X40202Y-41119D01*
X40059Y-41179D01*
X39949Y-41288D01*
X39890Y-41432D01*
X39889Y-41587D01*
X39949Y-41730D01*
X40058Y-41840D01*
X40202Y-41899D01*
X40357Y-41900D01*
X40500Y-41840D01*
X40610Y-41731D01*
X40669Y-41587D01*
X40670Y-41432D01*
X40670Y-44949D01*
X40666Y-44950D01*
X40530Y-45086D01*
X40456Y-45264D01*
X40456Y-45456D01*
X40529Y-45634D01*
X40665Y-45770D01*
X40843Y-45844D01*
X41035Y-45844D01*
X41213Y-45771D01*
X41349Y-45635D01*
X41423Y-45457D01*
X41423Y-45265D01*
X41423Y-46714D01*
X41411Y-46593D01*
X41376Y-46508D01*
X41318Y-46459D01*
X41219Y-46558D01*
X41219Y-46360D01*
X41170Y-46302D01*
X40985Y-46247D01*
X40794Y-46267D01*
X40709Y-46302D01*
X40660Y-46360D01*
X40940Y-46639D01*
X41219Y-46360D01*
X41219Y-46558D01*
X41038Y-46738D01*
X41318Y-47018D01*
X41376Y-46969D01*
X41431Y-46784D01*
X41431Y-49105D01*
X41219Y-49105D01*
X41219Y-47117D01*
X40940Y-46837D01*
X40841Y-46936D01*
X40841Y-46738D01*
X40561Y-46459D01*
X40503Y-46508D01*
X40448Y-46693D01*
X40468Y-46884D01*
X40503Y-46969D01*
X40561Y-47018D01*
X40841Y-46738D01*
X40841Y-46936D01*
X40660Y-47117D01*
X40709Y-47175D01*
X40894Y-47230D01*
X41085Y-47210D01*
X41170Y-47175D01*
X41219Y-47117D01*
X41219Y-49105D01*
X39479Y-49105D01*
X39479Y-29639D01*
X70760Y-29639D01*
X70760Y-31132D01*
X70741Y-31085D01*
X70605Y-30949D01*
X70427Y-30875D01*
X70234Y-30875D01*
X70057Y-30948D01*
X69920Y-31084D01*
X69847Y-31262D01*
X69847Y-31454D01*
X69920Y-31632D01*
X70056Y-31768D01*
X70234Y-31842D01*
X70426Y-31842D01*
X70604Y-31769D01*
X70740Y-31633D01*
X70760Y-31586D01*
X70760Y-37273D01*
X70741Y-37227D01*
X70605Y-37091D01*
X70427Y-37017D01*
X70234Y-37017D01*
X70057Y-37090D01*
X69920Y-37226D01*
X69860Y-37373D01*
X69860Y-36535D01*
X69860Y-32035D01*
X69749Y-31767D01*
X69544Y-31561D01*
X69275Y-31450D01*
X68985Y-31449D01*
X68717Y-31560D01*
X68511Y-31765D01*
X68400Y-32034D01*
X68399Y-32324D01*
X68510Y-32592D01*
X68715Y-32798D01*
X68984Y-32909D01*
X69274Y-32910D01*
X69542Y-32799D01*
X69748Y-32594D01*
X69859Y-32325D01*
X69860Y-32035D01*
X69860Y-36535D01*
X69749Y-36267D01*
X69544Y-36061D01*
X69275Y-35950D01*
X68985Y-35949D01*
X68717Y-36060D01*
X68511Y-36265D01*
X68400Y-36534D01*
X68399Y-36824D01*
X68510Y-37092D01*
X68715Y-37298D01*
X68984Y-37409D01*
X69274Y-37410D01*
X69542Y-37299D01*
X69748Y-37094D01*
X69859Y-36825D01*
X69860Y-36535D01*
X69860Y-37373D01*
X69847Y-37404D01*
X69847Y-37596D01*
X69920Y-37774D01*
X70056Y-37910D01*
X70234Y-37984D01*
X70426Y-37984D01*
X70604Y-37911D01*
X70740Y-37775D01*
X70760Y-37727D01*
X70760Y-49105D01*
M02*
