G04 (created by PCBNEW (2013-mar-13)-stable) date Mon 23 Mar 2015 11:07:48 AM CET*
%MOIN*%
G04 Gerber Fmt 3.4, Leading zero omitted, Abs format*
%FSLAX34Y34*%
G01*
G70*
G90*
G04 APERTURE LIST*
%ADD10C,0.005906*%
%ADD11R,0.074800X0.031500*%
%ADD12R,0.025000X0.045000*%
%ADD13R,0.060000X0.016000*%
%ADD14R,0.016000X0.060000*%
%ADD15R,0.045000X0.025000*%
%ADD16R,0.060000X0.080000*%
%ADD17R,0.080000X0.060000*%
%ADD18R,0.035000X0.055000*%
%ADD19R,0.048800X0.050800*%
%ADD20O,0.157480X0.060000*%
%ADD21O,0.060000X0.157480*%
%ADD22R,0.140200X0.070100*%
%ADD23R,0.059843X0.070866*%
%ADD24R,0.078700X0.047200*%
%ADD25C,0.070000*%
%ADD26R,0.047200X0.011800*%
%ADD27R,0.011800X0.047200*%
%ADD28R,0.064961X0.094488*%
%ADD29R,0.033465X0.011024*%
%ADD30R,0.118110X0.078740*%
%ADD31R,0.049213X0.011811*%
%ADD32R,0.047200X0.047200*%
%ADD33R,0.141700X0.047200*%
%ADD34R,0.051181X0.059055*%
%ADD35R,0.039400X0.027600*%
%ADD36R,0.031600X0.027700*%
%ADD37C,0.047200*%
%ADD38R,0.059055X0.078740*%
%ADD39C,0.055100*%
%ADD40R,0.060000X0.060000*%
%ADD41C,0.060000*%
%ADD42C,0.051181*%
%ADD43C,0.128000*%
%ADD44C,0.078740*%
%ADD45C,0.070866*%
%ADD46R,0.020000X0.045000*%
%ADD47R,0.055000X0.055000*%
%ADD48C,0.055000*%
G04 APERTURE END LIST*
G54D10*
G54D11*
X59616Y-34180D03*
X59616Y-34680D03*
X59616Y-35180D03*
X59616Y-33680D03*
X59616Y-35680D03*
X59616Y-33180D03*
X59616Y-32680D03*
X59616Y-36180D03*
X63064Y-32680D03*
X63064Y-36180D03*
X63064Y-35680D03*
X63064Y-35180D03*
X63064Y-34680D03*
X63064Y-34180D03*
X63064Y-33680D03*
X63064Y-33180D03*
G54D12*
X61040Y-37380D03*
X61640Y-37380D03*
X61640Y-31480D03*
X61040Y-31480D03*
X63640Y-37305D03*
X64240Y-37305D03*
X63640Y-31550D03*
X64240Y-31550D03*
G54D13*
X51140Y-34430D03*
X51140Y-34745D03*
X51140Y-35060D03*
X51140Y-35375D03*
X51140Y-35690D03*
X51140Y-36005D03*
X51140Y-34115D03*
X51140Y-33800D03*
X51140Y-33485D03*
X51140Y-33170D03*
X51140Y-32855D03*
X55640Y-34430D03*
X55640Y-34745D03*
X55640Y-35060D03*
X55640Y-35375D03*
X55640Y-35690D03*
X55640Y-36005D03*
X55640Y-34115D03*
X55640Y-33800D03*
X55640Y-33485D03*
X55640Y-33170D03*
X55640Y-32855D03*
G54D14*
X53390Y-36680D03*
X53390Y-32180D03*
X53705Y-36680D03*
X53705Y-32180D03*
X54020Y-32180D03*
X54020Y-36680D03*
X54335Y-36680D03*
X54335Y-32180D03*
X54650Y-32180D03*
X54650Y-36680D03*
X54965Y-36680D03*
X54965Y-32180D03*
X53075Y-32180D03*
X53075Y-36680D03*
X52760Y-36680D03*
X52760Y-32180D03*
X52445Y-32180D03*
X52445Y-36680D03*
X52130Y-36680D03*
X52130Y-32180D03*
X51815Y-32180D03*
X51815Y-36680D03*
G54D12*
X58320Y-35180D03*
X58920Y-35180D03*
X57660Y-36180D03*
X58260Y-36180D03*
G54D15*
X50410Y-35690D03*
X50410Y-35090D03*
X58820Y-35880D03*
X58820Y-36480D03*
G54D12*
X58920Y-33180D03*
X58320Y-33180D03*
G54D15*
X58620Y-32690D03*
X58620Y-32090D03*
X57540Y-32390D03*
X57540Y-32990D03*
X55110Y-37240D03*
X55110Y-37840D03*
X57760Y-35690D03*
X57760Y-35090D03*
X57160Y-36280D03*
X57160Y-35680D03*
G54D16*
X57970Y-31430D03*
X59270Y-31430D03*
G54D15*
X56540Y-32390D03*
X56540Y-31790D03*
X50410Y-36100D03*
X50410Y-36700D03*
G54D12*
X56520Y-34120D03*
X57120Y-34120D03*
G54D15*
X56420Y-35680D03*
X56420Y-36280D03*
G54D17*
X49750Y-37350D03*
X49750Y-38650D03*
G54D12*
X55250Y-31460D03*
X54650Y-31460D03*
G54D15*
X50720Y-37810D03*
X50720Y-38410D03*
G54D18*
X57815Y-38710D03*
X58565Y-38710D03*
X57815Y-37730D03*
X58565Y-37730D03*
G54D12*
X49150Y-36670D03*
X49750Y-36670D03*
X55940Y-38160D03*
X56540Y-38160D03*
X56540Y-38760D03*
X55940Y-38760D03*
G54D19*
X51630Y-38553D03*
X52630Y-38553D03*
X52630Y-37667D03*
X51630Y-37667D03*
G54D20*
X68154Y-43446D03*
G54D21*
X66934Y-45415D03*
X69375Y-45415D03*
G54D22*
X63315Y-43555D03*
X63315Y-39855D03*
G54D23*
X66644Y-38990D03*
X65305Y-38990D03*
G54D16*
X66625Y-37890D03*
X65325Y-37890D03*
G54D23*
X63314Y-44525D03*
X61975Y-44525D03*
G54D17*
X65910Y-45420D03*
X65910Y-44120D03*
G54D24*
X60750Y-41222D03*
X60750Y-40198D03*
G54D15*
X64630Y-46120D03*
X64630Y-45520D03*
X64030Y-46120D03*
X64030Y-45520D03*
X60990Y-45530D03*
X60990Y-46130D03*
X60990Y-46570D03*
X60990Y-47170D03*
G54D12*
X62230Y-46870D03*
X62830Y-46870D03*
G54D15*
X61030Y-44820D03*
X61030Y-44220D03*
X65730Y-43150D03*
X65730Y-42550D03*
G54D24*
X56010Y-41432D03*
X56010Y-40408D03*
G54D25*
X40675Y-35155D03*
X40675Y-34155D03*
X40675Y-33155D03*
X40675Y-32155D03*
G54D26*
X44847Y-32467D03*
X44847Y-32664D03*
X44847Y-32861D03*
X44847Y-33058D03*
X44847Y-33255D03*
X44847Y-33452D03*
X44847Y-33648D03*
X44847Y-33845D03*
X44847Y-34042D03*
X44847Y-34239D03*
X44847Y-34436D03*
X44847Y-34633D03*
G54D27*
X45437Y-35223D03*
X45634Y-35223D03*
X45831Y-35223D03*
X46028Y-35223D03*
X46225Y-35223D03*
X46422Y-35223D03*
X46618Y-35223D03*
X46815Y-35223D03*
X47012Y-35223D03*
X47209Y-35223D03*
X47406Y-35223D03*
X47603Y-35223D03*
G54D26*
X48193Y-34633D03*
X48193Y-34436D03*
X48193Y-34239D03*
X48193Y-34042D03*
X48193Y-33845D03*
X48193Y-33648D03*
X48193Y-33452D03*
X48193Y-33255D03*
X48193Y-33058D03*
X48193Y-32861D03*
X48193Y-32664D03*
X48193Y-32467D03*
G54D27*
X47603Y-31877D03*
X47406Y-31877D03*
X47209Y-31877D03*
X47012Y-31877D03*
X46815Y-31877D03*
X46618Y-31877D03*
X46422Y-31877D03*
X46225Y-31877D03*
X46028Y-31877D03*
X45831Y-31877D03*
X45634Y-31877D03*
X45437Y-31877D03*
G54D15*
X49030Y-36080D03*
X49030Y-35480D03*
G54D28*
X62640Y-45720D03*
G54D29*
X62059Y-45326D03*
X62059Y-45523D03*
X62059Y-45720D03*
X62059Y-45916D03*
X62059Y-46113D03*
X63220Y-46113D03*
X63220Y-45916D03*
X63220Y-45720D03*
X63220Y-45523D03*
X63220Y-45326D03*
G54D12*
X64830Y-46870D03*
X64230Y-46870D03*
G54D15*
X61730Y-46570D03*
X61730Y-47170D03*
G54D12*
X63830Y-46870D03*
X63230Y-46870D03*
G54D15*
X64630Y-45130D03*
X64630Y-44530D03*
G54D17*
X60750Y-43200D03*
X60750Y-41900D03*
G54D30*
X57520Y-43365D03*
X57520Y-47334D03*
G54D31*
X58435Y-46727D03*
X58435Y-46531D03*
X58435Y-46334D03*
X58435Y-46137D03*
X58435Y-45940D03*
X58435Y-45743D03*
X58435Y-45546D03*
X58435Y-45350D03*
X58435Y-45153D03*
X58435Y-44956D03*
X58435Y-44759D03*
X58435Y-44562D03*
X58435Y-44365D03*
X58435Y-44168D03*
X58435Y-43972D03*
G54D15*
X58550Y-43540D03*
X58550Y-42940D03*
X59150Y-46230D03*
X59150Y-45630D03*
X59150Y-47230D03*
X59150Y-46630D03*
X59150Y-44170D03*
X59150Y-43570D03*
X59150Y-44640D03*
X59150Y-45240D03*
G54D16*
X58840Y-41000D03*
X57540Y-41000D03*
G54D32*
X57940Y-42121D03*
X57034Y-42121D03*
X58846Y-42121D03*
G54D33*
X57940Y-39719D03*
G54D15*
X42650Y-32340D03*
X42650Y-31740D03*
G54D12*
X41570Y-32240D03*
X42170Y-32240D03*
X46720Y-31250D03*
X47320Y-31250D03*
G54D34*
X43445Y-31867D03*
X43445Y-32772D03*
X44174Y-32772D03*
X44174Y-31867D03*
G54D35*
X42150Y-34345D03*
X42150Y-33970D03*
X42150Y-33595D03*
X43150Y-33595D03*
X43150Y-33970D03*
X43150Y-34345D03*
X42150Y-35525D03*
X42150Y-35150D03*
X42150Y-34775D03*
X43150Y-34775D03*
X43150Y-35150D03*
X43150Y-35525D03*
G54D15*
X44250Y-34280D03*
X44250Y-34880D03*
G54D12*
X40680Y-31370D03*
X41280Y-31370D03*
G54D36*
X46820Y-35823D03*
X46820Y-36137D03*
G54D37*
X46230Y-31250D03*
X42040Y-31600D03*
G54D15*
X44850Y-31850D03*
X44850Y-31250D03*
G54D38*
X43000Y-39937D03*
X43000Y-42062D03*
X46000Y-39937D03*
X46000Y-42062D03*
X49000Y-42062D03*
X49000Y-39937D03*
G54D39*
X50500Y-31500D03*
X49500Y-31500D03*
G54D25*
X40675Y-40155D03*
X40675Y-39155D03*
X40675Y-38155D03*
X40675Y-37155D03*
G54D35*
X42150Y-38075D03*
X42150Y-37700D03*
X42150Y-37325D03*
X43150Y-37325D03*
X43150Y-37700D03*
X43150Y-38075D03*
X42150Y-39235D03*
X42150Y-38860D03*
X42150Y-38485D03*
X43150Y-38485D03*
X43150Y-38860D03*
X43150Y-39235D03*
G54D12*
X40680Y-36410D03*
X41280Y-36410D03*
G54D15*
X51670Y-40910D03*
X51670Y-40310D03*
G54D12*
X51360Y-41560D03*
X51960Y-41560D03*
X51960Y-42160D03*
X51360Y-42160D03*
G54D32*
X53550Y-42161D03*
X52644Y-42161D03*
X54456Y-42161D03*
G54D33*
X53550Y-39759D03*
G54D12*
X48200Y-31910D03*
X48800Y-31910D03*
X41940Y-39890D03*
X41340Y-39890D03*
G54D39*
X61760Y-38400D03*
X44550Y-37450D03*
G54D15*
X44240Y-39940D03*
X44240Y-40540D03*
X44860Y-39940D03*
X44860Y-40540D03*
G54D12*
X50800Y-39940D03*
X50200Y-39940D03*
G54D40*
X43150Y-36300D03*
G54D41*
X42150Y-36300D03*
G54D40*
X41280Y-41510D03*
G54D41*
X40280Y-41510D03*
G54D42*
X66630Y-34180D03*
X65630Y-34680D03*
X65630Y-33680D03*
X66630Y-33180D03*
X65630Y-32680D03*
X66630Y-35180D03*
X65630Y-35680D03*
X66630Y-36180D03*
G54D43*
X69130Y-36680D03*
X69130Y-32180D03*
G54D44*
X70330Y-37500D03*
X70330Y-31359D03*
G54D15*
X44240Y-40940D03*
X44240Y-41540D03*
X44860Y-40940D03*
X44860Y-41540D03*
X47860Y-36740D03*
X47860Y-36140D03*
G54D45*
X69550Y-41475D03*
X69550Y-39704D03*
X68565Y-41967D03*
X68565Y-39212D03*
G54D12*
X67210Y-39990D03*
X66610Y-39990D03*
G54D44*
X40940Y-45361D03*
X40940Y-46738D03*
G54D46*
X43850Y-47000D03*
X43850Y-44900D03*
X43350Y-47000D03*
X42850Y-47000D03*
X42350Y-47000D03*
X43350Y-44900D03*
X42850Y-44900D03*
X42350Y-44900D03*
G54D15*
X49950Y-44810D03*
X49950Y-45410D03*
G54D39*
X44960Y-43390D03*
G54D47*
X47960Y-44450D03*
G54D48*
X46960Y-44450D03*
X45960Y-44450D03*
X44960Y-44450D03*
X44960Y-47450D03*
X45960Y-47450D03*
X46960Y-47450D03*
X47960Y-47450D03*
M02*
