G04 (created by PCBNEW (2013-mar-13)-stable) date Mon 23 Mar 2015 11:07:48 AM CET*
%MOIN*%
G04 Gerber Fmt 3.4, Leading zero omitted, Abs format*
%FSLAX34Y34*%
G01*
G70*
G90*
G04 APERTURE LIST*
%ADD10C,0.005906*%
%ADD11C,0.007874*%
%ADD12C,0.012000*%
%ADD13C,0.005000*%
%ADD14C,0.008000*%
%ADD15C,0.006000*%
%ADD16C,0.004000*%
%ADD17C,0.002000*%
%ADD18C,0.003000*%
%ADD19C,0.001100*%
%ADD20C,0.010000*%
G04 APERTURE END LIST*
G54D10*
G54D11*
X50720Y-37600D02*
X50720Y-37370D01*
X43810Y-34920D02*
X43930Y-34800D01*
X43810Y-35290D02*
X43810Y-34920D01*
X49900Y-35980D02*
X50080Y-36160D01*
X49740Y-35980D02*
X49900Y-35980D01*
X64940Y-46450D02*
X65250Y-46760D01*
X63520Y-46450D02*
X64940Y-46450D01*
X63380Y-46310D02*
X63520Y-46450D01*
X63530Y-47120D02*
X63530Y-47420D01*
G54D12*
X59990Y-31880D02*
X62690Y-31880D01*
X62690Y-31880D02*
X62690Y-36980D01*
X62690Y-36980D02*
X59990Y-36980D01*
X59990Y-36980D02*
X59990Y-31880D01*
X59990Y-31880D02*
X59990Y-31890D01*
G54D13*
X60890Y-37130D02*
X61790Y-37130D01*
X61790Y-37130D02*
X61790Y-37630D01*
X61790Y-37630D02*
X60890Y-37630D01*
X60890Y-37630D02*
X60890Y-37130D01*
X61790Y-31730D02*
X60890Y-31730D01*
X60890Y-31730D02*
X60890Y-31230D01*
X60890Y-31230D02*
X61790Y-31230D01*
X61790Y-31230D02*
X61790Y-31730D01*
X63490Y-37055D02*
X64390Y-37055D01*
X64390Y-37055D02*
X64390Y-37555D01*
X64390Y-37555D02*
X63490Y-37555D01*
X63490Y-37555D02*
X63490Y-37055D01*
X63490Y-31300D02*
X64390Y-31300D01*
X64390Y-31300D02*
X64390Y-31800D01*
X64390Y-31800D02*
X63490Y-31800D01*
X63490Y-31800D02*
X63490Y-31300D01*
G54D12*
X51420Y-32460D02*
X55360Y-32460D01*
X55360Y-32460D02*
X55360Y-36400D01*
X51610Y-36400D02*
X55360Y-36400D01*
X51420Y-36210D02*
X51420Y-32460D01*
X51610Y-36400D02*
X51420Y-36210D01*
G54D14*
X52140Y-35930D02*
G75*
G03X52140Y-35930I-250J0D01*
G74*
G01*
G54D13*
X58170Y-34930D02*
X59070Y-34930D01*
X59070Y-34930D02*
X59070Y-35430D01*
X59070Y-35430D02*
X58170Y-35430D01*
X58170Y-35430D02*
X58170Y-34930D01*
X57510Y-35930D02*
X58410Y-35930D01*
X58410Y-35930D02*
X58410Y-36430D01*
X58410Y-36430D02*
X57510Y-36430D01*
X57510Y-36430D02*
X57510Y-35930D01*
X50160Y-35840D02*
X50160Y-34940D01*
X50160Y-34940D02*
X50660Y-34940D01*
X50660Y-34940D02*
X50660Y-35840D01*
X50660Y-35840D02*
X50160Y-35840D01*
X59070Y-35730D02*
X59070Y-36630D01*
X59070Y-36630D02*
X58570Y-36630D01*
X58570Y-36630D02*
X58570Y-35730D01*
X58570Y-35730D02*
X59070Y-35730D01*
X59070Y-33430D02*
X58170Y-33430D01*
X58170Y-33430D02*
X58170Y-32930D01*
X58170Y-32930D02*
X59070Y-32930D01*
X59070Y-32930D02*
X59070Y-33430D01*
X58370Y-32840D02*
X58370Y-31940D01*
X58370Y-31940D02*
X58870Y-31940D01*
X58870Y-31940D02*
X58870Y-32840D01*
X58870Y-32840D02*
X58370Y-32840D01*
X57790Y-32240D02*
X57790Y-33140D01*
X57790Y-33140D02*
X57290Y-33140D01*
X57290Y-33140D02*
X57290Y-32240D01*
X57290Y-32240D02*
X57790Y-32240D01*
X55360Y-37090D02*
X55360Y-37990D01*
X55360Y-37990D02*
X54860Y-37990D01*
X54860Y-37990D02*
X54860Y-37090D01*
X54860Y-37090D02*
X55360Y-37090D01*
X57510Y-35840D02*
X57510Y-34940D01*
X57510Y-34940D02*
X58010Y-34940D01*
X58010Y-34940D02*
X58010Y-35840D01*
X58010Y-35840D02*
X57510Y-35840D01*
X56910Y-36430D02*
X56910Y-35530D01*
X56910Y-35530D02*
X57410Y-35530D01*
X57410Y-35530D02*
X57410Y-36430D01*
X57410Y-36430D02*
X56910Y-36430D01*
X57620Y-30980D02*
X57620Y-31880D01*
X57620Y-31880D02*
X58270Y-31880D01*
X58970Y-30980D02*
X59620Y-30980D01*
X59620Y-30980D02*
X59620Y-31880D01*
X59620Y-31880D02*
X58970Y-31880D01*
X58270Y-30980D02*
X57620Y-30980D01*
X56290Y-32540D02*
X56290Y-31640D01*
X56290Y-31640D02*
X56790Y-31640D01*
X56790Y-31640D02*
X56790Y-32540D01*
X56790Y-32540D02*
X56290Y-32540D01*
X50660Y-35950D02*
X50660Y-36850D01*
X50660Y-36850D02*
X50160Y-36850D01*
X50160Y-36850D02*
X50160Y-35950D01*
X50160Y-35950D02*
X50660Y-35950D01*
X56370Y-33870D02*
X57270Y-33870D01*
X57270Y-33870D02*
X57270Y-34370D01*
X57270Y-34370D02*
X56370Y-34370D01*
X56370Y-34370D02*
X56370Y-33870D01*
X56670Y-35530D02*
X56670Y-36430D01*
X56670Y-36430D02*
X56170Y-36430D01*
X56170Y-36430D02*
X56170Y-35530D01*
X56170Y-35530D02*
X56670Y-35530D01*
X50200Y-37000D02*
X49300Y-37000D01*
X49300Y-37000D02*
X49300Y-37650D01*
X50200Y-38350D02*
X50200Y-39000D01*
X50200Y-39000D02*
X49300Y-39000D01*
X49300Y-39000D02*
X49300Y-38350D01*
X50200Y-37650D02*
X50200Y-37000D01*
X55400Y-31710D02*
X54500Y-31710D01*
X54500Y-31710D02*
X54500Y-31210D01*
X54500Y-31210D02*
X55400Y-31210D01*
X55400Y-31210D02*
X55400Y-31710D01*
X50970Y-37660D02*
X50970Y-38560D01*
X50970Y-38560D02*
X50470Y-38560D01*
X50470Y-38560D02*
X50470Y-37660D01*
X50470Y-37660D02*
X50970Y-37660D01*
X57590Y-39010D02*
G75*
G03X57590Y-39010I-50J0D01*
G74*
G01*
X57990Y-39010D02*
X57590Y-39010D01*
X57590Y-39010D02*
X57590Y-38410D01*
X57590Y-38410D02*
X57990Y-38410D01*
X58390Y-38410D02*
X58790Y-38410D01*
X58790Y-38410D02*
X58790Y-39010D01*
X58790Y-39010D02*
X58390Y-39010D01*
X57590Y-38030D02*
G75*
G03X57590Y-38030I-50J0D01*
G74*
G01*
X57990Y-38030D02*
X57590Y-38030D01*
X57590Y-38030D02*
X57590Y-37430D01*
X57590Y-37430D02*
X57990Y-37430D01*
X58390Y-37430D02*
X58790Y-37430D01*
X58790Y-37430D02*
X58790Y-38030D01*
X58790Y-38030D02*
X58390Y-38030D01*
X49000Y-36420D02*
X49900Y-36420D01*
X49900Y-36420D02*
X49900Y-36920D01*
X49900Y-36920D02*
X49000Y-36920D01*
X49000Y-36920D02*
X49000Y-36420D01*
X55790Y-37910D02*
X56690Y-37910D01*
X56690Y-37910D02*
X56690Y-38410D01*
X56690Y-38410D02*
X55790Y-38410D01*
X55790Y-38410D02*
X55790Y-37910D01*
X56690Y-39010D02*
X55790Y-39010D01*
X55790Y-39010D02*
X55790Y-38510D01*
X55790Y-38510D02*
X56690Y-38510D01*
X56690Y-38510D02*
X56690Y-39010D01*
G54D15*
X51110Y-37450D02*
X53150Y-37450D01*
X53150Y-37450D02*
X53150Y-38770D01*
X53150Y-38770D02*
X51110Y-38770D01*
X51110Y-38770D02*
X51110Y-37450D01*
G54D10*
X66575Y-43640D02*
X66575Y-47190D01*
X72330Y-47190D02*
X72330Y-43640D01*
X72330Y-47190D02*
X66575Y-47190D01*
X72330Y-43640D02*
X66575Y-43640D01*
G54D16*
X65285Y-39735D02*
X64135Y-39735D01*
X65285Y-39735D02*
X65285Y-43675D01*
X65285Y-43675D02*
X64135Y-43675D01*
X61345Y-39735D02*
X62495Y-39735D01*
X61345Y-39735D02*
X61345Y-43675D01*
X61345Y-43675D02*
X62495Y-43675D01*
G54D17*
X66861Y-39540D02*
X66861Y-39456D01*
X65089Y-39540D02*
X65089Y-39456D01*
X65775Y-39190D02*
X66175Y-38990D01*
X65775Y-38790D02*
X66175Y-38990D01*
X65775Y-39190D02*
X65775Y-38790D01*
X66175Y-39190D02*
X66175Y-38790D01*
X66861Y-38440D02*
X66861Y-38524D01*
X65089Y-38440D02*
X65089Y-38524D01*
X66861Y-38440D02*
X65089Y-38440D01*
X66861Y-39540D02*
X65089Y-39540D01*
G54D13*
X66975Y-38340D02*
X66975Y-37440D01*
X66975Y-37440D02*
X66325Y-37440D01*
X65625Y-38340D02*
X64975Y-38340D01*
X64975Y-38340D02*
X64975Y-37440D01*
X64975Y-37440D02*
X65625Y-37440D01*
X66325Y-38340D02*
X66975Y-38340D01*
G54D17*
X63531Y-45075D02*
X63531Y-44991D01*
X61759Y-45075D02*
X61759Y-44991D01*
X62445Y-44725D02*
X62845Y-44525D01*
X62445Y-44325D02*
X62845Y-44525D01*
X62445Y-44725D02*
X62445Y-44325D01*
X62845Y-44725D02*
X62845Y-44325D01*
X63531Y-43975D02*
X63531Y-44059D01*
X61759Y-43975D02*
X61759Y-44059D01*
X63531Y-43975D02*
X61759Y-43975D01*
X63531Y-45075D02*
X61759Y-45075D01*
G54D13*
X65460Y-45770D02*
X66360Y-45770D01*
X66360Y-45770D02*
X66360Y-45120D01*
X65460Y-44420D02*
X65460Y-43770D01*
X65460Y-43770D02*
X66360Y-43770D01*
X66360Y-43770D02*
X66360Y-44420D01*
X65460Y-45120D02*
X65460Y-45770D01*
X64380Y-46270D02*
X64380Y-45370D01*
X64380Y-45370D02*
X64880Y-45370D01*
X64880Y-45370D02*
X64880Y-46270D01*
X64880Y-46270D02*
X64380Y-46270D01*
X63780Y-46270D02*
X63780Y-45370D01*
X63780Y-45370D02*
X64280Y-45370D01*
X64280Y-45370D02*
X64280Y-46270D01*
X64280Y-46270D02*
X63780Y-46270D01*
X61240Y-45380D02*
X61240Y-46280D01*
X61240Y-46280D02*
X60740Y-46280D01*
X60740Y-46280D02*
X60740Y-45380D01*
X60740Y-45380D02*
X61240Y-45380D01*
X61240Y-46420D02*
X61240Y-47320D01*
X61240Y-47320D02*
X60740Y-47320D01*
X60740Y-47320D02*
X60740Y-46420D01*
X60740Y-46420D02*
X61240Y-46420D01*
X62080Y-46620D02*
X62980Y-46620D01*
X62980Y-46620D02*
X62980Y-47120D01*
X62980Y-47120D02*
X62080Y-47120D01*
X62080Y-47120D02*
X62080Y-46620D01*
X60780Y-44970D02*
X60780Y-44070D01*
X60780Y-44070D02*
X61280Y-44070D01*
X61280Y-44070D02*
X61280Y-44970D01*
X61280Y-44970D02*
X60780Y-44970D01*
X65480Y-43300D02*
X65480Y-42400D01*
X65480Y-42400D02*
X65980Y-42400D01*
X65980Y-42400D02*
X65980Y-43300D01*
X65980Y-43300D02*
X65480Y-43300D01*
G54D10*
X40045Y-35755D02*
X37795Y-35755D01*
X37795Y-35755D02*
X37795Y-31555D01*
X37795Y-31555D02*
X40045Y-31555D01*
X40045Y-35755D02*
X40045Y-31555D01*
G54D16*
X47900Y-32170D02*
X47785Y-32170D01*
X47900Y-32170D02*
X47900Y-32285D01*
X47900Y-34930D02*
X47900Y-34815D01*
X47900Y-34930D02*
X47785Y-34930D01*
X45140Y-34930D02*
X45140Y-34815D01*
X45140Y-34930D02*
X45255Y-34930D01*
X45530Y-32465D02*
G75*
G03X45530Y-32465I-95J0D01*
G74*
G01*
X45140Y-32170D02*
X45140Y-32285D01*
X45140Y-32170D02*
X45255Y-32170D01*
G54D10*
X58054Y-43808D02*
X58054Y-46957D01*
X58054Y-46957D02*
X53330Y-46957D01*
X53330Y-43808D02*
X58054Y-43808D01*
X53330Y-42686D02*
X41518Y-42686D01*
X41518Y-42686D02*
X41518Y-47213D01*
X41518Y-47213D02*
X53330Y-47213D01*
X53330Y-42686D02*
X53330Y-47213D01*
G54D13*
X48780Y-36230D02*
X48780Y-35330D01*
X48780Y-35330D02*
X49280Y-35330D01*
X49280Y-35330D02*
X49280Y-36230D01*
X49280Y-36230D02*
X48780Y-36230D01*
G54D18*
X62030Y-46330D02*
X62030Y-46285D01*
X62030Y-46330D02*
X63250Y-46330D01*
X63250Y-46330D02*
X63250Y-46285D01*
X63250Y-45110D02*
X63250Y-45155D01*
X62030Y-45110D02*
X62030Y-45155D01*
X62030Y-45110D02*
X63250Y-45110D01*
G54D13*
X64980Y-47120D02*
X64080Y-47120D01*
X64080Y-47120D02*
X64080Y-46620D01*
X64080Y-46620D02*
X64980Y-46620D01*
X64980Y-46620D02*
X64980Y-47120D01*
X61980Y-46420D02*
X61980Y-47320D01*
X61980Y-47320D02*
X61480Y-47320D01*
X61480Y-47320D02*
X61480Y-46420D01*
X61480Y-46420D02*
X61980Y-46420D01*
X63980Y-47120D02*
X63080Y-47120D01*
X63080Y-47120D02*
X63080Y-46620D01*
X63080Y-46620D02*
X63980Y-46620D01*
X63980Y-46620D02*
X63980Y-47120D01*
X64380Y-45280D02*
X64380Y-44380D01*
X64380Y-44380D02*
X64880Y-44380D01*
X64880Y-44380D02*
X64880Y-45280D01*
X64880Y-45280D02*
X64380Y-45280D01*
X60300Y-43550D02*
X61200Y-43550D01*
X61200Y-43550D02*
X61200Y-42900D01*
X60300Y-42200D02*
X60300Y-41550D01*
X60300Y-41550D02*
X61200Y-41550D01*
X61200Y-41550D02*
X61200Y-42200D01*
X60300Y-42900D02*
X60300Y-43550D01*
X58300Y-43690D02*
X58300Y-42790D01*
X58300Y-42790D02*
X58800Y-42790D01*
X58800Y-42790D02*
X58800Y-43690D01*
X58800Y-43690D02*
X58300Y-43690D01*
X58900Y-46380D02*
X58900Y-45480D01*
X58900Y-45480D02*
X59400Y-45480D01*
X59400Y-45480D02*
X59400Y-46380D01*
X59400Y-46380D02*
X58900Y-46380D01*
X58900Y-47380D02*
X58900Y-46480D01*
X58900Y-46480D02*
X59400Y-46480D01*
X59400Y-46480D02*
X59400Y-47380D01*
X59400Y-47380D02*
X58900Y-47380D01*
X58900Y-44320D02*
X58900Y-43420D01*
X58900Y-43420D02*
X59400Y-43420D01*
X59400Y-43420D02*
X59400Y-44320D01*
X59400Y-44320D02*
X58900Y-44320D01*
X59400Y-44490D02*
X59400Y-45390D01*
X59400Y-45390D02*
X58900Y-45390D01*
X58900Y-45390D02*
X58900Y-44490D01*
X58900Y-44490D02*
X59400Y-44490D01*
X59190Y-41450D02*
X59190Y-40550D01*
X59190Y-40550D02*
X58540Y-40550D01*
X57840Y-41450D02*
X57190Y-41450D01*
X57190Y-41450D02*
X57190Y-40550D01*
X57190Y-40550D02*
X57840Y-40550D01*
X58540Y-41450D02*
X59190Y-41450D01*
G54D16*
X56560Y-40150D02*
X59320Y-40150D01*
X59320Y-40150D02*
X59320Y-41690D01*
X59320Y-41690D02*
X56560Y-41690D01*
X56560Y-41690D02*
X56560Y-40150D01*
G54D13*
X42400Y-32490D02*
X42400Y-31590D01*
X42400Y-31590D02*
X42900Y-31590D01*
X42900Y-31590D02*
X42900Y-32490D01*
X42900Y-32490D02*
X42400Y-32490D01*
X41420Y-31990D02*
X42320Y-31990D01*
X42320Y-31990D02*
X42320Y-32490D01*
X42320Y-32490D02*
X41420Y-32490D01*
X41420Y-32490D02*
X41420Y-31990D01*
X46570Y-31000D02*
X47470Y-31000D01*
X47470Y-31000D02*
X47470Y-31500D01*
X47470Y-31500D02*
X46570Y-31500D01*
X46570Y-31500D02*
X46570Y-31000D01*
X42950Y-34170D02*
X42750Y-34470D01*
X42950Y-33470D02*
X42950Y-34495D01*
X42950Y-34495D02*
X42350Y-34495D01*
X42350Y-34495D02*
X42350Y-33470D01*
X42350Y-33470D02*
X42950Y-33470D01*
X42950Y-35350D02*
X42750Y-35650D01*
X42950Y-34650D02*
X42950Y-35675D01*
X42950Y-35675D02*
X42350Y-35675D01*
X42350Y-35675D02*
X42350Y-34650D01*
X42350Y-34650D02*
X42950Y-34650D01*
X44500Y-34130D02*
X44500Y-35030D01*
X44500Y-35030D02*
X44000Y-35030D01*
X44000Y-35030D02*
X44000Y-34130D01*
X44000Y-34130D02*
X44500Y-34130D01*
X40530Y-31120D02*
X41430Y-31120D01*
X41430Y-31120D02*
X41430Y-31620D01*
X41430Y-31620D02*
X40530Y-31620D01*
X40530Y-31620D02*
X40530Y-31120D01*
X44600Y-32000D02*
X44600Y-31100D01*
X44600Y-31100D02*
X45100Y-31100D01*
X45100Y-31100D02*
X45100Y-32000D01*
X45100Y-32000D02*
X44600Y-32000D01*
G54D18*
X42310Y-39815D02*
X42570Y-39815D01*
X42310Y-39815D02*
X42310Y-42185D01*
X42310Y-42185D02*
X42570Y-42185D01*
X43690Y-39815D02*
X43430Y-39815D01*
X43690Y-39815D02*
X43690Y-42185D01*
X43690Y-42185D02*
X43430Y-42185D01*
X45310Y-39815D02*
X45570Y-39815D01*
X45310Y-39815D02*
X45310Y-42185D01*
X45310Y-42185D02*
X45570Y-42185D01*
X46690Y-39815D02*
X46430Y-39815D01*
X46690Y-39815D02*
X46690Y-42185D01*
X46690Y-42185D02*
X46430Y-42185D01*
X49690Y-42185D02*
X49430Y-42185D01*
X49690Y-42185D02*
X49690Y-39815D01*
X49690Y-39815D02*
X49430Y-39815D01*
X48310Y-42185D02*
X48570Y-42185D01*
X48310Y-42185D02*
X48310Y-39815D01*
X48310Y-39815D02*
X48570Y-39815D01*
G54D10*
X40045Y-40755D02*
X37795Y-40755D01*
X37795Y-40755D02*
X37795Y-36555D01*
X37795Y-36555D02*
X40045Y-36555D01*
X40045Y-40755D02*
X40045Y-36555D01*
G54D13*
X42950Y-37900D02*
X42750Y-38200D01*
X42950Y-37200D02*
X42950Y-38225D01*
X42950Y-38225D02*
X42350Y-38225D01*
X42350Y-38225D02*
X42350Y-37200D01*
X42350Y-37200D02*
X42950Y-37200D01*
X42950Y-39060D02*
X42750Y-39360D01*
X42950Y-38360D02*
X42950Y-39385D01*
X42950Y-39385D02*
X42350Y-39385D01*
X42350Y-39385D02*
X42350Y-38360D01*
X42350Y-38360D02*
X42950Y-38360D01*
X40530Y-36160D02*
X41430Y-36160D01*
X41430Y-36160D02*
X41430Y-36660D01*
X41430Y-36660D02*
X40530Y-36660D01*
X40530Y-36660D02*
X40530Y-36160D01*
G54D19*
X44070Y-38410D02*
X44720Y-38410D01*
X44060Y-38420D02*
X44720Y-38420D01*
X44050Y-38430D02*
X44720Y-38430D01*
X44040Y-38440D02*
X44720Y-38440D01*
X44030Y-38450D02*
X44720Y-38450D01*
X44020Y-38460D02*
X44720Y-38460D01*
X44010Y-38470D02*
X44720Y-38470D01*
X45400Y-38470D02*
X45410Y-38470D01*
X44000Y-38480D02*
X44120Y-38480D01*
X45390Y-38480D02*
X45420Y-38480D01*
X43990Y-38490D02*
X44110Y-38490D01*
X45390Y-38490D02*
X45420Y-38490D01*
X43980Y-38500D02*
X44100Y-38500D01*
X45380Y-38500D02*
X45430Y-38500D01*
X43970Y-38510D02*
X44090Y-38510D01*
X44120Y-38510D02*
X44780Y-38510D01*
X45380Y-38510D02*
X45430Y-38510D01*
X43960Y-38520D02*
X44080Y-38520D01*
X44110Y-38520D02*
X44780Y-38520D01*
X45370Y-38520D02*
X45440Y-38520D01*
X43950Y-38530D02*
X44070Y-38530D01*
X44100Y-38530D02*
X44760Y-38530D01*
X44770Y-38530D02*
X44780Y-38530D01*
X45370Y-38530D02*
X45440Y-38530D01*
X43940Y-38540D02*
X44060Y-38540D01*
X44090Y-38540D02*
X44750Y-38540D01*
X44770Y-38540D02*
X44780Y-38540D01*
X45360Y-38540D02*
X45450Y-38540D01*
X43930Y-38550D02*
X44050Y-38550D01*
X44080Y-38550D02*
X44740Y-38550D01*
X44770Y-38550D02*
X44780Y-38550D01*
X45360Y-38550D02*
X45450Y-38550D01*
X43920Y-38560D02*
X44040Y-38560D01*
X44070Y-38560D02*
X44730Y-38560D01*
X44770Y-38560D02*
X44780Y-38560D01*
X45350Y-38560D02*
X45460Y-38560D01*
X43910Y-38570D02*
X44030Y-38570D01*
X44060Y-38570D02*
X44720Y-38570D01*
X44770Y-38570D02*
X44780Y-38570D01*
X45350Y-38570D02*
X45460Y-38570D01*
X43900Y-38580D02*
X44020Y-38580D01*
X44050Y-38580D02*
X44710Y-38580D01*
X44770Y-38580D02*
X44780Y-38580D01*
X45340Y-38580D02*
X45470Y-38580D01*
X43890Y-38590D02*
X44010Y-38590D01*
X44040Y-38590D02*
X44700Y-38590D01*
X44770Y-38590D02*
X44780Y-38590D01*
X45340Y-38590D02*
X45470Y-38590D01*
X43880Y-38600D02*
X44000Y-38600D01*
X44030Y-38600D02*
X44690Y-38600D01*
X44750Y-38600D02*
X44780Y-38600D01*
X45330Y-38600D02*
X45480Y-38600D01*
X43870Y-38610D02*
X43990Y-38610D01*
X44020Y-38610D02*
X44680Y-38610D01*
X44750Y-38610D02*
X44780Y-38610D01*
X45330Y-38610D02*
X45480Y-38610D01*
X43870Y-38620D02*
X43990Y-38620D01*
X44010Y-38620D02*
X44670Y-38620D01*
X44730Y-38620D02*
X44780Y-38620D01*
X45320Y-38620D02*
X45490Y-38620D01*
X43870Y-38630D02*
X43980Y-38630D01*
X44000Y-38630D02*
X44660Y-38630D01*
X44720Y-38630D02*
X44780Y-38630D01*
X45320Y-38630D02*
X45490Y-38630D01*
X46340Y-38630D02*
X46440Y-38630D01*
X46510Y-38630D02*
X46610Y-38630D01*
X47010Y-38630D02*
X47120Y-38630D01*
X47520Y-38630D02*
X47700Y-38630D01*
X47920Y-38630D02*
X48020Y-38630D01*
X48230Y-38630D02*
X48370Y-38630D01*
X43870Y-38640D02*
X43960Y-38640D01*
X43990Y-38640D02*
X44650Y-38640D01*
X44710Y-38640D02*
X44780Y-38640D01*
X45310Y-38640D02*
X45500Y-38640D01*
X45920Y-38640D02*
X46090Y-38640D01*
X46340Y-38640D02*
X46440Y-38640D01*
X46510Y-38640D02*
X46610Y-38640D01*
X47000Y-38640D02*
X47120Y-38640D01*
X47490Y-38640D02*
X47740Y-38640D01*
X47920Y-38640D02*
X48020Y-38640D01*
X48220Y-38640D02*
X48360Y-38640D01*
X43870Y-38650D02*
X43960Y-38650D01*
X43980Y-38650D02*
X44640Y-38650D01*
X44700Y-38650D02*
X44780Y-38650D01*
X45310Y-38650D02*
X45500Y-38650D01*
X45880Y-38650D02*
X46120Y-38650D01*
X46340Y-38650D02*
X46440Y-38650D01*
X46510Y-38650D02*
X46610Y-38650D01*
X47000Y-38650D02*
X47130Y-38650D01*
X47470Y-38650D02*
X47760Y-38650D01*
X47920Y-38650D02*
X48020Y-38650D01*
X48210Y-38650D02*
X48350Y-38650D01*
X43870Y-38660D02*
X43950Y-38660D01*
X43970Y-38660D02*
X44630Y-38660D01*
X44690Y-38660D02*
X44780Y-38660D01*
X45300Y-38660D02*
X45510Y-38660D01*
X45860Y-38660D02*
X46150Y-38660D01*
X46340Y-38660D02*
X46440Y-38660D01*
X46510Y-38660D02*
X46610Y-38660D01*
X47000Y-38660D02*
X47130Y-38660D01*
X47450Y-38660D02*
X47780Y-38660D01*
X47920Y-38660D02*
X48020Y-38660D01*
X48200Y-38660D02*
X48340Y-38660D01*
X43870Y-38670D02*
X43940Y-38670D01*
X43970Y-38670D02*
X44620Y-38670D01*
X44680Y-38670D02*
X44760Y-38670D01*
X44770Y-38670D02*
X44780Y-38670D01*
X45300Y-38670D02*
X45510Y-38670D01*
X45840Y-38670D02*
X46170Y-38670D01*
X46340Y-38670D02*
X46440Y-38670D01*
X46510Y-38670D02*
X46610Y-38670D01*
X46990Y-38670D02*
X47130Y-38670D01*
X47430Y-38670D02*
X47780Y-38670D01*
X47920Y-38670D02*
X48020Y-38670D01*
X48190Y-38670D02*
X48330Y-38670D01*
X43870Y-38680D02*
X43940Y-38680D01*
X43970Y-38680D02*
X44610Y-38680D01*
X44670Y-38680D02*
X44750Y-38680D01*
X44770Y-38680D02*
X44780Y-38680D01*
X45290Y-38680D02*
X45520Y-38680D01*
X45830Y-38680D02*
X46190Y-38680D01*
X46340Y-38680D02*
X46440Y-38680D01*
X46510Y-38680D02*
X46610Y-38680D01*
X46990Y-38680D02*
X47140Y-38680D01*
X47420Y-38680D02*
X47780Y-38680D01*
X47920Y-38680D02*
X48020Y-38680D01*
X48180Y-38680D02*
X48320Y-38680D01*
X43870Y-38690D02*
X43940Y-38690D01*
X43970Y-38690D02*
X44600Y-38690D01*
X44660Y-38690D02*
X44740Y-38690D01*
X44770Y-38690D02*
X44780Y-38690D01*
X45290Y-38690D02*
X45520Y-38690D01*
X45810Y-38690D02*
X46200Y-38690D01*
X46340Y-38690D02*
X46440Y-38690D01*
X46510Y-38690D02*
X46610Y-38690D01*
X46990Y-38690D02*
X47140Y-38690D01*
X47400Y-38690D02*
X47770Y-38690D01*
X47920Y-38690D02*
X48020Y-38690D01*
X48170Y-38690D02*
X48310Y-38690D01*
X43870Y-38700D02*
X43940Y-38700D01*
X43970Y-38700D02*
X44590Y-38700D01*
X44650Y-38700D02*
X44730Y-38700D01*
X44770Y-38700D02*
X44780Y-38700D01*
X45280Y-38700D02*
X45530Y-38700D01*
X45800Y-38700D02*
X46200Y-38700D01*
X46340Y-38700D02*
X46440Y-38700D01*
X46510Y-38700D02*
X46610Y-38700D01*
X46980Y-38700D02*
X47150Y-38700D01*
X47390Y-38700D02*
X47770Y-38700D01*
X47920Y-38700D02*
X48020Y-38700D01*
X48170Y-38700D02*
X48300Y-38700D01*
X43870Y-38710D02*
X43940Y-38710D01*
X43970Y-38710D02*
X44580Y-38710D01*
X44640Y-38710D02*
X44720Y-38710D01*
X44770Y-38710D02*
X44780Y-38710D01*
X45280Y-38710D02*
X45530Y-38710D01*
X45790Y-38710D02*
X46200Y-38710D01*
X46340Y-38710D02*
X46440Y-38710D01*
X46510Y-38710D02*
X46610Y-38710D01*
X46980Y-38710D02*
X47150Y-38710D01*
X47380Y-38710D02*
X47760Y-38710D01*
X47920Y-38710D02*
X48020Y-38710D01*
X48160Y-38710D02*
X48290Y-38710D01*
X43870Y-38720D02*
X43940Y-38720D01*
X43970Y-38720D02*
X44570Y-38720D01*
X44630Y-38720D02*
X44710Y-38720D01*
X44760Y-38720D02*
X44780Y-38720D01*
X45270Y-38720D02*
X45540Y-38720D01*
X45780Y-38720D02*
X46190Y-38720D01*
X46340Y-38720D02*
X46440Y-38720D01*
X46510Y-38720D02*
X46610Y-38720D01*
X46980Y-38720D02*
X47150Y-38720D01*
X47380Y-38720D02*
X47760Y-38720D01*
X47920Y-38720D02*
X48020Y-38720D01*
X48150Y-38720D02*
X48280Y-38720D01*
X43870Y-38730D02*
X43940Y-38730D01*
X43970Y-38730D02*
X44560Y-38730D01*
X44620Y-38730D02*
X44700Y-38730D01*
X44750Y-38730D02*
X44780Y-38730D01*
X45270Y-38730D02*
X45540Y-38730D01*
X45770Y-38730D02*
X46180Y-38730D01*
X46340Y-38730D02*
X46440Y-38730D01*
X46510Y-38730D02*
X46610Y-38730D01*
X46970Y-38730D02*
X47160Y-38730D01*
X47370Y-38730D02*
X47550Y-38730D01*
X47690Y-38730D02*
X47760Y-38730D01*
X47920Y-38730D02*
X48020Y-38730D01*
X48140Y-38730D02*
X48270Y-38730D01*
X43870Y-38740D02*
X43940Y-38740D01*
X43970Y-38740D02*
X44550Y-38740D01*
X44610Y-38740D02*
X44690Y-38740D01*
X44740Y-38740D02*
X44780Y-38740D01*
X45260Y-38740D02*
X45400Y-38740D01*
X45410Y-38740D02*
X45550Y-38740D01*
X45770Y-38740D02*
X45950Y-38740D01*
X46070Y-38740D02*
X46180Y-38740D01*
X46340Y-38740D02*
X46440Y-38740D01*
X46510Y-38740D02*
X46610Y-38740D01*
X46970Y-38740D02*
X47160Y-38740D01*
X47360Y-38740D02*
X47530Y-38740D01*
X47720Y-38740D02*
X47750Y-38740D01*
X47920Y-38740D02*
X48020Y-38740D01*
X48130Y-38740D02*
X48260Y-38740D01*
X43870Y-38750D02*
X43940Y-38750D01*
X43970Y-38750D02*
X44330Y-38750D01*
X44410Y-38750D02*
X44540Y-38750D01*
X44600Y-38750D02*
X44680Y-38750D01*
X44730Y-38750D02*
X44780Y-38750D01*
X45260Y-38750D02*
X45400Y-38750D01*
X45410Y-38750D02*
X45550Y-38750D01*
X45760Y-38750D02*
X45920Y-38750D01*
X46110Y-38750D02*
X46170Y-38750D01*
X46340Y-38750D02*
X46440Y-38750D01*
X46510Y-38750D02*
X46610Y-38750D01*
X46960Y-38750D02*
X47160Y-38750D01*
X47350Y-38750D02*
X47510Y-38750D01*
X47920Y-38750D02*
X48020Y-38750D01*
X48120Y-38750D02*
X48260Y-38750D01*
X43870Y-38760D02*
X43940Y-38760D01*
X43970Y-38760D02*
X44300Y-38760D01*
X44440Y-38760D02*
X44530Y-38760D01*
X44590Y-38760D02*
X44670Y-38760D01*
X44720Y-38760D02*
X44780Y-38760D01*
X45250Y-38760D02*
X45390Y-38760D01*
X45420Y-38760D02*
X45560Y-38760D01*
X45750Y-38760D02*
X45910Y-38760D01*
X46130Y-38760D02*
X46170Y-38760D01*
X46340Y-38760D02*
X46440Y-38760D01*
X46510Y-38760D02*
X46610Y-38760D01*
X46960Y-38760D02*
X47170Y-38760D01*
X47350Y-38760D02*
X47490Y-38760D01*
X47920Y-38760D02*
X48020Y-38760D01*
X48110Y-38760D02*
X48250Y-38760D01*
X43870Y-38770D02*
X43940Y-38770D01*
X43970Y-38770D02*
X44290Y-38770D01*
X44460Y-38770D02*
X44520Y-38770D01*
X44580Y-38770D02*
X44660Y-38770D01*
X44710Y-38770D02*
X44780Y-38770D01*
X45250Y-38770D02*
X45390Y-38770D01*
X45420Y-38770D02*
X45560Y-38770D01*
X45750Y-38770D02*
X45890Y-38770D01*
X46150Y-38770D02*
X46160Y-38770D01*
X46340Y-38770D02*
X46440Y-38770D01*
X46510Y-38770D02*
X46610Y-38770D01*
X46960Y-38770D02*
X47060Y-38770D01*
X47070Y-38770D02*
X47170Y-38770D01*
X47340Y-38770D02*
X47480Y-38770D01*
X47920Y-38770D02*
X48020Y-38770D01*
X48100Y-38770D02*
X48240Y-38770D01*
X43870Y-38780D02*
X43940Y-38780D01*
X43970Y-38780D02*
X44270Y-38780D01*
X44470Y-38780D02*
X44510Y-38780D01*
X44570Y-38780D02*
X44650Y-38780D01*
X44700Y-38780D02*
X44780Y-38780D01*
X45240Y-38780D02*
X45380Y-38780D01*
X45430Y-38780D02*
X45570Y-38780D01*
X45740Y-38780D02*
X45880Y-38780D01*
X46340Y-38780D02*
X46440Y-38780D01*
X46510Y-38780D02*
X46610Y-38780D01*
X46950Y-38780D02*
X47050Y-38780D01*
X47070Y-38780D02*
X47180Y-38780D01*
X47340Y-38780D02*
X47470Y-38780D01*
X47920Y-38780D02*
X48020Y-38780D01*
X48100Y-38780D02*
X48230Y-38780D01*
X43870Y-38790D02*
X43940Y-38790D01*
X43970Y-38790D02*
X44260Y-38790D01*
X44480Y-38790D02*
X44500Y-38790D01*
X44560Y-38790D02*
X44640Y-38790D01*
X44690Y-38790D02*
X44780Y-38790D01*
X45240Y-38790D02*
X45380Y-38790D01*
X45430Y-38790D02*
X45570Y-38790D01*
X45740Y-38790D02*
X45870Y-38790D01*
X46340Y-38790D02*
X46440Y-38790D01*
X46510Y-38790D02*
X46610Y-38790D01*
X46950Y-38790D02*
X47050Y-38790D01*
X47070Y-38790D02*
X47180Y-38790D01*
X47330Y-38790D02*
X47460Y-38790D01*
X47920Y-38790D02*
X48020Y-38790D01*
X48090Y-38790D02*
X48220Y-38790D01*
X43870Y-38800D02*
X43940Y-38800D01*
X43970Y-38800D02*
X44250Y-38800D01*
X44340Y-38800D02*
X44410Y-38800D01*
X44490Y-38800D02*
X44500Y-38800D01*
X44550Y-38800D02*
X44630Y-38800D01*
X44680Y-38800D02*
X44780Y-38800D01*
X45230Y-38800D02*
X45380Y-38800D01*
X45440Y-38800D02*
X45580Y-38800D01*
X45730Y-38800D02*
X45860Y-38800D01*
X46340Y-38800D02*
X46440Y-38800D01*
X46510Y-38800D02*
X46610Y-38800D01*
X46950Y-38800D02*
X47050Y-38800D01*
X47080Y-38800D02*
X47180Y-38800D01*
X47330Y-38800D02*
X47460Y-38800D01*
X47920Y-38800D02*
X48020Y-38800D01*
X48080Y-38800D02*
X48210Y-38800D01*
X43870Y-38810D02*
X43940Y-38810D01*
X43970Y-38810D02*
X44240Y-38810D01*
X44320Y-38810D02*
X44430Y-38810D01*
X44540Y-38810D02*
X44620Y-38810D01*
X44670Y-38810D02*
X44780Y-38810D01*
X45230Y-38810D02*
X45370Y-38810D01*
X45440Y-38810D02*
X45580Y-38810D01*
X45730Y-38810D02*
X45850Y-38810D01*
X46340Y-38810D02*
X46440Y-38810D01*
X46510Y-38810D02*
X46610Y-38810D01*
X46940Y-38810D02*
X47040Y-38810D01*
X47080Y-38810D02*
X47190Y-38810D01*
X47330Y-38810D02*
X47450Y-38810D01*
X47920Y-38810D02*
X48020Y-38810D01*
X48070Y-38810D02*
X48200Y-38810D01*
X43870Y-38820D02*
X43940Y-38820D01*
X43970Y-38820D02*
X44230Y-38820D01*
X44310Y-38820D02*
X44440Y-38820D01*
X44530Y-38820D02*
X44610Y-38820D01*
X44660Y-38820D02*
X44780Y-38820D01*
X45220Y-38820D02*
X45370Y-38820D01*
X45450Y-38820D02*
X45590Y-38820D01*
X45730Y-38820D02*
X45850Y-38820D01*
X46340Y-38820D02*
X46440Y-38820D01*
X46510Y-38820D02*
X46610Y-38820D01*
X46940Y-38820D02*
X47040Y-38820D01*
X47080Y-38820D02*
X47190Y-38820D01*
X47330Y-38820D02*
X47450Y-38820D01*
X47920Y-38820D02*
X48020Y-38820D01*
X48060Y-38820D02*
X48190Y-38820D01*
X43870Y-38830D02*
X43940Y-38830D01*
X43970Y-38830D02*
X44220Y-38830D01*
X44300Y-38830D02*
X44450Y-38830D01*
X44530Y-38830D02*
X44600Y-38830D01*
X44650Y-38830D02*
X44780Y-38830D01*
X45220Y-38830D02*
X45360Y-38830D01*
X45450Y-38830D02*
X45600Y-38830D01*
X45730Y-38830D02*
X45840Y-38830D01*
X46340Y-38830D02*
X46440Y-38830D01*
X46510Y-38830D02*
X46610Y-38830D01*
X46930Y-38830D02*
X47040Y-38830D01*
X47090Y-38830D02*
X47190Y-38830D01*
X47320Y-38830D02*
X47440Y-38830D01*
X47920Y-38830D02*
X48020Y-38830D01*
X48050Y-38830D02*
X48180Y-38830D01*
X43870Y-38840D02*
X43940Y-38840D01*
X43970Y-38840D02*
X44210Y-38840D01*
X44290Y-38840D02*
X44460Y-38840D01*
X44530Y-38840D02*
X44590Y-38840D01*
X44640Y-38840D02*
X44780Y-38840D01*
X45210Y-38840D02*
X45360Y-38840D01*
X45460Y-38840D02*
X45600Y-38840D01*
X45720Y-38840D02*
X45840Y-38840D01*
X46340Y-38840D02*
X46440Y-38840D01*
X46510Y-38840D02*
X46610Y-38840D01*
X46930Y-38840D02*
X47030Y-38840D01*
X47090Y-38840D02*
X47200Y-38840D01*
X47320Y-38840D02*
X47440Y-38840D01*
X47920Y-38840D02*
X48020Y-38840D01*
X48040Y-38840D02*
X48170Y-38840D01*
X43870Y-38850D02*
X43940Y-38850D01*
X43970Y-38850D02*
X44200Y-38850D01*
X44290Y-38850D02*
X44460Y-38850D01*
X44530Y-38850D02*
X44570Y-38850D01*
X44630Y-38850D02*
X44780Y-38850D01*
X45210Y-38850D02*
X45350Y-38850D01*
X45460Y-38850D02*
X45610Y-38850D01*
X45720Y-38850D02*
X45840Y-38850D01*
X46340Y-38850D02*
X46440Y-38850D01*
X46510Y-38850D02*
X46610Y-38850D01*
X46930Y-38850D02*
X47030Y-38850D01*
X47090Y-38850D02*
X47200Y-38850D01*
X47320Y-38850D02*
X47430Y-38850D01*
X47920Y-38850D02*
X48020Y-38850D01*
X48030Y-38850D02*
X48160Y-38850D01*
X43870Y-38860D02*
X43940Y-38860D01*
X43970Y-38860D02*
X44190Y-38860D01*
X44280Y-38860D02*
X44460Y-38860D01*
X44530Y-38860D02*
X44560Y-38860D01*
X44620Y-38860D02*
X44780Y-38860D01*
X45200Y-38860D02*
X45350Y-38860D01*
X45470Y-38860D02*
X45610Y-38860D01*
X45720Y-38860D02*
X45830Y-38860D01*
X46340Y-38860D02*
X46440Y-38860D01*
X46510Y-38860D02*
X46610Y-38860D01*
X46920Y-38860D02*
X47030Y-38860D01*
X47100Y-38860D02*
X47200Y-38860D01*
X47320Y-38860D02*
X47430Y-38860D01*
X47920Y-38860D02*
X48020Y-38860D01*
X48030Y-38860D02*
X48150Y-38860D01*
X43870Y-38870D02*
X43940Y-38870D01*
X43970Y-38870D02*
X44180Y-38870D01*
X44280Y-38870D02*
X44470Y-38870D01*
X44530Y-38870D02*
X44550Y-38870D01*
X44610Y-38870D02*
X44780Y-38870D01*
X45200Y-38870D02*
X45340Y-38870D01*
X45470Y-38870D02*
X45620Y-38870D01*
X45720Y-38870D02*
X45830Y-38870D01*
X46340Y-38870D02*
X46440Y-38870D01*
X46510Y-38870D02*
X46610Y-38870D01*
X46920Y-38870D02*
X47020Y-38870D01*
X47100Y-38870D02*
X47210Y-38870D01*
X47320Y-38870D02*
X47430Y-38870D01*
X47920Y-38870D02*
X48140Y-38870D01*
X43870Y-38880D02*
X43940Y-38880D01*
X43970Y-38880D02*
X44170Y-38880D01*
X44280Y-38880D02*
X44470Y-38880D01*
X44530Y-38880D02*
X44540Y-38880D01*
X44600Y-38880D02*
X44780Y-38880D01*
X45190Y-38880D02*
X45340Y-38880D01*
X45480Y-38880D02*
X45620Y-38880D01*
X45720Y-38880D02*
X45830Y-38880D01*
X45970Y-38880D02*
X46220Y-38880D01*
X46340Y-38880D02*
X46440Y-38880D01*
X46510Y-38880D02*
X46610Y-38880D01*
X46920Y-38880D02*
X47020Y-38880D01*
X47100Y-38880D02*
X47210Y-38880D01*
X47320Y-38880D02*
X47430Y-38880D01*
X47920Y-38880D02*
X48130Y-38880D01*
X43870Y-38890D02*
X43940Y-38890D01*
X43970Y-38890D02*
X44160Y-38890D01*
X44280Y-38890D02*
X44470Y-38890D01*
X44590Y-38890D02*
X44780Y-38890D01*
X45190Y-38890D02*
X45330Y-38890D01*
X45480Y-38890D02*
X45630Y-38890D01*
X45720Y-38890D02*
X45830Y-38890D01*
X45970Y-38890D02*
X46220Y-38890D01*
X46340Y-38890D02*
X46440Y-38890D01*
X46510Y-38890D02*
X46610Y-38890D01*
X46910Y-38890D02*
X47020Y-38890D01*
X47110Y-38890D02*
X47220Y-38890D01*
X47320Y-38890D02*
X47430Y-38890D01*
X47920Y-38890D02*
X48130Y-38890D01*
X43870Y-38900D02*
X43940Y-38900D01*
X43970Y-38900D02*
X44150Y-38900D01*
X44280Y-38900D02*
X44470Y-38900D01*
X44580Y-38900D02*
X44780Y-38900D01*
X45180Y-38900D02*
X45330Y-38900D01*
X45490Y-38900D02*
X45630Y-38900D01*
X45720Y-38900D02*
X45830Y-38900D01*
X45970Y-38900D02*
X46220Y-38900D01*
X46340Y-38900D02*
X46440Y-38900D01*
X46510Y-38900D02*
X46610Y-38900D01*
X46910Y-38900D02*
X47010Y-38900D01*
X47110Y-38900D02*
X47220Y-38900D01*
X47320Y-38900D02*
X47430Y-38900D01*
X47920Y-38900D02*
X48140Y-38900D01*
X43870Y-38910D02*
X43940Y-38910D01*
X43970Y-38910D02*
X44140Y-38910D01*
X44210Y-38910D02*
X44220Y-38910D01*
X44280Y-38910D02*
X44470Y-38910D01*
X44570Y-38910D02*
X44780Y-38910D01*
X45180Y-38910D02*
X45320Y-38910D01*
X45490Y-38910D02*
X45640Y-38910D01*
X45720Y-38910D02*
X45830Y-38910D01*
X45970Y-38910D02*
X46220Y-38910D01*
X46340Y-38910D02*
X46440Y-38910D01*
X46510Y-38910D02*
X46610Y-38910D01*
X46910Y-38910D02*
X47010Y-38910D01*
X47110Y-38910D02*
X47220Y-38910D01*
X47320Y-38910D02*
X47430Y-38910D01*
X47920Y-38910D02*
X48150Y-38910D01*
X43870Y-38920D02*
X43940Y-38920D01*
X43970Y-38920D02*
X44130Y-38920D01*
X44200Y-38920D02*
X44220Y-38920D01*
X44280Y-38920D02*
X44470Y-38920D01*
X44560Y-38920D02*
X44780Y-38920D01*
X45170Y-38920D02*
X45320Y-38920D01*
X45500Y-38920D02*
X45640Y-38920D01*
X45720Y-38920D02*
X45830Y-38920D01*
X45970Y-38920D02*
X46220Y-38920D01*
X46340Y-38920D02*
X46440Y-38920D01*
X46510Y-38920D02*
X46610Y-38920D01*
X46900Y-38920D02*
X47010Y-38920D01*
X47120Y-38920D02*
X47230Y-38920D01*
X47320Y-38920D02*
X47430Y-38920D01*
X47920Y-38920D02*
X48160Y-38920D01*
X43870Y-38930D02*
X43940Y-38930D01*
X43970Y-38930D02*
X44120Y-38930D01*
X44190Y-38930D02*
X44220Y-38930D01*
X44280Y-38930D02*
X44470Y-38930D01*
X44550Y-38930D02*
X44780Y-38930D01*
X45170Y-38930D02*
X45320Y-38930D01*
X45500Y-38930D02*
X45650Y-38930D01*
X45720Y-38930D02*
X45830Y-38930D01*
X45970Y-38930D02*
X46220Y-38930D01*
X46340Y-38930D02*
X46440Y-38930D01*
X46510Y-38930D02*
X46610Y-38930D01*
X46900Y-38930D02*
X47000Y-38930D01*
X47120Y-38930D02*
X47230Y-38930D01*
X47320Y-38930D02*
X47430Y-38930D01*
X47920Y-38930D02*
X48020Y-38930D01*
X48030Y-38930D02*
X48160Y-38930D01*
X43870Y-38940D02*
X43940Y-38940D01*
X43970Y-38940D02*
X44110Y-38940D01*
X44180Y-38940D02*
X44220Y-38940D01*
X44280Y-38940D02*
X44460Y-38940D01*
X44540Y-38940D02*
X44780Y-38940D01*
X45160Y-38940D02*
X45310Y-38940D01*
X45510Y-38940D02*
X45650Y-38940D01*
X45720Y-38940D02*
X45830Y-38940D01*
X45970Y-38940D02*
X46220Y-38940D01*
X46340Y-38940D02*
X46440Y-38940D01*
X46510Y-38940D02*
X46610Y-38940D01*
X46890Y-38940D02*
X47000Y-38940D01*
X47120Y-38940D02*
X47230Y-38940D01*
X47320Y-38940D02*
X47430Y-38940D01*
X47920Y-38940D02*
X48020Y-38940D01*
X48040Y-38940D02*
X48170Y-38940D01*
X43870Y-38950D02*
X43940Y-38950D01*
X43970Y-38950D02*
X44100Y-38950D01*
X44170Y-38950D02*
X44220Y-38950D01*
X44290Y-38950D02*
X44460Y-38950D01*
X44530Y-38950D02*
X44780Y-38950D01*
X45160Y-38950D02*
X45310Y-38950D01*
X45510Y-38950D02*
X45660Y-38950D01*
X45720Y-38950D02*
X45830Y-38950D01*
X45970Y-38950D02*
X46220Y-38950D01*
X46340Y-38950D02*
X46440Y-38950D01*
X46510Y-38950D02*
X46610Y-38950D01*
X46890Y-38950D02*
X47240Y-38950D01*
X47320Y-38950D02*
X47430Y-38950D01*
X47920Y-38950D02*
X48020Y-38950D01*
X48050Y-38950D02*
X48180Y-38950D01*
X43870Y-38960D02*
X43940Y-38960D01*
X43970Y-38960D02*
X44090Y-38960D01*
X44160Y-38960D02*
X44220Y-38960D01*
X44290Y-38960D02*
X44450Y-38960D01*
X44520Y-38960D02*
X44780Y-38960D01*
X45150Y-38960D02*
X45300Y-38960D01*
X45520Y-38960D02*
X45660Y-38960D01*
X45720Y-38960D02*
X45830Y-38960D01*
X45970Y-38960D02*
X46220Y-38960D01*
X46340Y-38960D02*
X46440Y-38960D01*
X46510Y-38960D02*
X46610Y-38960D01*
X46890Y-38960D02*
X47240Y-38960D01*
X47320Y-38960D02*
X47440Y-38960D01*
X47920Y-38960D02*
X48020Y-38960D01*
X48060Y-38960D02*
X48190Y-38960D01*
X43870Y-38970D02*
X43940Y-38970D01*
X43970Y-38970D02*
X44080Y-38970D01*
X44150Y-38970D02*
X44220Y-38970D01*
X44300Y-38970D02*
X44450Y-38970D01*
X44510Y-38970D02*
X44780Y-38970D01*
X45150Y-38970D02*
X45300Y-38970D01*
X45520Y-38970D02*
X45670Y-38970D01*
X45720Y-38970D02*
X45840Y-38970D01*
X46120Y-38970D02*
X46220Y-38970D01*
X46340Y-38970D02*
X46440Y-38970D01*
X46510Y-38970D02*
X46610Y-38970D01*
X46880Y-38970D02*
X47240Y-38970D01*
X47320Y-38970D02*
X47440Y-38970D01*
X47920Y-38970D02*
X48020Y-38970D01*
X48060Y-38970D02*
X48200Y-38970D01*
X43870Y-38980D02*
X43940Y-38980D01*
X43970Y-38980D02*
X44070Y-38980D01*
X44140Y-38980D02*
X44210Y-38980D01*
X44310Y-38980D02*
X44430Y-38980D01*
X44500Y-38980D02*
X44780Y-38980D01*
X45140Y-38980D02*
X45290Y-38980D01*
X45530Y-38980D02*
X45670Y-38980D01*
X45720Y-38980D02*
X45840Y-38980D01*
X46120Y-38980D02*
X46220Y-38980D01*
X46340Y-38980D02*
X46440Y-38980D01*
X46510Y-38980D02*
X46610Y-38980D01*
X46880Y-38980D02*
X47250Y-38980D01*
X47320Y-38980D02*
X47440Y-38980D01*
X47920Y-38980D02*
X48020Y-38980D01*
X48070Y-38980D02*
X48210Y-38980D01*
X43870Y-38990D02*
X43940Y-38990D01*
X43970Y-38990D02*
X44060Y-38990D01*
X44130Y-38990D02*
X44200Y-38990D01*
X44330Y-38990D02*
X44420Y-38990D01*
X44490Y-38990D02*
X44780Y-38990D01*
X45140Y-38990D02*
X45290Y-38990D01*
X45530Y-38990D02*
X45680Y-38990D01*
X45730Y-38990D02*
X45840Y-38990D01*
X46120Y-38990D02*
X46220Y-38990D01*
X46340Y-38990D02*
X46440Y-38990D01*
X46510Y-38990D02*
X46610Y-38990D01*
X46880Y-38990D02*
X47250Y-38990D01*
X47330Y-38990D02*
X47450Y-38990D01*
X47920Y-38990D02*
X48020Y-38990D01*
X48080Y-38990D02*
X48220Y-38990D01*
X43870Y-39000D02*
X43940Y-39000D01*
X43970Y-39000D02*
X44060Y-39000D01*
X44120Y-39000D02*
X44190Y-39000D01*
X44250Y-39000D02*
X44260Y-39000D01*
X44360Y-39000D02*
X44380Y-39000D01*
X44490Y-39000D02*
X44780Y-39000D01*
X45130Y-39000D02*
X45280Y-39000D01*
X45540Y-39000D02*
X45680Y-39000D01*
X45730Y-39000D02*
X45850Y-39000D01*
X46120Y-39000D02*
X46220Y-39000D01*
X46340Y-39000D02*
X46440Y-39000D01*
X46510Y-39000D02*
X46610Y-39000D01*
X46870Y-39000D02*
X47260Y-39000D01*
X47330Y-39000D02*
X47450Y-39000D01*
X47920Y-39000D02*
X48020Y-39000D01*
X48090Y-39000D02*
X48230Y-39000D01*
X43870Y-39010D02*
X43940Y-39010D01*
X43970Y-39010D02*
X44050Y-39010D01*
X44110Y-39010D02*
X44180Y-39010D01*
X44240Y-39010D02*
X44270Y-39010D01*
X44480Y-39010D02*
X44780Y-39010D01*
X45130Y-39010D02*
X45280Y-39010D01*
X45540Y-39010D02*
X45690Y-39010D01*
X45730Y-39010D02*
X45860Y-39010D01*
X46120Y-39010D02*
X46220Y-39010D01*
X46340Y-39010D02*
X46440Y-39010D01*
X46510Y-39010D02*
X46610Y-39010D01*
X46870Y-39010D02*
X47260Y-39010D01*
X47330Y-39010D02*
X47460Y-39010D01*
X47920Y-39010D02*
X48020Y-39010D01*
X48100Y-39010D02*
X48240Y-39010D01*
X43870Y-39020D02*
X43940Y-39020D01*
X43970Y-39020D02*
X44040Y-39020D01*
X44100Y-39020D02*
X44170Y-39020D01*
X44230Y-39020D02*
X44280Y-39020D01*
X44460Y-39020D02*
X44780Y-39020D01*
X45120Y-39020D02*
X45490Y-39020D01*
X45550Y-39020D02*
X45690Y-39020D01*
X45730Y-39020D02*
X45860Y-39020D01*
X46120Y-39020D02*
X46220Y-39020D01*
X46340Y-39020D02*
X46440Y-39020D01*
X46510Y-39020D02*
X46610Y-39020D01*
X46870Y-39020D02*
X47260Y-39020D01*
X47340Y-39020D02*
X47470Y-39020D01*
X47920Y-39020D02*
X48020Y-39020D01*
X48110Y-39020D02*
X48250Y-39020D01*
X43870Y-39030D02*
X43940Y-39030D01*
X43970Y-39030D02*
X44030Y-39030D01*
X44090Y-39030D02*
X44160Y-39030D01*
X44220Y-39030D02*
X44290Y-39030D01*
X44450Y-39030D02*
X44780Y-39030D01*
X45120Y-39030D02*
X45490Y-39030D01*
X45550Y-39030D02*
X45700Y-39030D01*
X45740Y-39030D02*
X45870Y-39030D01*
X46120Y-39030D02*
X46220Y-39030D01*
X46340Y-39030D02*
X46440Y-39030D01*
X46510Y-39030D02*
X46610Y-39030D01*
X46860Y-39030D02*
X47270Y-39030D01*
X47340Y-39030D02*
X47480Y-39030D01*
X47920Y-39030D02*
X48020Y-39030D01*
X48120Y-39030D02*
X48250Y-39030D01*
X43870Y-39040D02*
X43940Y-39040D01*
X43970Y-39040D02*
X44020Y-39040D01*
X44080Y-39040D02*
X44150Y-39040D01*
X44210Y-39040D02*
X44320Y-39040D01*
X44430Y-39040D02*
X44780Y-39040D01*
X45110Y-39040D02*
X45500Y-39040D01*
X45560Y-39040D02*
X45700Y-39040D01*
X45740Y-39040D02*
X45880Y-39040D01*
X46120Y-39040D02*
X46220Y-39040D01*
X46340Y-39040D02*
X46440Y-39040D01*
X46510Y-39040D02*
X46610Y-39040D01*
X46860Y-39040D02*
X46970Y-39040D01*
X47160Y-39040D02*
X47270Y-39040D01*
X47340Y-39040D02*
X47490Y-39040D01*
X47920Y-39040D02*
X48020Y-39040D01*
X48120Y-39040D02*
X48260Y-39040D01*
X43870Y-39050D02*
X43940Y-39050D01*
X43970Y-39050D02*
X44010Y-39050D01*
X44070Y-39050D02*
X44140Y-39050D01*
X44200Y-39050D02*
X44350Y-39050D01*
X44390Y-39050D02*
X44780Y-39050D01*
X45110Y-39050D02*
X45500Y-39050D01*
X45560Y-39050D02*
X45710Y-39050D01*
X45750Y-39050D02*
X45890Y-39050D01*
X46120Y-39050D02*
X46220Y-39050D01*
X46340Y-39050D02*
X46440Y-39050D01*
X46510Y-39050D02*
X46610Y-39050D01*
X46850Y-39050D02*
X46960Y-39050D01*
X47160Y-39050D02*
X47270Y-39050D01*
X47350Y-39050D02*
X47500Y-39050D01*
X47920Y-39050D02*
X48020Y-39050D01*
X48130Y-39050D02*
X48270Y-39050D01*
X43870Y-39060D02*
X43940Y-39060D01*
X43970Y-39060D02*
X44000Y-39060D01*
X44060Y-39060D02*
X44130Y-39060D01*
X44190Y-39060D02*
X44780Y-39060D01*
X45100Y-39060D02*
X45510Y-39060D01*
X45570Y-39060D02*
X45710Y-39060D01*
X45750Y-39060D02*
X45900Y-39060D01*
X46120Y-39060D02*
X46220Y-39060D01*
X46340Y-39060D02*
X46440Y-39060D01*
X46510Y-39060D02*
X46610Y-39060D01*
X46850Y-39060D02*
X46960Y-39060D01*
X47160Y-39060D02*
X47280Y-39060D01*
X47360Y-39060D02*
X47510Y-39060D01*
X47920Y-39060D02*
X48020Y-39060D01*
X48140Y-39060D02*
X48280Y-39060D01*
X43870Y-39070D02*
X43940Y-39070D01*
X43970Y-39070D02*
X43990Y-39070D01*
X44050Y-39070D02*
X44120Y-39070D01*
X44180Y-39070D02*
X44780Y-39070D01*
X45100Y-39070D02*
X45510Y-39070D01*
X45570Y-39070D02*
X45720Y-39070D01*
X45760Y-39070D02*
X45910Y-39070D01*
X46110Y-39070D02*
X46220Y-39070D01*
X46340Y-39070D02*
X46440Y-39070D01*
X46510Y-39070D02*
X46610Y-39070D01*
X46850Y-39070D02*
X46960Y-39070D01*
X47170Y-39070D02*
X47280Y-39070D01*
X47360Y-39070D02*
X47530Y-39070D01*
X47720Y-39070D02*
X47760Y-39070D01*
X47920Y-39070D02*
X48020Y-39070D01*
X48150Y-39070D02*
X48290Y-39070D01*
X43870Y-39080D02*
X43940Y-39080D01*
X43970Y-39080D02*
X43980Y-39080D01*
X44040Y-39080D02*
X44110Y-39080D01*
X44170Y-39080D02*
X44780Y-39080D01*
X45090Y-39080D02*
X45520Y-39080D01*
X45580Y-39080D02*
X45720Y-39080D01*
X45760Y-39080D02*
X45930Y-39080D01*
X46100Y-39080D02*
X46220Y-39080D01*
X46340Y-39080D02*
X46440Y-39080D01*
X46510Y-39080D02*
X46610Y-39080D01*
X46840Y-39080D02*
X46950Y-39080D01*
X47170Y-39080D02*
X47290Y-39080D01*
X47370Y-39080D02*
X47560Y-39080D01*
X47690Y-39080D02*
X47760Y-39080D01*
X47920Y-39080D02*
X48020Y-39080D01*
X48160Y-39080D02*
X48300Y-39080D01*
X43870Y-39090D02*
X43940Y-39090D01*
X43970Y-39090D02*
X43980Y-39090D01*
X44030Y-39090D02*
X44100Y-39090D01*
X44160Y-39090D02*
X44780Y-39090D01*
X45090Y-39090D02*
X45520Y-39090D01*
X45580Y-39090D02*
X45730Y-39090D01*
X45770Y-39090D02*
X45960Y-39090D01*
X46070Y-39090D02*
X46220Y-39090D01*
X46340Y-39090D02*
X46440Y-39090D01*
X46510Y-39090D02*
X46950Y-39090D01*
X47170Y-39090D02*
X47290Y-39090D01*
X47380Y-39090D02*
X47770Y-39090D01*
X47920Y-39090D02*
X48020Y-39090D01*
X48170Y-39090D02*
X48310Y-39090D01*
X43870Y-39100D02*
X43940Y-39100D01*
X43970Y-39100D02*
X43980Y-39100D01*
X44020Y-39100D02*
X44090Y-39100D01*
X44150Y-39100D02*
X44780Y-39100D01*
X45080Y-39100D02*
X45530Y-39100D01*
X45590Y-39100D02*
X45730Y-39100D01*
X45780Y-39100D02*
X46220Y-39100D01*
X46340Y-39100D02*
X46440Y-39100D01*
X46510Y-39100D02*
X46940Y-39100D01*
X47180Y-39100D02*
X47290Y-39100D01*
X47380Y-39100D02*
X47770Y-39100D01*
X47920Y-39100D02*
X48020Y-39100D01*
X48180Y-39100D02*
X48320Y-39100D01*
X43870Y-39110D02*
X43940Y-39110D01*
X43970Y-39110D02*
X43980Y-39110D01*
X44010Y-39110D02*
X44080Y-39110D01*
X44140Y-39110D02*
X44780Y-39110D01*
X45080Y-39110D02*
X45530Y-39110D01*
X45590Y-39110D02*
X45740Y-39110D01*
X45790Y-39110D02*
X46220Y-39110D01*
X46340Y-39110D02*
X46440Y-39110D01*
X46510Y-39110D02*
X46940Y-39110D01*
X47180Y-39110D02*
X47300Y-39110D01*
X47390Y-39110D02*
X47780Y-39110D01*
X47920Y-39110D02*
X48020Y-39110D01*
X48190Y-39110D02*
X48330Y-39110D01*
X43870Y-39120D02*
X43940Y-39120D01*
X43970Y-39120D02*
X43980Y-39120D01*
X44000Y-39120D02*
X44070Y-39120D01*
X44130Y-39120D02*
X44780Y-39120D01*
X45070Y-39120D02*
X45540Y-39120D01*
X45600Y-39120D02*
X45740Y-39120D01*
X45800Y-39120D02*
X46220Y-39120D01*
X46340Y-39120D02*
X46440Y-39120D01*
X46510Y-39120D02*
X46940Y-39120D01*
X47190Y-39120D02*
X47300Y-39120D01*
X47400Y-39120D02*
X47780Y-39120D01*
X47920Y-39120D02*
X48020Y-39120D01*
X48190Y-39120D02*
X48340Y-39120D01*
X43870Y-39130D02*
X43930Y-39130D01*
X43970Y-39130D02*
X43980Y-39130D01*
X43990Y-39130D02*
X44060Y-39130D01*
X44120Y-39130D02*
X44780Y-39130D01*
X45070Y-39130D02*
X45540Y-39130D01*
X45600Y-39130D02*
X45750Y-39130D01*
X45800Y-39130D02*
X46210Y-39130D01*
X46340Y-39130D02*
X46440Y-39130D01*
X46510Y-39130D02*
X46930Y-39130D01*
X47190Y-39130D02*
X47300Y-39130D01*
X47420Y-39130D02*
X47780Y-39130D01*
X47920Y-39130D02*
X48020Y-39130D01*
X48200Y-39130D02*
X48340Y-39130D01*
X43870Y-39140D02*
X43920Y-39140D01*
X43970Y-39140D02*
X44050Y-39140D01*
X44110Y-39140D02*
X44770Y-39140D01*
X45070Y-39140D02*
X45540Y-39140D01*
X45610Y-39140D02*
X45750Y-39140D01*
X45820Y-39140D02*
X46200Y-39140D01*
X46340Y-39140D02*
X46440Y-39140D01*
X46510Y-39140D02*
X46930Y-39140D01*
X47190Y-39140D02*
X47310Y-39140D01*
X47430Y-39140D02*
X47790Y-39140D01*
X47920Y-39140D02*
X48020Y-39140D01*
X48210Y-39140D02*
X48350Y-39140D01*
X43870Y-39150D02*
X43910Y-39150D01*
X43970Y-39150D02*
X44040Y-39150D01*
X44100Y-39150D02*
X44760Y-39150D01*
X45610Y-39150D02*
X45760Y-39150D01*
X45830Y-39150D02*
X46180Y-39150D01*
X46340Y-39150D02*
X46440Y-39150D01*
X46510Y-39150D02*
X46930Y-39150D01*
X47200Y-39150D02*
X47310Y-39150D01*
X47450Y-39150D02*
X47790Y-39150D01*
X47920Y-39150D02*
X48020Y-39150D01*
X48220Y-39150D02*
X48360Y-39150D01*
X43870Y-39160D02*
X43900Y-39160D01*
X43970Y-39160D02*
X44030Y-39160D01*
X44090Y-39160D02*
X44750Y-39160D01*
X45620Y-39160D02*
X45760Y-39160D01*
X45840Y-39160D02*
X46170Y-39160D01*
X46340Y-39160D02*
X46440Y-39160D01*
X46510Y-39160D02*
X46920Y-39160D01*
X47200Y-39160D02*
X47310Y-39160D01*
X47460Y-39160D02*
X47760Y-39160D01*
X47920Y-39160D02*
X48020Y-39160D01*
X48230Y-39160D02*
X48370Y-39160D01*
X43970Y-39170D02*
X44020Y-39170D01*
X44080Y-39170D02*
X44740Y-39170D01*
X45620Y-39170D02*
X45770Y-39170D01*
X45860Y-39170D02*
X46150Y-39170D01*
X46340Y-39170D02*
X46440Y-39170D01*
X46510Y-39170D02*
X46920Y-39170D01*
X47210Y-39170D02*
X47320Y-39170D01*
X47490Y-39170D02*
X47730Y-39170D01*
X47920Y-39170D02*
X48020Y-39170D01*
X48240Y-39170D02*
X48380Y-39170D01*
X43970Y-39180D02*
X44010Y-39180D01*
X44070Y-39180D02*
X44730Y-39180D01*
X45630Y-39180D02*
X45770Y-39180D01*
X45890Y-39180D02*
X46120Y-39180D01*
X47520Y-39180D02*
X47690Y-39180D01*
X43970Y-39190D02*
X44000Y-39190D01*
X44060Y-39190D02*
X44720Y-39190D01*
X45630Y-39190D02*
X45780Y-39190D01*
X45920Y-39190D02*
X46090Y-39190D01*
X43970Y-39200D02*
X43990Y-39200D01*
X44050Y-39200D02*
X44710Y-39200D01*
X45640Y-39200D02*
X45780Y-39200D01*
X43970Y-39210D02*
X43980Y-39210D01*
X44040Y-39210D02*
X44700Y-39210D01*
X44960Y-39210D02*
X45540Y-39210D01*
X45640Y-39210D02*
X45790Y-39210D01*
X43970Y-39220D02*
X43980Y-39220D01*
X44030Y-39220D02*
X44690Y-39220D01*
X44960Y-39220D02*
X45540Y-39220D01*
X45650Y-39220D02*
X45790Y-39220D01*
X43970Y-39230D02*
X43980Y-39230D01*
X44020Y-39230D02*
X44680Y-39230D01*
X44960Y-39230D02*
X45540Y-39230D01*
X45650Y-39230D02*
X45800Y-39230D01*
X43970Y-39240D02*
X43980Y-39240D01*
X44010Y-39240D02*
X44670Y-39240D01*
X44960Y-39240D02*
X45540Y-39240D01*
X45660Y-39240D02*
X45800Y-39240D01*
X43970Y-39250D02*
X43980Y-39250D01*
X44000Y-39250D02*
X44660Y-39250D01*
X44960Y-39250D02*
X45540Y-39250D01*
X45660Y-39250D02*
X45810Y-39250D01*
X43970Y-39260D02*
X43980Y-39260D01*
X43990Y-39260D02*
X44650Y-39260D01*
X44960Y-39260D02*
X45540Y-39260D01*
X45670Y-39260D02*
X45820Y-39260D01*
X43970Y-39270D02*
X44640Y-39270D01*
X44960Y-39270D02*
X45540Y-39270D01*
X45670Y-39270D02*
X45820Y-39270D01*
X43970Y-39280D02*
X44630Y-39280D01*
X44960Y-39280D02*
X45540Y-39280D01*
X45680Y-39280D02*
X45830Y-39280D01*
X43970Y-39290D02*
X44620Y-39290D01*
X44960Y-39290D02*
X45540Y-39290D01*
X45680Y-39290D02*
X45830Y-39290D01*
X44960Y-39300D02*
X45540Y-39300D01*
X45690Y-39300D02*
X45840Y-39300D01*
X45690Y-39310D02*
X45840Y-39310D01*
X45700Y-39320D02*
X45850Y-39320D01*
X45700Y-39330D02*
X45850Y-39330D01*
X45710Y-39340D02*
X45860Y-39340D01*
X45710Y-39350D02*
X45860Y-39350D01*
X45720Y-39360D02*
X45870Y-39360D01*
X45720Y-39370D02*
X45870Y-39370D01*
X45730Y-39380D02*
X45880Y-39380D01*
X40370Y-42280D02*
X40470Y-42280D01*
X40310Y-42290D02*
X40560Y-42290D01*
X40310Y-42300D02*
X40560Y-42300D01*
X40300Y-42310D02*
X40570Y-42310D01*
X40300Y-42320D02*
X40570Y-42320D01*
X40300Y-42330D02*
X40570Y-42330D01*
X40300Y-42340D02*
X40570Y-42340D01*
X40300Y-42350D02*
X40570Y-42350D01*
X40300Y-42360D02*
X40570Y-42360D01*
X40290Y-42370D02*
X40580Y-42370D01*
X40290Y-42380D02*
X40580Y-42380D01*
X40290Y-42390D02*
X40580Y-42390D01*
X40290Y-42400D02*
X40580Y-42400D01*
X40290Y-42410D02*
X40580Y-42410D01*
X40280Y-42420D02*
X40580Y-42420D01*
X40280Y-42430D02*
X40590Y-42430D01*
X40280Y-42440D02*
X40590Y-42440D01*
X40280Y-42450D02*
X40590Y-42450D01*
X40280Y-42460D02*
X40590Y-42460D01*
X39870Y-42470D02*
X39900Y-42470D01*
X40280Y-42470D02*
X40590Y-42470D01*
X40960Y-42470D02*
X41000Y-42470D01*
X39860Y-42480D02*
X39910Y-42480D01*
X40270Y-42480D02*
X40590Y-42480D01*
X40940Y-42480D02*
X41010Y-42480D01*
X39850Y-42490D02*
X39930Y-42490D01*
X40270Y-42490D02*
X40590Y-42490D01*
X40930Y-42490D02*
X41020Y-42490D01*
X39830Y-42500D02*
X39940Y-42500D01*
X40270Y-42500D02*
X40600Y-42500D01*
X40910Y-42500D02*
X41040Y-42500D01*
X39820Y-42510D02*
X39960Y-42510D01*
X40270Y-42510D02*
X40600Y-42510D01*
X40900Y-42510D02*
X41050Y-42510D01*
X39810Y-42520D02*
X39970Y-42520D01*
X40270Y-42520D02*
X40600Y-42520D01*
X40880Y-42520D02*
X41060Y-42520D01*
X39800Y-42530D02*
X39980Y-42530D01*
X40260Y-42530D02*
X40600Y-42530D01*
X40870Y-42530D02*
X41070Y-42530D01*
X39790Y-42540D02*
X40000Y-42540D01*
X40230Y-42540D02*
X40640Y-42540D01*
X40850Y-42540D02*
X41080Y-42540D01*
X39780Y-42550D02*
X40010Y-42550D01*
X40200Y-42550D02*
X40670Y-42550D01*
X40840Y-42550D02*
X41090Y-42550D01*
X39770Y-42560D02*
X40030Y-42560D01*
X40170Y-42560D02*
X40690Y-42560D01*
X40820Y-42560D02*
X41100Y-42560D01*
X39760Y-42570D02*
X40040Y-42570D01*
X40150Y-42570D02*
X40720Y-42570D01*
X40810Y-42570D02*
X41110Y-42570D01*
X39750Y-42580D02*
X40050Y-42580D01*
X40130Y-42580D02*
X40740Y-42580D01*
X40800Y-42580D02*
X41120Y-42580D01*
X39740Y-42590D02*
X40070Y-42590D01*
X40110Y-42590D02*
X40760Y-42590D01*
X40780Y-42590D02*
X41130Y-42590D01*
X39730Y-42600D02*
X40080Y-42600D01*
X40090Y-42600D02*
X41140Y-42600D01*
X39720Y-42610D02*
X41140Y-42610D01*
X39720Y-42620D02*
X41150Y-42620D01*
X39710Y-42630D02*
X41150Y-42630D01*
X39710Y-42640D02*
X41150Y-42640D01*
X39720Y-42650D02*
X41150Y-42650D01*
X39720Y-42660D02*
X41140Y-42660D01*
X39730Y-42670D02*
X41140Y-42670D01*
X39740Y-42680D02*
X41130Y-42680D01*
X39740Y-42690D02*
X41120Y-42690D01*
X39750Y-42700D02*
X41110Y-42700D01*
X39760Y-42710D02*
X41110Y-42710D01*
X39770Y-42720D02*
X41100Y-42720D01*
X39770Y-42730D02*
X41090Y-42730D01*
X39780Y-42740D02*
X41090Y-42740D01*
X39790Y-42750D02*
X41080Y-42750D01*
X39790Y-42760D02*
X41070Y-42760D01*
X39800Y-42770D02*
X41060Y-42770D01*
X39810Y-42780D02*
X41060Y-42780D01*
X39810Y-42790D02*
X41050Y-42790D01*
X39820Y-42800D02*
X41040Y-42800D01*
X39830Y-42810D02*
X41030Y-42810D01*
X39830Y-42820D02*
X41030Y-42820D01*
X39840Y-42830D02*
X41020Y-42830D01*
X39840Y-42840D02*
X41020Y-42840D01*
X39840Y-42850D02*
X41030Y-42850D01*
X39830Y-42860D02*
X41040Y-42860D01*
X39830Y-42870D02*
X41040Y-42870D01*
X39820Y-42880D02*
X41050Y-42880D01*
X39820Y-42890D02*
X41050Y-42890D01*
X39810Y-42900D02*
X41060Y-42900D01*
X39810Y-42910D02*
X41060Y-42910D01*
X39800Y-42920D02*
X41070Y-42920D01*
X39800Y-42930D02*
X41070Y-42930D01*
X39790Y-42940D02*
X41070Y-42940D01*
X39790Y-42950D02*
X40390Y-42950D01*
X40480Y-42950D02*
X41080Y-42950D01*
X39790Y-42960D02*
X40360Y-42960D01*
X40510Y-42960D02*
X41080Y-42960D01*
X39780Y-42970D02*
X40330Y-42970D01*
X40540Y-42970D02*
X41090Y-42970D01*
X39780Y-42980D02*
X40310Y-42980D01*
X40560Y-42980D02*
X41090Y-42980D01*
X39780Y-42990D02*
X40300Y-42990D01*
X40570Y-42990D02*
X41090Y-42990D01*
X39770Y-43000D02*
X40280Y-43000D01*
X40590Y-43000D02*
X41100Y-43000D01*
X39770Y-43010D02*
X40270Y-43010D01*
X40600Y-43010D02*
X41130Y-43010D01*
X39770Y-43020D02*
X40260Y-43020D01*
X40610Y-43020D02*
X41190Y-43020D01*
X39760Y-43030D02*
X40250Y-43030D01*
X40620Y-43030D02*
X41240Y-43030D01*
X39700Y-43040D02*
X40240Y-43040D01*
X40630Y-43040D02*
X41300Y-43040D01*
X39640Y-43050D02*
X40240Y-43050D01*
X40630Y-43050D02*
X41340Y-43050D01*
X39580Y-43060D02*
X40230Y-43060D01*
X40640Y-43060D02*
X41340Y-43060D01*
X39530Y-43070D02*
X40220Y-43070D01*
X40650Y-43070D02*
X41350Y-43070D01*
X39520Y-43080D02*
X40220Y-43080D01*
X40650Y-43080D02*
X41350Y-43080D01*
X39520Y-43090D02*
X40210Y-43090D01*
X40660Y-43090D02*
X41350Y-43090D01*
X39520Y-43100D02*
X40210Y-43100D01*
X40660Y-43100D02*
X41350Y-43100D01*
X39520Y-43110D02*
X40200Y-43110D01*
X40670Y-43110D02*
X41350Y-43110D01*
X39520Y-43120D02*
X40200Y-43120D01*
X40670Y-43120D02*
X41350Y-43120D01*
X39520Y-43130D02*
X40200Y-43130D01*
X40670Y-43130D02*
X41350Y-43130D01*
X39520Y-43140D02*
X40200Y-43140D01*
X40680Y-43140D02*
X41350Y-43140D01*
X39520Y-43150D02*
X40190Y-43150D01*
X40680Y-43150D02*
X41350Y-43150D01*
X39520Y-43160D02*
X40190Y-43160D01*
X40680Y-43160D02*
X41360Y-43160D01*
X39510Y-43170D02*
X40190Y-43170D01*
X40680Y-43170D02*
X41360Y-43170D01*
X39510Y-43180D02*
X40190Y-43180D01*
X40680Y-43180D02*
X41360Y-43180D01*
X39510Y-43190D02*
X40190Y-43190D01*
X40680Y-43190D02*
X41360Y-43190D01*
X39510Y-43200D02*
X40190Y-43200D01*
X40680Y-43200D02*
X41360Y-43200D01*
X39510Y-43210D02*
X40190Y-43210D01*
X40680Y-43210D02*
X41360Y-43210D01*
X39510Y-43220D02*
X40190Y-43220D01*
X40680Y-43220D02*
X41360Y-43220D01*
X39510Y-43230D02*
X40190Y-43230D01*
X40680Y-43230D02*
X41360Y-43230D01*
X39510Y-43240D02*
X40190Y-43240D01*
X40680Y-43240D02*
X41360Y-43240D01*
X39510Y-43250D02*
X40200Y-43250D01*
X40680Y-43250D02*
X41360Y-43250D01*
X39520Y-43260D02*
X40200Y-43260D01*
X40670Y-43260D02*
X41360Y-43260D01*
X39520Y-43270D02*
X40200Y-43270D01*
X40670Y-43270D02*
X41350Y-43270D01*
X39520Y-43280D02*
X40210Y-43280D01*
X40670Y-43280D02*
X41350Y-43280D01*
X39520Y-43290D02*
X40210Y-43290D01*
X40660Y-43290D02*
X41350Y-43290D01*
X39520Y-43300D02*
X40210Y-43300D01*
X40660Y-43300D02*
X41340Y-43300D01*
X39520Y-43310D02*
X40220Y-43310D01*
X40650Y-43310D02*
X41280Y-43310D01*
X39560Y-43320D02*
X40230Y-43320D01*
X40650Y-43320D02*
X41220Y-43320D01*
X39610Y-43330D02*
X40230Y-43330D01*
X40640Y-43330D02*
X41150Y-43330D01*
X39670Y-43340D02*
X40240Y-43340D01*
X40630Y-43340D02*
X41110Y-43340D01*
X39720Y-43350D02*
X40250Y-43350D01*
X40620Y-43350D02*
X41110Y-43350D01*
X39760Y-43360D02*
X40260Y-43360D01*
X40620Y-43360D02*
X41110Y-43360D01*
X39770Y-43370D02*
X40260Y-43370D01*
X40610Y-43370D02*
X41100Y-43370D01*
X39770Y-43380D02*
X40280Y-43380D01*
X40590Y-43380D02*
X41100Y-43380D01*
X39770Y-43390D02*
X40290Y-43390D01*
X40580Y-43390D02*
X41100Y-43390D01*
X39770Y-43400D02*
X40300Y-43400D01*
X40570Y-43400D02*
X41100Y-43400D01*
X39780Y-43410D02*
X40320Y-43410D01*
X40550Y-43410D02*
X41090Y-43410D01*
X39780Y-43420D02*
X40340Y-43420D01*
X40530Y-43420D02*
X41090Y-43420D01*
X39780Y-43430D02*
X40350Y-43430D01*
X40530Y-43430D02*
X41090Y-43430D01*
X39790Y-43440D02*
X40350Y-43440D01*
X40530Y-43440D02*
X41080Y-43440D01*
X39790Y-43450D02*
X40350Y-43450D01*
X40530Y-43450D02*
X41080Y-43450D01*
X39790Y-43460D02*
X40340Y-43460D01*
X40540Y-43460D02*
X41070Y-43460D01*
X39800Y-43470D02*
X40340Y-43470D01*
X40540Y-43470D02*
X41070Y-43470D01*
X39800Y-43480D02*
X40340Y-43480D01*
X40540Y-43480D02*
X41070Y-43480D01*
X39810Y-43490D02*
X40330Y-43490D01*
X40550Y-43490D02*
X41060Y-43490D01*
X39810Y-43500D02*
X40330Y-43500D01*
X40550Y-43500D02*
X41060Y-43500D01*
X39820Y-43510D02*
X40320Y-43510D01*
X40560Y-43510D02*
X41050Y-43510D01*
X39820Y-43520D02*
X40320Y-43520D01*
X40560Y-43520D02*
X41050Y-43520D01*
X39830Y-43530D02*
X40320Y-43530D01*
X40560Y-43530D02*
X41040Y-43530D01*
X39830Y-43540D02*
X40310Y-43540D01*
X40570Y-43540D02*
X41050Y-43540D01*
X39840Y-43550D02*
X40310Y-43550D01*
X40570Y-43550D02*
X41050Y-43550D01*
X39840Y-43560D02*
X40310Y-43560D01*
X40580Y-43560D02*
X41060Y-43560D01*
X39840Y-43570D02*
X40300Y-43570D01*
X40580Y-43570D02*
X41070Y-43570D01*
X39840Y-43580D02*
X40300Y-43580D01*
X40580Y-43580D02*
X41080Y-43580D01*
X39830Y-43590D02*
X40300Y-43590D01*
X40590Y-43590D02*
X41080Y-43590D01*
X39820Y-43600D02*
X40290Y-43600D01*
X40590Y-43600D02*
X41090Y-43600D01*
X39810Y-43610D02*
X40290Y-43610D01*
X40590Y-43610D02*
X41100Y-43610D01*
X39810Y-43620D02*
X40290Y-43620D01*
X40600Y-43620D02*
X41100Y-43620D01*
X39800Y-43630D02*
X40280Y-43630D01*
X40600Y-43630D02*
X41110Y-43630D01*
X39790Y-43640D02*
X40280Y-43640D01*
X40610Y-43640D02*
X41120Y-43640D01*
X39780Y-43650D02*
X40280Y-43650D01*
X40610Y-43650D02*
X41120Y-43650D01*
X39780Y-43660D02*
X40270Y-43660D01*
X40610Y-43660D02*
X41130Y-43660D01*
X39770Y-43670D02*
X40270Y-43670D01*
X40620Y-43670D02*
X41140Y-43670D01*
X39760Y-43680D02*
X40260Y-43680D01*
X40620Y-43680D02*
X41140Y-43680D01*
X39760Y-43690D02*
X40260Y-43690D01*
X40630Y-43690D02*
X41150Y-43690D01*
X39750Y-43700D02*
X40260Y-43700D01*
X40630Y-43700D02*
X41160Y-43700D01*
X39740Y-43710D02*
X40250Y-43710D01*
X40630Y-43710D02*
X41170Y-43710D01*
X39730Y-43720D02*
X40250Y-43720D01*
X40640Y-43720D02*
X41170Y-43720D01*
X39730Y-43730D02*
X40250Y-43730D01*
X40640Y-43730D02*
X41180Y-43730D01*
X39720Y-43740D02*
X40240Y-43740D01*
X40650Y-43740D02*
X41180Y-43740D01*
X39710Y-43750D02*
X40240Y-43750D01*
X40650Y-43750D02*
X41180Y-43750D01*
X39710Y-43760D02*
X40240Y-43760D01*
X40650Y-43760D02*
X41170Y-43760D01*
X39710Y-43770D02*
X40230Y-43770D01*
X40660Y-43770D02*
X41160Y-43770D01*
X39710Y-43780D02*
X40230Y-43780D01*
X40660Y-43780D02*
X41150Y-43780D01*
X39720Y-43790D02*
X40230Y-43790D01*
X40660Y-43790D02*
X41140Y-43790D01*
X39730Y-43800D02*
X40220Y-43800D01*
X40670Y-43800D02*
X41140Y-43800D01*
X39740Y-43810D02*
X40220Y-43810D01*
X40670Y-43810D02*
X40810Y-43810D01*
X40830Y-43810D02*
X41130Y-43810D01*
X39750Y-43820D02*
X40220Y-43820D01*
X40680Y-43820D02*
X40780Y-43820D01*
X40860Y-43820D02*
X41120Y-43820D01*
X39760Y-43830D02*
X40060Y-43830D01*
X40110Y-43830D02*
X40210Y-43830D01*
X40680Y-43830D02*
X40760Y-43830D01*
X40870Y-43830D02*
X41110Y-43830D01*
X39770Y-43840D02*
X40040Y-43840D01*
X40140Y-43840D02*
X40210Y-43840D01*
X40680Y-43840D02*
X40740Y-43840D01*
X40880Y-43840D02*
X41100Y-43840D01*
X39780Y-43850D02*
X40020Y-43850D01*
X40160Y-43850D02*
X40200Y-43850D01*
X40690Y-43850D02*
X40720Y-43850D01*
X40890Y-43850D02*
X41110Y-43850D01*
X39790Y-43860D02*
X40010Y-43860D01*
X40180Y-43860D02*
X40200Y-43860D01*
X40690Y-43860D02*
X40700Y-43860D01*
X40890Y-43860D02*
X41110Y-43860D01*
X39800Y-43870D02*
X39990Y-43870D01*
X40910Y-43870D02*
X41110Y-43870D01*
X39810Y-43880D02*
X39980Y-43880D01*
X40920Y-43880D02*
X41110Y-43880D01*
X39810Y-43890D02*
X39960Y-43890D01*
X40930Y-43890D02*
X41110Y-43890D01*
X39810Y-43900D02*
X39950Y-43900D01*
X40950Y-43900D02*
X41110Y-43900D01*
X39810Y-43910D02*
X39940Y-43910D01*
X40970Y-43910D02*
X41100Y-43910D01*
X39820Y-43920D02*
X39930Y-43920D01*
X40990Y-43920D02*
X41100Y-43920D01*
X39820Y-43930D02*
X39920Y-43930D01*
X41000Y-43930D02*
X41090Y-43930D01*
X39830Y-43940D02*
X39920Y-43940D01*
X41010Y-43940D02*
X41090Y-43940D01*
X39840Y-43950D02*
X39910Y-43950D01*
X41020Y-43950D02*
X41080Y-43950D01*
X39850Y-43960D02*
X39910Y-43960D01*
X41030Y-43960D02*
X41070Y-43960D01*
X39860Y-43970D02*
X39900Y-43970D01*
X41040Y-43970D02*
X41060Y-43970D01*
X39870Y-43980D02*
X39900Y-43980D01*
G54D13*
X51420Y-41060D02*
X51420Y-40160D01*
X51420Y-40160D02*
X51920Y-40160D01*
X51920Y-40160D02*
X51920Y-41060D01*
X51920Y-41060D02*
X51420Y-41060D01*
X51210Y-41310D02*
X52110Y-41310D01*
X52110Y-41310D02*
X52110Y-41810D01*
X52110Y-41810D02*
X51210Y-41810D01*
X51210Y-41810D02*
X51210Y-41310D01*
X52110Y-42410D02*
X51210Y-42410D01*
X51210Y-42410D02*
X51210Y-41910D01*
X51210Y-41910D02*
X52110Y-41910D01*
X52110Y-41910D02*
X52110Y-42410D01*
G54D16*
X52170Y-40190D02*
X54930Y-40190D01*
X54930Y-40190D02*
X54930Y-41730D01*
X54930Y-41730D02*
X52170Y-41730D01*
X52170Y-41730D02*
X52170Y-40190D01*
G54D13*
X48050Y-31660D02*
X48950Y-31660D01*
X48950Y-31660D02*
X48950Y-32160D01*
X48950Y-32160D02*
X48050Y-32160D01*
X48050Y-32160D02*
X48050Y-31660D01*
X42090Y-40140D02*
X41190Y-40140D01*
X41190Y-40140D02*
X41190Y-39640D01*
X41190Y-39640D02*
X42090Y-39640D01*
X42090Y-39640D02*
X42090Y-40140D01*
X44490Y-39790D02*
X44490Y-40690D01*
X44490Y-40690D02*
X43990Y-40690D01*
X43990Y-40690D02*
X43990Y-39790D01*
X43990Y-39790D02*
X44490Y-39790D01*
X45110Y-39790D02*
X45110Y-40690D01*
X45110Y-40690D02*
X44610Y-40690D01*
X44610Y-40690D02*
X44610Y-39790D01*
X44610Y-39790D02*
X45110Y-39790D01*
X50950Y-40190D02*
X50050Y-40190D01*
X50050Y-40190D02*
X50050Y-39690D01*
X50050Y-39690D02*
X50950Y-39690D01*
X50950Y-39690D02*
X50950Y-40190D01*
G54D15*
X43650Y-35800D02*
X43650Y-36800D01*
X43650Y-36800D02*
X41650Y-36800D01*
X41650Y-36800D02*
X41650Y-35800D01*
X41650Y-35800D02*
X43650Y-35800D01*
X41780Y-41010D02*
X41780Y-42010D01*
X41780Y-42010D02*
X39780Y-42010D01*
X39780Y-42010D02*
X39780Y-41010D01*
X39780Y-41010D02*
X41780Y-41010D01*
X72330Y-37548D02*
X65007Y-37548D01*
X72370Y-37548D02*
X72370Y-31311D01*
X65007Y-31311D02*
X72330Y-31311D01*
X65007Y-37548D02*
X65007Y-31311D01*
G54D13*
X44490Y-40790D02*
X44490Y-41690D01*
X44490Y-41690D02*
X43990Y-41690D01*
X43990Y-41690D02*
X43990Y-40790D01*
X43990Y-40790D02*
X44490Y-40790D01*
X45110Y-40790D02*
X45110Y-41690D01*
X45110Y-41690D02*
X44610Y-41690D01*
X44610Y-41690D02*
X44610Y-40790D01*
X44610Y-40790D02*
X45110Y-40790D01*
X47610Y-36890D02*
X47610Y-35990D01*
X47610Y-35990D02*
X48110Y-35990D01*
X48110Y-35990D02*
X48110Y-36890D01*
X48110Y-36890D02*
X47610Y-36890D01*
G54D18*
X70553Y-39999D02*
X72837Y-39999D01*
X72837Y-39999D02*
X72837Y-41180D01*
X72837Y-41180D02*
X70553Y-41180D01*
X70553Y-39212D02*
X69035Y-39212D01*
X70750Y-39960D02*
X70750Y-39448D01*
X70553Y-39448D02*
X70750Y-39448D01*
X70553Y-39960D02*
X70750Y-39960D01*
X70553Y-41967D02*
X69035Y-41967D01*
X67975Y-39212D02*
X68095Y-39212D01*
X67975Y-41967D02*
X68095Y-41967D01*
X67975Y-41967D02*
X67975Y-39212D01*
X70750Y-41219D02*
X70553Y-41219D01*
X70750Y-41731D02*
X70553Y-41731D01*
X70750Y-41219D02*
X70750Y-41731D01*
X70553Y-41967D02*
X70553Y-39212D01*
G54D13*
X67360Y-40240D02*
X66460Y-40240D01*
X66460Y-40240D02*
X66460Y-39740D01*
X66460Y-39740D02*
X67360Y-39740D01*
X67360Y-39740D02*
X67360Y-40240D01*
G54D18*
X37790Y-44376D02*
X41412Y-44376D01*
X41412Y-44376D02*
X41412Y-47723D01*
X41412Y-47723D02*
X37790Y-47723D01*
X37790Y-44376D02*
X37790Y-47723D01*
G54D13*
X44150Y-45250D02*
X44150Y-45200D01*
X44150Y-45200D02*
X42050Y-45200D01*
X42050Y-46700D02*
X44150Y-46700D01*
X44150Y-46700D02*
X44150Y-45250D01*
X44150Y-46150D02*
X43950Y-46150D01*
X43950Y-46150D02*
X43950Y-45750D01*
X43950Y-45750D02*
X44150Y-45750D01*
X42050Y-46700D02*
X42050Y-45200D01*
X50200Y-44660D02*
X50200Y-45560D01*
X50200Y-45560D02*
X49700Y-45560D01*
X49700Y-45560D02*
X49700Y-44660D01*
X49700Y-44660D02*
X50200Y-44660D01*
G54D20*
X48460Y-46450D02*
X47960Y-46450D01*
X47960Y-46450D02*
X47960Y-45450D01*
X47960Y-45450D02*
X48460Y-45450D01*
X48460Y-46950D02*
X44460Y-46950D01*
X44460Y-46950D02*
X44460Y-44950D01*
X44460Y-44950D02*
X48460Y-44950D01*
X48460Y-44950D02*
X48460Y-46950D01*
G54D16*
X60021Y-37185D02*
X60192Y-37185D01*
X60107Y-37485D02*
X60107Y-37185D01*
X60450Y-37485D02*
X60278Y-37485D01*
X60364Y-37485D02*
X60364Y-37185D01*
X60335Y-37228D01*
X60307Y-37257D01*
X60278Y-37271D01*
X62129Y-37515D02*
X62029Y-37372D01*
X61957Y-37515D02*
X61957Y-37215D01*
X62072Y-37215D01*
X62100Y-37230D01*
X62115Y-37244D01*
X62129Y-37272D01*
X62129Y-37315D01*
X62115Y-37344D01*
X62100Y-37358D01*
X62072Y-37372D01*
X61957Y-37372D01*
X62243Y-37244D02*
X62257Y-37230D01*
X62286Y-37215D01*
X62357Y-37215D01*
X62386Y-37230D01*
X62400Y-37244D01*
X62415Y-37272D01*
X62415Y-37301D01*
X62400Y-37344D01*
X62229Y-37515D01*
X62415Y-37515D01*
X62600Y-37215D02*
X62629Y-37215D01*
X62657Y-37230D01*
X62672Y-37244D01*
X62686Y-37272D01*
X62700Y-37330D01*
X62700Y-37401D01*
X62686Y-37458D01*
X62672Y-37487D01*
X62657Y-37501D01*
X62629Y-37515D01*
X62600Y-37515D01*
X62572Y-37501D01*
X62557Y-37487D01*
X62543Y-37458D01*
X62529Y-37401D01*
X62529Y-37330D01*
X62543Y-37272D01*
X62557Y-37244D01*
X62572Y-37230D01*
X62600Y-37215D01*
X62800Y-37215D02*
X63000Y-37215D01*
X62872Y-37515D01*
X62129Y-31615D02*
X62029Y-31472D01*
X61957Y-31615D02*
X61957Y-31315D01*
X62072Y-31315D01*
X62100Y-31330D01*
X62115Y-31344D01*
X62129Y-31372D01*
X62129Y-31415D01*
X62115Y-31444D01*
X62100Y-31458D01*
X62072Y-31472D01*
X61957Y-31472D01*
X62243Y-31344D02*
X62257Y-31330D01*
X62286Y-31315D01*
X62357Y-31315D01*
X62386Y-31330D01*
X62400Y-31344D01*
X62415Y-31372D01*
X62415Y-31401D01*
X62400Y-31444D01*
X62229Y-31615D01*
X62415Y-31615D01*
X62600Y-31315D02*
X62629Y-31315D01*
X62657Y-31330D01*
X62672Y-31344D01*
X62686Y-31372D01*
X62700Y-31430D01*
X62700Y-31501D01*
X62686Y-31558D01*
X62672Y-31587D01*
X62657Y-31601D01*
X62629Y-31615D01*
X62600Y-31615D01*
X62572Y-31601D01*
X62557Y-31587D01*
X62543Y-31558D01*
X62529Y-31501D01*
X62529Y-31430D01*
X62543Y-31372D01*
X62557Y-31344D01*
X62572Y-31330D01*
X62600Y-31315D01*
X62872Y-31444D02*
X62843Y-31430D01*
X62829Y-31415D01*
X62815Y-31387D01*
X62815Y-31372D01*
X62829Y-31344D01*
X62843Y-31330D01*
X62872Y-31315D01*
X62929Y-31315D01*
X62957Y-31330D01*
X62972Y-31344D01*
X62986Y-31372D01*
X62986Y-31387D01*
X62972Y-31415D01*
X62957Y-31430D01*
X62929Y-31444D01*
X62872Y-31444D01*
X62843Y-31458D01*
X62829Y-31472D01*
X62815Y-31501D01*
X62815Y-31558D01*
X62829Y-31587D01*
X62843Y-31601D01*
X62872Y-31615D01*
X62929Y-31615D01*
X62957Y-31601D01*
X62972Y-31587D01*
X62986Y-31558D01*
X62986Y-31501D01*
X62972Y-31472D01*
X62957Y-31458D01*
X62929Y-31444D01*
X63604Y-37980D02*
X63504Y-37837D01*
X63432Y-37980D02*
X63432Y-37680D01*
X63547Y-37680D01*
X63575Y-37695D01*
X63590Y-37709D01*
X63604Y-37737D01*
X63604Y-37780D01*
X63590Y-37809D01*
X63575Y-37823D01*
X63547Y-37837D01*
X63432Y-37837D01*
X63718Y-37709D02*
X63732Y-37695D01*
X63761Y-37680D01*
X63832Y-37680D01*
X63861Y-37695D01*
X63875Y-37709D01*
X63890Y-37737D01*
X63890Y-37766D01*
X63875Y-37809D01*
X63704Y-37980D01*
X63890Y-37980D01*
X64075Y-37680D02*
X64104Y-37680D01*
X64132Y-37695D01*
X64147Y-37709D01*
X64161Y-37737D01*
X64175Y-37795D01*
X64175Y-37866D01*
X64161Y-37923D01*
X64147Y-37952D01*
X64132Y-37966D01*
X64104Y-37980D01*
X64075Y-37980D01*
X64047Y-37966D01*
X64032Y-37952D01*
X64018Y-37923D01*
X64004Y-37866D01*
X64004Y-37795D01*
X64018Y-37737D01*
X64032Y-37709D01*
X64047Y-37695D01*
X64075Y-37680D01*
X64318Y-37980D02*
X64375Y-37980D01*
X64404Y-37966D01*
X64418Y-37952D01*
X64447Y-37909D01*
X64461Y-37852D01*
X64461Y-37737D01*
X64447Y-37709D01*
X64432Y-37695D01*
X64404Y-37680D01*
X64347Y-37680D01*
X64318Y-37695D01*
X64304Y-37709D01*
X64290Y-37737D01*
X64290Y-37809D01*
X64304Y-37837D01*
X64318Y-37852D01*
X64347Y-37866D01*
X64404Y-37866D01*
X64432Y-37852D01*
X64447Y-37837D01*
X64461Y-37809D01*
X63604Y-32245D02*
X63504Y-32102D01*
X63432Y-32245D02*
X63432Y-31945D01*
X63547Y-31945D01*
X63575Y-31960D01*
X63590Y-31974D01*
X63604Y-32002D01*
X63604Y-32045D01*
X63590Y-32074D01*
X63575Y-32088D01*
X63547Y-32102D01*
X63432Y-32102D01*
X63718Y-31974D02*
X63732Y-31960D01*
X63761Y-31945D01*
X63832Y-31945D01*
X63861Y-31960D01*
X63875Y-31974D01*
X63890Y-32002D01*
X63890Y-32031D01*
X63875Y-32074D01*
X63704Y-32245D01*
X63890Y-32245D01*
X64175Y-32245D02*
X64004Y-32245D01*
X64090Y-32245D02*
X64090Y-31945D01*
X64061Y-31988D01*
X64032Y-32017D01*
X64004Y-32031D01*
X64361Y-31945D02*
X64390Y-31945D01*
X64418Y-31960D01*
X64432Y-31974D01*
X64447Y-32002D01*
X64461Y-32060D01*
X64461Y-32131D01*
X64447Y-32188D01*
X64432Y-32217D01*
X64418Y-32231D01*
X64390Y-32245D01*
X64361Y-32245D01*
X64332Y-32231D01*
X64318Y-32217D01*
X64304Y-32188D01*
X64290Y-32131D01*
X64290Y-32060D01*
X64304Y-32002D01*
X64318Y-31974D01*
X64332Y-31960D01*
X64361Y-31945D01*
X52365Y-31405D02*
X52365Y-31648D01*
X52380Y-31677D01*
X52394Y-31691D01*
X52422Y-31705D01*
X52480Y-31705D01*
X52508Y-31691D01*
X52522Y-31677D01*
X52537Y-31648D01*
X52537Y-31405D01*
X52665Y-31434D02*
X52680Y-31420D01*
X52708Y-31405D01*
X52780Y-31405D01*
X52808Y-31420D01*
X52822Y-31434D01*
X52837Y-31462D01*
X52837Y-31491D01*
X52822Y-31534D01*
X52651Y-31705D01*
X52837Y-31705D01*
X53022Y-31405D02*
X53051Y-31405D01*
X53080Y-31420D01*
X53094Y-31434D01*
X53108Y-31462D01*
X53122Y-31520D01*
X53122Y-31591D01*
X53108Y-31648D01*
X53094Y-31677D01*
X53080Y-31691D01*
X53051Y-31705D01*
X53022Y-31705D01*
X52994Y-31691D01*
X52980Y-31677D01*
X52965Y-31648D01*
X52951Y-31591D01*
X52951Y-31520D01*
X52965Y-31462D01*
X52980Y-31434D01*
X52994Y-31420D01*
X53022Y-31405D01*
X53408Y-31705D02*
X53237Y-31705D01*
X53322Y-31705D02*
X53322Y-31405D01*
X53294Y-31448D01*
X53265Y-31477D01*
X53237Y-31491D01*
X58306Y-34810D02*
X58293Y-34823D01*
X58253Y-34836D01*
X58226Y-34836D01*
X58186Y-34823D01*
X58160Y-34796D01*
X58146Y-34770D01*
X58133Y-34716D01*
X58133Y-34676D01*
X58146Y-34623D01*
X58160Y-34596D01*
X58186Y-34570D01*
X58226Y-34556D01*
X58253Y-34556D01*
X58293Y-34570D01*
X58306Y-34583D01*
X58413Y-34583D02*
X58426Y-34570D01*
X58453Y-34556D01*
X58520Y-34556D01*
X58546Y-34570D01*
X58560Y-34583D01*
X58573Y-34610D01*
X58573Y-34636D01*
X58560Y-34676D01*
X58400Y-34836D01*
X58573Y-34836D01*
X58746Y-34556D02*
X58773Y-34556D01*
X58800Y-34570D01*
X58813Y-34583D01*
X58826Y-34610D01*
X58840Y-34663D01*
X58840Y-34730D01*
X58826Y-34783D01*
X58813Y-34810D01*
X58800Y-34823D01*
X58773Y-34836D01*
X58746Y-34836D01*
X58720Y-34823D01*
X58706Y-34810D01*
X58693Y-34783D01*
X58680Y-34730D01*
X58680Y-34663D01*
X58693Y-34610D01*
X58706Y-34583D01*
X58720Y-34570D01*
X58746Y-34556D01*
X59106Y-34836D02*
X58946Y-34836D01*
X59026Y-34836D02*
X59026Y-34556D01*
X59000Y-34596D01*
X58973Y-34623D01*
X58946Y-34636D01*
X57646Y-36780D02*
X57633Y-36793D01*
X57593Y-36806D01*
X57566Y-36806D01*
X57526Y-36793D01*
X57500Y-36766D01*
X57486Y-36740D01*
X57473Y-36686D01*
X57473Y-36646D01*
X57486Y-36593D01*
X57500Y-36566D01*
X57526Y-36540D01*
X57566Y-36526D01*
X57593Y-36526D01*
X57633Y-36540D01*
X57646Y-36553D01*
X57753Y-36553D02*
X57766Y-36540D01*
X57793Y-36526D01*
X57860Y-36526D01*
X57886Y-36540D01*
X57900Y-36553D01*
X57913Y-36580D01*
X57913Y-36606D01*
X57900Y-36646D01*
X57740Y-36806D01*
X57913Y-36806D01*
X58086Y-36526D02*
X58113Y-36526D01*
X58140Y-36540D01*
X58153Y-36553D01*
X58166Y-36580D01*
X58180Y-36633D01*
X58180Y-36700D01*
X58166Y-36753D01*
X58153Y-36780D01*
X58140Y-36793D01*
X58113Y-36806D01*
X58086Y-36806D01*
X58060Y-36793D01*
X58046Y-36780D01*
X58033Y-36753D01*
X58020Y-36700D01*
X58020Y-36633D01*
X58033Y-36580D01*
X58046Y-36553D01*
X58060Y-36540D01*
X58086Y-36526D01*
X58286Y-36553D02*
X58300Y-36540D01*
X58326Y-36526D01*
X58393Y-36526D01*
X58420Y-36540D01*
X58433Y-36553D01*
X58446Y-36580D01*
X58446Y-36606D01*
X58433Y-36646D01*
X58273Y-36806D01*
X58446Y-36806D01*
X50037Y-35605D02*
X50051Y-35620D01*
X50065Y-35662D01*
X50065Y-35691D01*
X50051Y-35734D01*
X50022Y-35762D01*
X49994Y-35777D01*
X49937Y-35791D01*
X49894Y-35791D01*
X49837Y-35777D01*
X49808Y-35762D01*
X49780Y-35734D01*
X49765Y-35691D01*
X49765Y-35662D01*
X49780Y-35620D01*
X49794Y-35605D01*
X49794Y-35491D02*
X49780Y-35477D01*
X49765Y-35448D01*
X49765Y-35377D01*
X49780Y-35348D01*
X49794Y-35334D01*
X49822Y-35320D01*
X49851Y-35320D01*
X49894Y-35334D01*
X50065Y-35505D01*
X50065Y-35320D01*
X49765Y-35134D02*
X49765Y-35105D01*
X49780Y-35077D01*
X49794Y-35062D01*
X49822Y-35048D01*
X49880Y-35034D01*
X49951Y-35034D01*
X50008Y-35048D01*
X50037Y-35062D01*
X50051Y-35077D01*
X50065Y-35105D01*
X50065Y-35134D01*
X50051Y-35162D01*
X50037Y-35177D01*
X50008Y-35191D01*
X49951Y-35205D01*
X49880Y-35205D01*
X49822Y-35191D01*
X49794Y-35177D01*
X49780Y-35162D01*
X49765Y-35134D01*
X49765Y-34934D02*
X49765Y-34748D01*
X49880Y-34848D01*
X49880Y-34805D01*
X49894Y-34777D01*
X49908Y-34762D01*
X49937Y-34748D01*
X50008Y-34748D01*
X50037Y-34762D01*
X50051Y-34777D01*
X50065Y-34805D01*
X50065Y-34891D01*
X50051Y-34920D01*
X50037Y-34934D01*
X59507Y-37365D02*
X59521Y-37380D01*
X59535Y-37422D01*
X59535Y-37451D01*
X59521Y-37494D01*
X59492Y-37522D01*
X59464Y-37537D01*
X59407Y-37551D01*
X59364Y-37551D01*
X59307Y-37537D01*
X59278Y-37522D01*
X59250Y-37494D01*
X59235Y-37451D01*
X59235Y-37422D01*
X59250Y-37380D01*
X59264Y-37365D01*
X59264Y-37251D02*
X59250Y-37237D01*
X59235Y-37208D01*
X59235Y-37137D01*
X59250Y-37108D01*
X59264Y-37094D01*
X59292Y-37080D01*
X59321Y-37080D01*
X59364Y-37094D01*
X59535Y-37265D01*
X59535Y-37080D01*
X59235Y-36894D02*
X59235Y-36865D01*
X59250Y-36837D01*
X59264Y-36822D01*
X59292Y-36808D01*
X59350Y-36794D01*
X59421Y-36794D01*
X59478Y-36808D01*
X59507Y-36822D01*
X59521Y-36837D01*
X59535Y-36865D01*
X59535Y-36894D01*
X59521Y-36922D01*
X59507Y-36937D01*
X59478Y-36951D01*
X59421Y-36965D01*
X59350Y-36965D01*
X59292Y-36951D01*
X59264Y-36937D01*
X59250Y-36922D01*
X59235Y-36894D01*
X59335Y-36537D02*
X59535Y-36537D01*
X59221Y-36608D02*
X59435Y-36680D01*
X59435Y-36494D01*
X58244Y-33797D02*
X58230Y-33811D01*
X58187Y-33825D01*
X58158Y-33825D01*
X58115Y-33811D01*
X58087Y-33782D01*
X58072Y-33754D01*
X58058Y-33697D01*
X58058Y-33654D01*
X58072Y-33597D01*
X58087Y-33568D01*
X58115Y-33540D01*
X58158Y-33525D01*
X58187Y-33525D01*
X58230Y-33540D01*
X58244Y-33554D01*
X58358Y-33554D02*
X58372Y-33540D01*
X58401Y-33525D01*
X58472Y-33525D01*
X58501Y-33540D01*
X58515Y-33554D01*
X58530Y-33582D01*
X58530Y-33611D01*
X58515Y-33654D01*
X58344Y-33825D01*
X58530Y-33825D01*
X58715Y-33525D02*
X58744Y-33525D01*
X58772Y-33540D01*
X58787Y-33554D01*
X58801Y-33582D01*
X58815Y-33640D01*
X58815Y-33711D01*
X58801Y-33768D01*
X58787Y-33797D01*
X58772Y-33811D01*
X58744Y-33825D01*
X58715Y-33825D01*
X58687Y-33811D01*
X58672Y-33797D01*
X58658Y-33768D01*
X58644Y-33711D01*
X58644Y-33640D01*
X58658Y-33582D01*
X58672Y-33554D01*
X58687Y-33540D01*
X58715Y-33525D01*
X59087Y-33525D02*
X58944Y-33525D01*
X58930Y-33668D01*
X58944Y-33654D01*
X58972Y-33640D01*
X59044Y-33640D01*
X59072Y-33654D01*
X59087Y-33668D01*
X59101Y-33697D01*
X59101Y-33768D01*
X59087Y-33797D01*
X59072Y-33811D01*
X59044Y-33825D01*
X58972Y-33825D01*
X58944Y-33811D01*
X58930Y-33797D01*
X59096Y-32286D02*
X59003Y-32153D01*
X58936Y-32286D02*
X58936Y-32006D01*
X59043Y-32006D01*
X59070Y-32020D01*
X59083Y-32033D01*
X59096Y-32060D01*
X59096Y-32100D01*
X59083Y-32126D01*
X59070Y-32140D01*
X59043Y-32153D01*
X58936Y-32153D01*
X59203Y-32033D02*
X59216Y-32020D01*
X59243Y-32006D01*
X59310Y-32006D01*
X59336Y-32020D01*
X59350Y-32033D01*
X59363Y-32060D01*
X59363Y-32086D01*
X59350Y-32126D01*
X59190Y-32286D01*
X59363Y-32286D01*
X59536Y-32006D02*
X59563Y-32006D01*
X59590Y-32020D01*
X59603Y-32033D01*
X59616Y-32060D01*
X59630Y-32113D01*
X59630Y-32180D01*
X59616Y-32233D01*
X59603Y-32260D01*
X59590Y-32273D01*
X59563Y-32286D01*
X59536Y-32286D01*
X59510Y-32273D01*
X59496Y-32260D01*
X59483Y-32233D01*
X59470Y-32180D01*
X59470Y-32113D01*
X59483Y-32060D01*
X59496Y-32033D01*
X59510Y-32020D01*
X59536Y-32006D01*
X59736Y-32033D02*
X59750Y-32020D01*
X59776Y-32006D01*
X59843Y-32006D01*
X59870Y-32020D01*
X59883Y-32033D01*
X59896Y-32060D01*
X59896Y-32086D01*
X59883Y-32126D01*
X59723Y-32286D01*
X59896Y-32286D01*
X57176Y-33003D02*
X57043Y-33096D01*
X57176Y-33163D02*
X56896Y-33163D01*
X56896Y-33056D01*
X56910Y-33029D01*
X56923Y-33016D01*
X56950Y-33003D01*
X56990Y-33003D01*
X57016Y-33016D01*
X57030Y-33029D01*
X57043Y-33056D01*
X57043Y-33163D01*
X56923Y-32896D02*
X56910Y-32883D01*
X56896Y-32856D01*
X56896Y-32789D01*
X56910Y-32763D01*
X56923Y-32749D01*
X56950Y-32736D01*
X56976Y-32736D01*
X57016Y-32749D01*
X57176Y-32909D01*
X57176Y-32736D01*
X56896Y-32563D02*
X56896Y-32536D01*
X56910Y-32509D01*
X56923Y-32496D01*
X56950Y-32483D01*
X57003Y-32469D01*
X57070Y-32469D01*
X57123Y-32483D01*
X57150Y-32496D01*
X57163Y-32509D01*
X57176Y-32536D01*
X57176Y-32563D01*
X57163Y-32589D01*
X57150Y-32603D01*
X57123Y-32616D01*
X57070Y-32629D01*
X57003Y-32629D01*
X56950Y-32616D01*
X56923Y-32603D01*
X56910Y-32589D01*
X56896Y-32563D01*
X56896Y-32376D02*
X56896Y-32203D01*
X57003Y-32296D01*
X57003Y-32256D01*
X57016Y-32230D01*
X57030Y-32216D01*
X57056Y-32203D01*
X57123Y-32203D01*
X57150Y-32216D01*
X57163Y-32230D01*
X57176Y-32256D01*
X57176Y-32336D01*
X57163Y-32363D01*
X57150Y-32376D01*
X54725Y-38085D02*
X54582Y-38185D01*
X54725Y-38257D02*
X54425Y-38257D01*
X54425Y-38142D01*
X54440Y-38114D01*
X54454Y-38100D01*
X54482Y-38085D01*
X54525Y-38085D01*
X54554Y-38100D01*
X54568Y-38114D01*
X54582Y-38142D01*
X54582Y-38257D01*
X54454Y-37971D02*
X54440Y-37957D01*
X54425Y-37928D01*
X54425Y-37857D01*
X54440Y-37828D01*
X54454Y-37814D01*
X54482Y-37800D01*
X54511Y-37800D01*
X54554Y-37814D01*
X54725Y-37985D01*
X54725Y-37800D01*
X54425Y-37614D02*
X54425Y-37585D01*
X54440Y-37557D01*
X54454Y-37542D01*
X54482Y-37528D01*
X54540Y-37514D01*
X54611Y-37514D01*
X54668Y-37528D01*
X54697Y-37542D01*
X54711Y-37557D01*
X54725Y-37585D01*
X54725Y-37614D01*
X54711Y-37642D01*
X54697Y-37657D01*
X54668Y-37671D01*
X54611Y-37685D01*
X54540Y-37685D01*
X54482Y-37671D01*
X54454Y-37657D01*
X54440Y-37642D01*
X54425Y-37614D01*
X54525Y-37257D02*
X54725Y-37257D01*
X54411Y-37328D02*
X54625Y-37400D01*
X54625Y-37214D01*
X57416Y-35273D02*
X57283Y-35366D01*
X57416Y-35433D02*
X57136Y-35433D01*
X57136Y-35326D01*
X57150Y-35299D01*
X57163Y-35286D01*
X57190Y-35273D01*
X57230Y-35273D01*
X57256Y-35286D01*
X57270Y-35299D01*
X57283Y-35326D01*
X57283Y-35433D01*
X57163Y-35166D02*
X57150Y-35153D01*
X57136Y-35126D01*
X57136Y-35059D01*
X57150Y-35033D01*
X57163Y-35019D01*
X57190Y-35006D01*
X57216Y-35006D01*
X57256Y-35019D01*
X57416Y-35179D01*
X57416Y-35006D01*
X57136Y-34833D02*
X57136Y-34806D01*
X57150Y-34779D01*
X57163Y-34766D01*
X57190Y-34753D01*
X57243Y-34739D01*
X57310Y-34739D01*
X57363Y-34753D01*
X57390Y-34766D01*
X57403Y-34779D01*
X57416Y-34806D01*
X57416Y-34833D01*
X57403Y-34859D01*
X57390Y-34873D01*
X57363Y-34886D01*
X57310Y-34899D01*
X57243Y-34899D01*
X57190Y-34886D01*
X57163Y-34873D01*
X57150Y-34859D01*
X57136Y-34833D01*
X57136Y-34486D02*
X57136Y-34620D01*
X57270Y-34633D01*
X57256Y-34620D01*
X57243Y-34593D01*
X57243Y-34526D01*
X57256Y-34500D01*
X57270Y-34486D01*
X57296Y-34473D01*
X57363Y-34473D01*
X57390Y-34486D01*
X57403Y-34500D01*
X57416Y-34526D01*
X57416Y-34593D01*
X57403Y-34620D01*
X57390Y-34633D01*
X57286Y-37333D02*
X57153Y-37426D01*
X57286Y-37493D02*
X57006Y-37493D01*
X57006Y-37386D01*
X57020Y-37359D01*
X57033Y-37346D01*
X57060Y-37333D01*
X57100Y-37333D01*
X57126Y-37346D01*
X57140Y-37359D01*
X57153Y-37386D01*
X57153Y-37493D01*
X57033Y-37226D02*
X57020Y-37213D01*
X57006Y-37186D01*
X57006Y-37119D01*
X57020Y-37093D01*
X57033Y-37079D01*
X57060Y-37066D01*
X57086Y-37066D01*
X57126Y-37079D01*
X57286Y-37239D01*
X57286Y-37066D01*
X57006Y-36893D02*
X57006Y-36866D01*
X57020Y-36839D01*
X57033Y-36826D01*
X57060Y-36813D01*
X57113Y-36799D01*
X57180Y-36799D01*
X57233Y-36813D01*
X57260Y-36826D01*
X57273Y-36839D01*
X57286Y-36866D01*
X57286Y-36893D01*
X57273Y-36919D01*
X57260Y-36933D01*
X57233Y-36946D01*
X57180Y-36959D01*
X57113Y-36959D01*
X57060Y-36946D01*
X57033Y-36933D01*
X57020Y-36919D01*
X57006Y-36893D01*
X57006Y-36560D02*
X57006Y-36613D01*
X57020Y-36640D01*
X57033Y-36653D01*
X57073Y-36680D01*
X57126Y-36693D01*
X57233Y-36693D01*
X57260Y-36680D01*
X57273Y-36666D01*
X57286Y-36640D01*
X57286Y-36586D01*
X57273Y-36560D01*
X57260Y-36546D01*
X57233Y-36533D01*
X57166Y-36533D01*
X57140Y-36546D01*
X57126Y-36560D01*
X57113Y-36586D01*
X57113Y-36640D01*
X57126Y-36666D01*
X57140Y-36680D01*
X57166Y-36693D01*
G54D13*
X56694Y-31385D02*
X56594Y-31242D01*
X56522Y-31385D02*
X56522Y-31085D01*
X56637Y-31085D01*
X56665Y-31100D01*
X56680Y-31114D01*
X56694Y-31142D01*
X56694Y-31185D01*
X56680Y-31214D01*
X56665Y-31228D01*
X56637Y-31242D01*
X56522Y-31242D01*
X56808Y-31114D02*
X56822Y-31100D01*
X56851Y-31085D01*
X56922Y-31085D01*
X56951Y-31100D01*
X56965Y-31114D01*
X56980Y-31142D01*
X56980Y-31171D01*
X56965Y-31214D01*
X56794Y-31385D01*
X56980Y-31385D01*
X57165Y-31085D02*
X57194Y-31085D01*
X57222Y-31100D01*
X57237Y-31114D01*
X57251Y-31142D01*
X57265Y-31200D01*
X57265Y-31271D01*
X57251Y-31328D01*
X57237Y-31357D01*
X57222Y-31371D01*
X57194Y-31385D01*
X57165Y-31385D01*
X57137Y-31371D01*
X57122Y-31357D01*
X57108Y-31328D01*
X57094Y-31271D01*
X57094Y-31200D01*
X57108Y-31142D01*
X57122Y-31114D01*
X57137Y-31100D01*
X57165Y-31085D01*
X57551Y-31385D02*
X57380Y-31385D01*
X57465Y-31385D02*
X57465Y-31085D01*
X57437Y-31128D01*
X57408Y-31157D01*
X57380Y-31171D01*
G54D16*
X56196Y-32403D02*
X56196Y-32536D01*
X55916Y-32536D01*
X55943Y-32323D02*
X55930Y-32310D01*
X55916Y-32283D01*
X55916Y-32216D01*
X55930Y-32190D01*
X55943Y-32176D01*
X55970Y-32163D01*
X55996Y-32163D01*
X56036Y-32176D01*
X56196Y-32336D01*
X56196Y-32163D01*
X55916Y-31990D02*
X55916Y-31963D01*
X55930Y-31936D01*
X55943Y-31923D01*
X55970Y-31910D01*
X56023Y-31896D01*
X56090Y-31896D01*
X56143Y-31910D01*
X56170Y-31923D01*
X56183Y-31936D01*
X56196Y-31963D01*
X56196Y-31990D01*
X56183Y-32016D01*
X56170Y-32030D01*
X56143Y-32043D01*
X56090Y-32056D01*
X56023Y-32056D01*
X55970Y-32043D01*
X55943Y-32030D01*
X55930Y-32016D01*
X55916Y-31990D01*
X55943Y-31790D02*
X55930Y-31776D01*
X55916Y-31750D01*
X55916Y-31683D01*
X55930Y-31656D01*
X55943Y-31643D01*
X55970Y-31630D01*
X55996Y-31630D01*
X56036Y-31643D01*
X56196Y-31803D01*
X56196Y-31630D01*
X49647Y-36115D02*
X49661Y-36130D01*
X49675Y-36172D01*
X49675Y-36201D01*
X49661Y-36244D01*
X49632Y-36272D01*
X49604Y-36287D01*
X49547Y-36301D01*
X49504Y-36301D01*
X49447Y-36287D01*
X49418Y-36272D01*
X49390Y-36244D01*
X49375Y-36201D01*
X49375Y-36172D01*
X49390Y-36130D01*
X49404Y-36115D01*
X49404Y-36001D02*
X49390Y-35987D01*
X49375Y-35958D01*
X49375Y-35887D01*
X49390Y-35858D01*
X49404Y-35844D01*
X49432Y-35830D01*
X49461Y-35830D01*
X49504Y-35844D01*
X49675Y-36015D01*
X49675Y-35830D01*
X49675Y-35544D02*
X49675Y-35715D01*
X49675Y-35630D02*
X49375Y-35630D01*
X49418Y-35658D01*
X49447Y-35687D01*
X49461Y-35715D01*
X49375Y-35358D02*
X49375Y-35330D01*
X49390Y-35301D01*
X49404Y-35287D01*
X49432Y-35272D01*
X49490Y-35258D01*
X49561Y-35258D01*
X49618Y-35272D01*
X49647Y-35287D01*
X49661Y-35301D01*
X49675Y-35330D01*
X49675Y-35358D01*
X49661Y-35387D01*
X49647Y-35401D01*
X49618Y-35415D01*
X49561Y-35430D01*
X49490Y-35430D01*
X49432Y-35415D01*
X49404Y-35401D01*
X49390Y-35387D01*
X49375Y-35358D01*
X56506Y-33720D02*
X56493Y-33733D01*
X56453Y-33746D01*
X56426Y-33746D01*
X56386Y-33733D01*
X56360Y-33706D01*
X56346Y-33680D01*
X56333Y-33626D01*
X56333Y-33586D01*
X56346Y-33533D01*
X56360Y-33506D01*
X56386Y-33480D01*
X56426Y-33466D01*
X56453Y-33466D01*
X56493Y-33480D01*
X56506Y-33493D01*
X56613Y-33493D02*
X56626Y-33480D01*
X56653Y-33466D01*
X56720Y-33466D01*
X56746Y-33480D01*
X56760Y-33493D01*
X56773Y-33520D01*
X56773Y-33546D01*
X56760Y-33586D01*
X56600Y-33746D01*
X56773Y-33746D01*
X57040Y-33746D02*
X56880Y-33746D01*
X56960Y-33746D02*
X56960Y-33466D01*
X56933Y-33506D01*
X56906Y-33533D01*
X56880Y-33546D01*
X57306Y-33746D02*
X57146Y-33746D01*
X57226Y-33746D02*
X57226Y-33466D01*
X57200Y-33506D01*
X57173Y-33533D01*
X57146Y-33546D01*
X55990Y-37083D02*
X56003Y-37096D01*
X56016Y-37136D01*
X56016Y-37163D01*
X56003Y-37203D01*
X55976Y-37229D01*
X55950Y-37243D01*
X55896Y-37256D01*
X55856Y-37256D01*
X55803Y-37243D01*
X55776Y-37229D01*
X55750Y-37203D01*
X55736Y-37163D01*
X55736Y-37136D01*
X55750Y-37096D01*
X55763Y-37083D01*
X55763Y-36976D02*
X55750Y-36963D01*
X55736Y-36936D01*
X55736Y-36869D01*
X55750Y-36843D01*
X55763Y-36829D01*
X55790Y-36816D01*
X55816Y-36816D01*
X55856Y-36829D01*
X56016Y-36989D01*
X56016Y-36816D01*
X56016Y-36549D02*
X56016Y-36709D01*
X56016Y-36629D02*
X55736Y-36629D01*
X55776Y-36656D01*
X55803Y-36683D01*
X55816Y-36709D01*
X55763Y-36443D02*
X55750Y-36430D01*
X55736Y-36403D01*
X55736Y-36336D01*
X55750Y-36310D01*
X55763Y-36296D01*
X55790Y-36283D01*
X55816Y-36283D01*
X55856Y-36296D01*
X56016Y-36456D01*
X56016Y-36283D01*
G54D13*
X49167Y-38815D02*
X49181Y-38830D01*
X49195Y-38872D01*
X49195Y-38901D01*
X49181Y-38944D01*
X49152Y-38972D01*
X49124Y-38987D01*
X49067Y-39001D01*
X49024Y-39001D01*
X48967Y-38987D01*
X48938Y-38972D01*
X48910Y-38944D01*
X48895Y-38901D01*
X48895Y-38872D01*
X48910Y-38830D01*
X48924Y-38815D01*
X48924Y-38701D02*
X48910Y-38687D01*
X48895Y-38658D01*
X48895Y-38587D01*
X48910Y-38558D01*
X48924Y-38544D01*
X48952Y-38530D01*
X48981Y-38530D01*
X49024Y-38544D01*
X49195Y-38715D01*
X49195Y-38530D01*
X48895Y-38344D02*
X48895Y-38315D01*
X48910Y-38287D01*
X48924Y-38272D01*
X48952Y-38258D01*
X49010Y-38244D01*
X49081Y-38244D01*
X49138Y-38258D01*
X49167Y-38272D01*
X49181Y-38287D01*
X49195Y-38315D01*
X49195Y-38344D01*
X49181Y-38372D01*
X49167Y-38387D01*
X49138Y-38401D01*
X49081Y-38415D01*
X49010Y-38415D01*
X48952Y-38401D01*
X48924Y-38387D01*
X48910Y-38372D01*
X48895Y-38344D01*
X49195Y-38101D02*
X49195Y-38044D01*
X49181Y-38015D01*
X49167Y-38001D01*
X49124Y-37972D01*
X49067Y-37958D01*
X48952Y-37958D01*
X48924Y-37972D01*
X48910Y-37987D01*
X48895Y-38015D01*
X48895Y-38072D01*
X48910Y-38101D01*
X48924Y-38115D01*
X48952Y-38130D01*
X49024Y-38130D01*
X49052Y-38115D01*
X49067Y-38101D01*
X49081Y-38072D01*
X49081Y-38015D01*
X49067Y-37987D01*
X49052Y-37972D01*
X49024Y-37958D01*
G54D16*
X53564Y-31305D02*
X53464Y-31162D01*
X53392Y-31305D02*
X53392Y-31005D01*
X53507Y-31005D01*
X53535Y-31020D01*
X53550Y-31034D01*
X53564Y-31062D01*
X53564Y-31105D01*
X53550Y-31134D01*
X53535Y-31148D01*
X53507Y-31162D01*
X53392Y-31162D01*
X53678Y-31034D02*
X53692Y-31020D01*
X53721Y-31005D01*
X53792Y-31005D01*
X53821Y-31020D01*
X53835Y-31034D01*
X53850Y-31062D01*
X53850Y-31091D01*
X53835Y-31134D01*
X53664Y-31305D01*
X53850Y-31305D01*
X54135Y-31305D02*
X53964Y-31305D01*
X54050Y-31305D02*
X54050Y-31005D01*
X54021Y-31048D01*
X53992Y-31077D01*
X53964Y-31091D01*
X54421Y-31305D02*
X54250Y-31305D01*
X54335Y-31305D02*
X54335Y-31005D01*
X54307Y-31048D01*
X54278Y-31077D01*
X54250Y-31091D01*
X50494Y-37277D02*
X50480Y-37291D01*
X50437Y-37305D01*
X50408Y-37305D01*
X50365Y-37291D01*
X50337Y-37262D01*
X50322Y-37234D01*
X50308Y-37177D01*
X50308Y-37134D01*
X50322Y-37077D01*
X50337Y-37048D01*
X50365Y-37020D01*
X50408Y-37005D01*
X50437Y-37005D01*
X50480Y-37020D01*
X50494Y-37034D01*
X50608Y-37034D02*
X50622Y-37020D01*
X50651Y-37005D01*
X50722Y-37005D01*
X50751Y-37020D01*
X50765Y-37034D01*
X50780Y-37062D01*
X50780Y-37091D01*
X50765Y-37134D01*
X50594Y-37305D01*
X50780Y-37305D01*
X50965Y-37005D02*
X50994Y-37005D01*
X51022Y-37020D01*
X51037Y-37034D01*
X51051Y-37062D01*
X51065Y-37120D01*
X51065Y-37191D01*
X51051Y-37248D01*
X51037Y-37277D01*
X51022Y-37291D01*
X50994Y-37305D01*
X50965Y-37305D01*
X50937Y-37291D01*
X50922Y-37277D01*
X50908Y-37248D01*
X50894Y-37191D01*
X50894Y-37120D01*
X50908Y-37062D01*
X50922Y-37034D01*
X50937Y-37020D01*
X50965Y-37005D01*
X51322Y-37005D02*
X51265Y-37005D01*
X51237Y-37020D01*
X51222Y-37034D01*
X51194Y-37077D01*
X51180Y-37134D01*
X51180Y-37248D01*
X51194Y-37277D01*
X51208Y-37291D01*
X51237Y-37305D01*
X51294Y-37305D01*
X51322Y-37291D01*
X51337Y-37277D01*
X51351Y-37248D01*
X51351Y-37177D01*
X51337Y-37148D01*
X51322Y-37134D01*
X51294Y-37120D01*
X51237Y-37120D01*
X51208Y-37134D01*
X51194Y-37148D01*
X51180Y-37177D01*
X58912Y-38705D02*
X58912Y-38405D01*
X58984Y-38405D01*
X59027Y-38420D01*
X59055Y-38448D01*
X59070Y-38477D01*
X59084Y-38534D01*
X59084Y-38577D01*
X59070Y-38634D01*
X59055Y-38662D01*
X59027Y-38691D01*
X58984Y-38705D01*
X58912Y-38705D01*
X59198Y-38434D02*
X59212Y-38420D01*
X59241Y-38405D01*
X59312Y-38405D01*
X59341Y-38420D01*
X59355Y-38434D01*
X59370Y-38462D01*
X59370Y-38491D01*
X59355Y-38534D01*
X59184Y-38705D01*
X59370Y-38705D01*
X59555Y-38405D02*
X59584Y-38405D01*
X59612Y-38420D01*
X59627Y-38434D01*
X59641Y-38462D01*
X59655Y-38520D01*
X59655Y-38591D01*
X59641Y-38648D01*
X59627Y-38677D01*
X59612Y-38691D01*
X59584Y-38705D01*
X59555Y-38705D01*
X59527Y-38691D01*
X59512Y-38677D01*
X59498Y-38648D01*
X59484Y-38591D01*
X59484Y-38520D01*
X59498Y-38462D01*
X59512Y-38434D01*
X59527Y-38420D01*
X59555Y-38405D01*
X59941Y-38705D02*
X59770Y-38705D01*
X59855Y-38705D02*
X59855Y-38405D01*
X59827Y-38448D01*
X59798Y-38477D01*
X59770Y-38491D01*
X58912Y-38035D02*
X58912Y-37735D01*
X58984Y-37735D01*
X59027Y-37750D01*
X59055Y-37778D01*
X59070Y-37807D01*
X59084Y-37864D01*
X59084Y-37907D01*
X59070Y-37964D01*
X59055Y-37992D01*
X59027Y-38021D01*
X58984Y-38035D01*
X58912Y-38035D01*
X59198Y-37764D02*
X59212Y-37750D01*
X59241Y-37735D01*
X59312Y-37735D01*
X59341Y-37750D01*
X59355Y-37764D01*
X59370Y-37792D01*
X59370Y-37821D01*
X59355Y-37864D01*
X59184Y-38035D01*
X59370Y-38035D01*
X59555Y-37735D02*
X59584Y-37735D01*
X59612Y-37750D01*
X59627Y-37764D01*
X59641Y-37792D01*
X59655Y-37850D01*
X59655Y-37921D01*
X59641Y-37978D01*
X59627Y-38007D01*
X59612Y-38021D01*
X59584Y-38035D01*
X59555Y-38035D01*
X59527Y-38021D01*
X59512Y-38007D01*
X59498Y-37978D01*
X59484Y-37921D01*
X59484Y-37850D01*
X59498Y-37792D01*
X59512Y-37764D01*
X59527Y-37750D01*
X59555Y-37735D01*
X59770Y-37764D02*
X59784Y-37750D01*
X59812Y-37735D01*
X59884Y-37735D01*
X59912Y-37750D01*
X59927Y-37764D01*
X59941Y-37792D01*
X59941Y-37821D01*
X59927Y-37864D01*
X59755Y-38035D01*
X59941Y-38035D01*
X48304Y-37335D02*
X48161Y-37335D01*
X48161Y-37035D01*
X48390Y-37064D02*
X48404Y-37050D01*
X48432Y-37035D01*
X48504Y-37035D01*
X48532Y-37050D01*
X48547Y-37064D01*
X48561Y-37092D01*
X48561Y-37121D01*
X48547Y-37164D01*
X48375Y-37335D01*
X48561Y-37335D01*
X48747Y-37035D02*
X48775Y-37035D01*
X48804Y-37050D01*
X48818Y-37064D01*
X48832Y-37092D01*
X48847Y-37150D01*
X48847Y-37221D01*
X48832Y-37278D01*
X48818Y-37307D01*
X48804Y-37321D01*
X48775Y-37335D01*
X48747Y-37335D01*
X48718Y-37321D01*
X48704Y-37307D01*
X48690Y-37278D01*
X48675Y-37221D01*
X48675Y-37150D01*
X48690Y-37092D01*
X48704Y-37064D01*
X48718Y-37050D01*
X48747Y-37035D01*
X49132Y-37335D02*
X48961Y-37335D01*
X49047Y-37335D02*
X49047Y-37035D01*
X49018Y-37078D01*
X48990Y-37107D01*
X48961Y-37121D01*
X55946Y-37816D02*
X55853Y-37683D01*
X55786Y-37816D02*
X55786Y-37536D01*
X55893Y-37536D01*
X55920Y-37550D01*
X55933Y-37563D01*
X55946Y-37590D01*
X55946Y-37630D01*
X55933Y-37656D01*
X55920Y-37670D01*
X55893Y-37683D01*
X55786Y-37683D01*
X56053Y-37563D02*
X56066Y-37550D01*
X56093Y-37536D01*
X56160Y-37536D01*
X56186Y-37550D01*
X56200Y-37563D01*
X56213Y-37590D01*
X56213Y-37616D01*
X56200Y-37656D01*
X56040Y-37816D01*
X56213Y-37816D01*
X56480Y-37816D02*
X56320Y-37816D01*
X56400Y-37816D02*
X56400Y-37536D01*
X56373Y-37576D01*
X56346Y-37603D01*
X56320Y-37616D01*
X56586Y-37563D02*
X56600Y-37550D01*
X56626Y-37536D01*
X56693Y-37536D01*
X56720Y-37550D01*
X56733Y-37563D01*
X56746Y-37590D01*
X56746Y-37616D01*
X56733Y-37656D01*
X56573Y-37816D01*
X56746Y-37816D01*
X54834Y-38895D02*
X54734Y-38752D01*
X54662Y-38895D02*
X54662Y-38595D01*
X54777Y-38595D01*
X54805Y-38610D01*
X54820Y-38624D01*
X54834Y-38652D01*
X54834Y-38695D01*
X54820Y-38724D01*
X54805Y-38738D01*
X54777Y-38752D01*
X54662Y-38752D01*
X54948Y-38624D02*
X54962Y-38610D01*
X54991Y-38595D01*
X55062Y-38595D01*
X55091Y-38610D01*
X55105Y-38624D01*
X55120Y-38652D01*
X55120Y-38681D01*
X55105Y-38724D01*
X54934Y-38895D01*
X55120Y-38895D01*
X55405Y-38895D02*
X55234Y-38895D01*
X55320Y-38895D02*
X55320Y-38595D01*
X55291Y-38638D01*
X55262Y-38667D01*
X55234Y-38681D01*
X55505Y-38595D02*
X55691Y-38595D01*
X55591Y-38710D01*
X55634Y-38710D01*
X55662Y-38724D01*
X55677Y-38738D01*
X55691Y-38767D01*
X55691Y-38838D01*
X55677Y-38867D01*
X55662Y-38881D01*
X55634Y-38895D01*
X55548Y-38895D01*
X55520Y-38881D01*
X55505Y-38867D01*
X53245Y-38638D02*
X53545Y-38438D01*
X53245Y-38438D02*
X53545Y-38638D01*
X53274Y-38338D02*
X53260Y-38324D01*
X53245Y-38295D01*
X53245Y-38224D01*
X53260Y-38195D01*
X53274Y-38181D01*
X53302Y-38167D01*
X53331Y-38167D01*
X53374Y-38181D01*
X53545Y-38352D01*
X53545Y-38167D01*
X53245Y-37981D02*
X53245Y-37952D01*
X53260Y-37924D01*
X53274Y-37910D01*
X53302Y-37895D01*
X53360Y-37881D01*
X53431Y-37881D01*
X53488Y-37895D01*
X53517Y-37910D01*
X53531Y-37924D01*
X53545Y-37952D01*
X53545Y-37981D01*
X53531Y-38010D01*
X53517Y-38024D01*
X53488Y-38038D01*
X53431Y-38052D01*
X53360Y-38052D01*
X53302Y-38038D01*
X53274Y-38024D01*
X53260Y-38010D01*
X53245Y-37981D01*
X53545Y-37595D02*
X53545Y-37767D01*
X53545Y-37681D02*
X53245Y-37681D01*
X53288Y-37710D01*
X53317Y-37738D01*
X53331Y-37767D01*
G54D15*
X66116Y-47290D02*
X66116Y-47576D01*
X66097Y-47633D01*
X66059Y-47671D01*
X66002Y-47690D01*
X65964Y-47690D01*
X66288Y-47329D02*
X66307Y-47310D01*
X66345Y-47290D01*
X66440Y-47290D01*
X66478Y-47310D01*
X66497Y-47329D01*
X66516Y-47367D01*
X66516Y-47405D01*
X66497Y-47462D01*
X66269Y-47690D01*
X66516Y-47690D01*
G54D16*
X65695Y-40515D02*
X65695Y-40658D01*
X65395Y-40658D01*
X65495Y-40287D02*
X65695Y-40287D01*
X65381Y-40358D02*
X65595Y-40429D01*
X65595Y-40244D01*
X65395Y-40072D02*
X65395Y-40044D01*
X65410Y-40015D01*
X65424Y-40001D01*
X65452Y-39987D01*
X65510Y-39972D01*
X65581Y-39972D01*
X65638Y-39987D01*
X65667Y-40001D01*
X65681Y-40015D01*
X65695Y-40044D01*
X65695Y-40072D01*
X65681Y-40101D01*
X65667Y-40115D01*
X65638Y-40129D01*
X65581Y-40144D01*
X65510Y-40144D01*
X65452Y-40129D01*
X65424Y-40115D01*
X65410Y-40101D01*
X65395Y-40072D01*
X65695Y-39687D02*
X65695Y-39858D01*
X65695Y-39772D02*
X65395Y-39772D01*
X65438Y-39801D01*
X65467Y-39830D01*
X65481Y-39858D01*
X63872Y-38905D02*
X63872Y-38605D01*
X63944Y-38605D01*
X63987Y-38620D01*
X64015Y-38648D01*
X64030Y-38677D01*
X64044Y-38734D01*
X64044Y-38777D01*
X64030Y-38834D01*
X64015Y-38862D01*
X63987Y-38891D01*
X63944Y-38905D01*
X63872Y-38905D01*
X64301Y-38705D02*
X64301Y-38905D01*
X64230Y-38591D02*
X64158Y-38805D01*
X64344Y-38805D01*
X64515Y-38605D02*
X64544Y-38605D01*
X64572Y-38620D01*
X64587Y-38634D01*
X64601Y-38662D01*
X64615Y-38720D01*
X64615Y-38791D01*
X64601Y-38848D01*
X64587Y-38877D01*
X64572Y-38891D01*
X64544Y-38905D01*
X64515Y-38905D01*
X64487Y-38891D01*
X64472Y-38877D01*
X64458Y-38848D01*
X64444Y-38791D01*
X64444Y-38720D01*
X64458Y-38662D01*
X64472Y-38634D01*
X64487Y-38620D01*
X64515Y-38605D01*
X64901Y-38905D02*
X64730Y-38905D01*
X64815Y-38905D02*
X64815Y-38605D01*
X64787Y-38648D01*
X64758Y-38677D01*
X64730Y-38691D01*
X67334Y-37797D02*
X67320Y-37811D01*
X67277Y-37825D01*
X67248Y-37825D01*
X67205Y-37811D01*
X67177Y-37782D01*
X67162Y-37754D01*
X67148Y-37697D01*
X67148Y-37654D01*
X67162Y-37597D01*
X67177Y-37568D01*
X67205Y-37540D01*
X67248Y-37525D01*
X67277Y-37525D01*
X67320Y-37540D01*
X67334Y-37554D01*
X67591Y-37625D02*
X67591Y-37825D01*
X67520Y-37511D02*
X67448Y-37725D01*
X67634Y-37725D01*
X67805Y-37525D02*
X67834Y-37525D01*
X67862Y-37540D01*
X67877Y-37554D01*
X67891Y-37582D01*
X67905Y-37640D01*
X67905Y-37711D01*
X67891Y-37768D01*
X67877Y-37797D01*
X67862Y-37811D01*
X67834Y-37825D01*
X67805Y-37825D01*
X67777Y-37811D01*
X67762Y-37797D01*
X67748Y-37768D01*
X67734Y-37711D01*
X67734Y-37640D01*
X67748Y-37582D01*
X67762Y-37554D01*
X67777Y-37540D01*
X67805Y-37525D01*
X68177Y-37525D02*
X68034Y-37525D01*
X68020Y-37668D01*
X68034Y-37654D01*
X68062Y-37640D01*
X68134Y-37640D01*
X68162Y-37654D01*
X68177Y-37668D01*
X68191Y-37697D01*
X68191Y-37768D01*
X68177Y-37797D01*
X68162Y-37811D01*
X68134Y-37825D01*
X68062Y-37825D01*
X68034Y-37811D01*
X68020Y-37797D01*
X63716Y-44276D02*
X63716Y-43996D01*
X63783Y-43996D01*
X63823Y-44010D01*
X63850Y-44036D01*
X63863Y-44063D01*
X63876Y-44116D01*
X63876Y-44156D01*
X63863Y-44210D01*
X63850Y-44236D01*
X63823Y-44263D01*
X63783Y-44276D01*
X63716Y-44276D01*
X64116Y-44090D02*
X64116Y-44276D01*
X64050Y-43983D02*
X63983Y-44183D01*
X64156Y-44183D01*
X64316Y-43996D02*
X64343Y-43996D01*
X64370Y-44010D01*
X64383Y-44023D01*
X64396Y-44050D01*
X64410Y-44103D01*
X64410Y-44170D01*
X64396Y-44223D01*
X64383Y-44250D01*
X64370Y-44263D01*
X64343Y-44276D01*
X64316Y-44276D01*
X64290Y-44263D01*
X64276Y-44250D01*
X64263Y-44223D01*
X64250Y-44170D01*
X64250Y-44103D01*
X64263Y-44050D01*
X64276Y-44023D01*
X64290Y-44010D01*
X64316Y-43996D01*
X64503Y-43996D02*
X64676Y-43996D01*
X64583Y-44103D01*
X64623Y-44103D01*
X64650Y-44116D01*
X64663Y-44130D01*
X64676Y-44156D01*
X64676Y-44223D01*
X64663Y-44250D01*
X64650Y-44263D01*
X64623Y-44276D01*
X64543Y-44276D01*
X64516Y-44263D01*
X64503Y-44250D01*
G54D13*
X66317Y-46715D02*
X66331Y-46730D01*
X66345Y-46772D01*
X66345Y-46801D01*
X66331Y-46844D01*
X66302Y-46872D01*
X66274Y-46887D01*
X66217Y-46901D01*
X66174Y-46901D01*
X66117Y-46887D01*
X66088Y-46872D01*
X66060Y-46844D01*
X66045Y-46801D01*
X66045Y-46772D01*
X66060Y-46730D01*
X66074Y-46715D01*
X66145Y-46458D02*
X66345Y-46458D01*
X66031Y-46530D02*
X66245Y-46601D01*
X66245Y-46415D01*
X66045Y-46244D02*
X66045Y-46215D01*
X66060Y-46187D01*
X66074Y-46172D01*
X66102Y-46158D01*
X66160Y-46144D01*
X66231Y-46144D01*
X66288Y-46158D01*
X66317Y-46172D01*
X66331Y-46187D01*
X66345Y-46215D01*
X66345Y-46244D01*
X66331Y-46272D01*
X66317Y-46287D01*
X66288Y-46301D01*
X66231Y-46315D01*
X66160Y-46315D01*
X66102Y-46301D01*
X66074Y-46287D01*
X66060Y-46272D01*
X66045Y-46244D01*
X66045Y-45887D02*
X66045Y-45944D01*
X66060Y-45972D01*
X66074Y-45987D01*
X66117Y-46015D01*
X66174Y-46030D01*
X66288Y-46030D01*
X66317Y-46015D01*
X66331Y-46001D01*
X66345Y-45972D01*
X66345Y-45915D01*
X66331Y-45887D01*
X66317Y-45872D01*
X66288Y-45858D01*
X66217Y-45858D01*
X66188Y-45872D01*
X66174Y-45887D01*
X66160Y-45915D01*
X66160Y-45972D01*
X66174Y-46001D01*
X66188Y-46015D01*
X66217Y-46030D01*
G54D16*
X60167Y-40375D02*
X60181Y-40390D01*
X60195Y-40432D01*
X60195Y-40461D01*
X60181Y-40504D01*
X60152Y-40532D01*
X60124Y-40547D01*
X60067Y-40561D01*
X60024Y-40561D01*
X59967Y-40547D01*
X59938Y-40532D01*
X59910Y-40504D01*
X59895Y-40461D01*
X59895Y-40432D01*
X59910Y-40390D01*
X59924Y-40375D01*
X59995Y-40118D02*
X60195Y-40118D01*
X59881Y-40190D02*
X60095Y-40261D01*
X60095Y-40075D01*
X59895Y-39904D02*
X59895Y-39875D01*
X59910Y-39847D01*
X59924Y-39832D01*
X59952Y-39818D01*
X60010Y-39804D01*
X60081Y-39804D01*
X60138Y-39818D01*
X60167Y-39832D01*
X60181Y-39847D01*
X60195Y-39875D01*
X60195Y-39904D01*
X60181Y-39932D01*
X60167Y-39947D01*
X60138Y-39961D01*
X60081Y-39975D01*
X60010Y-39975D01*
X59952Y-39961D01*
X59924Y-39947D01*
X59910Y-39932D01*
X59895Y-39904D01*
X60195Y-39661D02*
X60195Y-39604D01*
X60181Y-39575D01*
X60167Y-39561D01*
X60124Y-39532D01*
X60067Y-39518D01*
X59952Y-39518D01*
X59924Y-39532D01*
X59910Y-39547D01*
X59895Y-39575D01*
X59895Y-39632D01*
X59910Y-39661D01*
X59924Y-39675D01*
X59952Y-39690D01*
X60024Y-39690D01*
X60052Y-39675D01*
X60067Y-39661D01*
X60081Y-39632D01*
X60081Y-39575D01*
X60067Y-39547D01*
X60052Y-39532D01*
X60024Y-39518D01*
X65237Y-46245D02*
X65251Y-46260D01*
X65265Y-46302D01*
X65265Y-46331D01*
X65251Y-46374D01*
X65222Y-46402D01*
X65194Y-46417D01*
X65137Y-46431D01*
X65094Y-46431D01*
X65037Y-46417D01*
X65008Y-46402D01*
X64980Y-46374D01*
X64965Y-46331D01*
X64965Y-46302D01*
X64980Y-46260D01*
X64994Y-46245D01*
X65065Y-45988D02*
X65265Y-45988D01*
X64951Y-46060D02*
X65165Y-46131D01*
X65165Y-45945D01*
X64965Y-45774D02*
X64965Y-45745D01*
X64980Y-45717D01*
X64994Y-45702D01*
X65022Y-45688D01*
X65080Y-45674D01*
X65151Y-45674D01*
X65208Y-45688D01*
X65237Y-45702D01*
X65251Y-45717D01*
X65265Y-45745D01*
X65265Y-45774D01*
X65251Y-45802D01*
X65237Y-45817D01*
X65208Y-45831D01*
X65151Y-45845D01*
X65080Y-45845D01*
X65022Y-45831D01*
X64994Y-45817D01*
X64980Y-45802D01*
X64965Y-45774D01*
X64965Y-45574D02*
X64965Y-45374D01*
X65265Y-45502D01*
X63960Y-45133D02*
X63973Y-45146D01*
X63986Y-45186D01*
X63986Y-45213D01*
X63973Y-45253D01*
X63946Y-45279D01*
X63920Y-45293D01*
X63866Y-45306D01*
X63826Y-45306D01*
X63773Y-45293D01*
X63746Y-45279D01*
X63720Y-45253D01*
X63706Y-45213D01*
X63706Y-45186D01*
X63720Y-45146D01*
X63733Y-45133D01*
X63800Y-44893D02*
X63986Y-44893D01*
X63693Y-44959D02*
X63893Y-45026D01*
X63893Y-44853D01*
X63706Y-44693D02*
X63706Y-44666D01*
X63720Y-44639D01*
X63733Y-44626D01*
X63760Y-44613D01*
X63813Y-44599D01*
X63880Y-44599D01*
X63933Y-44613D01*
X63960Y-44626D01*
X63973Y-44639D01*
X63986Y-44666D01*
X63986Y-44693D01*
X63973Y-44719D01*
X63960Y-44733D01*
X63933Y-44746D01*
X63880Y-44759D01*
X63813Y-44759D01*
X63760Y-44746D01*
X63733Y-44733D01*
X63720Y-44719D01*
X63706Y-44693D01*
X63826Y-44440D02*
X63813Y-44466D01*
X63800Y-44480D01*
X63773Y-44493D01*
X63760Y-44493D01*
X63733Y-44480D01*
X63720Y-44466D01*
X63706Y-44440D01*
X63706Y-44386D01*
X63720Y-44360D01*
X63733Y-44346D01*
X63760Y-44333D01*
X63773Y-44333D01*
X63800Y-44346D01*
X63813Y-44360D01*
X63826Y-44386D01*
X63826Y-44440D01*
X63840Y-44466D01*
X63853Y-44480D01*
X63880Y-44493D01*
X63933Y-44493D01*
X63960Y-44480D01*
X63973Y-44466D01*
X63986Y-44440D01*
X63986Y-44386D01*
X63973Y-44360D01*
X63960Y-44346D01*
X63933Y-44333D01*
X63880Y-44333D01*
X63853Y-44346D01*
X63840Y-44360D01*
X63826Y-44386D01*
X60615Y-46085D02*
X60472Y-46185D01*
X60615Y-46257D02*
X60315Y-46257D01*
X60315Y-46142D01*
X60330Y-46114D01*
X60344Y-46100D01*
X60372Y-46085D01*
X60415Y-46085D01*
X60444Y-46100D01*
X60458Y-46114D01*
X60472Y-46142D01*
X60472Y-46257D01*
X60415Y-45828D02*
X60615Y-45828D01*
X60301Y-45900D02*
X60515Y-45971D01*
X60515Y-45785D01*
X60315Y-45614D02*
X60315Y-45585D01*
X60330Y-45557D01*
X60344Y-45542D01*
X60372Y-45528D01*
X60430Y-45514D01*
X60501Y-45514D01*
X60558Y-45528D01*
X60587Y-45542D01*
X60601Y-45557D01*
X60615Y-45585D01*
X60615Y-45614D01*
X60601Y-45642D01*
X60587Y-45657D01*
X60558Y-45671D01*
X60501Y-45685D01*
X60430Y-45685D01*
X60372Y-45671D01*
X60344Y-45657D01*
X60330Y-45642D01*
X60315Y-45614D01*
X60615Y-45228D02*
X60615Y-45400D01*
X60615Y-45314D02*
X60315Y-45314D01*
X60358Y-45342D01*
X60387Y-45371D01*
X60401Y-45400D01*
X60615Y-47305D02*
X60472Y-47405D01*
X60615Y-47477D02*
X60315Y-47477D01*
X60315Y-47362D01*
X60330Y-47334D01*
X60344Y-47320D01*
X60372Y-47305D01*
X60415Y-47305D01*
X60444Y-47320D01*
X60458Y-47334D01*
X60472Y-47362D01*
X60472Y-47477D01*
X60415Y-47048D02*
X60615Y-47048D01*
X60301Y-47120D02*
X60515Y-47191D01*
X60515Y-47005D01*
X60315Y-46834D02*
X60315Y-46805D01*
X60330Y-46777D01*
X60344Y-46762D01*
X60372Y-46748D01*
X60430Y-46734D01*
X60501Y-46734D01*
X60558Y-46748D01*
X60587Y-46762D01*
X60601Y-46777D01*
X60615Y-46805D01*
X60615Y-46834D01*
X60601Y-46862D01*
X60587Y-46877D01*
X60558Y-46891D01*
X60501Y-46905D01*
X60430Y-46905D01*
X60372Y-46891D01*
X60344Y-46877D01*
X60330Y-46862D01*
X60315Y-46834D01*
X60344Y-46620D02*
X60330Y-46605D01*
X60315Y-46577D01*
X60315Y-46505D01*
X60330Y-46477D01*
X60344Y-46462D01*
X60372Y-46448D01*
X60401Y-46448D01*
X60444Y-46462D01*
X60615Y-46634D01*
X60615Y-46448D01*
X62216Y-47450D02*
X62203Y-47463D01*
X62163Y-47476D01*
X62136Y-47476D01*
X62096Y-47463D01*
X62070Y-47436D01*
X62056Y-47410D01*
X62043Y-47356D01*
X62043Y-47316D01*
X62056Y-47263D01*
X62070Y-47236D01*
X62096Y-47210D01*
X62136Y-47196D01*
X62163Y-47196D01*
X62203Y-47210D01*
X62216Y-47223D01*
X62456Y-47290D02*
X62456Y-47476D01*
X62390Y-47183D02*
X62323Y-47383D01*
X62496Y-47383D01*
X62656Y-47196D02*
X62683Y-47196D01*
X62710Y-47210D01*
X62723Y-47223D01*
X62736Y-47250D01*
X62750Y-47303D01*
X62750Y-47370D01*
X62736Y-47423D01*
X62723Y-47450D01*
X62710Y-47463D01*
X62683Y-47476D01*
X62656Y-47476D01*
X62630Y-47463D01*
X62616Y-47450D01*
X62603Y-47423D01*
X62590Y-47370D01*
X62590Y-47303D01*
X62603Y-47250D01*
X62616Y-47223D01*
X62630Y-47210D01*
X62656Y-47196D01*
X63016Y-47476D02*
X62856Y-47476D01*
X62936Y-47476D02*
X62936Y-47196D01*
X62910Y-47236D01*
X62883Y-47263D01*
X62856Y-47276D01*
X60647Y-44735D02*
X60661Y-44750D01*
X60675Y-44792D01*
X60675Y-44821D01*
X60661Y-44864D01*
X60632Y-44892D01*
X60604Y-44907D01*
X60547Y-44921D01*
X60504Y-44921D01*
X60447Y-44907D01*
X60418Y-44892D01*
X60390Y-44864D01*
X60375Y-44821D01*
X60375Y-44792D01*
X60390Y-44750D01*
X60404Y-44735D01*
X60475Y-44478D02*
X60675Y-44478D01*
X60361Y-44550D02*
X60575Y-44621D01*
X60575Y-44435D01*
X60375Y-44264D02*
X60375Y-44235D01*
X60390Y-44207D01*
X60404Y-44192D01*
X60432Y-44178D01*
X60490Y-44164D01*
X60561Y-44164D01*
X60618Y-44178D01*
X60647Y-44192D01*
X60661Y-44207D01*
X60675Y-44235D01*
X60675Y-44264D01*
X60661Y-44292D01*
X60647Y-44307D01*
X60618Y-44321D01*
X60561Y-44335D01*
X60490Y-44335D01*
X60432Y-44321D01*
X60404Y-44307D01*
X60390Y-44292D01*
X60375Y-44264D01*
X60404Y-44050D02*
X60390Y-44035D01*
X60375Y-44007D01*
X60375Y-43935D01*
X60390Y-43907D01*
X60404Y-43892D01*
X60432Y-43878D01*
X60461Y-43878D01*
X60504Y-43892D01*
X60675Y-44064D01*
X60675Y-43878D01*
X66397Y-43185D02*
X66411Y-43200D01*
X66425Y-43242D01*
X66425Y-43271D01*
X66411Y-43314D01*
X66382Y-43342D01*
X66354Y-43357D01*
X66297Y-43371D01*
X66254Y-43371D01*
X66197Y-43357D01*
X66168Y-43342D01*
X66140Y-43314D01*
X66125Y-43271D01*
X66125Y-43242D01*
X66140Y-43200D01*
X66154Y-43185D01*
X66225Y-42928D02*
X66425Y-42928D01*
X66111Y-43000D02*
X66325Y-43071D01*
X66325Y-42885D01*
X66125Y-42714D02*
X66125Y-42685D01*
X66140Y-42657D01*
X66154Y-42642D01*
X66182Y-42628D01*
X66240Y-42614D01*
X66311Y-42614D01*
X66368Y-42628D01*
X66397Y-42642D01*
X66411Y-42657D01*
X66425Y-42685D01*
X66425Y-42714D01*
X66411Y-42742D01*
X66397Y-42757D01*
X66368Y-42771D01*
X66311Y-42785D01*
X66240Y-42785D01*
X66182Y-42771D01*
X66154Y-42757D01*
X66140Y-42742D01*
X66125Y-42714D01*
X66125Y-42514D02*
X66125Y-42328D01*
X66240Y-42428D01*
X66240Y-42385D01*
X66254Y-42357D01*
X66268Y-42342D01*
X66297Y-42328D01*
X66368Y-42328D01*
X66397Y-42342D01*
X66411Y-42357D01*
X66425Y-42385D01*
X66425Y-42471D01*
X66411Y-42500D01*
X66397Y-42514D01*
X55447Y-41635D02*
X55461Y-41650D01*
X55475Y-41692D01*
X55475Y-41721D01*
X55461Y-41764D01*
X55432Y-41792D01*
X55404Y-41807D01*
X55347Y-41821D01*
X55304Y-41821D01*
X55247Y-41807D01*
X55218Y-41792D01*
X55190Y-41764D01*
X55175Y-41721D01*
X55175Y-41692D01*
X55190Y-41650D01*
X55204Y-41635D01*
X55275Y-41378D02*
X55475Y-41378D01*
X55161Y-41450D02*
X55375Y-41521D01*
X55375Y-41335D01*
X55175Y-41164D02*
X55175Y-41135D01*
X55190Y-41107D01*
X55204Y-41092D01*
X55232Y-41078D01*
X55290Y-41064D01*
X55361Y-41064D01*
X55418Y-41078D01*
X55447Y-41092D01*
X55461Y-41107D01*
X55475Y-41135D01*
X55475Y-41164D01*
X55461Y-41192D01*
X55447Y-41207D01*
X55418Y-41221D01*
X55361Y-41235D01*
X55290Y-41235D01*
X55232Y-41221D01*
X55204Y-41207D01*
X55190Y-41192D01*
X55175Y-41164D01*
X55275Y-40807D02*
X55475Y-40807D01*
X55161Y-40878D02*
X55375Y-40950D01*
X55375Y-40764D01*
X39770Y-31085D02*
X39770Y-31300D01*
X39755Y-31342D01*
X39727Y-31371D01*
X39684Y-31385D01*
X39655Y-31385D01*
X40041Y-31185D02*
X40041Y-31385D01*
X39970Y-31071D02*
X39898Y-31285D01*
X40084Y-31285D01*
X48615Y-34554D02*
X48858Y-34554D01*
X48887Y-34540D01*
X48901Y-34525D01*
X48915Y-34497D01*
X48915Y-34440D01*
X48901Y-34411D01*
X48887Y-34397D01*
X48858Y-34382D01*
X48615Y-34382D01*
X48615Y-34268D02*
X48615Y-34082D01*
X48730Y-34182D01*
X48730Y-34139D01*
X48744Y-34111D01*
X48758Y-34097D01*
X48787Y-34082D01*
X48858Y-34082D01*
X48887Y-34097D01*
X48901Y-34111D01*
X48915Y-34139D01*
X48915Y-34225D01*
X48901Y-34254D01*
X48887Y-34268D01*
X48615Y-33897D02*
X48615Y-33868D01*
X48630Y-33840D01*
X48644Y-33825D01*
X48672Y-33811D01*
X48730Y-33797D01*
X48801Y-33797D01*
X48858Y-33811D01*
X48887Y-33825D01*
X48901Y-33840D01*
X48915Y-33868D01*
X48915Y-33897D01*
X48901Y-33925D01*
X48887Y-33940D01*
X48858Y-33954D01*
X48801Y-33968D01*
X48730Y-33968D01*
X48672Y-33954D01*
X48644Y-33940D01*
X48630Y-33925D01*
X48615Y-33897D01*
X48915Y-33511D02*
X48915Y-33682D01*
X48915Y-33597D02*
X48615Y-33597D01*
X48658Y-33625D01*
X48687Y-33654D01*
X48701Y-33682D01*
X48625Y-36115D02*
X48625Y-36258D01*
X48325Y-36258D01*
X48325Y-36044D02*
X48325Y-35858D01*
X48440Y-35958D01*
X48440Y-35915D01*
X48454Y-35887D01*
X48468Y-35872D01*
X48497Y-35858D01*
X48568Y-35858D01*
X48597Y-35872D01*
X48611Y-35887D01*
X48625Y-35915D01*
X48625Y-36001D01*
X48611Y-36029D01*
X48597Y-36044D01*
X48325Y-35672D02*
X48325Y-35644D01*
X48340Y-35615D01*
X48354Y-35601D01*
X48382Y-35587D01*
X48440Y-35572D01*
X48511Y-35572D01*
X48568Y-35587D01*
X48597Y-35601D01*
X48611Y-35615D01*
X48625Y-35644D01*
X48625Y-35672D01*
X48611Y-35701D01*
X48597Y-35715D01*
X48568Y-35729D01*
X48511Y-35744D01*
X48440Y-35744D01*
X48382Y-35729D01*
X48354Y-35715D01*
X48340Y-35701D01*
X48325Y-35672D01*
X48625Y-35287D02*
X48625Y-35458D01*
X48625Y-35372D02*
X48325Y-35372D01*
X48368Y-35401D01*
X48397Y-35430D01*
X48411Y-35458D01*
X65335Y-47514D02*
X65578Y-47514D01*
X65607Y-47500D01*
X65621Y-47485D01*
X65635Y-47457D01*
X65635Y-47400D01*
X65621Y-47371D01*
X65607Y-47357D01*
X65578Y-47342D01*
X65335Y-47342D01*
X65435Y-47071D02*
X65635Y-47071D01*
X65321Y-47142D02*
X65535Y-47214D01*
X65535Y-47028D01*
X65335Y-46857D02*
X65335Y-46828D01*
X65350Y-46800D01*
X65364Y-46785D01*
X65392Y-46771D01*
X65450Y-46757D01*
X65521Y-46757D01*
X65578Y-46771D01*
X65607Y-46785D01*
X65621Y-46800D01*
X65635Y-46828D01*
X65635Y-46857D01*
X65621Y-46885D01*
X65607Y-46900D01*
X65578Y-46914D01*
X65521Y-46928D01*
X65450Y-46928D01*
X65392Y-46914D01*
X65364Y-46900D01*
X65350Y-46885D01*
X65335Y-46857D01*
X65635Y-46471D02*
X65635Y-46642D01*
X65635Y-46557D02*
X65335Y-46557D01*
X65378Y-46585D01*
X65407Y-46614D01*
X65421Y-46642D01*
X64266Y-47486D02*
X64173Y-47353D01*
X64106Y-47486D02*
X64106Y-47206D01*
X64213Y-47206D01*
X64240Y-47220D01*
X64253Y-47233D01*
X64266Y-47260D01*
X64266Y-47300D01*
X64253Y-47326D01*
X64240Y-47340D01*
X64213Y-47353D01*
X64106Y-47353D01*
X64506Y-47300D02*
X64506Y-47486D01*
X64440Y-47193D02*
X64373Y-47393D01*
X64546Y-47393D01*
X64706Y-47206D02*
X64733Y-47206D01*
X64760Y-47220D01*
X64773Y-47233D01*
X64786Y-47260D01*
X64800Y-47313D01*
X64800Y-47380D01*
X64786Y-47433D01*
X64773Y-47460D01*
X64760Y-47473D01*
X64733Y-47486D01*
X64706Y-47486D01*
X64680Y-47473D01*
X64666Y-47460D01*
X64653Y-47433D01*
X64640Y-47380D01*
X64640Y-47313D01*
X64653Y-47260D01*
X64666Y-47233D01*
X64680Y-47220D01*
X64706Y-47206D01*
X64893Y-47206D02*
X65066Y-47206D01*
X64973Y-47313D01*
X65013Y-47313D01*
X65040Y-47326D01*
X65053Y-47340D01*
X65066Y-47366D01*
X65066Y-47433D01*
X65053Y-47460D01*
X65040Y-47473D01*
X65013Y-47486D01*
X64933Y-47486D01*
X64906Y-47473D01*
X64893Y-47460D01*
X61756Y-46173D02*
X61623Y-46266D01*
X61756Y-46333D02*
X61476Y-46333D01*
X61476Y-46226D01*
X61490Y-46199D01*
X61503Y-46186D01*
X61530Y-46173D01*
X61570Y-46173D01*
X61596Y-46186D01*
X61610Y-46199D01*
X61623Y-46226D01*
X61623Y-46333D01*
X61570Y-45933D02*
X61756Y-45933D01*
X61463Y-45999D02*
X61663Y-46066D01*
X61663Y-45893D01*
X61476Y-45733D02*
X61476Y-45706D01*
X61490Y-45679D01*
X61503Y-45666D01*
X61530Y-45653D01*
X61583Y-45639D01*
X61650Y-45639D01*
X61703Y-45653D01*
X61730Y-45666D01*
X61743Y-45679D01*
X61756Y-45706D01*
X61756Y-45733D01*
X61743Y-45759D01*
X61730Y-45773D01*
X61703Y-45786D01*
X61650Y-45799D01*
X61583Y-45799D01*
X61530Y-45786D01*
X61503Y-45773D01*
X61490Y-45759D01*
X61476Y-45733D01*
X61570Y-45400D02*
X61756Y-45400D01*
X61463Y-45466D02*
X61663Y-45533D01*
X61663Y-45360D01*
X63226Y-47766D02*
X63133Y-47633D01*
X63066Y-47766D02*
X63066Y-47486D01*
X63173Y-47486D01*
X63200Y-47500D01*
X63213Y-47513D01*
X63226Y-47540D01*
X63226Y-47580D01*
X63213Y-47606D01*
X63200Y-47620D01*
X63173Y-47633D01*
X63066Y-47633D01*
X63466Y-47580D02*
X63466Y-47766D01*
X63400Y-47473D02*
X63333Y-47673D01*
X63506Y-47673D01*
X63666Y-47486D02*
X63693Y-47486D01*
X63720Y-47500D01*
X63733Y-47513D01*
X63746Y-47540D01*
X63760Y-47593D01*
X63760Y-47660D01*
X63746Y-47713D01*
X63733Y-47740D01*
X63720Y-47753D01*
X63693Y-47766D01*
X63666Y-47766D01*
X63640Y-47753D01*
X63626Y-47740D01*
X63613Y-47713D01*
X63600Y-47660D01*
X63600Y-47593D01*
X63613Y-47540D01*
X63626Y-47513D01*
X63640Y-47500D01*
X63666Y-47486D01*
X64013Y-47486D02*
X63880Y-47486D01*
X63866Y-47620D01*
X63880Y-47606D01*
X63906Y-47593D01*
X63973Y-47593D01*
X64000Y-47606D01*
X64013Y-47620D01*
X64026Y-47646D01*
X64026Y-47713D01*
X64013Y-47740D01*
X64000Y-47753D01*
X63973Y-47766D01*
X63906Y-47766D01*
X63880Y-47753D01*
X63866Y-47740D01*
X65265Y-45015D02*
X65122Y-45115D01*
X65265Y-45187D02*
X64965Y-45187D01*
X64965Y-45072D01*
X64980Y-45044D01*
X64994Y-45030D01*
X65022Y-45015D01*
X65065Y-45015D01*
X65094Y-45030D01*
X65108Y-45044D01*
X65122Y-45072D01*
X65122Y-45187D01*
X65065Y-44758D02*
X65265Y-44758D01*
X64951Y-44830D02*
X65165Y-44901D01*
X65165Y-44715D01*
X64965Y-44544D02*
X64965Y-44515D01*
X64980Y-44487D01*
X64994Y-44472D01*
X65022Y-44458D01*
X65080Y-44444D01*
X65151Y-44444D01*
X65208Y-44458D01*
X65237Y-44472D01*
X65251Y-44487D01*
X65265Y-44515D01*
X65265Y-44544D01*
X65251Y-44572D01*
X65237Y-44587D01*
X65208Y-44601D01*
X65151Y-44615D01*
X65080Y-44615D01*
X65022Y-44601D01*
X64994Y-44587D01*
X64980Y-44572D01*
X64965Y-44544D01*
X64965Y-44187D02*
X64965Y-44244D01*
X64980Y-44272D01*
X64994Y-44287D01*
X65037Y-44315D01*
X65094Y-44330D01*
X65208Y-44330D01*
X65237Y-44315D01*
X65251Y-44301D01*
X65265Y-44272D01*
X65265Y-44215D01*
X65251Y-44187D01*
X65237Y-44172D01*
X65208Y-44158D01*
X65137Y-44158D01*
X65108Y-44172D01*
X65094Y-44187D01*
X65080Y-44215D01*
X65080Y-44272D01*
X65094Y-44301D01*
X65108Y-44315D01*
X65137Y-44330D01*
G54D13*
X60135Y-42525D02*
X59992Y-42625D01*
X60135Y-42697D02*
X59835Y-42697D01*
X59835Y-42582D01*
X59850Y-42554D01*
X59864Y-42540D01*
X59892Y-42525D01*
X59935Y-42525D01*
X59964Y-42540D01*
X59978Y-42554D01*
X59992Y-42582D01*
X59992Y-42697D01*
X59935Y-42268D02*
X60135Y-42268D01*
X59821Y-42340D02*
X60035Y-42411D01*
X60035Y-42225D01*
X59835Y-42054D02*
X59835Y-42025D01*
X59850Y-41997D01*
X59864Y-41982D01*
X59892Y-41968D01*
X59950Y-41954D01*
X60021Y-41954D01*
X60078Y-41968D01*
X60107Y-41982D01*
X60121Y-41997D01*
X60135Y-42025D01*
X60135Y-42054D01*
X60121Y-42082D01*
X60107Y-42097D01*
X60078Y-42111D01*
X60021Y-42125D01*
X59950Y-42125D01*
X59892Y-42111D01*
X59864Y-42097D01*
X59850Y-42082D01*
X59835Y-42054D01*
X59835Y-41854D02*
X59835Y-41654D01*
X60135Y-41782D01*
G54D16*
X57304Y-42797D02*
X57290Y-42811D01*
X57247Y-42825D01*
X57218Y-42825D01*
X57175Y-42811D01*
X57147Y-42782D01*
X57132Y-42754D01*
X57118Y-42697D01*
X57118Y-42654D01*
X57132Y-42597D01*
X57147Y-42568D01*
X57175Y-42540D01*
X57218Y-42525D01*
X57247Y-42525D01*
X57290Y-42540D01*
X57304Y-42554D01*
X57404Y-42525D02*
X57590Y-42525D01*
X57490Y-42640D01*
X57532Y-42640D01*
X57561Y-42654D01*
X57575Y-42668D01*
X57590Y-42697D01*
X57590Y-42768D01*
X57575Y-42797D01*
X57561Y-42811D01*
X57532Y-42825D01*
X57447Y-42825D01*
X57418Y-42811D01*
X57404Y-42797D01*
X57775Y-42525D02*
X57804Y-42525D01*
X57832Y-42540D01*
X57847Y-42554D01*
X57861Y-42582D01*
X57875Y-42640D01*
X57875Y-42711D01*
X57861Y-42768D01*
X57847Y-42797D01*
X57832Y-42811D01*
X57804Y-42825D01*
X57775Y-42825D01*
X57747Y-42811D01*
X57732Y-42797D01*
X57718Y-42768D01*
X57704Y-42711D01*
X57704Y-42640D01*
X57718Y-42582D01*
X57732Y-42554D01*
X57747Y-42540D01*
X57775Y-42525D01*
X58161Y-42825D02*
X57990Y-42825D01*
X58075Y-42825D02*
X58075Y-42525D01*
X58047Y-42568D01*
X58018Y-42597D01*
X57990Y-42611D01*
X59760Y-46293D02*
X59773Y-46306D01*
X59786Y-46346D01*
X59786Y-46373D01*
X59773Y-46413D01*
X59746Y-46439D01*
X59720Y-46453D01*
X59666Y-46466D01*
X59626Y-46466D01*
X59573Y-46453D01*
X59546Y-46439D01*
X59520Y-46413D01*
X59506Y-46373D01*
X59506Y-46346D01*
X59520Y-46306D01*
X59533Y-46293D01*
X59506Y-46199D02*
X59506Y-46026D01*
X59613Y-46119D01*
X59613Y-46079D01*
X59626Y-46053D01*
X59640Y-46039D01*
X59666Y-46026D01*
X59733Y-46026D01*
X59760Y-46039D01*
X59773Y-46053D01*
X59786Y-46079D01*
X59786Y-46159D01*
X59773Y-46186D01*
X59760Y-46199D01*
X59506Y-45853D02*
X59506Y-45826D01*
X59520Y-45799D01*
X59533Y-45786D01*
X59560Y-45773D01*
X59613Y-45759D01*
X59680Y-45759D01*
X59733Y-45773D01*
X59760Y-45786D01*
X59773Y-45799D01*
X59786Y-45826D01*
X59786Y-45853D01*
X59773Y-45879D01*
X59760Y-45893D01*
X59733Y-45906D01*
X59680Y-45919D01*
X59613Y-45919D01*
X59560Y-45906D01*
X59533Y-45893D01*
X59520Y-45879D01*
X59506Y-45853D01*
X59533Y-45653D02*
X59520Y-45640D01*
X59506Y-45613D01*
X59506Y-45546D01*
X59520Y-45520D01*
X59533Y-45506D01*
X59560Y-45493D01*
X59586Y-45493D01*
X59626Y-45506D01*
X59786Y-45666D01*
X59786Y-45493D01*
X59777Y-47405D02*
X59791Y-47420D01*
X59805Y-47462D01*
X59805Y-47491D01*
X59791Y-47534D01*
X59762Y-47562D01*
X59734Y-47577D01*
X59677Y-47591D01*
X59634Y-47591D01*
X59577Y-47577D01*
X59548Y-47562D01*
X59520Y-47534D01*
X59505Y-47491D01*
X59505Y-47462D01*
X59520Y-47420D01*
X59534Y-47405D01*
X59505Y-47305D02*
X59505Y-47120D01*
X59620Y-47220D01*
X59620Y-47177D01*
X59634Y-47148D01*
X59648Y-47134D01*
X59677Y-47120D01*
X59748Y-47120D01*
X59777Y-47134D01*
X59791Y-47148D01*
X59805Y-47177D01*
X59805Y-47262D01*
X59791Y-47291D01*
X59777Y-47305D01*
X59505Y-46934D02*
X59505Y-46905D01*
X59520Y-46877D01*
X59534Y-46862D01*
X59562Y-46848D01*
X59620Y-46834D01*
X59691Y-46834D01*
X59748Y-46848D01*
X59777Y-46862D01*
X59791Y-46877D01*
X59805Y-46905D01*
X59805Y-46934D01*
X59791Y-46962D01*
X59777Y-46977D01*
X59748Y-46991D01*
X59691Y-47005D01*
X59620Y-47005D01*
X59562Y-46991D01*
X59534Y-46977D01*
X59520Y-46962D01*
X59505Y-46934D01*
X59505Y-46734D02*
X59505Y-46548D01*
X59620Y-46648D01*
X59620Y-46605D01*
X59634Y-46577D01*
X59648Y-46562D01*
X59677Y-46548D01*
X59748Y-46548D01*
X59777Y-46562D01*
X59791Y-46577D01*
X59805Y-46605D01*
X59805Y-46691D01*
X59791Y-46720D01*
X59777Y-46734D01*
X59767Y-44115D02*
X59781Y-44130D01*
X59795Y-44172D01*
X59795Y-44201D01*
X59781Y-44244D01*
X59752Y-44272D01*
X59724Y-44287D01*
X59667Y-44301D01*
X59624Y-44301D01*
X59567Y-44287D01*
X59538Y-44272D01*
X59510Y-44244D01*
X59495Y-44201D01*
X59495Y-44172D01*
X59510Y-44130D01*
X59524Y-44115D01*
X59495Y-44015D02*
X59495Y-43830D01*
X59610Y-43930D01*
X59610Y-43887D01*
X59624Y-43858D01*
X59638Y-43844D01*
X59667Y-43830D01*
X59738Y-43830D01*
X59767Y-43844D01*
X59781Y-43858D01*
X59795Y-43887D01*
X59795Y-43972D01*
X59781Y-44001D01*
X59767Y-44015D01*
X59495Y-43644D02*
X59495Y-43615D01*
X59510Y-43587D01*
X59524Y-43572D01*
X59552Y-43558D01*
X59610Y-43544D01*
X59681Y-43544D01*
X59738Y-43558D01*
X59767Y-43572D01*
X59781Y-43587D01*
X59795Y-43615D01*
X59795Y-43644D01*
X59781Y-43672D01*
X59767Y-43687D01*
X59738Y-43701D01*
X59681Y-43715D01*
X59610Y-43715D01*
X59552Y-43701D01*
X59524Y-43687D01*
X59510Y-43672D01*
X59495Y-43644D01*
X59595Y-43287D02*
X59795Y-43287D01*
X59481Y-43358D02*
X59695Y-43430D01*
X59695Y-43244D01*
X59786Y-45253D02*
X59653Y-45346D01*
X59786Y-45413D02*
X59506Y-45413D01*
X59506Y-45306D01*
X59520Y-45279D01*
X59533Y-45266D01*
X59560Y-45253D01*
X59600Y-45253D01*
X59626Y-45266D01*
X59640Y-45279D01*
X59653Y-45306D01*
X59653Y-45413D01*
X59506Y-45159D02*
X59506Y-44986D01*
X59613Y-45079D01*
X59613Y-45039D01*
X59626Y-45013D01*
X59640Y-44999D01*
X59666Y-44986D01*
X59733Y-44986D01*
X59760Y-44999D01*
X59773Y-45013D01*
X59786Y-45039D01*
X59786Y-45119D01*
X59773Y-45146D01*
X59760Y-45159D01*
X59506Y-44813D02*
X59506Y-44786D01*
X59520Y-44759D01*
X59533Y-44746D01*
X59560Y-44733D01*
X59613Y-44719D01*
X59680Y-44719D01*
X59733Y-44733D01*
X59760Y-44746D01*
X59773Y-44759D01*
X59786Y-44786D01*
X59786Y-44813D01*
X59773Y-44839D01*
X59760Y-44853D01*
X59733Y-44866D01*
X59680Y-44879D01*
X59613Y-44879D01*
X59560Y-44866D01*
X59533Y-44853D01*
X59520Y-44839D01*
X59506Y-44813D01*
X59786Y-44453D02*
X59786Y-44613D01*
X59786Y-44533D02*
X59506Y-44533D01*
X59546Y-44560D01*
X59573Y-44586D01*
X59586Y-44613D01*
X57876Y-40486D02*
X57783Y-40353D01*
X57716Y-40486D02*
X57716Y-40206D01*
X57823Y-40206D01*
X57850Y-40220D01*
X57863Y-40233D01*
X57876Y-40260D01*
X57876Y-40300D01*
X57863Y-40326D01*
X57850Y-40340D01*
X57823Y-40353D01*
X57716Y-40353D01*
X58116Y-40300D02*
X58116Y-40486D01*
X58050Y-40193D02*
X57983Y-40393D01*
X58156Y-40393D01*
X58316Y-40206D02*
X58343Y-40206D01*
X58370Y-40220D01*
X58383Y-40233D01*
X58396Y-40260D01*
X58410Y-40313D01*
X58410Y-40380D01*
X58396Y-40433D01*
X58383Y-40460D01*
X58370Y-40473D01*
X58343Y-40486D01*
X58316Y-40486D01*
X58290Y-40473D01*
X58276Y-40460D01*
X58263Y-40433D01*
X58250Y-40380D01*
X58250Y-40313D01*
X58263Y-40260D01*
X58276Y-40233D01*
X58290Y-40220D01*
X58316Y-40206D01*
X58570Y-40326D02*
X58543Y-40313D01*
X58530Y-40300D01*
X58516Y-40273D01*
X58516Y-40260D01*
X58530Y-40233D01*
X58543Y-40220D01*
X58570Y-40206D01*
X58623Y-40206D01*
X58650Y-40220D01*
X58663Y-40233D01*
X58676Y-40260D01*
X58676Y-40273D01*
X58663Y-40300D01*
X58650Y-40313D01*
X58623Y-40326D01*
X58570Y-40326D01*
X58543Y-40340D01*
X58530Y-40353D01*
X58516Y-40380D01*
X58516Y-40433D01*
X58530Y-40460D01*
X58543Y-40473D01*
X58570Y-40486D01*
X58623Y-40486D01*
X58650Y-40473D01*
X58663Y-40460D01*
X58676Y-40433D01*
X58676Y-40380D01*
X58663Y-40353D01*
X58650Y-40340D01*
X58623Y-40326D01*
X55975Y-39555D02*
X55975Y-39798D01*
X55990Y-39827D01*
X56004Y-39841D01*
X56032Y-39855D01*
X56090Y-39855D01*
X56118Y-39841D01*
X56132Y-39827D01*
X56147Y-39798D01*
X56147Y-39555D01*
X56418Y-39655D02*
X56418Y-39855D01*
X56347Y-39541D02*
X56275Y-39755D01*
X56461Y-39755D01*
X56632Y-39555D02*
X56661Y-39555D01*
X56690Y-39570D01*
X56704Y-39584D01*
X56718Y-39612D01*
X56732Y-39670D01*
X56732Y-39741D01*
X56718Y-39798D01*
X56704Y-39827D01*
X56690Y-39841D01*
X56661Y-39855D01*
X56632Y-39855D01*
X56604Y-39841D01*
X56590Y-39827D01*
X56575Y-39798D01*
X56561Y-39741D01*
X56561Y-39670D01*
X56575Y-39612D01*
X56590Y-39584D01*
X56604Y-39570D01*
X56632Y-39555D01*
X56847Y-39584D02*
X56861Y-39570D01*
X56890Y-39555D01*
X56961Y-39555D01*
X56990Y-39570D01*
X57004Y-39584D01*
X57018Y-39612D01*
X57018Y-39641D01*
X57004Y-39684D01*
X56832Y-39855D01*
X57018Y-39855D01*
G54D18*
X43130Y-31263D02*
X43143Y-31276D01*
X43156Y-31316D01*
X43156Y-31343D01*
X43143Y-31383D01*
X43116Y-31409D01*
X43090Y-31423D01*
X43036Y-31436D01*
X42996Y-31436D01*
X42943Y-31423D01*
X42916Y-31409D01*
X42890Y-31383D01*
X42876Y-31343D01*
X42876Y-31316D01*
X42890Y-31276D01*
X42903Y-31263D01*
X42876Y-31169D02*
X42876Y-30996D01*
X42983Y-31089D01*
X42983Y-31049D01*
X42996Y-31023D01*
X43010Y-31009D01*
X43036Y-30996D01*
X43103Y-30996D01*
X43130Y-31009D01*
X43143Y-31023D01*
X43156Y-31049D01*
X43156Y-31129D01*
X43143Y-31156D01*
X43130Y-31169D01*
X42876Y-30823D02*
X42876Y-30796D01*
X42890Y-30769D01*
X42903Y-30756D01*
X42930Y-30743D01*
X42983Y-30729D01*
X43050Y-30729D01*
X43103Y-30743D01*
X43130Y-30756D01*
X43143Y-30769D01*
X43156Y-30796D01*
X43156Y-30823D01*
X43143Y-30849D01*
X43130Y-30863D01*
X43103Y-30876D01*
X43050Y-30889D01*
X42983Y-30889D01*
X42930Y-30876D01*
X42903Y-30863D01*
X42890Y-30849D01*
X42876Y-30823D01*
X42876Y-30476D02*
X42876Y-30610D01*
X43010Y-30623D01*
X42996Y-30610D01*
X42983Y-30583D01*
X42983Y-30516D01*
X42996Y-30490D01*
X43010Y-30476D01*
X43036Y-30463D01*
X43103Y-30463D01*
X43130Y-30476D01*
X43143Y-30490D01*
X43156Y-30516D01*
X43156Y-30583D01*
X43143Y-30610D01*
X43130Y-30623D01*
X41264Y-32885D02*
X41164Y-32742D01*
X41092Y-32885D02*
X41092Y-32585D01*
X41207Y-32585D01*
X41235Y-32600D01*
X41250Y-32614D01*
X41264Y-32642D01*
X41264Y-32685D01*
X41250Y-32714D01*
X41235Y-32728D01*
X41207Y-32742D01*
X41092Y-32742D01*
X41364Y-32585D02*
X41550Y-32585D01*
X41450Y-32700D01*
X41492Y-32700D01*
X41521Y-32714D01*
X41535Y-32728D01*
X41550Y-32757D01*
X41550Y-32828D01*
X41535Y-32857D01*
X41521Y-32871D01*
X41492Y-32885D01*
X41407Y-32885D01*
X41378Y-32871D01*
X41364Y-32857D01*
X41735Y-32585D02*
X41764Y-32585D01*
X41792Y-32600D01*
X41807Y-32614D01*
X41821Y-32642D01*
X41835Y-32700D01*
X41835Y-32771D01*
X41821Y-32828D01*
X41807Y-32857D01*
X41792Y-32871D01*
X41764Y-32885D01*
X41735Y-32885D01*
X41707Y-32871D01*
X41692Y-32857D01*
X41678Y-32828D01*
X41664Y-32771D01*
X41664Y-32700D01*
X41678Y-32642D01*
X41692Y-32614D01*
X41707Y-32600D01*
X41735Y-32585D01*
X41935Y-32585D02*
X42121Y-32585D01*
X42021Y-32700D01*
X42064Y-32700D01*
X42092Y-32714D01*
X42107Y-32728D01*
X42121Y-32757D01*
X42121Y-32828D01*
X42107Y-32857D01*
X42092Y-32871D01*
X42064Y-32885D01*
X41978Y-32885D01*
X41950Y-32871D01*
X41935Y-32857D01*
G54D16*
X47784Y-31385D02*
X47684Y-31242D01*
X47612Y-31385D02*
X47612Y-31085D01*
X47727Y-31085D01*
X47755Y-31100D01*
X47770Y-31114D01*
X47784Y-31142D01*
X47784Y-31185D01*
X47770Y-31214D01*
X47755Y-31228D01*
X47727Y-31242D01*
X47612Y-31242D01*
X47884Y-31085D02*
X48070Y-31085D01*
X47970Y-31200D01*
X48012Y-31200D01*
X48041Y-31214D01*
X48055Y-31228D01*
X48070Y-31257D01*
X48070Y-31328D01*
X48055Y-31357D01*
X48041Y-31371D01*
X48012Y-31385D01*
X47927Y-31385D01*
X47898Y-31371D01*
X47884Y-31357D01*
X48255Y-31085D02*
X48284Y-31085D01*
X48312Y-31100D01*
X48327Y-31114D01*
X48341Y-31142D01*
X48355Y-31200D01*
X48355Y-31271D01*
X48341Y-31328D01*
X48327Y-31357D01*
X48312Y-31371D01*
X48284Y-31385D01*
X48255Y-31385D01*
X48227Y-31371D01*
X48212Y-31357D01*
X48198Y-31328D01*
X48184Y-31271D01*
X48184Y-31200D01*
X48198Y-31142D01*
X48212Y-31114D01*
X48227Y-31100D01*
X48255Y-31085D01*
X48612Y-31185D02*
X48612Y-31385D01*
X48541Y-31071D02*
X48470Y-31285D01*
X48655Y-31285D01*
X43461Y-33195D02*
X43661Y-33495D01*
X43661Y-33195D02*
X43461Y-33495D01*
X43747Y-33195D02*
X43932Y-33195D01*
X43832Y-33310D01*
X43875Y-33310D01*
X43904Y-33324D01*
X43918Y-33338D01*
X43932Y-33367D01*
X43932Y-33438D01*
X43918Y-33467D01*
X43904Y-33481D01*
X43875Y-33495D01*
X43790Y-33495D01*
X43761Y-33481D01*
X43747Y-33467D01*
X44118Y-33195D02*
X44147Y-33195D01*
X44175Y-33210D01*
X44190Y-33224D01*
X44204Y-33252D01*
X44218Y-33310D01*
X44218Y-33381D01*
X44204Y-33438D01*
X44190Y-33467D01*
X44175Y-33481D01*
X44147Y-33495D01*
X44118Y-33495D01*
X44090Y-33481D01*
X44075Y-33467D01*
X44061Y-33438D01*
X44047Y-33381D01*
X44047Y-33310D01*
X44061Y-33252D01*
X44075Y-33224D01*
X44090Y-33210D01*
X44118Y-33195D01*
X44504Y-33495D02*
X44332Y-33495D01*
X44418Y-33495D02*
X44418Y-33195D01*
X44390Y-33238D01*
X44361Y-33267D01*
X44332Y-33281D01*
G54D18*
X41825Y-33015D02*
X41825Y-33258D01*
X41840Y-33287D01*
X41854Y-33301D01*
X41882Y-33315D01*
X41940Y-33315D01*
X41968Y-33301D01*
X41982Y-33287D01*
X41997Y-33258D01*
X41997Y-33015D01*
X42282Y-33015D02*
X42140Y-33015D01*
X42125Y-33158D01*
X42140Y-33144D01*
X42168Y-33130D01*
X42240Y-33130D01*
X42268Y-33144D01*
X42282Y-33158D01*
X42297Y-33187D01*
X42297Y-33258D01*
X42282Y-33287D01*
X42268Y-33301D01*
X42240Y-33315D01*
X42168Y-33315D01*
X42140Y-33301D01*
X42125Y-33287D01*
X42482Y-33015D02*
X42511Y-33015D01*
X42540Y-33030D01*
X42554Y-33044D01*
X42568Y-33072D01*
X42582Y-33130D01*
X42582Y-33201D01*
X42568Y-33258D01*
X42554Y-33287D01*
X42540Y-33301D01*
X42511Y-33315D01*
X42482Y-33315D01*
X42454Y-33301D01*
X42440Y-33287D01*
X42425Y-33258D01*
X42411Y-33201D01*
X42411Y-33130D01*
X42425Y-33072D01*
X42440Y-33044D01*
X42454Y-33030D01*
X42482Y-33015D01*
X42868Y-33315D02*
X42697Y-33315D01*
X42782Y-33315D02*
X42782Y-33015D01*
X42754Y-33058D01*
X42725Y-33087D01*
X42697Y-33101D01*
X41495Y-35664D02*
X41738Y-35664D01*
X41767Y-35650D01*
X41781Y-35635D01*
X41795Y-35607D01*
X41795Y-35550D01*
X41781Y-35521D01*
X41767Y-35507D01*
X41738Y-35492D01*
X41495Y-35492D01*
X41495Y-35207D02*
X41495Y-35349D01*
X41638Y-35364D01*
X41624Y-35349D01*
X41610Y-35321D01*
X41610Y-35249D01*
X41624Y-35221D01*
X41638Y-35207D01*
X41667Y-35192D01*
X41738Y-35192D01*
X41767Y-35207D01*
X41781Y-35221D01*
X41795Y-35249D01*
X41795Y-35321D01*
X41781Y-35349D01*
X41767Y-35364D01*
X41495Y-35007D02*
X41495Y-34978D01*
X41510Y-34950D01*
X41524Y-34935D01*
X41552Y-34921D01*
X41610Y-34907D01*
X41681Y-34907D01*
X41738Y-34921D01*
X41767Y-34935D01*
X41781Y-34950D01*
X41795Y-34978D01*
X41795Y-35007D01*
X41781Y-35035D01*
X41767Y-35050D01*
X41738Y-35064D01*
X41681Y-35078D01*
X41610Y-35078D01*
X41552Y-35064D01*
X41524Y-35050D01*
X41510Y-35035D01*
X41495Y-35007D01*
X41524Y-34792D02*
X41510Y-34778D01*
X41495Y-34750D01*
X41495Y-34678D01*
X41510Y-34650D01*
X41524Y-34635D01*
X41552Y-34621D01*
X41581Y-34621D01*
X41624Y-34635D01*
X41795Y-34807D01*
X41795Y-34621D01*
G54D16*
X44037Y-36215D02*
X44051Y-36230D01*
X44065Y-36272D01*
X44065Y-36301D01*
X44051Y-36344D01*
X44022Y-36372D01*
X43994Y-36387D01*
X43937Y-36401D01*
X43894Y-36401D01*
X43837Y-36387D01*
X43808Y-36372D01*
X43780Y-36344D01*
X43765Y-36301D01*
X43765Y-36272D01*
X43780Y-36230D01*
X43794Y-36215D01*
X43765Y-36115D02*
X43765Y-35930D01*
X43880Y-36030D01*
X43880Y-35987D01*
X43894Y-35958D01*
X43908Y-35944D01*
X43937Y-35930D01*
X44008Y-35930D01*
X44037Y-35944D01*
X44051Y-35958D01*
X44065Y-35987D01*
X44065Y-36072D01*
X44051Y-36101D01*
X44037Y-36115D01*
X43765Y-35744D02*
X43765Y-35715D01*
X43780Y-35687D01*
X43794Y-35672D01*
X43822Y-35658D01*
X43880Y-35644D01*
X43951Y-35644D01*
X44008Y-35658D01*
X44037Y-35672D01*
X44051Y-35687D01*
X44065Y-35715D01*
X44065Y-35744D01*
X44051Y-35772D01*
X44037Y-35787D01*
X44008Y-35801D01*
X43951Y-35815D01*
X43880Y-35815D01*
X43822Y-35801D01*
X43794Y-35787D01*
X43780Y-35772D01*
X43765Y-35744D01*
X43765Y-35387D02*
X43765Y-35444D01*
X43780Y-35472D01*
X43794Y-35487D01*
X43837Y-35515D01*
X43894Y-35530D01*
X44008Y-35530D01*
X44037Y-35515D01*
X44051Y-35501D01*
X44065Y-35472D01*
X44065Y-35415D01*
X44051Y-35387D01*
X44037Y-35372D01*
X44008Y-35358D01*
X43937Y-35358D01*
X43908Y-35372D01*
X43894Y-35387D01*
X43880Y-35415D01*
X43880Y-35472D01*
X43894Y-35501D01*
X43908Y-35515D01*
X43937Y-35530D01*
X40234Y-30787D02*
X40220Y-30801D01*
X40177Y-30815D01*
X40148Y-30815D01*
X40105Y-30801D01*
X40077Y-30772D01*
X40062Y-30744D01*
X40048Y-30687D01*
X40048Y-30644D01*
X40062Y-30587D01*
X40077Y-30558D01*
X40105Y-30530D01*
X40148Y-30515D01*
X40177Y-30515D01*
X40220Y-30530D01*
X40234Y-30544D01*
X40505Y-30515D02*
X40362Y-30515D01*
X40348Y-30658D01*
X40362Y-30644D01*
X40391Y-30630D01*
X40462Y-30630D01*
X40491Y-30644D01*
X40505Y-30658D01*
X40520Y-30687D01*
X40520Y-30758D01*
X40505Y-30787D01*
X40491Y-30801D01*
X40462Y-30815D01*
X40391Y-30815D01*
X40362Y-30801D01*
X40348Y-30787D01*
X40705Y-30515D02*
X40734Y-30515D01*
X40762Y-30530D01*
X40777Y-30544D01*
X40791Y-30572D01*
X40805Y-30630D01*
X40805Y-30701D01*
X40791Y-30758D01*
X40777Y-30787D01*
X40762Y-30801D01*
X40734Y-30815D01*
X40705Y-30815D01*
X40677Y-30801D01*
X40662Y-30787D01*
X40648Y-30758D01*
X40634Y-30701D01*
X40634Y-30630D01*
X40648Y-30572D01*
X40662Y-30544D01*
X40677Y-30530D01*
X40705Y-30515D01*
X41091Y-30815D02*
X40920Y-30815D01*
X41005Y-30815D02*
X41005Y-30515D01*
X40977Y-30558D01*
X40948Y-30587D01*
X40920Y-30601D01*
X46575Y-36555D02*
X46432Y-36655D01*
X46575Y-36727D02*
X46275Y-36727D01*
X46275Y-36612D01*
X46290Y-36584D01*
X46304Y-36570D01*
X46332Y-36555D01*
X46375Y-36555D01*
X46404Y-36570D01*
X46418Y-36584D01*
X46432Y-36612D01*
X46432Y-36727D01*
X46275Y-36455D02*
X46275Y-36270D01*
X46390Y-36370D01*
X46390Y-36327D01*
X46404Y-36298D01*
X46418Y-36284D01*
X46447Y-36270D01*
X46518Y-36270D01*
X46547Y-36284D01*
X46561Y-36298D01*
X46575Y-36327D01*
X46575Y-36412D01*
X46561Y-36441D01*
X46547Y-36455D01*
X46275Y-36084D02*
X46275Y-36055D01*
X46290Y-36027D01*
X46304Y-36012D01*
X46332Y-35998D01*
X46390Y-35984D01*
X46461Y-35984D01*
X46518Y-35998D01*
X46547Y-36012D01*
X46561Y-36027D01*
X46575Y-36055D01*
X46575Y-36084D01*
X46561Y-36112D01*
X46547Y-36127D01*
X46518Y-36141D01*
X46461Y-36155D01*
X46390Y-36155D01*
X46332Y-36141D01*
X46304Y-36127D01*
X46290Y-36112D01*
X46275Y-36084D01*
X46304Y-35870D02*
X46290Y-35855D01*
X46275Y-35827D01*
X46275Y-35755D01*
X46290Y-35727D01*
X46304Y-35712D01*
X46332Y-35698D01*
X46361Y-35698D01*
X46404Y-35712D01*
X46575Y-35884D01*
X46575Y-35698D01*
G54D18*
X45775Y-30545D02*
X45947Y-30545D01*
X45861Y-30845D02*
X45861Y-30545D01*
X46047Y-30845D02*
X46047Y-30545D01*
X46161Y-30545D01*
X46190Y-30560D01*
X46204Y-30574D01*
X46218Y-30602D01*
X46218Y-30645D01*
X46204Y-30674D01*
X46190Y-30688D01*
X46161Y-30702D01*
X46047Y-30702D01*
X46318Y-30545D02*
X46504Y-30545D01*
X46404Y-30660D01*
X46447Y-30660D01*
X46475Y-30674D01*
X46490Y-30688D01*
X46504Y-30717D01*
X46504Y-30788D01*
X46490Y-30817D01*
X46475Y-30831D01*
X46447Y-30845D01*
X46361Y-30845D01*
X46332Y-30831D01*
X46318Y-30817D01*
X46690Y-30545D02*
X46718Y-30545D01*
X46747Y-30560D01*
X46761Y-30574D01*
X46775Y-30602D01*
X46790Y-30660D01*
X46790Y-30731D01*
X46775Y-30788D01*
X46761Y-30817D01*
X46747Y-30831D01*
X46718Y-30845D01*
X46690Y-30845D01*
X46661Y-30831D01*
X46647Y-30817D01*
X46632Y-30788D01*
X46618Y-30731D01*
X46618Y-30660D01*
X46632Y-30602D01*
X46647Y-30574D01*
X46661Y-30560D01*
X46690Y-30545D01*
X47075Y-30845D02*
X46904Y-30845D01*
X46990Y-30845D02*
X46990Y-30545D01*
X46961Y-30588D01*
X46932Y-30617D01*
X46904Y-30631D01*
X41455Y-30545D02*
X41627Y-30545D01*
X41541Y-30845D02*
X41541Y-30545D01*
X41727Y-30845D02*
X41727Y-30545D01*
X41841Y-30545D01*
X41870Y-30560D01*
X41884Y-30574D01*
X41898Y-30602D01*
X41898Y-30645D01*
X41884Y-30674D01*
X41870Y-30688D01*
X41841Y-30702D01*
X41727Y-30702D01*
X41998Y-30545D02*
X42184Y-30545D01*
X42084Y-30660D01*
X42127Y-30660D01*
X42155Y-30674D01*
X42170Y-30688D01*
X42184Y-30717D01*
X42184Y-30788D01*
X42170Y-30817D01*
X42155Y-30831D01*
X42127Y-30845D01*
X42041Y-30845D01*
X42012Y-30831D01*
X41998Y-30817D01*
X42370Y-30545D02*
X42398Y-30545D01*
X42427Y-30560D01*
X42441Y-30574D01*
X42455Y-30602D01*
X42470Y-30660D01*
X42470Y-30731D01*
X42455Y-30788D01*
X42441Y-30817D01*
X42427Y-30831D01*
X42398Y-30845D01*
X42370Y-30845D01*
X42341Y-30831D01*
X42327Y-30817D01*
X42312Y-30788D01*
X42298Y-30731D01*
X42298Y-30660D01*
X42312Y-30602D01*
X42327Y-30574D01*
X42341Y-30560D01*
X42370Y-30545D01*
X42584Y-30574D02*
X42598Y-30560D01*
X42627Y-30545D01*
X42698Y-30545D01*
X42727Y-30560D01*
X42741Y-30574D01*
X42755Y-30602D01*
X42755Y-30631D01*
X42741Y-30674D01*
X42570Y-30845D01*
X42755Y-30845D01*
G54D16*
X44514Y-30977D02*
X44500Y-30991D01*
X44457Y-31005D01*
X44428Y-31005D01*
X44385Y-30991D01*
X44357Y-30962D01*
X44342Y-30934D01*
X44328Y-30877D01*
X44328Y-30834D01*
X44342Y-30777D01*
X44357Y-30748D01*
X44385Y-30720D01*
X44428Y-30705D01*
X44457Y-30705D01*
X44500Y-30720D01*
X44514Y-30734D01*
X44614Y-30705D02*
X44800Y-30705D01*
X44700Y-30820D01*
X44742Y-30820D01*
X44771Y-30834D01*
X44785Y-30848D01*
X44800Y-30877D01*
X44800Y-30948D01*
X44785Y-30977D01*
X44771Y-30991D01*
X44742Y-31005D01*
X44657Y-31005D01*
X44628Y-30991D01*
X44614Y-30977D01*
X44985Y-30705D02*
X45014Y-30705D01*
X45042Y-30720D01*
X45057Y-30734D01*
X45071Y-30762D01*
X45085Y-30820D01*
X45085Y-30891D01*
X45071Y-30948D01*
X45057Y-30977D01*
X45042Y-30991D01*
X45014Y-31005D01*
X44985Y-31005D01*
X44957Y-30991D01*
X44942Y-30977D01*
X44928Y-30948D01*
X44914Y-30891D01*
X44914Y-30820D01*
X44928Y-30762D01*
X44942Y-30734D01*
X44957Y-30720D01*
X44985Y-30705D01*
X45185Y-30705D02*
X45385Y-30705D01*
X45257Y-31005D01*
X42211Y-41489D02*
X42225Y-41447D01*
X42225Y-41375D01*
X42211Y-41347D01*
X42197Y-41332D01*
X42168Y-41318D01*
X42140Y-41318D01*
X42111Y-41332D01*
X42097Y-41347D01*
X42082Y-41375D01*
X42068Y-41432D01*
X42054Y-41461D01*
X42040Y-41475D01*
X42011Y-41489D01*
X41982Y-41489D01*
X41954Y-41475D01*
X41940Y-41461D01*
X41925Y-41432D01*
X41925Y-41361D01*
X41940Y-41318D01*
X41925Y-41218D02*
X42225Y-41147D01*
X42011Y-41089D01*
X42225Y-41032D01*
X41925Y-40961D01*
X42225Y-40690D02*
X42225Y-40861D01*
X42225Y-40775D02*
X41925Y-40775D01*
X41968Y-40804D01*
X41997Y-40832D01*
X42011Y-40861D01*
X47041Y-41399D02*
X47055Y-41357D01*
X47055Y-41285D01*
X47041Y-41257D01*
X47027Y-41242D01*
X46998Y-41228D01*
X46970Y-41228D01*
X46941Y-41242D01*
X46927Y-41257D01*
X46912Y-41285D01*
X46898Y-41342D01*
X46884Y-41371D01*
X46870Y-41385D01*
X46841Y-41399D01*
X46812Y-41399D01*
X46784Y-41385D01*
X46770Y-41371D01*
X46755Y-41342D01*
X46755Y-41271D01*
X46770Y-41228D01*
X46755Y-41128D02*
X47055Y-41057D01*
X46841Y-40999D01*
X47055Y-40942D01*
X46755Y-40871D01*
X46784Y-40771D02*
X46770Y-40757D01*
X46755Y-40728D01*
X46755Y-40657D01*
X46770Y-40628D01*
X46784Y-40614D01*
X46812Y-40600D01*
X46841Y-40600D01*
X46884Y-40614D01*
X47055Y-40785D01*
X47055Y-40600D01*
X48141Y-41399D02*
X48155Y-41357D01*
X48155Y-41285D01*
X48141Y-41257D01*
X48127Y-41242D01*
X48098Y-41228D01*
X48070Y-41228D01*
X48041Y-41242D01*
X48027Y-41257D01*
X48012Y-41285D01*
X47998Y-41342D01*
X47984Y-41371D01*
X47970Y-41385D01*
X47941Y-41399D01*
X47912Y-41399D01*
X47884Y-41385D01*
X47870Y-41371D01*
X47855Y-41342D01*
X47855Y-41271D01*
X47870Y-41228D01*
X47855Y-41128D02*
X48155Y-41057D01*
X47941Y-40999D01*
X48155Y-40942D01*
X47855Y-40871D01*
X47855Y-40785D02*
X47855Y-40600D01*
X47970Y-40700D01*
X47970Y-40657D01*
X47984Y-40628D01*
X47998Y-40614D01*
X48027Y-40600D01*
X48098Y-40600D01*
X48127Y-40614D01*
X48141Y-40628D01*
X48155Y-40657D01*
X48155Y-40742D01*
X48141Y-40771D01*
X48127Y-40785D01*
G54D18*
X50240Y-30586D02*
X50400Y-30586D01*
X50320Y-30866D02*
X50320Y-30586D01*
X50493Y-30866D02*
X50493Y-30586D01*
X50600Y-30586D01*
X50626Y-30600D01*
X50640Y-30613D01*
X50653Y-30640D01*
X50653Y-30680D01*
X50640Y-30706D01*
X50626Y-30720D01*
X50600Y-30733D01*
X50493Y-30733D01*
X50746Y-30586D02*
X50920Y-30586D01*
X50826Y-30693D01*
X50866Y-30693D01*
X50893Y-30706D01*
X50906Y-30720D01*
X50920Y-30746D01*
X50920Y-30813D01*
X50906Y-30840D01*
X50893Y-30853D01*
X50866Y-30866D01*
X50786Y-30866D01*
X50760Y-30853D01*
X50746Y-30840D01*
X51093Y-30586D02*
X51120Y-30586D01*
X51146Y-30600D01*
X51160Y-30613D01*
X51173Y-30640D01*
X51186Y-30693D01*
X51186Y-30760D01*
X51173Y-30813D01*
X51160Y-30840D01*
X51146Y-30853D01*
X51120Y-30866D01*
X51093Y-30866D01*
X51066Y-30853D01*
X51053Y-30840D01*
X51040Y-30813D01*
X51026Y-30760D01*
X51026Y-30693D01*
X51040Y-30640D01*
X51053Y-30613D01*
X51066Y-30600D01*
X51093Y-30586D01*
X51280Y-30586D02*
X51453Y-30586D01*
X51360Y-30693D01*
X51400Y-30693D01*
X51426Y-30706D01*
X51440Y-30720D01*
X51453Y-30746D01*
X51453Y-30813D01*
X51440Y-30840D01*
X51426Y-30853D01*
X51400Y-30866D01*
X51320Y-30866D01*
X51293Y-30853D01*
X51280Y-30840D01*
X48690Y-30596D02*
X48850Y-30596D01*
X48770Y-30876D02*
X48770Y-30596D01*
X48943Y-30876D02*
X48943Y-30596D01*
X49050Y-30596D01*
X49076Y-30610D01*
X49090Y-30623D01*
X49103Y-30650D01*
X49103Y-30690D01*
X49090Y-30716D01*
X49076Y-30730D01*
X49050Y-30743D01*
X48943Y-30743D01*
X49196Y-30596D02*
X49370Y-30596D01*
X49276Y-30703D01*
X49316Y-30703D01*
X49343Y-30716D01*
X49356Y-30730D01*
X49370Y-30756D01*
X49370Y-30823D01*
X49356Y-30850D01*
X49343Y-30863D01*
X49316Y-30876D01*
X49236Y-30876D01*
X49210Y-30863D01*
X49196Y-30850D01*
X49543Y-30596D02*
X49570Y-30596D01*
X49596Y-30610D01*
X49610Y-30623D01*
X49623Y-30650D01*
X49636Y-30703D01*
X49636Y-30770D01*
X49623Y-30823D01*
X49610Y-30850D01*
X49596Y-30863D01*
X49570Y-30876D01*
X49543Y-30876D01*
X49516Y-30863D01*
X49503Y-30850D01*
X49490Y-30823D01*
X49476Y-30770D01*
X49476Y-30703D01*
X49490Y-30650D01*
X49503Y-30623D01*
X49516Y-30610D01*
X49543Y-30596D01*
X49876Y-30690D02*
X49876Y-30876D01*
X49810Y-30583D02*
X49743Y-30783D01*
X49916Y-30783D01*
G54D16*
X39670Y-36025D02*
X39670Y-36240D01*
X39655Y-36282D01*
X39627Y-36311D01*
X39584Y-36325D01*
X39555Y-36325D01*
X39955Y-36025D02*
X39812Y-36025D01*
X39798Y-36168D01*
X39812Y-36154D01*
X39841Y-36140D01*
X39912Y-36140D01*
X39941Y-36154D01*
X39955Y-36168D01*
X39970Y-36197D01*
X39970Y-36268D01*
X39955Y-36297D01*
X39941Y-36311D01*
X39912Y-36325D01*
X39841Y-36325D01*
X39812Y-36311D01*
X39798Y-36297D01*
G54D18*
X41215Y-38054D02*
X41458Y-38054D01*
X41487Y-38040D01*
X41501Y-38025D01*
X41515Y-37997D01*
X41515Y-37940D01*
X41501Y-37911D01*
X41487Y-37897D01*
X41458Y-37882D01*
X41215Y-37882D01*
X41215Y-37597D02*
X41215Y-37739D01*
X41358Y-37754D01*
X41344Y-37739D01*
X41330Y-37711D01*
X41330Y-37639D01*
X41344Y-37611D01*
X41358Y-37597D01*
X41387Y-37582D01*
X41458Y-37582D01*
X41487Y-37597D01*
X41501Y-37611D01*
X41515Y-37639D01*
X41515Y-37711D01*
X41501Y-37739D01*
X41487Y-37754D01*
X41215Y-37397D02*
X41215Y-37368D01*
X41230Y-37340D01*
X41244Y-37325D01*
X41272Y-37311D01*
X41330Y-37297D01*
X41401Y-37297D01*
X41458Y-37311D01*
X41487Y-37325D01*
X41501Y-37340D01*
X41515Y-37368D01*
X41515Y-37397D01*
X41501Y-37425D01*
X41487Y-37440D01*
X41458Y-37454D01*
X41401Y-37468D01*
X41330Y-37468D01*
X41272Y-37454D01*
X41244Y-37440D01*
X41230Y-37425D01*
X41215Y-37397D01*
X41215Y-37197D02*
X41215Y-37011D01*
X41330Y-37111D01*
X41330Y-37068D01*
X41344Y-37040D01*
X41358Y-37025D01*
X41387Y-37011D01*
X41458Y-37011D01*
X41487Y-37025D01*
X41501Y-37040D01*
X41515Y-37068D01*
X41515Y-37154D01*
X41501Y-37182D01*
X41487Y-37197D01*
X41215Y-39464D02*
X41458Y-39464D01*
X41487Y-39450D01*
X41501Y-39435D01*
X41515Y-39407D01*
X41515Y-39350D01*
X41501Y-39321D01*
X41487Y-39307D01*
X41458Y-39292D01*
X41215Y-39292D01*
X41215Y-39007D02*
X41215Y-39149D01*
X41358Y-39164D01*
X41344Y-39149D01*
X41330Y-39121D01*
X41330Y-39049D01*
X41344Y-39021D01*
X41358Y-39007D01*
X41387Y-38992D01*
X41458Y-38992D01*
X41487Y-39007D01*
X41501Y-39021D01*
X41515Y-39049D01*
X41515Y-39121D01*
X41501Y-39149D01*
X41487Y-39164D01*
X41215Y-38807D02*
X41215Y-38778D01*
X41230Y-38750D01*
X41244Y-38735D01*
X41272Y-38721D01*
X41330Y-38707D01*
X41401Y-38707D01*
X41458Y-38721D01*
X41487Y-38735D01*
X41501Y-38750D01*
X41515Y-38778D01*
X41515Y-38807D01*
X41501Y-38835D01*
X41487Y-38850D01*
X41458Y-38864D01*
X41401Y-38878D01*
X41330Y-38878D01*
X41272Y-38864D01*
X41244Y-38850D01*
X41230Y-38835D01*
X41215Y-38807D01*
X41315Y-38450D02*
X41515Y-38450D01*
X41201Y-38521D02*
X41415Y-38592D01*
X41415Y-38407D01*
G54D16*
X40256Y-36040D02*
X40243Y-36053D01*
X40203Y-36066D01*
X40176Y-36066D01*
X40136Y-36053D01*
X40110Y-36026D01*
X40096Y-36000D01*
X40083Y-35946D01*
X40083Y-35906D01*
X40096Y-35853D01*
X40110Y-35826D01*
X40136Y-35800D01*
X40176Y-35786D01*
X40203Y-35786D01*
X40243Y-35800D01*
X40256Y-35813D01*
X40510Y-35786D02*
X40376Y-35786D01*
X40363Y-35920D01*
X40376Y-35906D01*
X40403Y-35893D01*
X40470Y-35893D01*
X40496Y-35906D01*
X40510Y-35920D01*
X40523Y-35946D01*
X40523Y-36013D01*
X40510Y-36040D01*
X40496Y-36053D01*
X40470Y-36066D01*
X40403Y-36066D01*
X40376Y-36053D01*
X40363Y-36040D01*
X40696Y-35786D02*
X40723Y-35786D01*
X40750Y-35800D01*
X40763Y-35813D01*
X40776Y-35840D01*
X40790Y-35893D01*
X40790Y-35960D01*
X40776Y-36013D01*
X40763Y-36040D01*
X40750Y-36053D01*
X40723Y-36066D01*
X40696Y-36066D01*
X40670Y-36053D01*
X40656Y-36040D01*
X40643Y-36013D01*
X40630Y-35960D01*
X40630Y-35893D01*
X40643Y-35840D01*
X40656Y-35813D01*
X40670Y-35800D01*
X40696Y-35786D01*
X40896Y-35813D02*
X40910Y-35800D01*
X40936Y-35786D01*
X41003Y-35786D01*
X41030Y-35800D01*
X41043Y-35813D01*
X41056Y-35840D01*
X41056Y-35866D01*
X41043Y-35906D01*
X40883Y-36066D01*
X41056Y-36066D01*
X50434Y-41047D02*
X50420Y-41061D01*
X50377Y-41075D01*
X50348Y-41075D01*
X50305Y-41061D01*
X50277Y-41032D01*
X50262Y-41004D01*
X50248Y-40947D01*
X50248Y-40904D01*
X50262Y-40847D01*
X50277Y-40818D01*
X50305Y-40790D01*
X50348Y-40775D01*
X50377Y-40775D01*
X50420Y-40790D01*
X50434Y-40804D01*
X50534Y-40775D02*
X50720Y-40775D01*
X50620Y-40890D01*
X50662Y-40890D01*
X50691Y-40904D01*
X50705Y-40918D01*
X50720Y-40947D01*
X50720Y-41018D01*
X50705Y-41047D01*
X50691Y-41061D01*
X50662Y-41075D01*
X50577Y-41075D01*
X50548Y-41061D01*
X50534Y-41047D01*
X50905Y-40775D02*
X50934Y-40775D01*
X50962Y-40790D01*
X50977Y-40804D01*
X50991Y-40832D01*
X51005Y-40890D01*
X51005Y-40961D01*
X50991Y-41018D01*
X50977Y-41047D01*
X50962Y-41061D01*
X50934Y-41075D01*
X50905Y-41075D01*
X50877Y-41061D01*
X50862Y-41047D01*
X50848Y-41018D01*
X50834Y-40961D01*
X50834Y-40890D01*
X50848Y-40832D01*
X50862Y-40804D01*
X50877Y-40790D01*
X50905Y-40775D01*
X51177Y-40904D02*
X51148Y-40890D01*
X51134Y-40875D01*
X51120Y-40847D01*
X51120Y-40832D01*
X51134Y-40804D01*
X51148Y-40790D01*
X51177Y-40775D01*
X51234Y-40775D01*
X51262Y-40790D01*
X51277Y-40804D01*
X51291Y-40832D01*
X51291Y-40847D01*
X51277Y-40875D01*
X51262Y-40890D01*
X51234Y-40904D01*
X51177Y-40904D01*
X51148Y-40918D01*
X51134Y-40932D01*
X51120Y-40961D01*
X51120Y-41018D01*
X51134Y-41047D01*
X51148Y-41061D01*
X51177Y-41075D01*
X51234Y-41075D01*
X51262Y-41061D01*
X51277Y-41047D01*
X51291Y-41018D01*
X51291Y-40961D01*
X51277Y-40932D01*
X51262Y-40918D01*
X51234Y-40904D01*
X50254Y-41585D02*
X50154Y-41442D01*
X50082Y-41585D02*
X50082Y-41285D01*
X50197Y-41285D01*
X50225Y-41300D01*
X50240Y-41314D01*
X50254Y-41342D01*
X50254Y-41385D01*
X50240Y-41414D01*
X50225Y-41428D01*
X50197Y-41442D01*
X50082Y-41442D01*
X50354Y-41285D02*
X50540Y-41285D01*
X50440Y-41400D01*
X50482Y-41400D01*
X50511Y-41414D01*
X50525Y-41428D01*
X50540Y-41457D01*
X50540Y-41528D01*
X50525Y-41557D01*
X50511Y-41571D01*
X50482Y-41585D01*
X50397Y-41585D01*
X50368Y-41571D01*
X50354Y-41557D01*
X50725Y-41285D02*
X50754Y-41285D01*
X50782Y-41300D01*
X50797Y-41314D01*
X50811Y-41342D01*
X50825Y-41400D01*
X50825Y-41471D01*
X50811Y-41528D01*
X50797Y-41557D01*
X50782Y-41571D01*
X50754Y-41585D01*
X50725Y-41585D01*
X50697Y-41571D01*
X50682Y-41557D01*
X50668Y-41528D01*
X50654Y-41471D01*
X50654Y-41400D01*
X50668Y-41342D01*
X50682Y-41314D01*
X50697Y-41300D01*
X50725Y-41285D01*
X50997Y-41414D02*
X50968Y-41400D01*
X50954Y-41385D01*
X50940Y-41357D01*
X50940Y-41342D01*
X50954Y-41314D01*
X50968Y-41300D01*
X50997Y-41285D01*
X51054Y-41285D01*
X51082Y-41300D01*
X51097Y-41314D01*
X51111Y-41342D01*
X51111Y-41357D01*
X51097Y-41385D01*
X51082Y-41400D01*
X51054Y-41414D01*
X50997Y-41414D01*
X50968Y-41428D01*
X50954Y-41442D01*
X50940Y-41471D01*
X50940Y-41528D01*
X50954Y-41557D01*
X50968Y-41571D01*
X50997Y-41585D01*
X51054Y-41585D01*
X51082Y-41571D01*
X51097Y-41557D01*
X51111Y-41528D01*
X51111Y-41471D01*
X51097Y-41442D01*
X51082Y-41428D01*
X51054Y-41414D01*
X50054Y-42025D02*
X49954Y-41882D01*
X49882Y-42025D02*
X49882Y-41725D01*
X49997Y-41725D01*
X50025Y-41740D01*
X50040Y-41754D01*
X50054Y-41782D01*
X50054Y-41825D01*
X50040Y-41854D01*
X50025Y-41868D01*
X49997Y-41882D01*
X49882Y-41882D01*
X50154Y-41725D02*
X50340Y-41725D01*
X50240Y-41840D01*
X50282Y-41840D01*
X50311Y-41854D01*
X50325Y-41868D01*
X50340Y-41897D01*
X50340Y-41968D01*
X50325Y-41997D01*
X50311Y-42011D01*
X50282Y-42025D01*
X50197Y-42025D01*
X50168Y-42011D01*
X50154Y-41997D01*
X50525Y-41725D02*
X50554Y-41725D01*
X50582Y-41740D01*
X50597Y-41754D01*
X50611Y-41782D01*
X50625Y-41840D01*
X50625Y-41911D01*
X50611Y-41968D01*
X50597Y-41997D01*
X50582Y-42011D01*
X50554Y-42025D01*
X50525Y-42025D01*
X50497Y-42011D01*
X50482Y-41997D01*
X50468Y-41968D01*
X50454Y-41911D01*
X50454Y-41840D01*
X50468Y-41782D01*
X50482Y-41754D01*
X50497Y-41740D01*
X50525Y-41725D01*
X50768Y-42025D02*
X50825Y-42025D01*
X50854Y-42011D01*
X50868Y-41997D01*
X50897Y-41954D01*
X50911Y-41897D01*
X50911Y-41782D01*
X50897Y-41754D01*
X50882Y-41740D01*
X50854Y-41725D01*
X50797Y-41725D01*
X50768Y-41740D01*
X50754Y-41754D01*
X50740Y-41782D01*
X50740Y-41854D01*
X50754Y-41882D01*
X50768Y-41897D01*
X50797Y-41911D01*
X50854Y-41911D01*
X50882Y-41897D01*
X50897Y-41882D01*
X50911Y-41854D01*
X51585Y-39595D02*
X51585Y-39838D01*
X51600Y-39867D01*
X51614Y-39881D01*
X51642Y-39895D01*
X51700Y-39895D01*
X51728Y-39881D01*
X51742Y-39867D01*
X51757Y-39838D01*
X51757Y-39595D01*
X51871Y-39595D02*
X52057Y-39595D01*
X51957Y-39710D01*
X52000Y-39710D01*
X52028Y-39724D01*
X52042Y-39738D01*
X52057Y-39767D01*
X52057Y-39838D01*
X52042Y-39867D01*
X52028Y-39881D01*
X52000Y-39895D01*
X51914Y-39895D01*
X51885Y-39881D01*
X51871Y-39867D01*
X52242Y-39595D02*
X52271Y-39595D01*
X52300Y-39610D01*
X52314Y-39624D01*
X52328Y-39652D01*
X52342Y-39710D01*
X52342Y-39781D01*
X52328Y-39838D01*
X52314Y-39867D01*
X52300Y-39881D01*
X52271Y-39895D01*
X52242Y-39895D01*
X52214Y-39881D01*
X52200Y-39867D01*
X52185Y-39838D01*
X52171Y-39781D01*
X52171Y-39710D01*
X52185Y-39652D01*
X52200Y-39624D01*
X52214Y-39610D01*
X52242Y-39595D01*
X52457Y-39624D02*
X52471Y-39610D01*
X52500Y-39595D01*
X52571Y-39595D01*
X52600Y-39610D01*
X52614Y-39624D01*
X52628Y-39652D01*
X52628Y-39681D01*
X52614Y-39724D01*
X52442Y-39895D01*
X52628Y-39895D01*
X49164Y-32557D02*
X49150Y-32571D01*
X49107Y-32585D01*
X49078Y-32585D01*
X49035Y-32571D01*
X49007Y-32542D01*
X48992Y-32514D01*
X48978Y-32457D01*
X48978Y-32414D01*
X48992Y-32357D01*
X49007Y-32328D01*
X49035Y-32300D01*
X49078Y-32285D01*
X49107Y-32285D01*
X49150Y-32300D01*
X49164Y-32314D01*
X49264Y-32285D02*
X49450Y-32285D01*
X49350Y-32400D01*
X49392Y-32400D01*
X49421Y-32414D01*
X49435Y-32428D01*
X49450Y-32457D01*
X49450Y-32528D01*
X49435Y-32557D01*
X49421Y-32571D01*
X49392Y-32585D01*
X49307Y-32585D01*
X49278Y-32571D01*
X49264Y-32557D01*
X49635Y-32285D02*
X49664Y-32285D01*
X49692Y-32300D01*
X49707Y-32314D01*
X49721Y-32342D01*
X49735Y-32400D01*
X49735Y-32471D01*
X49721Y-32528D01*
X49707Y-32557D01*
X49692Y-32571D01*
X49664Y-32585D01*
X49635Y-32585D01*
X49607Y-32571D01*
X49592Y-32557D01*
X49578Y-32528D01*
X49564Y-32471D01*
X49564Y-32400D01*
X49578Y-32342D01*
X49592Y-32314D01*
X49607Y-32300D01*
X49635Y-32285D01*
X49878Y-32585D02*
X49935Y-32585D01*
X49964Y-32571D01*
X49978Y-32557D01*
X50007Y-32514D01*
X50021Y-32457D01*
X50021Y-32342D01*
X50007Y-32314D01*
X49992Y-32300D01*
X49964Y-32285D01*
X49907Y-32285D01*
X49878Y-32300D01*
X49864Y-32314D01*
X49850Y-32342D01*
X49850Y-32414D01*
X49864Y-32442D01*
X49878Y-32457D01*
X49907Y-32471D01*
X49964Y-32471D01*
X49992Y-32457D01*
X50007Y-32442D01*
X50021Y-32414D01*
X41354Y-40527D02*
X41340Y-40541D01*
X41297Y-40555D01*
X41268Y-40555D01*
X41225Y-40541D01*
X41197Y-40512D01*
X41182Y-40484D01*
X41168Y-40427D01*
X41168Y-40384D01*
X41182Y-40327D01*
X41197Y-40298D01*
X41225Y-40270D01*
X41268Y-40255D01*
X41297Y-40255D01*
X41340Y-40270D01*
X41354Y-40284D01*
X41454Y-40255D02*
X41640Y-40255D01*
X41540Y-40370D01*
X41582Y-40370D01*
X41611Y-40384D01*
X41625Y-40398D01*
X41640Y-40427D01*
X41640Y-40498D01*
X41625Y-40527D01*
X41611Y-40541D01*
X41582Y-40555D01*
X41497Y-40555D01*
X41468Y-40541D01*
X41454Y-40527D01*
X41925Y-40555D02*
X41754Y-40555D01*
X41840Y-40555D02*
X41840Y-40255D01*
X41811Y-40298D01*
X41782Y-40327D01*
X41754Y-40341D01*
X42111Y-40255D02*
X42140Y-40255D01*
X42168Y-40270D01*
X42182Y-40284D01*
X42197Y-40312D01*
X42211Y-40370D01*
X42211Y-40441D01*
X42197Y-40498D01*
X42182Y-40527D01*
X42168Y-40541D01*
X42140Y-40555D01*
X42111Y-40555D01*
X42082Y-40541D01*
X42068Y-40527D01*
X42054Y-40498D01*
X42040Y-40441D01*
X42040Y-40370D01*
X42054Y-40312D01*
X42068Y-40284D01*
X42082Y-40270D01*
X42111Y-40255D01*
X62175Y-38195D02*
X62347Y-38195D01*
X62261Y-38495D02*
X62261Y-38195D01*
X62447Y-38495D02*
X62447Y-38195D01*
X62561Y-38195D01*
X62590Y-38210D01*
X62604Y-38224D01*
X62618Y-38252D01*
X62618Y-38295D01*
X62604Y-38324D01*
X62590Y-38338D01*
X62561Y-38352D01*
X62447Y-38352D01*
X62718Y-38195D02*
X62904Y-38195D01*
X62804Y-38310D01*
X62847Y-38310D01*
X62875Y-38324D01*
X62890Y-38338D01*
X62904Y-38367D01*
X62904Y-38438D01*
X62890Y-38467D01*
X62875Y-38481D01*
X62847Y-38495D01*
X62761Y-38495D01*
X62732Y-38481D01*
X62718Y-38467D01*
X63090Y-38195D02*
X63118Y-38195D01*
X63147Y-38210D01*
X63161Y-38224D01*
X63175Y-38252D01*
X63190Y-38310D01*
X63190Y-38381D01*
X63175Y-38438D01*
X63161Y-38467D01*
X63147Y-38481D01*
X63118Y-38495D01*
X63090Y-38495D01*
X63061Y-38481D01*
X63047Y-38467D01*
X63032Y-38438D01*
X63018Y-38381D01*
X63018Y-38310D01*
X63032Y-38252D01*
X63047Y-38224D01*
X63061Y-38210D01*
X63090Y-38195D01*
X63461Y-38195D02*
X63318Y-38195D01*
X63304Y-38338D01*
X63318Y-38324D01*
X63347Y-38310D01*
X63418Y-38310D01*
X63447Y-38324D01*
X63461Y-38338D01*
X63475Y-38367D01*
X63475Y-38438D01*
X63461Y-38467D01*
X63447Y-38481D01*
X63418Y-38495D01*
X63347Y-38495D01*
X63318Y-38481D01*
X63304Y-38467D01*
X44935Y-37285D02*
X45107Y-37285D01*
X45021Y-37585D02*
X45021Y-37285D01*
X45207Y-37585D02*
X45207Y-37285D01*
X45321Y-37285D01*
X45350Y-37300D01*
X45364Y-37314D01*
X45378Y-37342D01*
X45378Y-37385D01*
X45364Y-37414D01*
X45350Y-37428D01*
X45321Y-37442D01*
X45207Y-37442D01*
X45478Y-37285D02*
X45664Y-37285D01*
X45564Y-37400D01*
X45607Y-37400D01*
X45635Y-37414D01*
X45650Y-37428D01*
X45664Y-37457D01*
X45664Y-37528D01*
X45650Y-37557D01*
X45635Y-37571D01*
X45607Y-37585D01*
X45521Y-37585D01*
X45492Y-37571D01*
X45478Y-37557D01*
X45850Y-37285D02*
X45878Y-37285D01*
X45907Y-37300D01*
X45921Y-37314D01*
X45935Y-37342D01*
X45950Y-37400D01*
X45950Y-37471D01*
X45935Y-37528D01*
X45921Y-37557D01*
X45907Y-37571D01*
X45878Y-37585D01*
X45850Y-37585D01*
X45821Y-37571D01*
X45807Y-37557D01*
X45792Y-37528D01*
X45778Y-37471D01*
X45778Y-37400D01*
X45792Y-37342D01*
X45807Y-37314D01*
X45821Y-37300D01*
X45850Y-37285D01*
X46207Y-37285D02*
X46150Y-37285D01*
X46121Y-37300D01*
X46107Y-37314D01*
X46078Y-37357D01*
X46064Y-37414D01*
X46064Y-37528D01*
X46078Y-37557D01*
X46092Y-37571D01*
X46121Y-37585D01*
X46178Y-37585D01*
X46207Y-37571D01*
X46221Y-37557D01*
X46235Y-37528D01*
X46235Y-37457D01*
X46221Y-37428D01*
X46207Y-37414D01*
X46178Y-37400D01*
X46121Y-37400D01*
X46092Y-37414D01*
X46078Y-37428D01*
X46064Y-37457D01*
X43614Y-39695D02*
X43514Y-39552D01*
X43442Y-39695D02*
X43442Y-39395D01*
X43557Y-39395D01*
X43585Y-39410D01*
X43600Y-39424D01*
X43614Y-39452D01*
X43614Y-39495D01*
X43600Y-39524D01*
X43585Y-39538D01*
X43557Y-39552D01*
X43442Y-39552D01*
X43885Y-39395D02*
X43742Y-39395D01*
X43728Y-39538D01*
X43742Y-39524D01*
X43771Y-39510D01*
X43842Y-39510D01*
X43871Y-39524D01*
X43885Y-39538D01*
X43900Y-39567D01*
X43900Y-39638D01*
X43885Y-39667D01*
X43871Y-39681D01*
X43842Y-39695D01*
X43771Y-39695D01*
X43742Y-39681D01*
X43728Y-39667D01*
X44085Y-39395D02*
X44114Y-39395D01*
X44142Y-39410D01*
X44157Y-39424D01*
X44171Y-39452D01*
X44185Y-39510D01*
X44185Y-39581D01*
X44171Y-39638D01*
X44157Y-39667D01*
X44142Y-39681D01*
X44114Y-39695D01*
X44085Y-39695D01*
X44057Y-39681D01*
X44042Y-39667D01*
X44028Y-39638D01*
X44014Y-39581D01*
X44014Y-39510D01*
X44028Y-39452D01*
X44042Y-39424D01*
X44057Y-39410D01*
X44085Y-39395D01*
X44471Y-39695D02*
X44300Y-39695D01*
X44385Y-39695D02*
X44385Y-39395D01*
X44357Y-39438D01*
X44328Y-39467D01*
X44300Y-39481D01*
X44744Y-39695D02*
X44644Y-39552D01*
X44572Y-39695D02*
X44572Y-39395D01*
X44687Y-39395D01*
X44715Y-39410D01*
X44730Y-39424D01*
X44744Y-39452D01*
X44744Y-39495D01*
X44730Y-39524D01*
X44715Y-39538D01*
X44687Y-39552D01*
X44572Y-39552D01*
X45015Y-39395D02*
X44872Y-39395D01*
X44858Y-39538D01*
X44872Y-39524D01*
X44901Y-39510D01*
X44972Y-39510D01*
X45001Y-39524D01*
X45015Y-39538D01*
X45030Y-39567D01*
X45030Y-39638D01*
X45015Y-39667D01*
X45001Y-39681D01*
X44972Y-39695D01*
X44901Y-39695D01*
X44872Y-39681D01*
X44858Y-39667D01*
X45215Y-39395D02*
X45244Y-39395D01*
X45272Y-39410D01*
X45287Y-39424D01*
X45301Y-39452D01*
X45315Y-39510D01*
X45315Y-39581D01*
X45301Y-39638D01*
X45287Y-39667D01*
X45272Y-39681D01*
X45244Y-39695D01*
X45215Y-39695D01*
X45187Y-39681D01*
X45172Y-39667D01*
X45158Y-39638D01*
X45144Y-39581D01*
X45144Y-39510D01*
X45158Y-39452D01*
X45172Y-39424D01*
X45187Y-39410D01*
X45215Y-39395D01*
X45430Y-39424D02*
X45444Y-39410D01*
X45472Y-39395D01*
X45544Y-39395D01*
X45572Y-39410D01*
X45587Y-39424D01*
X45601Y-39452D01*
X45601Y-39481D01*
X45587Y-39524D01*
X45415Y-39695D01*
X45601Y-39695D01*
X50164Y-40585D02*
X50064Y-40442D01*
X49992Y-40585D02*
X49992Y-40285D01*
X50107Y-40285D01*
X50135Y-40300D01*
X50150Y-40314D01*
X50164Y-40342D01*
X50164Y-40385D01*
X50150Y-40414D01*
X50135Y-40428D01*
X50107Y-40442D01*
X49992Y-40442D01*
X50435Y-40285D02*
X50292Y-40285D01*
X50278Y-40428D01*
X50292Y-40414D01*
X50321Y-40400D01*
X50392Y-40400D01*
X50421Y-40414D01*
X50435Y-40428D01*
X50450Y-40457D01*
X50450Y-40528D01*
X50435Y-40557D01*
X50421Y-40571D01*
X50392Y-40585D01*
X50321Y-40585D01*
X50292Y-40571D01*
X50278Y-40557D01*
X50635Y-40285D02*
X50664Y-40285D01*
X50692Y-40300D01*
X50707Y-40314D01*
X50721Y-40342D01*
X50735Y-40400D01*
X50735Y-40471D01*
X50721Y-40528D01*
X50707Y-40557D01*
X50692Y-40571D01*
X50664Y-40585D01*
X50635Y-40585D01*
X50607Y-40571D01*
X50592Y-40557D01*
X50578Y-40528D01*
X50564Y-40471D01*
X50564Y-40400D01*
X50578Y-40342D01*
X50592Y-40314D01*
X50607Y-40300D01*
X50635Y-40285D01*
X50835Y-40285D02*
X51021Y-40285D01*
X50921Y-40400D01*
X50964Y-40400D01*
X50992Y-40414D01*
X51007Y-40428D01*
X51021Y-40457D01*
X51021Y-40528D01*
X51007Y-40557D01*
X50992Y-40571D01*
X50964Y-40585D01*
X50878Y-40585D01*
X50850Y-40571D01*
X50835Y-40557D01*
X43752Y-36945D02*
X43752Y-36645D01*
X43867Y-36645D01*
X43895Y-36660D01*
X43910Y-36674D01*
X43924Y-36702D01*
X43924Y-36745D01*
X43910Y-36774D01*
X43895Y-36788D01*
X43867Y-36802D01*
X43752Y-36802D01*
X44195Y-36645D02*
X44052Y-36645D01*
X44038Y-36788D01*
X44052Y-36774D01*
X44081Y-36760D01*
X44152Y-36760D01*
X44181Y-36774D01*
X44195Y-36788D01*
X44210Y-36817D01*
X44210Y-36888D01*
X44195Y-36917D01*
X44181Y-36931D01*
X44152Y-36945D01*
X44081Y-36945D01*
X44052Y-36931D01*
X44038Y-36917D01*
X44395Y-36645D02*
X44424Y-36645D01*
X44452Y-36660D01*
X44467Y-36674D01*
X44481Y-36702D01*
X44495Y-36760D01*
X44495Y-36831D01*
X44481Y-36888D01*
X44467Y-36917D01*
X44452Y-36931D01*
X44424Y-36945D01*
X44395Y-36945D01*
X44367Y-36931D01*
X44352Y-36917D01*
X44338Y-36888D01*
X44324Y-36831D01*
X44324Y-36760D01*
X44338Y-36702D01*
X44352Y-36674D01*
X44367Y-36660D01*
X44395Y-36645D01*
X44781Y-36945D02*
X44610Y-36945D01*
X44695Y-36945D02*
X44695Y-36645D01*
X44667Y-36688D01*
X44638Y-36717D01*
X44610Y-36731D01*
X41172Y-42425D02*
X41172Y-42125D01*
X41287Y-42125D01*
X41315Y-42140D01*
X41330Y-42154D01*
X41344Y-42182D01*
X41344Y-42225D01*
X41330Y-42254D01*
X41315Y-42268D01*
X41287Y-42282D01*
X41172Y-42282D01*
X41615Y-42125D02*
X41472Y-42125D01*
X41458Y-42268D01*
X41472Y-42254D01*
X41501Y-42240D01*
X41572Y-42240D01*
X41601Y-42254D01*
X41615Y-42268D01*
X41630Y-42297D01*
X41630Y-42368D01*
X41615Y-42397D01*
X41601Y-42411D01*
X41572Y-42425D01*
X41501Y-42425D01*
X41472Y-42411D01*
X41458Y-42397D01*
X41815Y-42125D02*
X41844Y-42125D01*
X41872Y-42140D01*
X41887Y-42154D01*
X41901Y-42182D01*
X41915Y-42240D01*
X41915Y-42311D01*
X41901Y-42368D01*
X41887Y-42397D01*
X41872Y-42411D01*
X41844Y-42425D01*
X41815Y-42425D01*
X41787Y-42411D01*
X41772Y-42397D01*
X41758Y-42368D01*
X41744Y-42311D01*
X41744Y-42240D01*
X41758Y-42182D01*
X41772Y-42154D01*
X41787Y-42140D01*
X41815Y-42125D01*
X42030Y-42154D02*
X42044Y-42140D01*
X42072Y-42125D01*
X42144Y-42125D01*
X42172Y-42140D01*
X42187Y-42154D01*
X42201Y-42182D01*
X42201Y-42211D01*
X42187Y-42254D01*
X42015Y-42425D01*
X42201Y-42425D01*
X64220Y-34563D02*
X64506Y-34563D01*
X64563Y-34582D01*
X64601Y-34620D01*
X64620Y-34677D01*
X64620Y-34715D01*
X64620Y-34163D02*
X64620Y-34391D01*
X64620Y-34277D02*
X64220Y-34277D01*
X64278Y-34315D01*
X64316Y-34353D01*
X64335Y-34391D01*
X44027Y-42745D02*
X44041Y-42760D01*
X44055Y-42802D01*
X44055Y-42831D01*
X44041Y-42874D01*
X44012Y-42902D01*
X43984Y-42917D01*
X43927Y-42931D01*
X43884Y-42931D01*
X43827Y-42917D01*
X43798Y-42902D01*
X43770Y-42874D01*
X43755Y-42831D01*
X43755Y-42802D01*
X43770Y-42760D01*
X43784Y-42745D01*
X43755Y-42474D02*
X43755Y-42617D01*
X43898Y-42631D01*
X43884Y-42617D01*
X43870Y-42588D01*
X43870Y-42517D01*
X43884Y-42488D01*
X43898Y-42474D01*
X43927Y-42460D01*
X43998Y-42460D01*
X44027Y-42474D01*
X44041Y-42488D01*
X44055Y-42517D01*
X44055Y-42588D01*
X44041Y-42617D01*
X44027Y-42631D01*
X43755Y-42274D02*
X43755Y-42245D01*
X43770Y-42217D01*
X43784Y-42202D01*
X43812Y-42188D01*
X43870Y-42174D01*
X43941Y-42174D01*
X43998Y-42188D01*
X44027Y-42202D01*
X44041Y-42217D01*
X44055Y-42245D01*
X44055Y-42274D01*
X44041Y-42302D01*
X44027Y-42317D01*
X43998Y-42331D01*
X43941Y-42345D01*
X43870Y-42345D01*
X43812Y-42331D01*
X43784Y-42317D01*
X43770Y-42302D01*
X43755Y-42274D01*
X43755Y-42074D02*
X43755Y-41888D01*
X43870Y-41988D01*
X43870Y-41945D01*
X43884Y-41917D01*
X43898Y-41902D01*
X43927Y-41888D01*
X43998Y-41888D01*
X44027Y-41902D01*
X44041Y-41917D01*
X44055Y-41945D01*
X44055Y-42031D01*
X44041Y-42060D01*
X44027Y-42074D01*
X45227Y-42745D02*
X45241Y-42760D01*
X45255Y-42802D01*
X45255Y-42831D01*
X45241Y-42874D01*
X45212Y-42902D01*
X45184Y-42917D01*
X45127Y-42931D01*
X45084Y-42931D01*
X45027Y-42917D01*
X44998Y-42902D01*
X44970Y-42874D01*
X44955Y-42831D01*
X44955Y-42802D01*
X44970Y-42760D01*
X44984Y-42745D01*
X44955Y-42474D02*
X44955Y-42617D01*
X45098Y-42631D01*
X45084Y-42617D01*
X45070Y-42588D01*
X45070Y-42517D01*
X45084Y-42488D01*
X45098Y-42474D01*
X45127Y-42460D01*
X45198Y-42460D01*
X45227Y-42474D01*
X45241Y-42488D01*
X45255Y-42517D01*
X45255Y-42588D01*
X45241Y-42617D01*
X45227Y-42631D01*
X44955Y-42274D02*
X44955Y-42245D01*
X44970Y-42217D01*
X44984Y-42202D01*
X45012Y-42188D01*
X45070Y-42174D01*
X45141Y-42174D01*
X45198Y-42188D01*
X45227Y-42202D01*
X45241Y-42217D01*
X45255Y-42245D01*
X45255Y-42274D01*
X45241Y-42302D01*
X45227Y-42317D01*
X45198Y-42331D01*
X45141Y-42345D01*
X45070Y-42345D01*
X45012Y-42331D01*
X44984Y-42317D01*
X44970Y-42302D01*
X44955Y-42274D01*
X45055Y-41917D02*
X45255Y-41917D01*
X44941Y-41988D02*
X45155Y-42060D01*
X45155Y-41874D01*
X47957Y-37935D02*
X47971Y-37950D01*
X47985Y-37992D01*
X47985Y-38021D01*
X47971Y-38064D01*
X47942Y-38092D01*
X47914Y-38107D01*
X47857Y-38121D01*
X47814Y-38121D01*
X47757Y-38107D01*
X47728Y-38092D01*
X47700Y-38064D01*
X47685Y-38021D01*
X47685Y-37992D01*
X47700Y-37950D01*
X47714Y-37935D01*
X47685Y-37664D02*
X47685Y-37807D01*
X47828Y-37821D01*
X47814Y-37807D01*
X47800Y-37778D01*
X47800Y-37707D01*
X47814Y-37678D01*
X47828Y-37664D01*
X47857Y-37650D01*
X47928Y-37650D01*
X47957Y-37664D01*
X47971Y-37678D01*
X47985Y-37707D01*
X47985Y-37778D01*
X47971Y-37807D01*
X47957Y-37821D01*
X47685Y-37464D02*
X47685Y-37435D01*
X47700Y-37407D01*
X47714Y-37392D01*
X47742Y-37378D01*
X47800Y-37364D01*
X47871Y-37364D01*
X47928Y-37378D01*
X47957Y-37392D01*
X47971Y-37407D01*
X47985Y-37435D01*
X47985Y-37464D01*
X47971Y-37492D01*
X47957Y-37507D01*
X47928Y-37521D01*
X47871Y-37535D01*
X47800Y-37535D01*
X47742Y-37521D01*
X47714Y-37507D01*
X47700Y-37492D01*
X47685Y-37464D01*
X47685Y-37092D02*
X47685Y-37235D01*
X47828Y-37250D01*
X47814Y-37235D01*
X47800Y-37207D01*
X47800Y-37135D01*
X47814Y-37107D01*
X47828Y-37092D01*
X47857Y-37078D01*
X47928Y-37078D01*
X47957Y-37092D01*
X47971Y-37107D01*
X47985Y-37135D01*
X47985Y-37207D01*
X47971Y-37235D01*
X47957Y-37250D01*
X67821Y-41853D02*
X67840Y-41796D01*
X67840Y-41700D01*
X67821Y-41662D01*
X67802Y-41643D01*
X67764Y-41624D01*
X67726Y-41624D01*
X67688Y-41643D01*
X67669Y-41662D01*
X67650Y-41700D01*
X67631Y-41777D01*
X67612Y-41815D01*
X67593Y-41834D01*
X67555Y-41853D01*
X67517Y-41853D01*
X67479Y-41834D01*
X67460Y-41815D01*
X67440Y-41777D01*
X67440Y-41681D01*
X67460Y-41624D01*
X67440Y-41491D02*
X67840Y-41396D01*
X67555Y-41320D01*
X67840Y-41243D01*
X67440Y-41148D01*
X67440Y-40919D02*
X67440Y-40881D01*
X67460Y-40843D01*
X67479Y-40824D01*
X67517Y-40805D01*
X67593Y-40786D01*
X67688Y-40786D01*
X67764Y-40805D01*
X67802Y-40824D01*
X67821Y-40843D01*
X67840Y-40881D01*
X67840Y-40919D01*
X67821Y-40958D01*
X67802Y-40977D01*
X67764Y-40996D01*
X67688Y-41015D01*
X67593Y-41015D01*
X67517Y-40996D01*
X67479Y-40977D01*
X67460Y-40958D01*
X67440Y-40919D01*
X66574Y-40647D02*
X66560Y-40661D01*
X66517Y-40675D01*
X66488Y-40675D01*
X66445Y-40661D01*
X66417Y-40632D01*
X66402Y-40604D01*
X66388Y-40547D01*
X66388Y-40504D01*
X66402Y-40447D01*
X66417Y-40418D01*
X66445Y-40390D01*
X66488Y-40375D01*
X66517Y-40375D01*
X66560Y-40390D01*
X66574Y-40404D01*
X66845Y-40375D02*
X66702Y-40375D01*
X66688Y-40518D01*
X66702Y-40504D01*
X66731Y-40490D01*
X66802Y-40490D01*
X66831Y-40504D01*
X66845Y-40518D01*
X66860Y-40547D01*
X66860Y-40618D01*
X66845Y-40647D01*
X66831Y-40661D01*
X66802Y-40675D01*
X66731Y-40675D01*
X66702Y-40661D01*
X66688Y-40647D01*
X67045Y-40375D02*
X67074Y-40375D01*
X67102Y-40390D01*
X67117Y-40404D01*
X67131Y-40432D01*
X67145Y-40490D01*
X67145Y-40561D01*
X67131Y-40618D01*
X67117Y-40647D01*
X67102Y-40661D01*
X67074Y-40675D01*
X67045Y-40675D01*
X67017Y-40661D01*
X67002Y-40647D01*
X66988Y-40618D01*
X66974Y-40561D01*
X66974Y-40490D01*
X66988Y-40432D01*
X67002Y-40404D01*
X67017Y-40390D01*
X67045Y-40375D01*
X67402Y-40375D02*
X67345Y-40375D01*
X67317Y-40390D01*
X67302Y-40404D01*
X67274Y-40447D01*
X67260Y-40504D01*
X67260Y-40618D01*
X67274Y-40647D01*
X67288Y-40661D01*
X67317Y-40675D01*
X67374Y-40675D01*
X67402Y-40661D01*
X67417Y-40647D01*
X67431Y-40618D01*
X67431Y-40547D01*
X67417Y-40518D01*
X67402Y-40504D01*
X67374Y-40490D01*
X67317Y-40490D01*
X67288Y-40504D01*
X67274Y-40518D01*
X67260Y-40547D01*
X41500Y-46183D02*
X41786Y-46183D01*
X41843Y-46202D01*
X41881Y-46240D01*
X41900Y-46297D01*
X41900Y-46335D01*
X41500Y-45821D02*
X41500Y-45897D01*
X41520Y-45935D01*
X41539Y-45954D01*
X41596Y-45992D01*
X41672Y-46011D01*
X41824Y-46011D01*
X41862Y-45992D01*
X41881Y-45973D01*
X41900Y-45935D01*
X41900Y-45859D01*
X41881Y-45821D01*
X41862Y-45802D01*
X41824Y-45783D01*
X41729Y-45783D01*
X41691Y-45802D01*
X41672Y-45821D01*
X41653Y-45859D01*
X41653Y-45935D01*
X41672Y-45973D01*
X41691Y-45992D01*
X41729Y-46011D01*
X42585Y-44165D02*
X42585Y-44408D01*
X42600Y-44437D01*
X42614Y-44451D01*
X42642Y-44465D01*
X42700Y-44465D01*
X42728Y-44451D01*
X42742Y-44437D01*
X42757Y-44408D01*
X42757Y-44165D01*
X43042Y-44165D02*
X42900Y-44165D01*
X42885Y-44308D01*
X42900Y-44294D01*
X42928Y-44280D01*
X43000Y-44280D01*
X43028Y-44294D01*
X43042Y-44308D01*
X43057Y-44337D01*
X43057Y-44408D01*
X43042Y-44437D01*
X43028Y-44451D01*
X43000Y-44465D01*
X42928Y-44465D01*
X42900Y-44451D01*
X42885Y-44437D01*
X43242Y-44165D02*
X43271Y-44165D01*
X43300Y-44180D01*
X43314Y-44194D01*
X43328Y-44222D01*
X43342Y-44280D01*
X43342Y-44351D01*
X43328Y-44408D01*
X43314Y-44437D01*
X43300Y-44451D01*
X43271Y-44465D01*
X43242Y-44465D01*
X43214Y-44451D01*
X43200Y-44437D01*
X43185Y-44408D01*
X43171Y-44351D01*
X43171Y-44280D01*
X43185Y-44222D01*
X43200Y-44194D01*
X43214Y-44180D01*
X43242Y-44165D01*
X43614Y-44165D02*
X43471Y-44165D01*
X43457Y-44308D01*
X43471Y-44294D01*
X43500Y-44280D01*
X43571Y-44280D01*
X43600Y-44294D01*
X43614Y-44308D01*
X43628Y-44337D01*
X43628Y-44408D01*
X43614Y-44437D01*
X43600Y-44451D01*
X43571Y-44465D01*
X43500Y-44465D01*
X43471Y-44451D01*
X43457Y-44437D01*
X50645Y-45495D02*
X50502Y-45595D01*
X50645Y-45667D02*
X50345Y-45667D01*
X50345Y-45552D01*
X50360Y-45524D01*
X50374Y-45510D01*
X50402Y-45495D01*
X50445Y-45495D01*
X50474Y-45510D01*
X50488Y-45524D01*
X50502Y-45552D01*
X50502Y-45667D01*
X50345Y-45224D02*
X50345Y-45367D01*
X50488Y-45381D01*
X50474Y-45367D01*
X50460Y-45338D01*
X50460Y-45267D01*
X50474Y-45238D01*
X50488Y-45224D01*
X50517Y-45210D01*
X50588Y-45210D01*
X50617Y-45224D01*
X50631Y-45238D01*
X50645Y-45267D01*
X50645Y-45338D01*
X50631Y-45367D01*
X50617Y-45381D01*
X50345Y-45024D02*
X50345Y-44995D01*
X50360Y-44967D01*
X50374Y-44952D01*
X50402Y-44938D01*
X50460Y-44924D01*
X50531Y-44924D01*
X50588Y-44938D01*
X50617Y-44952D01*
X50631Y-44967D01*
X50645Y-44995D01*
X50645Y-45024D01*
X50631Y-45052D01*
X50617Y-45067D01*
X50588Y-45081D01*
X50531Y-45095D01*
X50460Y-45095D01*
X50402Y-45081D01*
X50374Y-45067D01*
X50360Y-45052D01*
X50345Y-45024D01*
X50445Y-44667D02*
X50645Y-44667D01*
X50331Y-44738D02*
X50545Y-44810D01*
X50545Y-44624D01*
X43265Y-43245D02*
X43437Y-43245D01*
X43351Y-43509D02*
X43351Y-43245D01*
X43537Y-43509D02*
X43537Y-43245D01*
X43651Y-43245D01*
X43680Y-43257D01*
X43694Y-43270D01*
X43708Y-43295D01*
X43708Y-43333D01*
X43694Y-43358D01*
X43680Y-43371D01*
X43651Y-43383D01*
X43537Y-43383D01*
X43980Y-43245D02*
X43837Y-43245D01*
X43822Y-43371D01*
X43837Y-43358D01*
X43865Y-43345D01*
X43937Y-43345D01*
X43965Y-43358D01*
X43980Y-43371D01*
X43994Y-43396D01*
X43994Y-43459D01*
X43980Y-43484D01*
X43965Y-43497D01*
X43937Y-43509D01*
X43865Y-43509D01*
X43837Y-43497D01*
X43822Y-43484D01*
X44180Y-43245D02*
X44208Y-43245D01*
X44237Y-43257D01*
X44251Y-43270D01*
X44265Y-43295D01*
X44280Y-43345D01*
X44280Y-43408D01*
X44265Y-43459D01*
X44251Y-43484D01*
X44237Y-43497D01*
X44208Y-43509D01*
X44180Y-43509D01*
X44151Y-43497D01*
X44137Y-43484D01*
X44122Y-43459D01*
X44108Y-43408D01*
X44108Y-43345D01*
X44122Y-43295D01*
X44137Y-43270D01*
X44151Y-43257D01*
X44180Y-43245D01*
X44565Y-43509D02*
X44394Y-43509D01*
X44480Y-43509D02*
X44480Y-43245D01*
X44451Y-43282D01*
X44422Y-43308D01*
X44394Y-43320D01*
X48645Y-46464D02*
X48888Y-46464D01*
X48917Y-46450D01*
X48931Y-46435D01*
X48945Y-46407D01*
X48945Y-46350D01*
X48931Y-46321D01*
X48917Y-46307D01*
X48888Y-46292D01*
X48645Y-46292D01*
X48645Y-46007D02*
X48645Y-46149D01*
X48788Y-46164D01*
X48774Y-46149D01*
X48760Y-46121D01*
X48760Y-46049D01*
X48774Y-46021D01*
X48788Y-46007D01*
X48817Y-45992D01*
X48888Y-45992D01*
X48917Y-46007D01*
X48931Y-46021D01*
X48945Y-46049D01*
X48945Y-46121D01*
X48931Y-46149D01*
X48917Y-46164D01*
X48645Y-45807D02*
X48645Y-45778D01*
X48660Y-45750D01*
X48674Y-45735D01*
X48702Y-45721D01*
X48760Y-45707D01*
X48831Y-45707D01*
X48888Y-45721D01*
X48917Y-45735D01*
X48931Y-45750D01*
X48945Y-45778D01*
X48945Y-45807D01*
X48931Y-45835D01*
X48917Y-45850D01*
X48888Y-45864D01*
X48831Y-45878D01*
X48760Y-45878D01*
X48702Y-45864D01*
X48674Y-45850D01*
X48660Y-45835D01*
X48645Y-45807D01*
X48645Y-45450D02*
X48645Y-45507D01*
X48660Y-45535D01*
X48674Y-45550D01*
X48717Y-45578D01*
X48774Y-45592D01*
X48888Y-45592D01*
X48917Y-45578D01*
X48931Y-45564D01*
X48945Y-45535D01*
X48945Y-45478D01*
X48931Y-45450D01*
X48917Y-45435D01*
X48888Y-45421D01*
X48817Y-45421D01*
X48788Y-45435D01*
X48774Y-45450D01*
X48760Y-45478D01*
X48760Y-45535D01*
X48774Y-45564D01*
X48788Y-45578D01*
X48817Y-45592D01*
M02*
