G04 (created by PCBNEW (2013-mar-13)-stable) date Mon 23 Mar 2015 11:07:48 AM CET*
%MOIN*%
G04 Gerber Fmt 3.4, Leading zero omitted, Abs format*
%FSLAX34Y34*%
G01*
G70*
G90*
G04 APERTURE LIST*
%ADD10C,0.005906*%
%ADD11R,0.045000X0.025000*%
%ADD12R,0.216500X0.078700*%
%ADD13C,0.070000*%
%ADD14C,0.055100*%
%ADD15R,0.060000X0.060000*%
%ADD16C,0.060000*%
%ADD17C,0.051181*%
%ADD18C,0.128000*%
%ADD19C,0.078740*%
%ADD20C,0.070866*%
%ADD21R,0.055000X0.055000*%
%ADD22C,0.055000*%
G04 APERTURE END LIST*
G54D10*
G54D11*
X55110Y-36970D03*
X55110Y-36370D03*
X49580Y-37010D03*
X49580Y-36410D03*
G54D12*
X54140Y-37930D03*
X50440Y-37930D03*
G54D13*
X40675Y-35155D03*
X40675Y-34155D03*
X40675Y-33155D03*
X40675Y-32155D03*
G54D14*
X50500Y-31500D03*
X49500Y-31500D03*
G54D13*
X40675Y-40155D03*
X40675Y-39155D03*
X40675Y-38155D03*
X40675Y-37155D03*
G54D14*
X61760Y-38400D03*
X44550Y-37450D03*
G54D15*
X43150Y-36300D03*
G54D16*
X42150Y-36300D03*
G54D15*
X41280Y-41510D03*
G54D16*
X40280Y-41510D03*
G54D17*
X66630Y-34180D03*
X65630Y-34680D03*
X65630Y-33680D03*
X66630Y-33180D03*
X65630Y-32680D03*
X66630Y-35180D03*
X65630Y-35680D03*
X66630Y-36180D03*
G54D18*
X69130Y-36680D03*
X69130Y-32180D03*
G54D19*
X70330Y-37500D03*
X70330Y-31359D03*
G54D20*
X69550Y-41475D03*
X69550Y-39704D03*
X68565Y-41967D03*
X68565Y-39212D03*
G54D19*
X40940Y-45361D03*
X40940Y-46738D03*
G54D14*
X44960Y-43390D03*
G54D21*
X47960Y-44450D03*
G54D22*
X46960Y-44450D03*
X45960Y-44450D03*
X44960Y-44450D03*
X44960Y-47450D03*
X45960Y-47450D03*
X46960Y-47450D03*
X47960Y-47450D03*
M02*
